<svg width="10175" height="10175" viewBox="0 0 10175 10175" fill="none" xmlns="http://www.w3.org/2000/svg">
<style>
  @media (prefers-color-scheme: dark) {
    [fill="#222222"] { fill: #F5F5F5; }
    [fill="#F5F5F5"] { fill: #222222; }
    [fill="white"] { fill: black; }
  }
</style>
<rect width="10175" height="10175" fill="white"/>
<mask id="mask0_183_2" style="mask-type:alpha" maskUnits="userSpaceOnUse" x="500" y="2101" width="9175" height="5973">
<rect x="500" y="2101" width="9175" height="5973" fill="white"/>
</mask>
<g mask="url(#mask0_183_2)">
<path d="M9449.06 7673.35H9288.25V7177.79L9389.8 7030.92H9267.24V6991.95H9228.34V6869.29H8923.5V6991.95H8699.4V6869.29H8618.67V6991.95H8397.32V6869.29H8316.52V6991.95H8071.61V6869.29H7990.81V6991.95H7729.93V6869.29H7647.2V6991.95H7386.12V6869.29H7305.32V6991.95H7102.14V6869.29H7021.41V6991.95H6737.32V6869.29H6656.59V6991.95H6474.32V6869.29H6390.84V6991.95H6310.1V6949.13H6372.84L6292.04 6905.65V6707.96H6156.36L6190.5 6577.16H5885.66V6265.84C5885.66 6241.7 5864.65 6220.72 5840.54 6220.72C5813.86 6220.72 5792.74 6241.73 5792.74 6265.84V6577.16L5746.9 6577.13V6185.07C5746.9 6148.57 5717.36 6119.1 5680.93 6119.1C5644.43 6119.1 5614.96 6148.46 5614.96 6185.07V6542.44L5566.34 6516.38V6104.41C5566.34 6061.48 5534.06 6029.37 5491.41 6029.37C5448.76 6029.37 5413.7 6061.59 5413.7 6104.41V6434.44L5367.82 6409.75V6066.87C5367.82 6017.05 5326.55 5978.55 5279.5 5978.55C5229.67 5978.55 5188.4 6017.08 5188.4 6066.87V6313.43L5142.63 6288.84V6030.99C5142.63 5979.62 5100.63 5937.52 5049.53 5936.79C5048.6 5936.9 5047.71 5936.9 5046.78 5936.9C4995.96 5937.72 4954.03 5979.92 4954.03 6031.02V6295.4L4906.88 6320.71V6066.69C4906.88 6016.87 4866.88 5978.37 4818.56 5978.37C4770.14 5978.37 4730.31 6016.9 4730.31 6066.69V6415.45L4683.16 6440.76V6104.2C4683.16 6061.27 4648.13 6029.16 4606.75 6029.16C4564 6029.16 4530.35 6061.37 4530.35 6104.2V6523L4483.2 6548.24V6185.17C4483.2 6148.67 4453.84 6119.2 4417.24 6119.2C4380.8 6119.2 4351.27 6148.56 4351.27 6185.17V6577.23H4304.12V6265.91C4304.12 6241.76 4283.11 6220.78 4257.69 6220.78C4232.28 6220.78 4211.27 6241.8 4211.27 6265.91V6577.23H3897.71L3930.64 6708.03H3816.91V6905.79L3736.28 6949.19H3797.37V6992.01H3715.26V6869.35H3634.63V6992.01H3452.26V6869.35H3371.53V6992.01L3087.61 6992.05V6869.39H3005.5V6992.05H2803.58V6869.39H2722.85V6992.05H2458.4V6869.39H2366.03V6992.05H2102.95V6869.39H2022.22V6992.05H1778.58V6869.39H1697.84V6992.05H1475.12V6869.39H1393.01V6992.05H1170.29V6869.39H866.823V6992.05H825.101V7031.02H704.024L805.567 7176.52V7673.39L725.59 7673.36L500.771 8073.96H9674.09L9449.06 7673.35ZM1180.77 7673.36H926.661V7401.75C926.661 7330.57 984.007 7276 1053.72 7276C1123.53 7276 1180.77 7330.56 1180.77 7401.75V7673.36ZM1498.99 7673.36H1246.18V7401.75C1246.18 7330.57 1302.23 7276 1373.24 7276C1443.05 7276 1499.09 7330.56 1499.09 7401.75V7673.36H1498.99ZM1818.31 7673.36H1564.2V7401.75C1564.2 7330.57 1621.55 7276 1691.26 7276C1761.07 7276 1818.31 7330.56 1818.31 7401.75V7673.36ZM2136.44 7673.36H1883.74V7401.75C1883.74 7330.57 1939.68 7276 2010.79 7276C2080.6 7276 2136.47 7330.56 2136.47 7401.75L2136.44 7673.36ZM2455.83 7673.36H2201.65V7401.75C2201.65 7330.57 2259 7276 2328.78 7276C2398.49 7276 2455.83 7330.56 2455.83 7401.75V7673.36ZM2800.29 7673.36H2546.11V7401.75C2546.11 7330.57 2603.46 7276 2673.17 7276C2742.98 7276 2800.29 7330.56 2800.29 7401.75V7673.36ZM3118.24 7673.36H2865.54V7401.75C2865.54 7330.57 2921.48 7276 2992.6 7276C3062.41 7276 3118.28 7330.56 3118.28 7401.75L3118.24 7673.36ZM3437.64 7673.36H3183.45V7401.75C3183.45 7330.57 3240.8 7276 3310.58 7276C3380.39 7276 3437.64 7330.56 3437.64 7401.75V7673.36ZM3755.95 7673.36H3503.05V7401.75C3503.05 7330.57 3559.09 7276 3630.1 7276C3700.02 7276 3755.95 7330.56 3755.95 7401.75V7673.36ZM4162.33 7673.36H3878.25V7315.04C3878.25 7238.63 3941.26 7174.42 4020.24 7174.42C4097.95 7174.42 4162.23 7238.64 4162.23 7315.04V7673.36H4162.33ZM4506.04 7673.36H4222.12V7315.04C4222.12 7238.63 4286.33 7174.42 4364.11 7174.42C4443.09 7174.42 4506.04 7238.64 4506.04 7315.04V7673.36ZM4851.22 7673.36H4567.3V7315.04C4567.3 7238.63 4630.25 7174.42 4709.23 7174.42C4786.94 7174.42 4851.22 7238.64 4851.22 7315.04V7673.36ZM5195.13 7673.36H4912.52V7315.04C4912.52 7238.63 4975.47 7174.42 5054.45 7174.42C5133.54 7174.42 5195.18 7238.64 5195.18 7315.04L5195.13 7673.36ZM5541.69 7673.36H5257.77V7315.04C5257.77 7238.63 5319.24 7174.42 5398.28 7174.42C5477.26 7174.42 5541.58 7238.64 5541.58 7315.04V7673.36H5541.69ZM5885.6 7673.36H5601.68V7315.04C5601.68 7238.63 5665.89 7174.42 5742.19 7174.42C5821.17 7174.42 5885.49 7238.64 5885.49 7315.04V7673.36H5885.6ZM6229.4 7673.36H5945.41L5945.38 7315.04C5945.38 7238.63 6009.59 7174.42 6088.68 7174.42C6165.01 7174.42 6229.3 7238.64 6229.3 7315.04V7673.36H6229.4ZM6605.93 7673.36H6351.75V7401.75C6351.75 7330.57 6409.1 7276 6477.51 7276C6548.52 7276 6605.84 7330.56 6605.84 7401.75L6605.87 7673.36H6605.93ZM6922.68 7673.36H6671.42V7401.75C6671.42 7330.57 6725.98 7276 6797.1 7276C6868.11 7276 6922.68 7330.56 6922.68 7401.75V7673.36ZM7242.11 7673.36H6988V7401.75C6988 7330.57 7045.24 7276 7116.42 7276C7184.76 7276 7242 7330.56 7242 7401.75V7673.36H7242.11ZM7561.6 7673.36H7307.42V7401.75C7307.42 7330.57 7364.84 7276 7435.85 7276C7490.96 7276 7538.69 7311.4 7555.39 7362.22V7400.48H7561.53C7561.53 7400.93 7561.64 7401.41 7561.64 7401.75L7561.6 7673.36ZM7890.81 7673.36H7655.52V7401.75C7639.38 7401.37 7639.38 7400.93 7639.38 7400.48H7657.82V7335C7679.55 7299.21 7718.81 7275.93 7765.13 7275.93C7836.04 7275.93 7890.81 7330.5 7890.81 7401.69L7890.81 7673.36ZM8210.24 7673.36H7956.13V7401.75C7956.13 7330.57 8013.48 7276 8084.56 7276C8152.79 7276 8210.13 7330.56 8210.13 7401.75V7673.36H8210.24ZM8529.63 7673.36H8275.45V7401.75C8275.45 7330.57 8332.87 7276 8403.95 7276C8472.18 7276 8529.53 7330.56 8529.53 7401.75L8529.56 7673.36H8529.63ZM8849.16 7673.36H8594.98V7401.75C8594.98 7330.57 8652.33 7276 8720.74 7276C8791.75 7276 8849.16 7330.56 8849.16 7401.75V7673.36ZM9165.81 7673.36H8914.48V7401.75C8914.48 7330.57 8969.15 7276 9040.23 7276C9111.25 7276 9165.81 7330.56 9165.81 7401.75V7673.36Z" fill="#222222"/>
<path d="M4371.34 5865.22C4418.66 5688.72 4710.48 5551.39 5063.73 5551.39C5418.56 5551.39 5710.24 5688.82 5756.12 5865.22C5761.72 5849.46 5763.2 5833.49 5763.2 5814.4C5763.2 5614.71 5449.92 5449.68 5063.74 5449.68C4677.56 5449.68 4364.38 5614.71 4364.38 5814.4C4364.38 5833.46 4367.22 5849.42 4371.34 5865.22Z" fill="#222222"/>
<path d="M4527.2 5542.07L4546.64 5419.89L4567.55 5479.71V5518.34C4665.42 5466.04 4793.13 5430.2 4936.32 5416.7L4953.22 5318.18L4972.65 5378V5412.69C4962.18 5413.13 4951.64 5413.89 4940.27 5416.46C4980.35 5412.79 5021.62 5410.87 5063.76 5410.87C5255.1 5410.87 5428.31 5449.84 5554.05 5515.43C5546.98 5510.76 5539.39 5506.09 5529.84 5501.59L5541.93 5440.71L5560.1 5500.6V5518.32C5589.83 5534.29 5616.89 5551.63 5640.83 5570.34C5640.11 5325.98 5503.06 5114.73 5304.92 5018.3C5279.89 4945.64 5216.11 4887.3 5135.11 4863.63H5156.4V4800.96H5174.57V4699.32H5107.78L5073.37 4594.66C5097.31 4587.14 5114.54 4565.67 5114.54 4537.86C5114.54 4503.28 5087.93 4478.04 5054.66 4478.04C5019.97 4478.04 4993.46 4503.28 4993.46 4537.86C4993.46 4565.74 5010.7 4587.31 5035.56 4594.66L5000.43 4699.32H4932.2V4800.96H4953.11V4863.63H4975.23C4890.27 4888.49 4824.61 4951.4 4802.33 5028.95C4615.76 5129.77 4487.4 5334.67 4486.78 5570.24C4499.79 5560.04 4514.01 5550.32 4528.78 5540.98C4528.3 5541.43 4527.64 5541.8 4527.2 5542.08L4527.2 5542.07ZM5419.57 5378.03L5440.31 5440.7V5465.56C5428.02 5463.26 5418.47 5461.17 5405.9 5456.29L5419.57 5378.03ZM5297.04 5359.97L5317.95 5419.86V5434.45C5308.68 5433.08 5296.59 5431.87 5287.12 5427.93L5297.04 5359.97ZM5135.58 5318.24L5156.39 5378.06V5412.75C5143.44 5412.3 5130.6 5411.92 5120.44 5411.65L5135.58 5318.24ZM4790.23 5339.16L4811.14 5398.98V5434.48C4797.75 5436.13 4785.73 5440.53 4772.61 5442.38L4790.23 5339.16ZM4669.21 5378.03L4688.68 5440.7V5465.56C4676.77 5470.88 4664.92 5476.48 4651.97 5479.13L4669.21 5378.03Z" fill="#222222"/>
<path d="M5049.91 5937.04C5054.58 5937.04 5059.19 5936.94 5063.85 5936.94C5480.22 5936.94 5828.63 6059.6 5908.61 6220.93C5921.07 6198.37 5924.85 6175.33 5924.85 6149.2C5924.85 5952.98 5541.59 5796.29 5063.86 5796.29C4588.88 5796.29 4202.97 5952.97 4202.97 6149.2C4202.97 6175.33 4208.01 6198.37 4220.48 6220.93C4297.98 6061.87 4638.32 5940.24 5047.17 5937.12C5047.72 5937.12 5048.16 5936.95 5048.71 5936.95C5048.99 5936.95 5049.47 5937.04 5049.91 5937.04Z" fill="#222222"/>
<path d="M4506.28 5775.91V5840.12C4535.37 5828.27 4566.82 5819.66 4597.83 5811.52V5775.84C4597.83 5748.95 4578.19 5730.79 4552.78 5730.79C4527.37 5730.79 4506.28 5749.05 4506.28 5775.91Z" fill="#222222"/>
<path d="M4672.7 5734.15V5792.49C4702.23 5785.9 4732.24 5782.39 4764.24 5776.52V5734.15C4764.24 5710.11 4743.16 5689.09 4717.75 5689.09C4692.3 5689.09 4672.7 5710.11 4672.7 5734.15Z" fill="#222222"/>
<path d="M4837.7 5696.7V5767.89C4867.44 5763.01 4898.89 5761.36 4929.25 5760.09V5696.7C4929.25 5672.66 4909.54 5651.65 4884.19 5651.65C4858.78 5651.58 4837.7 5672.59 4837.7 5696.7Z" fill="#222222"/>
<path d="M5003.94 5675.69V5755.05C5023.3 5754.77 5044.22 5754.5 5063.76 5754.5C5074.5 5754.5 5084.84 5754.67 5095.49 5754.67V5675.69C5095.49 5651.75 5074.47 5630.63 5048.99 5630.63C5023.54 5630.63 5003.94 5651.72 5003.94 5675.69Z" fill="#222222"/>
<path d="M5170.35 5695.21V5756.3C5200.7 5760.07 5230.72 5761.45 5260.35 5763.27V5695.21C5260.35 5668.42 5239.33 5647.41 5215.4 5647.41C5188.48 5647.3 5170.35 5668.32 5170.35 5695.21Z" fill="#222222"/>
<path d="M5333.95 5734.15V5771.13C5367.26 5776.56 5397.24 5782.43 5426.87 5786V5734.15C5426.87 5710.11 5405.78 5689.09 5381.81 5689.09C5354.96 5689.09 5333.95 5710.11 5333.95 5734.15Z" fill="#222222"/>
<path d="M5500.27 5777.4V5804.19C5531.11 5811.81 5563.94 5819.88 5593.19 5828.5V5777.4C5593.19 5753.26 5572.11 5732.35 5545.39 5732.35C5521.18 5732.35 5500.27 5753.3 5500.27 5777.4Z" fill="#222222"/>
<path d="M4567.56 5519.3V5518.37C4554.06 5525.62 4541.22 5533.24 4528.86 5541.11C4540.6 5533.62 4553.82 5526.37 4567.56 5519.3Z" fill="#222222"/>
<path d="M4936.16 5417.24C4937.53 5416.96 4938.91 5416.69 4940.28 5416.31C4938.91 5416.41 4937.63 5416.48 4936.33 5416.58L4936.16 5417.24Z" fill="#222222"/>
<path d="M5560.14 5519.3V5518.37C5558.22 5517.38 5556.09 5516.35 5554.16 5515.46C5556.09 5516.66 5558.22 5518.03 5560.14 5519.3Z" fill="#222222"/>
<path d="M2803.48 6492.76L2551.3 6400.83L2407.79 6603.71L2414.1 6350.98L2143.65 6253.8L2418.66 6168.64L2424.94 5917.52L2558.14 6127.31L2814.64 6046.5L2646.69 6266.37L2803.48 6492.76Z" fill="#F5F5F5"/>
<path d="M2803.48 6492.76L2551.3 6400.83L2407.79 6603.71L2414.1 6350.98L2143.65 6253.8L2418.66 6168.64L2424.94 5917.52L2558.14 6127.31L2814.64 6046.5L2646.69 6266.37L2803.48 6492.76Z" fill="#0A3161" fill-opacity="0.8"/>
<path d="M2903.25 5654.38L2705.09 5473.32L2495.12 5606.25L2597.22 5374.98L2384.17 5182.11L2670.89 5208.12L2772.34 4978.32L2815.59 5223.03L3083.54 5246L2844.5 5385.33L2903.25 5654.38Z" fill="#F5F5F5"/>
<path d="M2903.25 5654.38L2705.09 5473.32L2495.12 5606.25L2597.22 5374.98L2384.17 5182.11L2670.89 5208.12L2772.34 4978.32L2815.59 5223.03L3083.54 5246L2844.5 5385.33L2903.25 5654.38Z" fill="#0A3161" fill-opacity="0.8"/>
<path d="M3313.22 4918.76L3197.01 4676.81L2952.59 4721.7L3133.67 4545.29L3008.06 4286.81L3264.32 4418.01L3444.25 4242.72L3392.98 4485.88L3632.97 4607.26L3359.19 4647.24L3313.22 4918.76Z" fill="#F5F5F5"/>
<path d="M3313.22 4918.76L3197.01 4676.81L2952.59 4721.7L3133.67 4545.29L3008.06 4286.81L3264.32 4418.01L3444.25 4242.72L3392.98 4485.88L3632.97 4607.26L3359.19 4647.24L3313.22 4918.76Z" fill="#B31942" fill-opacity="0.8"/>
<path d="M3969.4 4390.68L3953.93 4122.71L3710.81 4071.29L3945.36 3976.99L3927.48 3690.16L4114.6 3908.96L4347.67 3815.26L4207.79 4020.66L4383.59 4224.17L4115.18 4157.04L3969.4 4390.68Z" fill="#F5F5F5"/>
<path d="M3969.4 4390.68L3953.93 4122.71L3710.81 4071.29L3945.36 3976.99L3927.48 3690.16L4114.6 3908.96L4347.67 3815.26L4207.79 4020.66L4383.59 4224.17L4115.18 4157.04L3969.4 4390.68Z" fill="#B31942" fill-opacity="0.8"/>
<path d="M4785.98 4150.87L4873.06 3896.97L4667.46 3757.37L4920.26 3758.84L5012.24 3486.57L5102.66 3759.9L5353.85 3761.36L5146.65 3898.56L5232.37 4153.46L5009.32 3989.76L4785.98 4150.87Z" fill="#F5F5F5"/>
<path d="M4785.98 4150.87L4873.06 3896.97L4667.46 3757.37L4920.26 3758.84L5012.24 3486.57L5102.66 3759.9L5353.85 3761.36L5146.65 3898.56L5232.37 4153.46L5009.32 3989.76L4785.98 4150.87Z" fill="#732982" fill-opacity="0.8"/>
<path d="M5621.8 4235.23L5799.17 4033.78L5662.41 3826.29L5895.51 3924.12L6084.43 3707.55L6063.7 3994.7L6295.33 4091.9L6051.46 4139.65L6033.42 4407.98L5889.71 4171.55L5621.8 4235.23Z" fill="#F5F5F5"/>
<path d="M5621.8 4235.23L5799.17 4033.78L5662.41 3826.29L5895.51 3924.12L6084.43 3707.55L6063.7 3994.7L6295.33 4091.9L6051.46 4139.65L6033.42 4407.98L5889.71 4171.55L5621.8 4235.23Z" fill="#B31942" fill-opacity="0.8"/>
<path d="M6363.03 4630.34L6602.82 4509.74L6553.48 4266.18L6733.16 4444.01L6989.31 4313.7L6862.8 4572.32L7041.34 4749.02L6797.29 4702.2L6680.31 4944.35L6635.34 4671.36L6363.03 4630.34Z" fill="#F5F5F5"/>
<path d="M6363.03 4630.34L6602.82 4509.74L6553.48 4266.18L6733.16 4444.01L6989.31 4313.7L6862.8 4572.32L7041.34 4749.02L6797.29 4702.2L6680.31 4944.35L6635.34 4671.36L6363.03 4630.34Z" fill="#B31942" fill-opacity="0.8"/>
<path d="M6902.47 5274.16L7170.09 5253.61L7216.9 5009.55L7315.62 5242.28L7602.06 5218.96L7386.86 5410.19L7484.96 5641.45L7276.94 5505.48L7076.8 5685.11L7138.82 5415.48L6902.47 5274.16Z" fill="#F5F5F5"/>
<path d="M6902.47 5274.16L7170.09 5253.61L7216.9 5009.55L7315.62 5242.28L7602.06 5218.96L7386.86 5410.19L7484.96 5641.45L7276.94 5505.48L7076.8 5685.11L7138.82 5415.48L6902.47 5274.16Z" fill="#0A3161" fill-opacity="0.8"/>
<path d="M7159.44 6088.58L7414.65 6171.75L7551.07 5964.03L7553.49 6216.82L7827.14 6304.61L7555.23 6399.21L7557.64 6650.4L7417.27 6445.33L7163.71 6534.96L7323.96 6309.42L7159.44 6088.58Z" fill="#F5F5F5"/>
<path d="M7159.44 6088.58L7414.65 6171.75L7551.07 5964.03L7553.49 6216.82L7827.14 6304.61L7555.23 6399.21L7557.64 6650.4L7417.27 6445.33L7163.71 6534.96L7323.96 6309.42L7159.44 6088.58Z" fill="#0A3161" fill-opacity="0.8"/>
<path d="M1613.85 5796.16L1605.02 5998.47L1129.97 5977.72L1111.92 6391.33L1586.96 6412.07L1578.2 6612.88L508.215 6566.16L516.982 6365.35L948.571 6384.2L966.629 5970.59L535.04 5951.75L543.873 5749.44L1613.85 5796.16Z" fill="#222222"/>
<path d="M931.916 5108.99C960.986 5015.41 1005.2 4950.6 1064.55 4914.59C1122.95 4878.28 1198.47 4874.51 1291.1 4903.28L1812.53 5065.24L1771.15 5198.46L1652.14 5202.34L1650.36 5208.07C1671.53 5237.68 1688.26 5266.43 1700.53 5294.33C1711.86 5321.93 1716.89 5351.24 1715.63 5382.27C1715.32 5413.59 1708.94 5449.3 1696.49 5489.41C1683.14 5532.38 1662.53 5568.39 1634.66 5597.43C1606.79 5626.47 1572.08 5645.53 1530.51 5654.61C1487.99 5663.4 1439.52 5659.33 1385.08 5642.42C1304.86 5617.51 1253.3 5571.13 1230.39 5503.28C1206.53 5435.13 1209.9 5345.08 1240.49 5233.11L1274.9 5107.15L1236.22 5095.14C1186.56 5079.71 1147.97 5079.24 1120.43 5093.73C1092.89 5108.21 1073.49 5133.6 1062.22 5169.89C1051.54 5204.27 1046.44 5240.9 1046.93 5279.8C1047.71 5317.74 1050.55 5355.79 1055.45 5393.96L911.144 5413.54C903.251 5368.16 900.513 5319.66 902.929 5268.06C905.346 5216.45 915.008 5163.43 931.916 5108.99ZM1364.58 5222.97C1346.39 5291.66 1345.55 5343.23 1362.07 5377.69C1377.64 5411.84 1405.96 5435.3 1447.03 5448.05C1483.32 5459.32 1512.4 5458.41 1534.27 5445.31C1556.43 5431.25 1572.26 5408.94 1581.76 5378.38C1595.7 5333.5 1592.76 5290.7 1572.94 5249.99C1552.17 5208.98 1512.18 5179.28 1452.97 5160.89L1387.08 5140.42L1364.58 5222.97Z" fill="#222222"/>
<path d="M2029.5 4687.29C1993.7 4753.2 1949.94 4803.39 1898.2 4837.88C1846.06 4871.01 1786.03 4886.2 1718.11 4883.45C1649.79 4879.33 1573.45 4854.37 1489.09 4808.55C1401.22 4760.81 1337.68 4708.09 1298.47 4650.38C1258.86 4591.31 1239.92 4529.81 1241.64 4465.88C1242.97 4400.59 1261.05 4335.88 1295.89 4271.73C1317.85 4231.31 1342.77 4195.91 1370.65 4165.53C1399.01 4134.28 1425.78 4110.13 1450.97 4093.09L1550.19 4215.26C1527.63 4233.73 1506.4 4252.93 1486.48 4272.83C1466.56 4292.74 1450.16 4314.56 1437.27 4338.28C1417.7 4374.31 1410.26 4408.96 1414.95 4442.23C1419.63 4475.5 1435.97 4508.28 1463.96 4540.55C1491.55 4571.47 1531.71 4601.25 1584.43 4629.89C1635.4 4657.57 1681.35 4674.57 1722.31 4680.88C1763.74 4686.32 1799.68 4681.95 1830.15 4667.77C1859.73 4653.11 1883.83 4628.65 1902.45 4594.38C1921.06 4560.11 1933.41 4525.85 1939.5 4491.6C1946.06 4456.47 1948.15 4421.19 1945.78 4385.76L2089.45 4463.8C2091.35 4500.11 2087.46 4535.55 2077.78 4570.13C2068.99 4605.18 2052.89 4644.23 2029.5 4687.29Z" fill="#222222"/>
<path d="M1828.27 3887.52C1848.24 3904.16 1868.73 3922.53 1889.74 3942.62C1909.97 3962.08 1929.5 3981.6 1948.32 4001.19L1952.16 3996.58C1946.14 3985.06 1940.96 3970.98 1936.6 3954.33C1931.47 3937.05 1927.05 3919.7 1923.34 3902.29C1919.49 3883.47 1916.48 3865.99 1914.3 3849.86L1852.59 3523.18L1996.59 3350.31L2077.15 3802L2632.78 3856.82L2485.89 4033.16L2077.38 3979.85L2080.67 4097.77L2288.12 4270.58L2161.4 4422.71L1285.48 3693.07L1412.21 3540.94L1828.27 3887.52Z" fill="#222222"/>
<path d="M2381.19 3014.13C2436.12 2970.74 2492.49 2945.31 2550.33 2937.85C2608.32 2928.99 2665.35 2937.45 2721.42 2963.25C2776.87 2988.26 2828.77 3031.36 2877.13 3092.56L2936.64 3167.89L2545.9 3476.63C2593.35 3533.45 2643.12 3567.41 2695.21 3578.5C2747.47 3588.19 2798.32 3573.5 2847.75 3534.44C2886.98 3503.45 2918.8 3471.93 2943.2 3439.91C2966.98 3407.1 2989.15 3369.83 3009.7 3328.1L3103.63 3446.97C3085.59 3485.44 3063.28 3520.91 3036.69 3553.39C3010.1 3585.87 2973.26 3620.71 2926.19 3657.91C2866.56 3705.03 2804.29 3735.1 2739.4 3748.14C2674.67 3759.78 2610.15 3751.5 2545.81 3723.31C2481.48 3695.12 2420.8 3644.94 2363.76 3572.75C2306.11 3499.78 2269.52 3429.28 2254 3361.25C2237.86 3292.43 2241.06 3228.73 2263.59 3170.15C2286.28 3110.16 2325.49 3058.15 2381.19 3014.13ZM2470.03 3121.73C2434.72 3149.63 2416.32 3185.2 2414.8 3228.46C2413.46 3270.3 2430.66 3317.88 2466.42 3371.2L2706.51 3181.49C2682.95 3151.68 2657.87 3128.8 2631.26 3112.87C2604.65 3096.93 2577.76 3089.51 2550.57 3090.59C2523.56 3090.27 2496.71 3100.65 2470.03 3121.73Z" fill="#222222"/>
<path d="M3212.84 2496.42C3225.21 2489.86 3238.25 2483.5 3251.97 2477.35C3265.69 2471.21 3277.67 2467.11 3287.91 2465.08L3354.27 2628.54C3344.5 2631.46 3333.2 2635.76 3320.36 2641.44C3307.94 2645.77 3295.1 2651.44 3281.85 2658.48C3259.77 2670.19 3240.47 2686.09 3223.96 2706.18C3206.98 2725.38 3194.55 2747.82 3186.67 2773.51C3178.32 2798.32 3175.65 2826.34 3178.64 2857.58C3182.52 2888.36 3193.83 2921.41 3212.58 2956.74L3410.15 3329.07L3233.92 3422.58L2852.84 2704.43L2988 2632.71L3077.94 2744.61L3087.21 2739.68C3086.87 2707.04 3091.02 2675.4 3099.68 2644.77C3108.74 2612.79 3122.36 2584.05 3140.53 2558.56C3159.59 2532.6 3183.69 2511.89 3212.84 2496.42Z" fill="#222222"/>
<path d="M4147.58 2786.86C4164.49 2838.15 4167.5 2885.59 4156.61 2929.2C4145.4 2971.85 4120.45 3009.56 4081.77 3042.32C4043.08 3075.08 3990.02 3102.58 3922.59 3124.82C3871.31 3141.73 3825.42 3152.65 3784.93 3157.57C3744.43 3162.5 3703.96 3162.69 3663.49 3158.13L3613.23 3005.7C3657.17 3011.22 3703.02 3012.95 3750.78 3010.89C3799.48 3008.52 3841.88 3001.38 3877.97 2989.48C3920.71 2975.39 3949.07 2957.62 3963.05 2936.16C3977.03 2914.7 3979.8 2891.15 3971.34 2865.51C3966.33 2850.31 3957.52 2837.95 3944.9 2828.42C3933.23 2818.58 3912.86 2811.08 3883.78 2805.93C3855.34 2799.51 3814.89 2793.37 3762.41 2787.51C3711.2 2782.29 3667.58 2774.56 3631.57 2764.32C3595.55 2754.08 3565.4 2737.7 3541.13 2715.17C3516.54 2691.69 3497.2 2658.58 3483.1 2615.84C3460.24 2546.51 3469.14 2485.67 3509.78 2433.31C3551.07 2379.68 3614.45 2338.78 3699.92 2310.59C3746.46 2295.25 3791.23 2285.75 3834.25 2282.09C3877.91 2277.18 3923.44 2277.96 3970.86 2284.43L3958.98 2435.24C3932.75 2432.31 3906.5 2430.96 3880.25 2431.19C3854.64 2430.16 3830.13 2430.87 3806.72 2433.32C3784.27 2435.46 3762.59 2439.98 3741.7 2446.87C3708.46 2457.83 3685.32 2472.3 3672.3 2490.28C3658.96 2507.31 3655.9 2526.75 3663.1 2548.6C3668.11 2563.79 3676.92 2576.15 3689.54 2585.68C3701.85 2594.26 3721.91 2600.81 3749.72 2605.32C3777.53 2609.84 3816.41 2614.39 3866.36 2618.98C3915.69 2621.67 3958.83 2627.98 3995.8 2637.9C4032.45 2646.88 4063.07 2663.1 4087.66 2686.58C4113.2 2709.75 4133.18 2743.18 4147.58 2786.86Z" fill="#222222"/>
<path d="M5306.05 2511.85C5307.86 2579.83 5300.96 2640.03 5285.35 2692.47C5269.73 2744.9 5245.93 2790.05 5213.92 2827.92C5182.89 2864.75 5144.64 2893.28 5099.16 2913.5C5053.65 2932.72 5002.41 2943.08 4945.43 2944.6C4892.45 2946.01 4842.73 2938.33 4796.27 2921.56C4750.78 2903.76 4711.06 2877.31 4677.11 2842.2C4644.14 2806.07 4617.97 2762.25 4598.59 2710.74C4579.21 2659.24 4568.62 2599.5 4566.81 2531.53C4564.42 2441.56 4576.89 2365.2 4604.23 2302.45C4632.54 2238.67 4674.26 2190.05 4729.39 2156.57C4784.49 2122.09 4850.53 2103.83 4927.5 2101.78C4999.48 2099.86 5063.4 2114.67 5119.25 2146.19C5175.09 2176.72 5219.33 2223.06 5252 2285.21C5285.64 2346.34 5303.65 2421.88 5306.05 2511.85ZM4769.24 2526.14C4770.75 2583.12 4778.06 2631.94 4791.14 2672.61C4804.2 2712.27 4823.01 2742.28 4847.56 2762.64C4873.11 2782.97 4905.37 2792.61 4944.36 2791.57C4983.35 2790.54 5014.56 2779.2 5037.99 2757.57C5062.42 2735.91 5079.6 2704.95 5089.54 2664.67C5100.44 2623.36 5105.14 2574.22 5103.62 2517.24C5102.08 2459.26 5094.79 2410.94 5081.76 2372.27C5068.7 2332.6 5049.4 2303.11 5023.88 2283.78C4999.33 2263.42 4967.56 2253.77 4928.58 2254.8C4869.6 2256.37 4827.72 2280.5 4802.96 2327.17C4778.19 2373.85 4766.95 2440.17 4769.24 2526.14Z" fill="#222222"/>
<path d="M5956.09 2200.13C6039.41 2216.96 6100.42 2253.26 6139.15 2309.04C6177.87 2364.81 6186.83 2444.16 6166.03 2547.08L6061.16 3066.09L5865.61 3026.58L5963.06 2544.32C5975.14 2484.53 5973.86 2437.85 5959.22 2404.29C5944.77 2369.74 5915.5 2348.01 5871.39 2339.1C5805.71 2325.83 5756.36 2340.35 5723.33 2382.64C5690.5 2423.96 5665.17 2488.72 5647.34 2576.94L5568.62 2966.57L5373.07 2927.05L5534.09 2130.16L5684.06 2160.46L5690.9 2270.5L5698.25 2271.98C5721.44 2248.1 5746.58 2229.72 5773.67 2216.83C5800.76 2203.94 5829.8 2196.54 5860.79 2194.64C5891.98 2191.76 5923.74 2193.59 5956.09 2200.13Z" fill="#222222"/>
<path d="M6801.08 3254.1C6820.57 3264.32 6840.1 3272.3 6859.67 3278.04C6880.59 3283.37 6900.41 3287.55 6919.14 3290.6L6853.66 3415.47C6830.88 3413.69 6804.82 3408.49 6775.46 3399.88C6745.64 3392.14 6714.35 3379.69 6681.58 3362.51C6640.84 3341.15 6608.01 3315.46 6583.09 3285.46C6558.64 3254.58 6545.94 3217.43 6544.98 3174.02C6544.92 3131.08 6560.67 3079.5 6592.25 3019.27L6788.67 2644.65L6698.34 2597.28L6736.65 2524.22L6868.26 2518.7L7001.5 2393.79L7113.09 2452.3L7030.2 2610.39L7216.19 2707.9L7150.02 2834.11L6964.03 2736.59L6768.3 3109.89C6750.66 3143.54 6744.95 3172.73 6751.18 3197.45C6758.77 3221.75 6775.4 3240.64 6801.08 3254.1Z" fill="#222222"/>
<path d="M7597.48 2899.87C7577.63 2924.97 7556.91 2948.74 7535.33 2971.2C7515.15 2993.49 7499.63 3009.9 7488.76 3020.42L7498.17 3027.87C7528.09 3015.83 7556.95 3009.96 7584.75 3010.28C7613.95 3010.42 7642.33 3015.65 7669.87 3025.96C7698.2 3036.89 7724.53 3051.97 7748.84 3071.2C7793.55 3106.55 7825.47 3145.18 7844.61 3187.09C7863.74 3228.99 7868.68 3274.33 7859.43 3323.11C7850.8 3371.1 7824.77 3422.56 7781.35 3477.46L7452.91 3892.79L7296.43 3769.04L7601.61 3383.13C7640.07 3334.5 7660.36 3291.9 7662.5 3255.35C7664.64 3218.79 7648.06 3186.55 7612.76 3158.64C7579.03 3131.97 7545.15 3119.2 7511.11 3120.33C7477.69 3120.67 7444.03 3134.21 7410.13 3160.96C7376.86 3186.91 7341.61 3223.42 7304.39 3270.48L7058.76 3581.1L6902.28 3457.35L7609.4 2563.16L7765.88 2686.91L7597.48 2899.87Z" fill="#222222"/>
<path d="M8365.26 3691.21C8409.46 3745.49 8435.71 3801.49 8444.01 3859.21C8453.73 3917.07 8446.1 3974.22 8421.12 4030.66C8396.93 4086.46 8354.58 4138.99 8294.1 4188.24L8219.65 4248.85L7905.22 3862.67C7849.1 3910.94 7815.88 3961.2 7805.55 4013.46C7796.63 4065.85 7812.06 4116.48 7851.83 4165.33C7883.4 4204.11 7915.38 4235.46 7947.76 4259.39C7980.91 4282.69 8018.5 4304.31 8060.53 4324.25L7943.04 4419.9C7904.32 4402.43 7868.52 4380.64 7835.66 4354.53C7802.79 4328.41 7767.41 4292.09 7729.53 4245.57C7681.55 4186.63 7650.56 4124.82 7636.57 4060.12C7623.99 3995.57 7631.33 3930.93 7658.57 3866.19C7685.81 3801.45 7735.11 3740.04 7806.45 3681.96C7878.57 3623.24 7948.53 3585.62 8016.32 3569.11C8084.89 3551.97 8148.64 3554.23 8207.55 3575.9C8267.86 3597.72 8320.43 3636.15 8365.26 3691.21ZM8258.98 3781.62C8230.57 3746.72 8194.72 3728.83 8151.46 3727.95C8109.59 3727.22 8062.27 3745.12 8009.48 3781.65L8202.68 4018.95C8232.15 3994.95 8254.66 3969.54 8270.2 3942.7C8285.74 3915.86 8292.77 3888.86 8291.29 3861.69C8291.22 3834.67 8280.44 3807.98 8258.98 3781.62Z" fill="#222222"/>
<path d="M8420.9 5574.34L8350.96 5384.31L8797.2 5220.08L8654.21 4831.55L8207.97 4995.78L8138.55 4807.15L9143.65 4437.25L9213.07 4625.88L8807.65 4775.08L8950.64 5163.61L9356.05 5014.41L9425.99 5204.45L8420.9 5574.34Z" fill="#222222"/>
<path d="M9264.11 5779.9L8462.21 5913.8L8429.6 5718.51L9231.5 5584.6L9264.11 5779.9ZM9557.27 5632.1C9562.04 5660.7 9558.76 5686.6 9547.43 5709.78C9537.08 5732.8 9513.65 5747.36 9477.16 5753.45C9441.65 5759.38 9414.28 5753.3 9395.04 5735.23C9376.78 5716.98 9365.27 5693.56 9360.49 5664.96C9355.38 5634.38 9358.5 5607.5 9369.84 5584.32C9382.16 5560.97 9406.08 5546.33 9441.58 5540.4C9478.08 5534.31 9504.96 5540.46 9522.23 5558.87C9540.48 5577.11 9552.16 5601.52 9557.27 5632.1Z" fill="#222222"/>
<path d="M8503.76 6318.6L8482.91 6120.19L9616.66 6001.03L9637.52 6199.44L8503.76 6318.6Z" fill="#222222"/>
<path d="M8518.59 6650.14L8509.89 6450.83L9648.8 6401.1L9657.51 6600.41L8518.59 6650.14Z" fill="#222222"/>
</g>
</svg>
