<svg width="12500" height="12500" viewBox="0 0 12500 12500" fill="none" xmlns="http://www.w3.org/2000/svg">
<mask id="mask0_40_24" style="mask-type:alpha" maskUnits="userSpaceOnUse" x="0" y="0" width="12500" height="12500">
<circle cx="6250" cy="6250" r="6250" fill="#D9D9D9"/>
</mask>
<g mask="url(#mask0_40_24)">
<circle cx="6250" cy="6250" r="6250" fill="white"/>
<g clip-path="url(#clip0_40_24)">
<path d="M2926.44 7767.4C2926.44 7882.49 2833.12 7975.8 2718.03 7975.8H2675.74V8277.02L2676.72 8277.17C2682.63 8258.88 2689.32 8242.36 2697.03 8228.56L2697.78 8227.23C2739.48 8154.25 2796.76 8122.99 2843.6 8109.96C2867.03 8103.44 2887.85 8101.49 2902.82 8101.16C2910.3 8101 2916.31 8101.24 2920.45 8101.53C2922.53 8101.67 2924.13 8101.82 2925.21 8101.94C2925.25 8101.94 2925.28 8101.95 2925.32 8101.95C2811.18 8164.98 2759.28 8289.94 2735.92 8399.23C2724.18 8454.1 2719.64 8505.05 2718.03 8542.28C2717.22 8560.9 2717.15 8576.09 2717.27 8586.62C2717.34 8591.89 2717.45 8595.99 2717.55 8598.78C2717.6 8600.18 2717.65 8601.24 2717.68 8601.96C2717.69 8602.18 2717.7 8602.36 2717.71 8602.52H2551.22C2551.23 8602.36 2551.24 8602.18 2551.25 8601.96C2551.28 8601.24 2551.33 8600.18 2551.38 8598.78C2551.47 8595.99 2551.59 8591.89 2551.65 8586.62C2551.78 8576.09 2551.71 8560.9 2550.9 8542.28C2549.29 8505.05 2544.75 8454.1 2533.01 8399.23C2509.65 8289.94 2457.75 8164.98 2343.61 8101.95C2343.64 8101.95 2343.68 8101.94 2343.71 8101.94C2344.8 8101.82 2346.4 8101.67 2348.47 8101.53C2352.61 8101.24 2358.63 8101 2366.11 8101.16C2381.07 8101.49 2401.9 8103.44 2425.32 8109.95C2472.17 8122.98 2529.44 8154.24 2571.15 8227.23V8227.23C2579.17 8241.29 2586.16 8258.29 2592.21 8277.17L2593.19 8277.02V7725.62C2593.19 7541.43 2742.31 7392.14 2926.44 7391.87V7767.4Z" fill="#FF6600" stroke="#2B2B2B"/>
<path d="M2342.5 7391.87C2451.36 7392.03 2547.75 7444.54 2608.58 7525.41C2571.93 7583.49 2550.4 7652 2550.4 7725.62V7975.8C2435.54 7975.53 2342.5 7882.33 2342.5 7767.4V7391.87Z" fill="#FF6600" stroke="#2B2B2B"/>
<path d="M2634.8 7267.05C2635.22 7267.46 2635.84 7268.07 2636.64 7268.87C2638.25 7270.48 2640.6 7272.88 2643.57 7276.01C2649.51 7282.27 2657.92 7291.47 2667.8 7303.26C2687.49 7326.74 2713.02 7360.44 2736.46 7401.42C2697.39 7424.45 2662.74 7454.11 2634.36 7489.17C2605.42 7453.33 2571.03 7423.67 2532.78 7401C2556.22 7360.13 2581.7 7326.53 2601.34 7303.13C2611.19 7291.38 2619.58 7282.21 2625.5 7275.97C2628.45 7272.85 2630.8 7270.47 2632.4 7268.86C2633.2 7268.06 2633.82 7267.45 2634.23 7267.05C2634.34 7266.94 2634.44 7266.85 2634.52 7266.77C2634.6 7266.85 2634.69 7266.94 2634.8 7267.05Z" fill="#FF6600" stroke="#2B2B2B"/>
</g>
<g clip-path="url(#clip1_40_24)">
<path d="M2278.46 7767.37C2278.46 7882.46 2185.15 7975.78 2070.05 7975.78H2027.76V8276.99L2028.74 8277.15C2034.65 8258.85 2041.35 8242.33 2049.05 8228.53L2049.8 8227.21C2091.5 8154.22 2148.78 8122.96 2195.63 8109.93C2219.05 8103.42 2239.88 8101.46 2254.84 8101.14C2262.32 8100.97 2268.33 8101.22 2272.48 8101.5C2274.55 8101.64 2276.15 8101.8 2277.24 8101.91C2277.27 8101.92 2277.31 8101.92 2277.34 8101.93C2163.2 8164.95 2111.31 8289.92 2087.94 8399.2C2076.21 8454.07 2071.66 8505.03 2070.05 8542.26C2069.24 8560.87 2069.17 8576.06 2069.3 8586.59C2069.36 8591.86 2069.48 8595.97 2069.57 8598.75C2069.62 8600.15 2069.67 8601.21 2069.7 8601.93C2069.71 8602.15 2069.72 8602.34 2069.73 8602.49H1903.24C1903.25 8602.34 1903.26 8602.15 1903.27 8601.93C1903.3 8601.21 1903.35 8600.15 1903.4 8598.75C1903.5 8595.97 1903.61 8591.86 1903.68 8586.59C1903.81 8576.06 1903.73 8560.87 1902.93 8542.26C1901.31 8505.03 1896.77 8454.07 1885.04 8399.2C1861.67 8289.92 1809.78 8164.95 1695.63 8101.93C1695.66 8101.92 1695.7 8101.92 1695.74 8101.91C1696.82 8101.8 1698.42 8101.64 1700.5 8101.5C1704.64 8101.22 1710.65 8100.97 1718.13 8101.13C1733.1 8101.46 1753.92 8103.41 1777.35 8109.93C1824.19 8122.95 1881.47 8154.22 1923.17 8227.21V8227.21C1931.19 8241.27 1938.18 8258.26 1944.23 8277.14L1945.21 8276.99V7725.59C1945.21 7541.4 2094.34 7392.11 2278.46 7391.84V7767.37Z" fill="#FF6600" stroke="#2B2B2B"/>
<path d="M1694.52 7391.84C1803.39 7392 1899.77 7444.51 1960.6 7525.38C1923.95 7583.46 1902.43 7651.98 1902.43 7725.59V7975.78C1787.57 7975.51 1694.52 7882.3 1694.52 7767.37V7391.84Z" fill="#FF6600" stroke="#2B2B2B"/>
<path d="M1986.83 7267.02C1987.24 7267.43 1987.86 7268.04 1988.67 7268.85C1990.28 7270.46 1992.63 7272.85 1995.6 7275.98C2001.54 7282.24 2009.95 7291.45 2019.83 7303.23C2039.52 7326.71 2065.04 7360.42 2088.49 7401.4C2049.41 7424.42 2014.77 7454.08 1986.39 7489.15C1957.45 7453.31 1923.06 7423.65 1884.8 7400.98C1908.25 7360.1 1933.72 7326.5 1953.36 7303.1C1963.22 7291.36 1971.6 7282.18 1977.52 7275.94C1980.48 7272.83 1982.82 7270.44 1984.42 7268.84C1985.23 7268.04 1985.84 7267.43 1986.26 7267.02C1986.37 7266.92 1986.46 7266.82 1986.54 7266.75C1986.62 7266.82 1986.72 7266.92 1986.83 7267.02Z" fill="#FF6600" stroke="#2B2B2B"/>
</g>
<g clip-path="url(#clip2_40_24)">
<path d="M1630.47 7767.37C1630.47 7882.46 1537.16 7975.77 1422.06 7975.77H1379.77V8276.99L1380.75 8277.14C1386.66 8258.84 1393.35 8242.33 1401.06 8228.53L1401.81 8227.2C1443.51 8154.22 1500.79 8122.95 1547.63 8109.92C1571.06 8103.41 1591.88 8101.45 1606.85 8101.13C1614.33 8100.97 1620.34 8101.21 1624.49 8101.5C1626.56 8101.64 1628.16 8101.79 1629.24 8101.91C1629.28 8101.91 1629.32 8101.92 1629.35 8101.92C1515.21 8164.94 1463.31 8289.91 1439.95 8399.2C1428.22 8454.07 1423.67 8505.02 1422.06 8542.25C1421.25 8560.86 1421.18 8576.05 1421.31 8586.59C1421.37 8591.86 1421.48 8595.96 1421.58 8598.75C1421.63 8600.14 1421.68 8601.21 1421.71 8601.92C1421.72 8602.14 1421.73 8602.33 1421.74 8602.48H1255.25C1255.26 8602.33 1255.27 8602.14 1255.28 8601.92C1255.31 8601.21 1255.36 8600.14 1255.41 8598.75C1255.5 8595.96 1255.62 8591.86 1255.68 8586.59C1255.81 8576.05 1255.74 8560.86 1254.93 8542.25C1253.32 8505.02 1248.78 8454.07 1237.05 8399.2C1213.68 8289.91 1161.78 8164.94 1047.64 8101.92C1047.67 8101.92 1047.71 8101.91 1047.75 8101.91C1048.83 8101.79 1050.43 8101.64 1052.5 8101.5C1056.65 8101.21 1062.66 8100.97 1070.14 8101.13C1085.11 8101.45 1105.93 8103.41 1129.35 8109.92C1176.2 8122.95 1233.48 8154.21 1275.18 8227.2V8227.2C1283.2 8241.26 1290.19 8258.25 1296.24 8277.14L1297.22 8276.99V7725.58C1297.22 7541.4 1446.34 7392.1 1630.47 7391.83V7767.37Z" fill="#FF6600" stroke="#2B2B2B"/>
<path d="M1046.53 7391.83C1155.39 7392 1251.78 7444.51 1312.61 7525.37C1275.96 7583.46 1254.44 7651.97 1254.44 7725.58V7975.77C1139.57 7975.5 1046.53 7882.29 1046.53 7767.37V7391.83Z" fill="#FF6600" stroke="#2B2B2B"/>
<path d="M1338.83 7267.02C1339.25 7267.43 1339.87 7268.04 1340.67 7268.84C1342.28 7270.45 1344.64 7272.84 1347.6 7275.97C1353.54 7282.23 1361.95 7291.44 1371.83 7303.22C1391.52 7326.7 1417.05 7360.41 1440.49 7401.39C1401.42 7424.41 1366.77 7454.07 1338.39 7489.14C1309.45 7453.3 1275.07 7423.64 1236.81 7400.97C1260.25 7360.09 1285.73 7326.5 1305.37 7303.09C1315.22 7291.35 1323.61 7282.18 1329.53 7275.94C1332.49 7272.82 1334.83 7270.43 1336.43 7268.83C1337.23 7268.03 1337.85 7267.42 1338.27 7267.02C1338.37 7266.91 1338.47 7266.82 1338.55 7266.74C1338.63 7266.82 1338.73 7266.91 1338.83 7267.02Z" fill="#FF6600" stroke="#2B2B2B"/>
</g>
<g clip-path="url(#clip3_40_24)">
<path d="M3250.44 8606.6C3250.44 8721.7 3157.12 8815.01 3042.03 8815.01H2999.74V9116.22L3000.72 9116.38C3006.63 9098.08 3013.32 9081.56 3021.03 9067.77L3021.78 9066.44C3063.48 8993.45 3120.76 8962.19 3167.6 8949.16C3191.03 8942.65 3211.85 8940.69 3226.82 8940.37C3234.3 8940.2 3240.31 8940.45 3244.45 8940.73C3246.53 8940.88 3248.13 8941.03 3249.21 8941.15C3249.25 8941.15 3249.28 8941.15 3249.32 8941.16C3135.18 9004.18 3083.28 9129.15 3059.92 9238.43C3048.18 9293.31 3043.64 9344.26 3042.03 9381.49C3041.22 9400.1 3041.15 9415.29 3041.27 9425.83C3041.34 9431.09 3041.45 9435.2 3041.55 9437.99C3041.6 9439.38 3041.65 9440.45 3041.68 9441.16C3041.69 9441.38 3041.7 9441.57 3041.71 9441.72H2875.22C2875.23 9441.57 2875.24 9441.38 2875.25 9441.16C2875.28 9440.45 2875.33 9439.38 2875.38 9437.99C2875.47 9435.2 2875.59 9431.09 2875.65 9425.83C2875.78 9415.29 2875.71 9400.1 2874.9 9381.49C2873.29 9344.26 2868.75 9293.31 2857.01 9238.43C2833.65 9129.15 2781.75 9004.18 2667.61 8941.16C2667.64 8941.15 2667.68 8941.15 2667.71 8941.15C2668.8 8941.03 2670.4 8940.88 2672.47 8940.73C2676.61 8940.45 2682.63 8940.2 2690.11 8940.37C2705.07 8940.69 2725.9 8942.64 2749.32 8949.16C2796.17 8962.18 2853.44 8993.45 2895.15 9066.44V9066.44C2903.17 9080.5 2910.16 9097.49 2916.21 9116.38L2917.19 9116.22V8564.82C2917.19 8380.64 3066.31 8231.34 3250.44 8231.07V8606.6Z" fill="#FF6600" stroke="#2B2B2B"/>
<path d="M2666.5 8231.07C2775.36 8231.23 2871.75 8283.74 2932.58 8364.61C2895.93 8422.69 2874.4 8491.21 2874.4 8564.82V8815.01C2759.54 8814.74 2666.5 8721.53 2666.5 8606.6V8231.07Z" fill="#FF6600" stroke="#2B2B2B"/>
<path d="M2958.8 8106.26C2959.22 8106.66 2959.84 8107.27 2960.64 8108.08C2962.25 8109.69 2964.6 8112.08 2967.57 8115.21C2973.51 8121.47 2981.92 8130.68 2991.8 8142.46C3011.49 8165.94 3037.02 8199.65 3060.46 8240.63C3021.39 8263.65 2986.74 8293.31 2958.36 8328.38C2929.42 8292.54 2895.03 8262.88 2856.78 8240.21C2880.22 8199.33 2905.7 8165.73 2925.34 8142.33C2935.19 8130.59 2943.58 8121.41 2949.5 8115.18C2952.45 8112.06 2954.8 8109.67 2956.4 8108.07C2957.2 8107.27 2957.82 8106.66 2958.23 8106.25C2958.34 8106.15 2958.44 8106.06 2958.52 8105.98C2958.6 8106.06 2958.69 8106.15 2958.8 8106.26Z" fill="#FF6600" stroke="#2B2B2B"/>
</g>
<g clip-path="url(#clip4_40_24)">
<path d="M2602.46 8606.58C2602.46 8721.67 2509.15 8814.98 2394.05 8814.98H2351.76V9116.2L2352.74 9116.35C2358.65 9098.06 2365.35 9081.54 2373.05 9067.74L2373.8 9066.41C2415.5 8993.43 2472.78 8962.16 2519.63 8949.14C2543.05 8942.62 2563.88 8940.67 2578.84 8940.34C2586.32 8940.18 2592.33 8940.42 2596.48 8940.71C2598.55 8940.85 2600.15 8941 2601.24 8941.12C2601.27 8941.12 2601.31 8941.13 2601.34 8941.13C2487.2 9004.16 2435.31 9129.12 2411.94 9238.41C2400.21 9293.28 2395.66 9344.23 2394.05 9381.46C2393.24 9400.08 2393.17 9415.27 2393.3 9425.8C2393.36 9431.07 2393.48 9435.17 2393.57 9437.96C2393.62 9439.35 2393.67 9440.42 2393.7 9441.14C2393.71 9441.36 2393.72 9441.54 2393.73 9441.7H2227.24C2227.25 9441.54 2227.26 9441.36 2227.27 9441.14C2227.3 9440.42 2227.35 9439.35 2227.4 9437.96C2227.5 9435.17 2227.61 9431.07 2227.68 9425.8C2227.81 9415.27 2227.73 9400.08 2226.93 9381.46C2225.31 9344.23 2220.77 9293.28 2209.04 9238.41C2185.67 9129.12 2133.78 9004.15 2019.63 8941.13C2019.66 8941.13 2019.7 8941.12 2019.74 8941.12C2020.82 8941 2022.42 8940.85 2024.5 8940.71C2028.64 8940.42 2034.65 8940.18 2042.13 8940.34C2057.1 8940.67 2077.92 8942.62 2101.35 8949.13C2148.19 8962.16 2205.47 8993.42 2247.17 9066.41V9066.41C2255.19 9080.47 2262.18 9097.46 2268.23 9116.35L2269.21 9116.2V8564.8C2269.21 8380.61 2418.34 8231.32 2602.46 8231.05V8606.58Z" fill="#FF6600" stroke="#2B2B2B"/>
<path d="M2018.52 8231.05C2127.39 8231.21 2223.77 8283.72 2284.6 8364.58C2247.95 8422.67 2226.43 8491.18 2226.43 8564.8V8814.98C2111.57 8814.71 2018.52 8721.51 2018.52 8606.58V8231.05Z" fill="#FF6600" stroke="#2B2B2B"/>
<path d="M2310.83 8106.23C2311.24 8106.64 2311.86 8107.25 2312.67 8108.05C2314.28 8109.66 2316.63 8112.06 2319.6 8115.19C2325.54 8121.45 2333.95 8130.65 2343.83 8142.44C2363.52 8165.92 2389.04 8199.62 2412.49 8240.6C2373.41 8263.63 2338.77 8293.29 2310.39 8328.35C2281.45 8292.51 2247.06 8262.85 2208.8 8240.18C2232.25 8199.31 2257.72 8165.71 2277.36 8142.3C2287.22 8130.56 2295.6 8121.39 2301.52 8115.15C2304.48 8112.03 2306.82 8109.65 2308.42 8108.04C2309.23 8107.24 2309.84 8106.63 2310.26 8106.23C2310.37 8106.12 2310.46 8106.03 2310.54 8105.95C2310.62 8106.03 2310.72 8106.12 2310.83 8106.23Z" fill="#FF6600" stroke="#2B2B2B"/>
</g>
<g clip-path="url(#clip5_40_24)">
<path d="M1954.46 8606.57C1954.46 8721.66 1861.15 8814.98 1746.05 8814.98H1703.76V9116.19L1704.74 9116.34C1710.65 9098.05 1717.35 9081.53 1725.05 9067.73L1725.8 9066.41C1767.5 8993.42 1824.78 8962.16 1871.63 8949.13C1895.05 8942.62 1915.88 8940.66 1930.84 8940.33C1938.32 8940.17 1944.33 8940.42 1948.48 8940.7C1950.55 8940.84 1952.15 8941 1953.24 8941.11C1953.27 8941.12 1953.31 8941.12 1953.34 8941.12C1839.2 9004.15 1787.31 9129.12 1763.94 9238.4C1752.21 9293.27 1747.66 9344.22 1746.05 9381.45C1745.24 9400.07 1745.17 9415.26 1745.3 9425.79C1745.36 9431.06 1745.48 9435.17 1745.57 9437.95C1745.62 9439.35 1745.67 9440.41 1745.7 9441.13C1745.71 9441.35 1745.72 9441.54 1745.73 9441.69H1579.24C1579.25 9441.54 1579.26 9441.35 1579.27 9441.13C1579.3 9440.41 1579.35 9439.35 1579.4 9437.95C1579.5 9435.17 1579.61 9431.06 1579.68 9425.79C1579.81 9415.26 1579.73 9400.07 1578.93 9381.45C1577.31 9344.22 1572.77 9293.27 1561.04 9238.4C1537.67 9129.11 1485.78 9004.15 1371.63 8941.12C1371.66 8941.12 1371.7 8941.12 1371.74 8941.11C1372.82 8941 1374.42 8940.84 1376.5 8940.7C1380.64 8940.42 1386.65 8940.17 1394.13 8940.33C1409.1 8940.66 1429.92 8942.61 1453.35 8949.13C1500.19 8962.15 1557.47 8993.42 1599.17 9066.4V9066.41C1607.19 9080.47 1614.18 9097.46 1620.23 9116.34L1621.21 9116.19V8564.79C1621.21 8380.6 1770.34 8231.31 1954.46 8231.04V8606.57Z" fill="#FF6600" stroke="#2B2B2B"/>
<path d="M1370.52 8231.04C1479.39 8231.2 1575.77 8283.71 1636.6 8364.58C1599.95 8422.66 1578.43 8491.17 1578.43 8564.79V8814.98C1463.57 8814.7 1370.52 8721.5 1370.52 8606.57V8231.04Z" fill="#FF6600" stroke="#2B2B2B"/>
<path d="M1662.83 8106.22C1663.24 8106.63 1663.86 8107.24 1664.67 8108.05C1666.28 8109.66 1668.63 8112.05 1671.6 8115.18C1677.54 8121.44 1685.95 8130.65 1695.83 8142.43C1715.52 8165.91 1741.04 8199.61 1764.49 8240.6C1725.41 8263.62 1690.77 8293.28 1662.39 8328.35C1633.45 8292.51 1599.06 8262.84 1560.8 8240.17C1584.25 8199.3 1609.72 8165.7 1629.36 8142.3C1639.22 8130.56 1647.6 8121.38 1653.52 8115.14C1656.48 8112.02 1658.82 8109.64 1660.42 8108.04C1661.23 8107.23 1661.84 8106.63 1662.26 8106.22C1662.37 8106.12 1662.46 8106.02 1662.54 8105.94C1662.62 8106.02 1662.72 8106.12 1662.83 8106.22Z" fill="#FF6600" stroke="#2B2B2B"/>
</g>
<g clip-path="url(#clip6_40_24)">
<path d="M11453.5 7767.44C11453.5 7882.53 11360.2 7975.85 11245.1 7975.85H11202.8V8277.06L11203.8 8277.21C11209.7 8258.92 11216.4 8242.4 11224.1 8228.6L11224.8 8227.28C11266.5 8154.29 11323.8 8123.03 11370.6 8110C11394.1 8103.49 11414.9 8101.53 11429.9 8101.2C11437.3 8101.04 11443.4 8101.29 11447.5 8101.57C11449.6 8101.71 11451.2 8101.87 11452.3 8101.98C11452.3 8101.99 11452.3 8101.99 11452.4 8101.99C11338.2 8165.02 11286.3 8289.99 11263 8399.27C11251.2 8454.14 11246.7 8505.09 11245.1 8542.32C11244.3 8560.94 11244.2 8576.13 11244.3 8586.66C11244.4 8591.93 11244.5 8596.04 11244.6 8598.82C11244.6 8600.22 11244.7 8601.28 11244.7 8602C11244.7 8602.22 11244.7 8602.41 11244.7 8602.56H11078.3C11078.3 8602.41 11078.3 8602.22 11078.3 8602C11078.3 8601.28 11078.4 8600.22 11078.4 8598.82C11078.5 8596.04 11078.6 8591.93 11078.7 8586.66C11078.8 8576.13 11078.7 8560.94 11077.9 8542.32C11076.3 8505.09 11071.8 8454.14 11060.1 8399.27C11036.7 8289.98 10984.8 8165.02 10870.6 8101.99C10870.7 8101.99 10870.7 8101.99 10870.8 8101.98C10871.8 8101.87 10873.4 8101.71 10875.5 8101.57C10879.7 8101.29 10885.7 8101.04 10893.2 8101.2C10908.1 8101.53 10928.9 8103.48 10952.4 8110C10999.2 8123.02 11056.5 8154.29 11098.2 8227.27V8227.28C11106.2 8241.34 11113.2 8258.33 11119.2 8277.21L11120.2 8277.06V7725.66C11120.2 7541.47 11269.4 7392.18 11453.5 7391.91V7767.44Z" fill="#FF6600" stroke="#2B2B2B"/>
<path d="M10869.5 7391.91C10978.4 7392.07 11074.8 7444.58 11135.6 7525.45C11099 7583.53 11077.4 7652.04 11077.4 7725.66V7975.85C10962.6 7975.57 10869.5 7882.37 10869.5 7767.44V7391.91Z" fill="#FF6600" stroke="#2B2B2B"/>
<path d="M11161.8 7267.09C11162.3 7267.5 11162.9 7268.11 11163.7 7268.92C11165.3 7270.53 11167.6 7272.92 11170.6 7276.05C11176.6 7282.31 11185 7291.52 11194.8 7303.3C11214.5 7326.78 11240.1 7360.48 11263.5 7401.47C11224.4 7424.49 11189.8 7454.15 11161.4 7489.22C11132.5 7453.38 11098.1 7423.71 11059.8 7401.04C11083.3 7360.17 11108.7 7326.57 11128.4 7303.17C11138.2 7291.43 11146.6 7282.25 11152.5 7276.01C11155.5 7272.89 11157.8 7270.51 11159.4 7268.91C11160.2 7268.1 11160.9 7267.5 11161.3 7267.09C11161.4 7266.99 11161.5 7266.89 11161.6 7266.81C11161.6 7266.89 11161.7 7266.99 11161.8 7267.09Z" fill="#FF6600" stroke="#2B2B2B"/>
</g>
<g clip-path="url(#clip7_40_24)">
<path d="M10805.5 7767.41C10805.5 7882.51 10712.2 7975.82 10597.1 7975.82H10554.8V8277.03L10555.8 8277.19C10561.7 8258.89 10568.4 8242.37 10576.1 8228.58L10576.8 8227.25C10618.5 8154.27 10675.8 8123 10722.6 8109.97C10746.1 8103.46 10766.9 8101.5 10781.9 8101.18C10789.3 8101.02 10795.4 8101.26 10799.5 8101.54C10801.6 8101.69 10803.2 8101.84 10804.3 8101.96C10804.3 8101.96 10804.3 8101.96 10804.4 8101.97C10690.2 8164.99 10638.3 8289.96 10615 8399.24C10603.2 8454.12 10598.7 8505.07 10597.1 8542.3C10596.3 8560.91 10596.2 8576.1 10596.3 8586.64C10596.4 8591.9 10596.5 8596.01 10596.6 8598.8C10596.6 8600.19 10596.7 8601.26 10596.7 8601.97C10596.7 8602.19 10596.7 8602.38 10596.7 8602.53H10430.3C10430.3 8602.38 10430.3 8602.19 10430.3 8601.97C10430.3 8601.26 10430.4 8600.19 10430.4 8598.8C10430.5 8596.01 10430.6 8591.9 10430.7 8586.64C10430.8 8576.1 10430.7 8560.91 10429.9 8542.3C10428.3 8505.07 10423.8 8454.12 10412.1 8399.24C10388.7 8289.96 10336.8 8164.99 10222.6 8101.97C10222.7 8101.96 10222.7 8101.96 10222.8 8101.96C10223.8 8101.84 10225.4 8101.69 10227.5 8101.54C10231.7 8101.26 10237.7 8101.01 10245.2 8101.18C10260.1 8101.5 10280.9 8103.46 10304.4 8109.97C10351.2 8123 10408.5 8154.26 10450.2 8227.25V8227.25C10458.2 8241.31 10465.2 8258.3 10471.2 8277.19L10472.2 8277.03V7725.63C10472.2 7541.45 10621.4 7392.15 10805.5 7391.88V7767.41Z" fill="#FF6600" stroke="#2B2B2B"/>
<path d="M10221.5 7391.88C10330.4 7392.04 10426.8 7444.56 10487.6 7525.42C10451 7583.51 10429.4 7652.02 10429.4 7725.63V7975.82C10314.6 7975.55 10221.5 7882.34 10221.5 7767.41V7391.88Z" fill="#FF6600" stroke="#2B2B2B"/>
<path d="M10513.8 7267.07C10514.3 7267.48 10514.9 7268.08 10515.7 7268.89C10517.3 7270.5 10519.6 7272.89 10522.6 7276.02C10528.6 7282.28 10537 7291.49 10546.8 7303.27C10566.5 7326.75 10592.1 7360.46 10615.5 7401.44C10576.4 7424.46 10541.8 7454.12 10513.4 7489.19C10484.5 7453.35 10450.1 7423.69 10411.8 7401.02C10435.3 7360.14 10460.7 7326.54 10480.4 7303.14C10490.2 7291.4 10498.6 7282.22 10504.5 7275.99C10507.5 7272.87 10509.8 7270.48 10511.4 7268.88C10512.2 7268.08 10512.9 7267.47 10513.3 7267.06C10513.4 7266.96 10513.5 7266.87 10513.6 7266.79C10513.6 7266.87 10513.7 7266.96 10513.8 7267.07Z" fill="#FF6600" stroke="#2B2B2B"/>
</g>
<g clip-path="url(#clip8_40_24)">
<path d="M10157.5 7767.41C10157.5 7882.5 10064.2 7975.81 9949.08 7975.81H9906.79V8277.03L9907.76 8277.18C9913.68 8258.89 9920.37 8242.37 9928.07 8228.57L9928.82 8227.24C9970.53 8154.26 10027.8 8122.99 10074.7 8109.97C10098.1 8103.45 10118.9 8101.5 10133.9 8101.17C10141.3 8101.01 10147.4 8101.25 10151.5 8101.54C10153.6 8101.68 10155.2 8101.83 10156.3 8101.95C10156.3 8101.95 10156.3 8101.96 10156.4 8101.96C10042.2 8164.99 9990.33 8289.95 9966.96 8399.24C9955.23 8454.11 9950.69 8505.06 9949.07 8542.29C9948.27 8560.91 9948.19 8576.1 9948.32 8586.63C9948.39 8591.9 9948.5 8596 9948.6 8598.79C9948.65 8600.18 9948.69 8601.25 9948.73 8601.97C9948.74 8602.19 9948.75 8602.37 9948.75 8602.53H9782.27C9782.28 8602.37 9782.28 8602.19 9782.29 8601.97C9782.33 8601.25 9782.37 8600.18 9782.42 8598.79C9782.52 8596 9782.64 8591.9 9782.7 8586.63C9782.83 8576.1 9782.76 8560.91 9781.95 8542.29C9780.34 8505.06 9775.79 8454.11 9764.06 8399.24C9740.7 8289.95 9688.8 8164.99 9574.65 8101.96C9574.69 8101.96 9574.72 8101.95 9574.76 8101.95C9575.84 8101.83 9577.45 8101.68 9579.52 8101.54C9583.66 8101.25 9589.68 8101.01 9597.16 8101.17C9612.12 8101.5 9632.94 8103.45 9656.37 8109.96C9703.21 8122.99 9760.49 8154.25 9802.2 8227.24V8227.24C9810.22 8241.3 9817.2 8258.29 9823.26 8277.18L9824.23 8277.03V7725.63C9824.23 7541.44 9973.36 7392.15 10157.5 7391.88V7767.41Z" fill="#FF6600" stroke="#2B2B2B"/>
<path d="M9573.55 7391.88C9682.41 7392.04 9778.8 7444.55 9839.63 7525.41C9802.98 7583.5 9781.45 7652.01 9781.45 7725.63V7975.81C9666.59 7975.54 9573.55 7882.34 9573.55 7767.41V7391.88Z" fill="#FF6600" stroke="#2B2B2B"/>
<path d="M9865.85 7267.06C9866.27 7267.47 9866.89 7268.08 9867.69 7268.88C9869.3 7270.49 9871.65 7272.89 9874.62 7276.02C9880.56 7282.28 9888.97 7291.48 9898.85 7303.27C9918.54 7326.75 9944.07 7360.45 9967.51 7401.43C9928.43 7424.46 9893.79 7454.12 9865.41 7489.18C9836.47 7453.34 9802.08 7423.68 9763.83 7401.01C9787.27 7360.14 9812.75 7326.54 9832.39 7303.13C9842.24 7291.39 9850.62 7282.22 9856.54 7275.98C9859.5 7272.86 9861.85 7270.48 9863.45 7268.87C9864.25 7268.07 9864.87 7267.46 9865.28 7267.06C9865.39 7266.95 9865.48 7266.86 9865.56 7266.78C9865.64 7266.86 9865.74 7266.95 9865.85 7267.06Z" fill="#FF6600" stroke="#2B2B2B"/>
</g>
<g clip-path="url(#clip9_40_24)">
<path d="M11129.5 8606.53C11129.5 8721.63 11036.2 8814.94 10921.1 8814.94H10878.8V9116.15L10879.8 9116.31C10885.7 9098.01 10892.4 9081.49 10900.1 9067.7L10900.9 9066.37C10942.6 8993.38 10999.8 8962.12 11046.7 8949.09C11070.1 8942.58 11090.9 8940.62 11105.9 8940.3C11113.4 8940.13 11119.4 8940.38 11123.5 8940.66C11125.6 8940.81 11127.2 8940.96 11128.3 8941.08C11128.3 8941.08 11128.4 8941.08 11128.4 8941.09C11014.3 9004.11 10962.4 9129.08 10939 9238.36C10927.3 9293.24 10922.7 9344.19 10921.1 9381.42C10920.3 9400.03 10920.2 9415.22 10920.4 9425.76C10920.4 9431.02 10920.5 9435.13 10920.6 9437.92C10920.7 9439.31 10920.7 9440.37 10920.8 9441.09C10920.8 9441.31 10920.8 9441.5 10920.8 9441.65H10754.3C10754.3 9441.5 10754.3 9441.31 10754.3 9441.09C10754.4 9440.37 10754.4 9439.31 10754.5 9437.92C10754.6 9435.13 10754.7 9431.02 10754.7 9425.76C10754.9 9415.22 10754.8 9400.03 10754 9381.42C10752.4 9344.19 10747.8 9293.24 10736.1 9238.36C10712.7 9129.08 10660.8 9004.11 10546.7 8941.09C10546.7 8941.08 10546.8 8941.08 10546.8 8941.08C10547.9 8940.96 10549.5 8940.81 10551.5 8940.66C10555.7 8940.38 10561.7 8940.13 10569.2 8940.3C10584.2 8940.62 10605 8942.57 10628.4 8949.09C10675.2 8962.11 10732.5 8993.38 10774.2 9066.37V9066.37C10782.2 9080.43 10789.2 9097.42 10795.3 9116.31L10796.3 9116.15V8564.75C10796.3 8380.57 10945.4 8231.27 11129.5 8231V8606.53Z" fill="#FF6600" stroke="#2B2B2B"/>
<path d="M10545.6 8231C10654.4 8231.16 10750.8 8283.67 10811.7 8364.54C10775 8422.62 10753.5 8491.14 10753.5 8564.75V8814.94C10638.6 8814.67 10545.6 8721.46 10545.6 8606.53V8231Z" fill="#FF6600" stroke="#2B2B2B"/>
<path d="M10837.9 8106.19C10838.3 8106.59 10838.9 8107.2 10839.7 8108.01C10841.3 8109.62 10843.7 8112.01 10846.7 8115.14C10852.6 8121.4 10861 8130.61 10870.9 8142.39C10890.6 8165.87 10916.1 8199.58 10939.5 8240.56C10900.5 8263.58 10865.8 8293.24 10837.4 8328.31C10808.5 8292.47 10774.1 8262.81 10735.9 8240.14C10759.3 8199.26 10784.8 8165.66 10804.4 8142.26C10814.3 8130.52 10822.7 8121.34 10828.6 8115.11C10831.5 8111.99 10833.9 8109.6 10835.5 8108C10836.3 8107.2 10836.9 8106.59 10837.3 8106.18C10837.4 8106.08 10837.5 8105.99 10837.6 8105.91C10837.7 8105.99 10837.8 8106.08 10837.9 8106.19Z" fill="#FF6600" stroke="#2B2B2B"/>
</g>
<g clip-path="url(#clip10_40_24)">
<path d="M10481.5 8606.51C10481.5 8721.6 10388.2 8814.91 10273.1 8814.91H10230.8V9116.13L10231.8 9116.28C10237.7 9097.99 10244.4 9081.47 10252.1 9067.67L10252.9 9066.34C10294.6 8993.36 10351.8 8962.09 10398.7 8949.07C10422.1 8942.55 10442.9 8940.6 10457.9 8940.27C10465.4 8940.11 10471.4 8940.35 10475.5 8940.64C10477.6 8940.78 10479.2 8940.93 10480.3 8941.05C10480.3 8941.05 10480.4 8941.06 10480.4 8941.06C10366.3 9004.09 10314.4 9129.05 10291 9238.34C10279.3 9293.21 10274.7 9344.16 10273.1 9381.39C10272.3 9400.01 10272.2 9415.2 10272.4 9425.73C10272.4 9431 10272.5 9435.1 10272.6 9437.89C10272.7 9439.28 10272.7 9440.35 10272.8 9441.07C10272.8 9441.29 10272.8 9441.47 10272.8 9441.63H10106.3C10106.3 9441.47 10106.3 9441.29 10106.3 9441.07C10106.4 9440.35 10106.4 9439.28 10106.5 9437.89C10106.6 9435.1 10106.7 9431 10106.7 9425.73C10106.9 9415.2 10106.8 9400.01 10106 9381.39C10104.4 9344.16 10099.8 9293.21 10088.1 9238.34C10064.7 9129.05 10012.8 9004.09 9898.68 8941.06C9898.72 8941.06 9898.76 8941.05 9898.79 8941.05C9899.88 8940.93 9901.48 8940.78 9903.55 8940.64C9907.69 8940.35 9913.71 8940.11 9921.19 8940.27C9936.15 8940.6 9956.97 8942.55 9980.4 8949.06C10027.2 8962.09 10084.5 8993.35 10126.2 9066.34V9066.34C10134.2 9080.4 10141.2 9097.4 10147.3 9116.28L10148.3 9116.13V8564.73C10148.3 8380.54 10297.4 8231.25 10481.5 8230.98V8606.51Z" fill="#FF6600" stroke="#2B2B2B"/>
<path d="M9897.58 8230.98C10006.4 8231.14 10102.8 8283.65 10163.7 8364.51C10127 8422.6 10105.5 8491.11 10105.5 8564.73V8814.91C9990.62 8814.64 9897.58 8721.44 9897.58 8606.51V8230.98Z" fill="#FF6600" stroke="#2B2B2B"/>
<path d="M10189.9 8106.16C10190.3 8106.57 10190.9 8107.18 10191.7 8107.98C10193.3 8109.59 10195.7 8111.99 10198.7 8115.12C10204.6 8121.38 10213 8130.58 10222.9 8142.37C10242.6 8165.85 10268.1 8199.55 10291.5 8240.53C10252.5 8263.56 10217.8 8293.22 10189.4 8328.28C10160.5 8292.44 10126.1 8262.78 10087.9 8240.11C10111.3 8199.24 10136.8 8165.64 10156.4 8142.23C10166.3 8130.49 10174.7 8121.32 10180.6 8115.08C10183.5 8111.96 10185.9 8109.58 10187.5 8107.97C10188.3 8107.17 10188.9 8106.56 10189.3 8106.16C10189.4 8106.05 10189.5 8105.96 10189.6 8105.88C10189.7 8105.96 10189.8 8106.05 10189.9 8106.16Z" fill="#FF6600" stroke="#2B2B2B"/>
</g>
<g clip-path="url(#clip11_40_24)">
<path d="M9833.51 8606.5C9833.51 8721.59 9740.2 8814.91 9625.11 8814.91H9582.82V9116.12L9583.79 9116.27C9589.71 9097.98 9596.4 9081.46 9604.1 9067.66L9604.85 9066.33C9646.56 8993.35 9703.84 8962.09 9750.68 8949.06C9774.11 8942.54 9794.93 8940.59 9809.89 8940.26C9817.37 8940.1 9823.39 8940.35 9827.53 8940.63C9829.6 8940.77 9831.21 8940.93 9832.29 8941.04C9832.33 8941.05 9832.36 8941.05 9832.4 8941.05C9718.26 9004.08 9666.36 9129.04 9643 9238.33C9631.26 9293.2 9626.72 9344.15 9625.1 9381.38C9624.3 9400 9624.22 9415.19 9624.35 9425.72C9624.42 9430.99 9624.53 9435.09 9624.63 9437.88C9624.68 9439.28 9624.72 9440.34 9624.76 9441.06C9624.77 9441.28 9624.78 9441.46 9624.78 9441.62H9458.3C9458.31 9441.46 9458.32 9441.28 9458.33 9441.06C9458.36 9440.34 9458.4 9439.28 9458.45 9437.88C9458.55 9435.09 9458.67 9430.99 9458.73 9425.72C9458.86 9415.19 9458.79 9400 9457.98 9381.38C9456.37 9344.15 9451.82 9293.2 9440.09 9238.33C9416.73 9129.04 9364.83 9004.08 9250.68 8941.05C9250.72 8941.05 9250.76 8941.05 9250.79 8941.04C9251.88 8940.93 9253.48 8940.77 9255.55 8940.63C9259.69 8940.34 9265.71 8940.1 9273.19 8940.26C9288.15 8940.59 9308.97 8942.54 9332.4 8949.05C9379.25 8962.08 9436.52 8993.34 9478.23 9066.33V9066.33C9486.25 9080.4 9493.24 9097.39 9499.29 9116.27L9500.26 9116.12V8564.72C9500.26 8380.53 9649.39 8231.24 9833.51 8230.97V8606.5Z" fill="#FF6600" stroke="#2B2B2B"/>
<path d="M9249.58 8230.97C9358.44 8231.13 9454.83 8283.64 9515.66 8364.51C9479.01 8422.59 9457.48 8491.1 9457.48 8564.72V8814.9C9342.62 8814.63 9249.58 8721.43 9249.58 8606.5V8230.97Z" fill="#FF6600" stroke="#2B2B2B"/>
<path d="M9541.88 8106.15C9542.3 8106.56 9542.92 8107.17 9543.72 8107.98C9545.33 8109.59 9547.68 8111.98 9550.65 8115.11C9556.59 8121.37 9565 8130.58 9574.88 8142.36C9594.57 8165.84 9620.1 8199.54 9643.54 8240.52C9604.46 8263.55 9569.82 8293.21 9541.44 8328.28C9512.5 8292.44 9478.11 8262.77 9439.86 8240.1C9463.3 8199.23 9488.78 8165.63 9508.42 8142.23C9518.27 8130.49 9526.65 8121.31 9532.57 8115.07C9535.53 8111.95 9537.88 8109.57 9539.48 8107.97C9540.28 8107.16 9540.9 8106.56 9541.31 8106.15C9541.42 8106.04 9541.51 8105.95 9541.59 8105.87C9541.68 8105.95 9541.77 8106.05 9541.88 8106.15Z" fill="#FF6600" stroke="#2B2B2B"/>
</g>
<path d="M1900.24 4647.6L1031.69 4232.53L1101.15 4087.16L1466.67 4261.84L1663.26 3850.48L1297.74 3675.81L1366.92 3531.05L2235.47 3946.12L2166.29 4090.88L1799.57 3915.63L1602.99 4326.98L1969.71 4502.24L1900.24 4647.6ZM2453.15 3659.38C2422.59 3701.63 2388.78 3731.63 2351.73 3749.39C2314.33 3766.88 2276.78 3773.55 2239.09 3769.38C2201.66 3764.86 2166.87 3750.97 2134.73 3727.72C2106.57 3707.35 2084.69 3684.37 2069.09 3658.78C2053.14 3632.94 2044.09 3604.39 2041.94 3573.14C2039.44 3541.62 2044.18 3506.55 2056.18 3467.92C2065.57 3438.96 2078.56 3406.56 2095.15 3370.7C2112 3334.49 2131.22 3296.13 2152.81 3255.65C2174.3 3214.54 2196.6 3171.54 2219.72 3126.66L2212.56 3192.44C2172.38 3162.82 2136.06 3150.3 2103.6 3154.87C2071.14 3159.44 2039.11 3183.57 2007.5 3227.26C1988.43 3253.62 1976.15 3283.52 1970.67 3316.95C1965.18 3350.39 1973.9 3382.82 1996.82 3414.25L1873.24 3506.38C1834.22 3456.15 1814.35 3399.97 1813.64 3337.85C1813.19 3275.36 1837.91 3209.64 1887.8 3140.67C1925.41 3088.67 1966.94 3049.13 2012.39 3022.05C2058.09 2994.61 2107.18 2985.29 2159.66 2994.11C2187.82 2998.52 2213.52 3007.49 2236.75 3020.99C2259.62 3034.24 2283.7 3050 2308.97 3068.29L2668.07 3328.07L2585.4 3442.35L2458.66 3350.66L2492.95 3346.6C2516.13 3403.52 2524.85 3456.86 2519.11 3506.61C2513.27 3555.74 2491.28 3606.67 2453.15 3659.38ZM2367.96 3558.16C2389.38 3528.55 2402.43 3499.48 2407.11 3470.96C2411.79 3442.45 2410.99 3416.56 2404.7 3393.31C2398.68 3369.71 2390.55 3350.9 2380.33 3336.9C2368.68 3318.03 2352.47 3300.52 2331.68 3284.39C2310.8 3267.63 2293.68 3254.42 2280.32 3244.76L2321.23 3213.3C2298.9 3257.09 2279.89 3294.78 2264.21 3326.34C2248.53 3357.9 2235.54 3385.35 2225.25 3408.71C2214.59 3431.8 2206.17 3452.94 2200 3472.13C2194.44 3491.21 2191.49 3508.6 2191.13 3524.3C2190.78 3539.99 2193.21 3554.13 2198.42 3566.69C2203.89 3578.9 2212.94 3589.58 2225.58 3598.72C2240.02 3609.17 2255.45 3614.83 2271.87 3615.71C2287.93 3616.32 2304.17 3612.12 2320.6 3603.1C2337.28 3593.72 2353.07 3578.74 2367.96 3558.16ZM3001 3011.32C2948.4 3063.98 2891.86 3097.25 2831.36 3111.15C2770.54 3124.74 2709.88 3121.15 2649.36 3100.38C2589.16 3079.3 2533.2 3043.25 2481.49 2992.23C2429.47 2939.63 2393.35 2883.08 2373.15 2822.59C2352.95 2761.46 2350.08 2700.64 2364.54 2640.13C2378.69 2579.3 2411.59 2523.03 2463.24 2471.32C2521.19 2413.3 2584.83 2378.92 2654.15 2368.17C2723.48 2356.78 2789.5 2370.14 2852.24 2408.24L2769.6 2552.45C2733.34 2533.88 2697.42 2527.28 2661.81 2532.66C2625.89 2537.72 2594.85 2553.34 2568.71 2579.51C2539.11 2609.15 2521.79 2640.67 2516.77 2674.08C2511.43 2707.17 2516.49 2740.57 2531.95 2774.28C2547.41 2807.99 2570.75 2840.44 2601.96 2871.62C2650.52 2920.12 2700.64 2948.46 2752.33 2956.62C2804.02 2964.79 2851.28 2947.43 2894.11 2904.55C2924.35 2874.28 2941.19 2843.54 2944.64 2812.34C2948.4 2780.83 2941.61 2747.58 2924.26 2712.61L3066.49 2622.25C3102.77 2689.98 3115.25 2757.57 3103.95 2825.02C3092.32 2892.15 3058.01 2954.25 3001 3011.32ZM3297.45 2705.89L2728.09 1929.68L2859.48 1833.02L3208.08 2306.89L3214.79 1870.4L3376.87 1751.16L3365.16 2207.93L3824.09 2318.47L3652.31 2444.83L3223.92 2328.43L3429.92 2608.44L3297.45 2705.89ZM4153.87 2181.94C4088.97 2215.56 4024.71 2231.03 3961.09 2228.36C3897.47 2225.69 3838.89 2206.6 3785.36 2171.09C3732.22 2135.38 3688.84 2085.07 3655.22 2020.17C3618.93 1950.13 3600.91 1882.42 3601.17 1817.04C3601.22 1751.26 3617.8 1691.72 3650.92 1638.42C3684.04 1585.12 3732.06 1542.18 3794.98 1509.58C3861.46 1475.13 3925.95 1461.55 3988.44 1468.82C4051.13 1475.5 4108.41 1501.28 4160.28 1546.18C4212.15 1591.09 4255.2 1653.35 4289.44 1732.99L4147.58 1806.49L4120.51 1754.26C4084.04 1684.82 4045.42 1640.32 4004.68 1620.78C3963.93 1601.23 3917.64 1604.89 3865.8 1631.74C3807.24 1662.09 3773.14 1702.84 3763.51 1754.01C3753.68 1804.78 3766.8 1864.99 3802.89 1934.63C3836.51 1999.53 3876.79 2042.4 3923.73 2063.26C3970.68 2084.11 4021.45 2080.39 4076.06 2052.1C4111.28 2033.85 4137.55 2010.45 4154.88 1981.9C4172.4 1952.74 4180.4 1919.74 4178.87 1882.88L4342.28 1852.43C4347.68 1922.91 4332.96 1987.51 4298.13 2046.21C4263.69 2104.71 4215.6 2149.95 4153.87 2181.94ZM3778.38 1997.77L3722.41 1889.74L4163.43 1661.25L4219.4 1769.28L3778.38 1997.77ZM4547.85 1969.49L4305.5 1289.4L4439.63 1241.6L4498.65 1407.22L4474.64 1391.64C4474.96 1365.98 4478.76 1341.44 4486.03 1318.04C4493.57 1294.06 4505.04 1272.47 4520.43 1253.26C4533.18 1235.94 4548.51 1220.54 4566.42 1207.07C4584.6 1193.02 4604.17 1181.55 4625.13 1172.66C4645.94 1163.35 4667.02 1156.79 4688.37 1152.97L4738.86 1294.65C4716.61 1295.95 4692.64 1302.37 4666.94 1313.89C4641.66 1325.27 4620.77 1340.99 4604.26 1361.06C4587.31 1379.88 4575.26 1400.5 4568.11 1422.92C4561.38 1445.18 4558.9 1468.78 4560.69 1493.69C4562.32 1518.18 4567.77 1543.44 4577.05 1569.47L4700.24 1915.19L4547.85 1969.49ZM5280.78 1779.58C5193.7 1798.61 5118.67 1794.47 5055.68 1767.18C4992.69 1739.88 4947.57 1692.03 4920.31 1623.63L5075.55 1563.71C5091.43 1596.74 5115.71 1620.17 5148.39 1634.02C5181.06 1647.86 5218.95 1650.08 5262.06 1640.66C5299.94 1632.38 5327.49 1618.61 5344.72 1599.33C5362.29 1579.53 5368.22 1556.56 5362.51 1530.44C5358.99 1514.33 5352.27 1502.34 5342.34 1494.48C5332.75 1486.08 5314.11 1480.11 5286.43 1476.58C5258.74 1473.05 5216.82 1470.12 5160.65 1467.8C5098.01 1465.06 5047.33 1458.57 5008.6 1448.33C4969.77 1437.65 4940.03 1421.57 4919.37 1400.08C4898.7 1378.6 4884.52 1350.22 4876.82 1314.95C4867.21 1270.98 4870.37 1230.14 4886.32 1192.44C4902.26 1154.75 4929.01 1122.67 4966.56 1096.22C5004.03 1069.33 5050.84 1049.75 5107.01 1037.48C5161.87 1025.49 5212.27 1023.38 5258.21 1031.13C5304.59 1038.79 5344.27 1055.44 5377.24 1081.08C5410.21 1106.72 5434.36 1139.99 5449.68 1180.89L5295.3 1244.73C5284.82 1215.54 5265.92 1194.81 5238.6 1182.53C5211.72 1170.16 5178.67 1167.12 5139.44 1173.41C5101.96 1179.31 5073.37 1191.49 5053.68 1209.93C5033.89 1227.94 5026.61 1248.92 5031.85 1272.87C5034.79 1286.36 5041.89 1296.9 5053.12 1304.49C5064.36 1312.07 5084.74 1317.65 5114.26 1321.24C5144.22 1324.73 5188.15 1327.44 5246.05 1329.39C5305.36 1331.49 5353.82 1338.23 5391.44 1349.63C5429.39 1360.5 5458.58 1377.16 5478.99 1399.61C5499.85 1421.97 5514.27 1451.44 5522.26 1488.01C5537.76 1558.98 5524.03 1620.37 5481.07 1672.18C5438.54 1723.9 5371.78 1759.7 5280.78 1779.58ZM6127.62 1680.61C6075.48 1681.12 6031.26 1671.75 5994.97 1652.49C5958.68 1632.79 5931.01 1606.54 5911.97 1573.75C5893.38 1540.95 5883.89 1504.72 5883.5 1465.06C5883.16 1430.3 5888.65 1399.05 5899.96 1371.3C5911.27 1343.11 5928.86 1318.87 5952.73 1298.58C5976.6 1277.85 6007.63 1260.83 6045.83 1247.53C6074.7 1237.89 6108.49 1229.09 6147.19 1221.14C6186.33 1213.18 6228.6 1205.85 6273.99 1199.17C6319.83 1192.04 6367.66 1184.44 6417.5 1176.37L6360.34 1209.69C6360.29 1159.77 6348.79 1123.12 6325.83 1099.72C6302.87 1076.32 6264.43 1064.89 6210.51 1065.42C6177.98 1065.74 6146.63 1073.62 6116.48 1089.07C6086.32 1104.52 6065.41 1130.79 6053.74 1167.9L5906.22 1123.22C5923.45 1061.99 5956.84 1012.63 6006.39 975.158C6056.39 937.676 6123.94 918.519 6209.06 917.686C6273.24 917.057 6329.71 926.978 6378.49 947.448C6427.72 967.913 6464.37 1001.87 6488.46 1049.33C6501.63 1074.6 6509.69 1100.59 6512.62 1127.31C6515.55 1153.57 6517.17 1182.31 6517.48 1213.5L6521.82 1656.69L6380.77 1658.08L6379.24 1501.65L6402.88 1526.83C6370.86 1579.29 6333.13 1617.98 6289.7 1642.92C6246.71 1667.41 6192.68 1679.97 6127.62 1680.61ZM6158.45 1551.95C6194.99 1551.59 6226.12 1544.82 6251.84 1531.65C6277.56 1518.47 6297.91 1502.45 6312.88 1483.58C6328.29 1464.71 6338.59 1447.01 6343.78 1430.47C6352.04 1409.89 6356.49 1386.44 6357.13 1360.14C6358.2 1333.39 6358.66 1311.77 6358.5 1295.28L6408.11 1309.5C6359.61 1317.55 6318.01 1324.65 6283.3 1330.78C6248.6 1336.91 6218.79 1342.78 6193.89 1348.37C6168.98 1353.52 6146.98 1359.3 6127.88 1365.73C6109.22 1372.6 6093.48 1380.55 6080.64 1389.59C6067.81 1398.63 6057.88 1408.98 6050.86 1420.63C6044.29 1432.29 6041.08 1445.91 6041.24 1461.51C6041.41 1479.33 6046.02 1495.11 6055.07 1508.84C6064.11 1522.12 6077.14 1532.69 6094.16 1540.55C6111.61 1548.4 6133.04 1552.2 6158.45 1551.95ZM7087.3 1722.03C7038.86 1724.8 6991.97 1722.59 6946.61 1715.41C6901.63 1708.74 6862.24 1695.36 6828.42 1675.29C6794.66 1654.78 6770.69 1626.31 6756.49 1589.89C6744.11 1556.84 6739.56 1524.13 6742.82 1491.75C6746.08 1459.37 6750.32 1422.84 6755.55 1382.17L6835.55 759.572L6994.68 780.019L6915.87 1393.34C6912.18 1422.07 6909.17 1447.3 6906.83 1469.01C6904.93 1490.79 6907.3 1509.06 6913.93 1523.85C6926.44 1552.41 6949.95 1570.49 6984.48 1578.07C7019 1585.65 7059.01 1588.99 7104.51 1588.1L7087.3 1722.03ZM6663.93 1067.1L6680.03 941.788L7179.31 1005.94L7163.21 1131.26L6663.93 1067.1ZM7850.94 1929.37C7802.74 1923.86 7756.91 1913.71 7713.43 1898.93C7670.24 1884.71 7633.69 1864.83 7603.78 1839.3C7574 1813.35 7555.21 1781.22 7547.42 1742.91C7540.84 1708.25 7541.91 1675.24 7550.62 1643.88C7559.34 1612.52 7569.73 1577.25 7581.8 1538.06L7766.47 938.122L7919.81 985.323L7737.89 1576.32C7729.37 1604.01 7722.11 1628.35 7716.11 1649.35C7710.54 1670.49 7709.76 1688.9 7713.79 1704.6C7721.26 1734.87 7741.36 1756.68 7774.09 1770.02C7806.82 1783.36 7845.68 1793.46 7890.67 1800.31L7850.94 1929.37ZM7545.07 1212.01L7582.24 1091.25L8063.34 1239.34L8026.17 1360.1L7545.07 1212.01ZM8419.06 2195.1L8568.88 1881.42C8578.67 1860.91 8588.12 1837.52 8597.21 1811.24C8606.3 1784.96 8611.1 1757.86 8611.59 1729.95C8612.68 1701.82 8606.52 1675.42 8593.12 1650.74C8580.11 1626.26 8556.32 1605.76 8521.74 1589.24C8503.24 1580.41 8483.5 1574.68 8462.52 1572.07C8441.54 1569.46 8420.06 1572.04 8398.07 1579.82C8376.68 1587.38 8355.42 1601.92 8334.28 1623.43C8313.33 1644.54 8293.35 1675 8274.33 1714.81L8205.64 1636.82C8232.15 1581.32 8266.82 1536.14 8309.64 1501.28C8352.87 1466.61 8401.74 1445.99 8456.24 1439.43C8510.93 1432.46 8568.84 1443.57 8629.97 1472.77C8678.22 1495.81 8714.2 1522.87 8737.88 1553.94C8761.57 1585.01 8776.7 1617.43 8783.29 1651.2C8789.88 1684.96 8790.88 1718.04 8786.28 1750.41C8781.69 1782.79 8774.54 1812.22 8764.85 1838.71C8755.76 1864.99 8747.47 1885.97 8739.98 1901.65L8566.25 2265.4L8419.06 2195.1ZM7967.24 1979.3L8382.12 1110.66L8511.82 1172.6L8293.43 1629.85L8310.92 1638.2L8114.43 2049.6L7967.24 1979.3ZM8946.85 2548.36C8887.2 2506.13 8843.96 2456.14 8817.13 2398.39C8790.31 2340.63 8780.39 2279.82 8787.37 2215.97C8794.72 2152.37 8819.5 2090.74 8861.73 2031.08C8907.31 1966.7 8959.2 1919.62 9017.41 1889.84C9075.88 1859.7 9136.39 1847.11 9198.94 1852.08C9261.5 1857.04 9321.69 1880 9379.53 1920.94C9440.64 1964.2 9482.3 2015.26 9504.52 2074.12C9527.36 2132.88 9530.73 2195.61 9514.64 2262.3C9498.56 2328.99 9462.99 2395.82 9407.94 2462.78L9277.54 2370.47L9311.53 2322.46C9356.48 2258.18 9378.29 2203.46 9376.96 2158.28C9375.63 2113.11 9351.14 2073.66 9303.49 2039.93C9249.65 2001.82 9197.79 1990.23 9147.91 2005.15C9098.29 2019.72 9050.82 2059.01 9005.5 2123.03C8963.27 2182.68 8943.67 2238.15 8946.68 2289.43C8949.7 2340.7 8976.3 2384.11 9026.5 2419.64C9058.88 2442.56 9091.72 2455.17 9125.05 2457.46C9158.99 2459.65 9191.98 2451.61 9224.03 2433.34L9326.08 2564.55C9265.93 2601.69 9201.78 2618.26 9133.64 2614.25C9065.86 2610.49 9003.6 2588.53 8946.85 2548.36ZM8938.16 2130.23L9008.45 2030.93L9413.85 2317.9L9343.56 2417.21L8938.16 2130.23ZM9490.14 2967.04L10213.7 2332.06L10319.9 2453.14L10015.4 2720.37L10316.2 3063.03L10620.7 2795.81L10726.5 2916.39L10003 3551.38L9897.15 3430.79L10202.6 3162.69L9901.9 2820.03L9596.42 3088.13L9490.14 2967.04ZM10239.1 3965.78C10202.3 3903.65 10184.2 3841.1 10184.7 3778.12C10185.2 3715.14 10202.4 3656.28 10236.3 3601.52C10270.8 3546.92 10320 3500.66 10384.1 3462.75C10449.3 3424.15 10514.1 3403.37 10578.7 3400.38C10643.2 3397.4 10703 3410.94 10758.1 3441C10813.2 3471.05 10858.8 3516.57 10894.9 3577.55C10931.9 3640.06 10950.1 3702.8 10949.6 3765.78C10949.1 3828.76 10931.7 3887.74 10897.4 3942.72C10863.5 3997.47 10814.6 4043.81 10750.5 4081.72C10686.1 4119.86 10621.4 4140.54 10556.5 4143.75C10492.2 4147.12 10432.3 4133.88 10376.9 4104.05C10321.8 4074 10275.8 4027.9 10239.1 3965.78ZM10369.1 3888.81C10401.8 3944.04 10444.5 3974.17 10497.2 3979.22C10549.9 3984.27 10605.4 3969.54 10663.7 3935.03C10723.9 3899.39 10763.8 3857.4 10783.3 3809.05C10803.2 3760.48 10797.1 3708.97 10764.9 3654.51C10742.8 3617.31 10716.2 3591.63 10685.1 3577.46C10654.5 3563.44 10620.8 3559.54 10584.1 3565.74C10547.8 3571.72 10510 3586.28 10470.9 3609.44C10410.7 3645.08 10370.6 3687.19 10350.7 3735.76C10331.4 3784.49 10337.5 3835.5 10369.1 3888.81ZM10513.2 4432.41L11190.3 4150.85C11207.2 4143.83 11226 4136.75 11246.6 4129.6C11267.7 4122.28 11289.6 4117.3 11312.1 4114.68C11334.7 4112.06 11357.3 4114.94 11380.1 4123.32C11409 4133.52 11431.9 4147.9 11448.8 4166.46C11466.2 4185.26 11479.8 4205.19 11489.5 4226.24C11499.7 4247.13 11508.1 4265.59 11514.8 4281.64L11549.4 4364.97L11428.4 4415.28L11396.3 4338.12C11384.5 4309.73 11368.5 4291.53 11348.3 4283.53C11328.7 4275.77 11307.3 4276.68 11284.3 4286.26L10575 4581.17L10513.2 4432.41ZM11018.5 4096.32L11135.2 4047.81L11308.7 4465.08L11192 4513.59L11018.5 4096.32Z" fill="#121212"/>
<path d="M4647.68 10183.3H3750V6089.31H4647.68V10183.3Z" fill="#121212"/>
<path d="M4647.68 10183.3H3750V6089.31H4647.68V10183.3Z" stroke="#999999" stroke-width="4" stroke-miterlimit="10" stroke-linejoin="round"/>
<path d="M4647.68 6089.31H3750V4692.91H4647.68V6089.31Z" fill="#121212"/>
<path d="M4647.68 6089.31H3750V4692.91H4647.68V6089.31Z" stroke="#999999" stroke-width="4" stroke-miterlimit="10" stroke-linejoin="round"/>
<path d="M3750 7898.27H4647.68" stroke="#999999" stroke-width="4" stroke-miterlimit="10" stroke-linejoin="round"/>
<path d="M4008.42 6394.85C3942.75 6394.85 3889.52 6448.09 3889.52 6513.75V7195.52H4127.35V6513.75C4127.35 6448.09 4074.11 6394.85 4008.42 6394.85Z" fill="#F5F5F5"/>
<path d="M4008.42 6394.85C3942.75 6394.85 3889.52 6448.09 3889.52 6513.75V7195.52H4127.35V6513.75C4127.35 6448.09 4074.11 6394.85 4008.42 6394.85Z" stroke="#999999" stroke-width="4" stroke-miterlimit="10" stroke-linejoin="round"/>
<path d="M4389.25 6394.85C4323.58 6394.85 4270.34 6448.09 4270.34 6513.75V7195.52H4508.17V6513.75C4508.17 6448.09 4454.94 6394.85 4389.25 6394.85Z" fill="#F5F5F5"/>
<path d="M4389.25 6394.85C4323.58 6394.85 4270.34 6448.09 4270.34 6513.75V7195.52H4508.17V6513.75C4508.17 6448.09 4454.94 6394.85 4389.25 6394.85Z" stroke="#999999" stroke-width="4" stroke-miterlimit="10" stroke-linejoin="round"/>
<path d="M4008.42 9042.53C3942.75 9042.53 3889.52 9095.77 3889.52 9161.44V9843.24H4127.35V9161.44C4127.35 9095.77 4074.11 9042.53 4008.42 9042.53Z" fill="#F5F5F5"/>
<path d="M4008.42 9042.53C3942.75 9042.53 3889.52 9095.77 3889.52 9161.44V9843.24H4127.35V9161.44C4127.35 9095.77 4074.11 9042.53 4008.42 9042.53Z" stroke="#999999" stroke-width="4" stroke-miterlimit="10" stroke-linejoin="round"/>
<path d="M4389.25 9042.53C4323.58 9042.53 4270.34 9095.77 4270.34 9161.44V9843.24H4508.17V9161.44C4508.17 9095.77 4454.94 9042.53 4389.25 9042.53Z" fill="#F5F5F5"/>
<path d="M4389.25 9042.53C4323.58 9042.53 4270.34 9095.77 4270.34 9161.44V9843.24H4508.17V9161.44C4508.17 9095.77 4454.94 9042.53 4389.25 9042.53Z" stroke="#999999" stroke-width="4" stroke-miterlimit="10" stroke-linejoin="round"/>
<path d="M3938.22 4920.32C3881.92 4920.32 3836.3 4965.97 3836.3 5022.25V5861.9H4040.15V5022.25C4040.15 4965.97 3994.51 4920.32 3938.22 4920.32Z" fill="#F5F5F5"/>
<path d="M3938.22 4920.32C3881.92 4920.32 3836.3 4965.97 3836.3 5022.25V5861.9H4040.15V5022.25C4040.15 4965.97 3994.51 4920.32 3938.22 4920.32Z" stroke="#999999" stroke-width="4" stroke-miterlimit="10" stroke-linejoin="round"/>
<path d="M4198.83 4920.32C4142.52 4920.32 4096.93 4965.97 4096.93 5022.25V5861.9H4300.76V5022.25C4300.76 4965.97 4255.14 4920.32 4198.83 4920.32Z" fill="#F5F5F5"/>
<path d="M4198.83 4920.32C4142.52 4920.32 4096.93 4965.97 4096.93 5022.25V5861.9H4300.76V5022.25C4300.76 4965.97 4255.14 4920.32 4198.83 4920.32Z" stroke="#999999" stroke-width="4" stroke-miterlimit="10" stroke-linejoin="round"/>
<path d="M4459.43 4920.32C4403.12 4920.32 4357.53 4965.97 4357.53 5022.25V5861.9H4561.36V5022.25C4561.36 4965.97 4515.74 4920.32 4459.43 4920.32Z" fill="#F5F5F5"/>
<path d="M4459.43 4920.32C4403.12 4920.32 4357.53 4965.97 4357.53 5022.25V5861.9H4561.36V5022.25C4561.36 4965.97 4515.74 4920.32 4459.43 4920.32Z" stroke="#999999" stroke-width="4" stroke-miterlimit="10" stroke-linejoin="round"/>
<path d="M3750 4692.91L4198.84 2453.26L4647.68 4692.91H3750Z" fill="#121212"/>
<path d="M3750 4692.91L4198.84 2453.26L4647.68 4692.91H3750Z" stroke="#999999" stroke-width="4" stroke-miterlimit="10" stroke-linejoin="round"/>
<path d="M8750 10183.3H7852.32V6089.31H8750V10183.3Z" fill="#121212"/>
<path d="M8750 10183.3H7852.32V6089.31H8750V10183.3Z" stroke="#999999" stroke-width="4" stroke-miterlimit="10" stroke-linejoin="round"/>
<path d="M8750 6089.31H7852.32V4692.91H8750V6089.31Z" fill="#121212"/>
<path d="M8750 6089.31H7852.32V4692.91H8750V6089.31Z" stroke="#999999" stroke-width="4" stroke-miterlimit="10" stroke-linejoin="round"/>
<path d="M7852.32 7898.27H8750" stroke="#999999" stroke-width="4" stroke-miterlimit="10" stroke-linejoin="round"/>
<path d="M8110.75 6394.85C8045.08 6394.85 7991.84 6448.09 7991.84 6513.75V7195.52H8229.67V6513.75C8229.67 6448.09 8176.44 6394.85 8110.75 6394.85Z" fill="#F5F5F5"/>
<path d="M8110.75 6394.85C8045.08 6394.85 7991.84 6448.09 7991.84 6513.75V7195.52H8229.67V6513.75C8229.67 6448.09 8176.44 6394.85 8110.75 6394.85Z" stroke="#999999" stroke-width="4" stroke-miterlimit="10" stroke-linejoin="round"/>
<path d="M8491.57 6394.85C8425.91 6394.85 8372.67 6448.09 8372.67 6513.75V7195.52H8610.5V6513.75C8610.5 6448.09 8557.27 6394.85 8491.57 6394.85Z" fill="#F5F5F5"/>
<path d="M8491.57 6394.85C8425.91 6394.85 8372.67 6448.09 8372.67 6513.75V7195.52H8610.5V6513.75C8610.5 6448.09 8557.27 6394.85 8491.57 6394.85Z" stroke="#999999" stroke-width="4" stroke-miterlimit="10" stroke-linejoin="round"/>
<path d="M8110.75 9042.53C8045.08 9042.53 7991.84 9095.77 7991.84 9161.44V9843.24H8229.67V9161.44C8229.67 9095.77 8176.44 9042.53 8110.75 9042.53Z" fill="#F5F5F5"/>
<path d="M8110.75 9042.53C8045.08 9042.53 7991.84 9095.77 7991.84 9161.44V9843.24H8229.67V9161.44C8229.67 9095.77 8176.44 9042.53 8110.75 9042.53Z" stroke="#999999" stroke-width="4" stroke-miterlimit="10" stroke-linejoin="round"/>
<path d="M8491.57 9042.53C8425.91 9042.53 8372.67 9095.77 8372.67 9161.44V9843.24H8610.5V9161.44C8610.5 9095.77 8557.27 9042.53 8491.57 9042.53Z" fill="#F5F5F5"/>
<path d="M8491.57 9042.53C8425.91 9042.53 8372.67 9095.77 8372.67 9161.44V9843.24H8610.5V9161.44C8610.5 9095.77 8557.27 9042.53 8491.57 9042.53Z" stroke="#999999" stroke-width="4" stroke-miterlimit="10" stroke-linejoin="round"/>
<path d="M8040.55 4920.32C7984.24 4920.32 7938.62 4965.97 7938.62 5022.25V5861.9H8142.48V5022.25C8142.48 4965.97 8096.83 4920.32 8040.55 4920.32Z" fill="#F5F5F5"/>
<path d="M8040.55 4920.32C7984.24 4920.32 7938.62 4965.97 7938.62 5022.25V5861.9H8142.48V5022.25C8142.48 4965.97 8096.83 4920.32 8040.55 4920.32Z" stroke="#999999" stroke-width="4" stroke-miterlimit="10" stroke-linejoin="round"/>
<path d="M8301.15 4920.32C8244.84 4920.32 8199.25 4965.97 8199.25 5022.25V5861.9H8403.08V5022.25C8403.08 4965.97 8357.46 4920.32 8301.15 4920.32Z" fill="#F5F5F5"/>
<path d="M8301.15 4920.32C8244.84 4920.32 8199.25 4965.97 8199.25 5022.25V5861.9H8403.08V5022.25C8403.08 4965.97 8357.46 4920.32 8301.15 4920.32Z" stroke="#999999" stroke-width="4" stroke-miterlimit="10" stroke-linejoin="round"/>
<path d="M8561.75 4920.32C8505.44 4920.32 8459.85 4965.97 8459.85 5022.25V5861.9H8663.68V5022.25C8663.68 4965.97 8618.06 4920.32 8561.75 4920.32Z" fill="#F5F5F5"/>
<path d="M8561.75 4920.32C8505.44 4920.32 8459.85 4965.97 8459.85 5022.25V5861.9H8663.68V5022.25C8663.68 4965.97 8618.06 4920.32 8561.75 4920.32Z" stroke="#999999" stroke-width="4" stroke-miterlimit="10" stroke-linejoin="round"/>
<path d="M7852.32 4692.91L8301.16 2453.26L8750 4692.91H7852.32Z" fill="#121212"/>
<path d="M7852.32 4692.91L8301.16 2453.26L8750 4692.91H7852.32Z" stroke="#999999" stroke-width="4" stroke-miterlimit="10" stroke-linejoin="round"/>
<path d="M6249.88 3573.1L4696.68 5861.9V10183.3H7803.13V5861.9L6249.88 3573.1Z" fill="#121212"/>
<path d="M6249.88 3573.1L4696.68 5861.9V10183.3H7803.13V5861.9L6249.88 3573.1Z" stroke="#999999" stroke-width="4" stroke-miterlimit="10" stroke-linejoin="round"/>
<path d="M6508.79 4399.72C6508.79 4093.18 6249.88 4021.64 6249.88 4021.64C6249.88 4021.64 5991.05 4093.18 5991.05 4399.72C5991.05 4399.72 5786.68 4450.84 5786.68 4788.04V5581.53H6713.14V4788.04C6713.14 4450.84 6508.79 4399.72 6508.79 4399.72Z" fill="#121212"/>
<path d="M6508.79 4399.72C6508.79 4093.18 6249.88 4021.64 6249.88 4021.64C6249.88 4021.64 5991.05 4093.18 5991.05 4399.72C5991.05 4399.72 5786.68 4450.84 5786.68 4788.04V5581.53H6713.14V4788.04C6713.14 4450.84 6508.79 4399.72 6508.79 4399.72Z" stroke="#999999" stroke-width="4" stroke-miterlimit="10" stroke-linejoin="round"/>
<path d="M6147.37 5261.9C6147.37 5334.2 6088.75 5392.83 6016.45 5392.83C5944.12 5392.83 5885.52 5334.2 5885.52 5261.9C5885.52 5189.57 5944.12 5130.95 6016.45 5130.95C6088.75 5130.95 6147.37 5189.57 6147.37 5261.9Z" fill="#F5F5F5"/>
<path d="M6147.37 5261.9C6147.37 5334.2 6088.75 5392.83 6016.45 5392.83C5944.12 5392.83 5885.52 5334.2 5885.52 5261.9C5885.52 5189.57 5944.12 5130.95 6016.45 5130.95C6088.75 5130.95 6147.37 5189.57 6147.37 5261.9Z" stroke="#999999" stroke-width="4" stroke-miterlimit="10" stroke-linejoin="round"/>
<path d="M6614.35 5261.9C6614.35 5334.2 6555.71 5392.83 6483.4 5392.83C6411.1 5392.83 6352.48 5334.2 6352.48 5261.9C6352.48 5189.57 6411.1 5130.95 6483.4 5130.95C6555.71 5130.95 6614.35 5189.57 6614.35 5261.9Z" fill="#F5F5F5"/>
<path d="M6614.35 5261.9C6614.35 5334.2 6555.71 5392.83 6483.4 5392.83C6411.1 5392.83 6352.48 5334.2 6352.48 5261.9C6352.48 5189.57 6411.1 5130.95 6483.4 5130.95C6555.71 5130.95 6614.35 5189.57 6614.35 5261.9Z" stroke="#999999" stroke-width="4" stroke-miterlimit="10" stroke-linejoin="round"/>
<path d="M6395.98 4449.31C6395.98 4529.99 6330.59 4595.39 6249.91 4595.39C6169.23 4595.39 6103.8 4529.99 6103.8 4449.31C6103.8 4368.6 6169.23 4303.21 6249.91 4303.21C6330.59 4303.21 6395.98 4368.6 6395.98 4449.31Z" fill="#F5F5F5"/>
<path d="M6395.98 4449.31C6395.98 4529.99 6330.59 4595.39 6249.91 4595.39C6169.23 4595.39 6103.8 4529.99 6103.8 4449.31C6103.8 4368.6 6169.23 4303.21 6249.91 4303.21C6330.59 4303.21 6395.98 4368.6 6395.98 4449.31Z" stroke="#999999" stroke-width="4" stroke-miterlimit="10" stroke-linejoin="round"/>
<path d="M5423.7 5811.96H5376.45V5764.71C5376.45 5729.45 5347.59 5700.62 5312.33 5700.62C5277.08 5700.62 5248.27 5729.45 5248.27 5764.71V5811.96H5201.02C5165.77 5811.96 5136.91 5840.79 5136.91 5876.05C5136.91 5911.3 5165.77 5940.14 5201.02 5940.14H5248.27V5987.39C5248.27 6022.64 5277.08 6051.48 5312.33 6051.48C5347.59 6051.48 5376.45 6022.64 5376.45 5987.39V5940.14H5423.7C5458.95 5940.14 5487.79 5911.3 5487.79 5876.05C5487.79 5840.79 5458.95 5811.96 5423.7 5811.96Z" fill="#F5F5F5"/>
<path d="M5423.7 5811.96H5376.45V5764.71C5376.45 5729.45 5347.59 5700.62 5312.33 5700.62C5277.08 5700.62 5248.27 5729.45 5248.27 5764.71V5811.96H5201.02C5165.77 5811.96 5136.91 5840.79 5136.91 5876.05C5136.91 5911.3 5165.77 5940.14 5201.02 5940.14H5248.27V5987.39C5248.27 6022.64 5277.08 6051.48 5312.33 6051.48C5347.59 6051.48 5376.45 6022.64 5376.45 5987.39V5940.14H5423.7C5458.95 5940.14 5487.79 5911.3 5487.79 5876.05C5487.79 5840.79 5458.95 5811.96 5423.7 5811.96Z" stroke="#999999" stroke-width="4" stroke-miterlimit="10" stroke-linejoin="round"/>
<path d="M5892.45 5811.96H5845.22V5764.71C5845.22 5729.45 5816.36 5700.62 5781.13 5700.62C5745.88 5700.62 5717.02 5729.45 5717.02 5764.71V5811.96H5669.8C5634.54 5811.96 5605.68 5840.79 5605.68 5876.05C5605.68 5911.3 5634.54 5940.14 5669.8 5940.14H5717.02V5987.39C5717.02 6022.64 5745.88 6051.48 5781.13 6051.48C5816.36 6051.48 5845.22 6022.64 5845.22 5987.39V5940.14H5892.45C5927.7 5940.14 5956.56 5911.3 5956.56 5876.05C5956.56 5840.79 5927.7 5811.96 5892.45 5811.96Z" fill="#F5F5F5"/>
<path d="M5892.45 5811.96H5845.22V5764.71C5845.22 5729.45 5816.36 5700.62 5781.13 5700.62C5745.88 5700.62 5717.02 5729.45 5717.02 5764.71V5811.96H5669.8C5634.54 5811.96 5605.68 5840.79 5605.68 5876.05C5605.68 5911.3 5634.54 5940.14 5669.8 5940.14H5717.02V5987.39C5717.02 6022.64 5745.88 6051.48 5781.13 6051.48C5816.36 6051.48 5845.22 6022.64 5845.22 5987.39V5940.14H5892.45C5927.7 5940.14 5956.56 5911.3 5956.56 5876.05C5956.56 5840.79 5927.7 5811.96 5892.45 5811.96Z" stroke="#999999" stroke-width="4" stroke-miterlimit="10" stroke-linejoin="round"/>
<path d="M6361.25 5811.96H6314V5764.71C6314 5729.45 6285.14 5700.62 6249.91 5700.62C6214.66 5700.62 6185.82 5729.45 6185.82 5764.71V5811.96H6138.55C6103.29 5811.96 6074.48 5840.79 6074.48 5876.05C6074.48 5911.3 6103.29 5940.14 6138.55 5940.14H6185.82V5987.39C6185.82 6022.64 6214.66 6051.48 6249.91 6051.48C6285.14 6051.48 6314 6022.64 6314 5987.39V5940.14H6361.25C6396.51 5940.14 6425.34 5911.3 6425.34 5876.05C6425.34 5840.79 6396.51 5811.96 6361.25 5811.96Z" fill="#F5F5F5"/>
<path d="M6361.25 5811.96H6314V5764.71C6314 5729.45 6285.14 5700.62 6249.91 5700.62C6214.66 5700.62 6185.82 5729.45 6185.82 5764.71V5811.96H6138.55C6103.29 5811.96 6074.48 5840.79 6074.48 5876.05C6074.48 5911.3 6103.29 5940.14 6138.55 5940.14H6185.82V5987.39C6185.82 6022.64 6214.66 6051.48 6249.91 6051.48C6285.14 6051.48 6314 6022.64 6314 5987.39V5940.14H6361.25C6396.51 5940.14 6425.34 5911.3 6425.34 5876.05C6425.34 5840.79 6396.51 5811.96 6361.25 5811.96Z" stroke="#999999" stroke-width="4" stroke-miterlimit="10" stroke-linejoin="round"/>
<path d="M6830.02 5811.96H6782.77V5764.71C6782.77 5729.45 6753.91 5700.62 6718.71 5700.62C6683.46 5700.62 6654.6 5729.45 6654.6 5764.71V5811.96H6607.35C6572.09 5811.96 6543.26 5840.79 6543.26 5876.05C6543.26 5911.3 6572.09 5940.14 6607.35 5940.14H6654.6V5987.39C6654.6 6022.64 6683.46 6051.48 6718.71 6051.48C6753.91 6051.48 6782.77 6022.64 6782.77 5987.39V5940.14H6830.02C6865.28 5940.14 6894.14 5911.3 6894.14 5876.05C6894.14 5840.79 6865.28 5811.96 6830.02 5811.96Z" fill="#F5F5F5"/>
<path d="M6830.02 5811.96H6782.77V5764.71C6782.77 5729.45 6753.91 5700.62 6718.71 5700.62C6683.46 5700.62 6654.6 5729.45 6654.6 5764.71V5811.96H6607.35C6572.09 5811.96 6543.26 5840.79 6543.26 5876.05C6543.26 5911.3 6572.09 5940.14 6607.35 5940.14H6654.6V5987.39C6654.6 6022.64 6683.46 6051.48 6718.71 6051.48C6753.91 6051.48 6782.77 6022.64 6782.77 5987.39V5940.14H6830.02C6865.28 5940.14 6894.14 5911.3 6894.14 5876.05C6894.14 5840.79 6865.28 5811.96 6830.02 5811.96Z" stroke="#999999" stroke-width="4" stroke-miterlimit="10" stroke-linejoin="round"/>
<path d="M7298.83 5811.96H7251.55V5764.71C7251.55 5729.45 7222.72 5700.62 7187.47 5700.62C7152.21 5700.62 7123.38 5729.45 7123.38 5764.71V5811.96H7076.13C7040.87 5811.96 7012.04 5840.79 7012.04 5876.05C7012.04 5911.3 7040.87 5940.14 7076.13 5940.14H7123.38V5987.39C7123.38 6022.64 7152.21 6051.48 7187.47 6051.48C7222.72 6051.48 7251.55 6022.64 7251.55 5987.39V5940.14H7298.83C7334.09 5940.14 7362.89 5911.3 7362.89 5876.05C7362.89 5840.79 7334.09 5811.96 7298.83 5811.96Z" fill="#F5F5F5"/>
<path d="M7298.83 5811.96H7251.55V5764.71C7251.55 5729.45 7222.72 5700.62 7187.47 5700.62C7152.21 5700.62 7123.38 5729.45 7123.38 5764.71V5811.96H7076.13C7040.87 5811.96 7012.04 5840.79 7012.04 5876.05C7012.04 5911.3 7040.87 5940.14 7076.13 5940.14H7123.38V5987.39C7123.38 6022.64 7152.21 6051.48 7187.47 6051.48C7222.72 6051.48 7251.55 6022.64 7251.55 5987.39V5940.14H7298.83C7334.09 5940.14 7362.89 5911.3 7362.89 5876.05C7362.89 5840.79 7334.09 5811.96 7298.83 5811.96Z" stroke="#999999" stroke-width="4" stroke-miterlimit="10" stroke-linejoin="round"/>
<path d="M5185.15 6142.01C5185.15 6142.01 4860.73 6190.33 4860.73 6592.05V7572.97H5509.61V6592.05C5509.61 6190.33 5185.15 6142.01 5185.15 6142.01Z" fill="#121212"/>
<path d="M5185.15 6142.01C5185.15 6142.01 4860.73 6190.33 4860.73 6592.05V7572.97H5509.61V6592.05C5509.61 6190.33 5185.15 6142.01 5185.15 6142.01Z" stroke="#F5F5F5" stroke-width="13" stroke-miterlimit="10" stroke-linejoin="round"/>
<path d="M5083.94 6417.65C5083.94 6417.65 4982.69 6431.44 4982.69 6545.99V7449.27H5185.18V6545.99C5185.18 6431.44 5083.94 6417.65 5083.94 6417.65Z" fill="#F5F5F5"/>
<path d="M5083.94 6417.65C5083.94 6417.65 4982.69 6431.44 4982.69 6545.99V7449.27H5185.18V6545.99C5185.18 6431.44 5083.94 6417.65 5083.94 6417.65Z" stroke="#999999" stroke-width="4" stroke-miterlimit="10" stroke-linejoin="round"/>
<path d="M5286.4 6417.65C5286.4 6417.65 5185.18 6431.44 5185.18 6545.99V7449.27H5387.62V6545.99C5387.62 6431.44 5286.4 6417.65 5286.4 6417.65Z" fill="#F5F5F5"/>
<path d="M5286.4 6417.65C5286.4 6417.65 5185.18 6431.44 5185.18 6545.99V7449.27H5387.62V6545.99C5387.62 6431.44 5286.4 6417.65 5286.4 6417.65Z" stroke="#999999" stroke-width="4" stroke-miterlimit="10" stroke-linejoin="round"/>
<path d="M5215.55 6305.63C5215.55 6322.38 5201.95 6335.98 5185.19 6335.98C5168.41 6335.98 5154.8 6322.38 5154.8 6305.63C5154.8 6288.87 5168.41 6275.27 5185.19 6275.27C5201.95 6275.27 5215.55 6288.87 5215.55 6305.63Z" fill="#F5F5F5"/>
<path d="M5215.55 6305.63C5215.55 6322.38 5201.95 6335.98 5185.19 6335.98C5168.41 6335.98 5154.8 6322.38 5154.8 6305.63C5154.8 6288.87 5168.41 6275.27 5185.19 6275.27C5201.95 6275.27 5215.55 6288.87 5215.55 6305.63Z" stroke="#999999" stroke-width="4" stroke-miterlimit="10" stroke-linejoin="round"/>
<path d="M7314.65 6142.01C7314.65 6142.01 6990.22 6190.33 6990.22 6592.05V7572.97H7639.1V6592.05C7639.1 6190.33 7314.65 6142.01 7314.65 6142.01Z" fill="#121212"/>
<path d="M7314.65 6142.01C7314.65 6142.01 6990.22 6190.33 6990.22 6592.05V7572.97H7639.1V6592.05C7639.1 6190.33 7314.65 6142.01 7314.65 6142.01Z" stroke="#F5F5F5" stroke-width="13" stroke-miterlimit="10" stroke-linejoin="round"/>
<path d="M7213.42 6417.65C7213.42 6417.65 7112.17 6431.44 7112.17 6545.99V7449.27H7314.67V6545.99C7314.67 6431.44 7213.42 6417.65 7213.42 6417.65Z" fill="#F5F5F5"/>
<path d="M7213.42 6417.65C7213.42 6417.65 7112.17 6431.44 7112.17 6545.99V7449.27H7314.67V6545.99C7314.67 6431.44 7213.42 6417.65 7213.42 6417.65Z" stroke="#999999" stroke-width="4" stroke-miterlimit="10" stroke-linejoin="round"/>
<path d="M7415.86 6417.65C7415.86 6417.65 7314.66 6431.44 7314.66 6545.99V7449.27H7517.1V6545.99C7517.1 6431.44 7415.86 6417.65 7415.86 6417.65Z" fill="#F5F5F5"/>
<path d="M7415.86 6417.65C7415.86 6417.65 7314.66 6431.44 7314.66 6545.99V7449.27H7517.1V6545.99C7517.1 6431.44 7415.86 6417.65 7415.86 6417.65Z" stroke="#999999" stroke-width="4" stroke-miterlimit="10" stroke-linejoin="round"/>
<path d="M7344.99 6305.63C7344.99 6322.38 7331.42 6335.98 7314.66 6335.98C7297.91 6335.98 7284.3 6322.38 7284.3 6305.63C7284.3 6288.87 7297.91 6275.27 7314.66 6275.27C7331.42 6275.27 7344.99 6288.87 7344.99 6305.63Z" fill="#F5F5F5"/>
<path d="M7344.99 6305.63C7344.99 6322.38 7331.42 6335.98 7314.66 6335.98C7297.91 6335.98 7284.3 6322.38 7284.3 6305.63C7284.3 6288.87 7297.91 6275.27 7314.66 6275.27C7331.42 6275.27 7344.99 6288.87 7344.99 6305.63Z" stroke="#999999" stroke-width="4" stroke-miterlimit="10" stroke-linejoin="round"/>
<path d="M6249.91 7430.77C6555.1 7430.77 6802.5 7183.38 6802.5 6878.18C6802.5 6572.99 6555.1 6325.57 6249.91 6325.57C5944.72 6325.57 5697.3 6572.99 5697.3 6878.18C5697.3 7183.37 5944.72 7430.77 6249.91 7430.77Z" fill="#121212" stroke="#F5F5F5" stroke-width="37"/>
<path d="M6821 6878.18C6821 7193.59 6565.32 7449.27 6249.91 7449.27C5934.5 7449.27 5678.8 7193.59 5678.8 6878.18C5678.8 6562.77 5934.5 6307.07 6249.91 6307.07C6565.32 6307.07 6821 6562.77 6821 6878.18Z" stroke="#F5F5F5" stroke-width="37" stroke-miterlimit="10" stroke-linejoin="round"/>
<path d="M6440.34 6878.18C6440.34 6983.35 6355.09 7068.6 6249.92 7068.6C6144.76 7068.6 6059.51 6983.35 6059.51 6878.18C6059.51 6773.02 6144.76 6687.77 6249.92 6687.77C6355.09 6687.77 6440.34 6773.02 6440.34 6878.18Z" fill="#F5F5F5"/>
<path d="M6440.34 6878.18C6440.34 6983.35 6355.09 7068.6 6249.92 7068.6C6144.76 7068.6 6059.51 6983.35 6059.51 6878.18C6059.51 6773.02 6144.76 6687.77 6249.92 6687.77C6355.09 6687.77 6440.34 6773.02 6440.34 6878.18Z" stroke="#999999" stroke-width="4" stroke-miterlimit="10" stroke-linejoin="round"/>
<path d="M6321.16 6513.37C6321.16 6552.73 6289.25 6584.61 6249.92 6584.61C6210.56 6584.61 6178.65 6552.73 6178.65 6513.37C6178.65 6474.01 6210.56 6442.1 6249.92 6442.1C6289.25 6442.1 6321.16 6474.01 6321.16 6513.37Z" fill="#F5F5F5"/>
<path d="M6321.16 6513.37C6321.16 6552.73 6289.25 6584.61 6249.92 6584.61C6210.56 6584.61 6178.65 6552.73 6178.65 6513.37C6178.65 6474.01 6210.56 6442.1 6249.92 6442.1C6289.25 6442.1 6321.16 6474.01 6321.16 6513.37Z" stroke="#999999" stroke-width="4" stroke-miterlimit="10" stroke-linejoin="round"/>
<path d="M6042.34 6569.82C6070.19 6597.64 6070.19 6642.77 6042.34 6670.6C6014.54 6698.43 5969.41 6698.43 5941.55 6670.6C5913.75 6642.77 5913.75 6597.64 5941.55 6569.82C5969.41 6541.99 6014.54 6541.99 6042.34 6569.82Z" fill="#F5F5F5"/>
<path d="M6042.34 6569.82C6070.19 6597.64 6070.19 6642.77 6042.34 6670.6C6014.54 6698.43 5969.41 6698.43 5941.55 6670.6C5913.75 6642.77 5913.75 6597.64 5941.55 6569.82C5969.41 6541.99 6014.54 6541.99 6042.34 6569.82Z" stroke="#999999" stroke-width="4" stroke-miterlimit="10" stroke-linejoin="round"/>
<path d="M5885.11 6806.91C5924.47 6806.91 5956.38 6838.82 5956.38 6878.18C5956.38 6917.54 5924.47 6949.42 5885.11 6949.42C5845.74 6949.42 5813.84 6917.54 5813.84 6878.18C5813.84 6838.82 5845.74 6806.91 5885.11 6806.91Z" fill="#F5F5F5"/>
<path d="M5885.11 6806.91C5924.47 6806.91 5956.38 6838.82 5956.38 6878.18C5956.38 6917.54 5924.47 6949.42 5885.11 6949.42C5845.74 6949.42 5813.84 6917.54 5813.84 6878.18C5813.84 6838.82 5845.74 6806.91 5885.11 6806.91Z" stroke="#999999" stroke-width="4" stroke-miterlimit="10" stroke-linejoin="round"/>
<path d="M5941.55 7085.74C5969.41 7057.91 6014.54 7057.91 6042.34 7085.74C6070.19 7113.56 6070.19 7158.69 6042.34 7186.52C6014.54 7214.35 5969.41 7214.35 5941.55 7186.52C5913.75 7158.69 5913.75 7113.56 5941.55 7085.74Z" fill="#F5F5F5"/>
<path d="M5941.55 7085.74C5969.41 7057.91 6014.54 7057.91 6042.34 7085.74C6070.19 7113.56 6070.19 7158.69 6042.34 7186.52C6014.54 7214.35 5969.41 7214.35 5941.55 7186.52C5913.75 7158.69 5913.75 7113.56 5941.55 7085.74Z" stroke="#999999" stroke-width="4" stroke-miterlimit="10" stroke-linejoin="round"/>
<path d="M6178.65 7242.99C6178.65 7203.63 6210.56 7171.72 6249.92 7171.72C6289.25 7171.72 6321.16 7203.63 6321.16 7242.99C6321.16 7282.35 6289.25 7314.24 6249.92 7314.24C6210.56 7314.24 6178.65 7282.35 6178.65 7242.99Z" fill="#F5F5F5"/>
<path d="M6178.65 7242.99C6178.65 7203.63 6210.56 7171.72 6249.92 7171.72C6289.25 7171.72 6321.16 7203.63 6321.16 7242.99C6321.16 7282.35 6289.25 7314.24 6249.92 7314.24C6210.56 7314.24 6178.65 7282.35 6178.65 7242.99Z" stroke="#999999" stroke-width="4" stroke-miterlimit="10" stroke-linejoin="round"/>
<path d="M6457.5 7186.52C6429.67 7158.69 6429.67 7113.56 6457.5 7085.74C6485.3 7057.91 6530.45 7057.91 6558.25 7085.74C6586.11 7113.56 6586.11 7158.69 6558.25 7186.52C6530.45 7214.35 6485.3 7214.35 6457.5 7186.52Z" fill="#F5F5F5"/>
<path d="M6457.5 7186.52C6429.67 7158.69 6429.67 7113.56 6457.5 7085.74C6485.3 7057.91 6530.45 7057.91 6558.25 7085.74C6586.11 7113.56 6586.11 7158.69 6558.25 7186.52C6530.45 7214.35 6485.3 7214.35 6457.5 7186.52Z" stroke="#999999" stroke-width="4" stroke-miterlimit="10" stroke-linejoin="round"/>
<path d="M6614.72 6949.42C6575.36 6949.42 6543.45 6917.54 6543.45 6878.18C6543.45 6838.82 6575.36 6806.91 6614.72 6806.91C6654.09 6806.91 6685.97 6838.82 6685.97 6878.18C6685.97 6917.54 6654.09 6949.42 6614.72 6949.42Z" fill="#F5F5F5"/>
<path d="M6614.72 6949.42C6575.36 6949.42 6543.45 6917.54 6543.45 6878.18C6543.45 6838.82 6575.36 6806.91 6614.72 6806.91C6654.09 6806.91 6685.97 6838.82 6685.97 6878.18C6685.97 6917.54 6654.09 6949.42 6614.72 6949.42Z" stroke="#999999" stroke-width="4" stroke-miterlimit="10" stroke-linejoin="round"/>
<path d="M6558.25 6670.6C6530.45 6698.43 6485.3 6698.43 6457.5 6670.6C6429.67 6642.77 6429.67 6597.64 6457.5 6569.82C6485.3 6541.99 6530.45 6541.99 6558.25 6569.82C6586.11 6597.64 6586.11 6642.77 6558.25 6670.6Z" fill="#F5F5F5"/>
<path d="M6558.25 6670.6C6530.45 6698.43 6485.3 6698.43 6457.5 6670.6C6429.67 6642.77 6429.67 6597.64 6457.5 6569.82C6485.3 6541.99 6530.45 6541.99 6558.25 6569.82C6586.11 6597.64 6586.11 6642.77 6558.25 6670.6Z" stroke="#999999" stroke-width="4" stroke-miterlimit="10" stroke-linejoin="round"/>
<path d="M6757.66 9593.87V8532.98L6358.72 7970.79V7689.71H6141.1V7970.79L5742.12 8532.98V9593.87L5633.31 9675.47V10183.3H6866.47V9675.47L6757.66 9593.87Z" fill="#121212"/>
<path d="M6757.66 9593.87V8532.98L6358.72 7970.79V7689.71H6141.1V7970.79L5742.12 8532.98V9593.87L5633.31 9675.47V10183.3H6866.47V9675.47L6757.66 9593.87Z" stroke="#999999" stroke-width="4" stroke-miterlimit="10" stroke-linejoin="round"/>
<path d="M6249.61 8339.8C6089.65 8339.8 5960 8469.28 5960 8629.02V10183.2H6539.22V8629.02C6539.22 8469.28 6409.56 8339.8 6249.61 8339.8Z" fill="#F5F5F5"/>
<path d="M6249.61 8339.8C6089.65 8339.8 5960 8469.28 5960 8629.02V10183.2H6539.22V8629.02C6539.22 8469.28 6409.56 8339.8 6249.61 8339.8Z" stroke="#999999" stroke-width="4" stroke-miterlimit="10" stroke-linejoin="round"/>
</g>
<defs>
<clipPath id="clip0_40_24">
<rect width="1337" height="1337" fill="white" transform="translate(1965.97 7266.02)"/>
</clipPath>
<clipPath id="clip1_40_24">
<rect width="1337" height="1337" fill="white" transform="translate(1317.99 7266)"/>
</clipPath>
<clipPath id="clip2_40_24">
<rect width="1337" height="1337" fill="white" transform="translate(670 7265.99)"/>
</clipPath>
<clipPath id="clip3_40_24">
<rect width="1337" height="1337" fill="white" transform="translate(2289.97 8105.23)"/>
</clipPath>
<clipPath id="clip4_40_24">
<rect width="1337" height="1337" fill="white" transform="translate(1641.99 8105.2)"/>
</clipPath>
<clipPath id="clip5_40_24">
<rect width="1337" height="1337" fill="white" transform="translate(993.992 8105.2)"/>
</clipPath>
<clipPath id="clip6_40_24">
<rect width="1337" height="1337" fill="white" transform="translate(10493 7266.07)"/>
</clipPath>
<clipPath id="clip7_40_24">
<rect width="1337" height="1337" fill="white" transform="translate(9845.01 7266.04)"/>
</clipPath>
<clipPath id="clip8_40_24">
<rect width="1337" height="1337" fill="white" transform="translate(9197.02 7266.03)"/>
</clipPath>
<clipPath id="clip9_40_24">
<rect width="1337" height="1337" fill="white" transform="translate(10169 8105.16)"/>
</clipPath>
<clipPath id="clip10_40_24">
<rect width="1337" height="1337" fill="white" transform="translate(9521.05 8105.13)"/>
</clipPath>
<clipPath id="clip11_40_24">
<rect width="1337" height="1337" fill="white" transform="translate(8873.05 8105.12)"/>
</clipPath>
</defs>
</svg>
