<svg width="11665" height="8741" viewBox="0 0 11665 8741" fill="none" xmlns="http://www.w3.org/2000/svg">
<path d="M10068 4511C10068 4511 9551.82 4422.75 9481.15 4102.91C9410.56 3783.08 9906.93 2733 9906.93 2733H9907C9529.11 2851.77 9142.62 2941.02 8751.02 2999.92C8413.5 3017.59 8360.57 2395.5 8360.57 2395.5C8360.5 2395.5 7502.32 3674.93 7281.7 3480.83C7061.09 3286.72 7742.75 974.83 7742.75 974.83C7742.75 974.83 7365.5 1510.88 6975.05 1453.51C6584.61 1396.13 6068.34 158.58 6033.08 76.9951C5999.97 158.642 5470.48 1400.58 5091.1 1453.51C4711.63 1506.43 4327.78 974.83 4327.78 974.83C4327.71 974.83 5016.05 3275.67 4784.38 3480.83C4552.7 3685.98 3701.13 2393.28 3701.13 2393.28C3701.13 2393.28 3648.21 3015.36 3310.69 2997.7C2919.01 2938.81 2532.52 2849.55 2154.7 2730.77C2154.7 2730.77 2648.85 3783.06 2580.48 4102.91C2512.04 4422.74 1987.02 4511 1987.02 4511C1987.02 4511 3478.37 5755.17 3495.96 6163.26C3494.17 6444.97 3421.09 6625.59 3278.4 6868.43C3278.4 6868.43 5296.16 6571.42 5620.46 6626.57C5944.76 6681.72 5860.46 7160.94 5872.25 7389.84C5872.25 7621.51 5746.78 8739.92 5746.78 8739.92L6304.78 8740C6304.78 8739.92 6184.17 7621.42 6184.17 7389.84C6190.41 7158.86 6125.67 6679.5 6445.54 6626.57C6765.39 6573.65 8793.97 6868.43 8793.97 6868.43C8650.91 6625.72 8573.67 6445.04 8572.24 6163.26C8574.46 5755.17 10068 4511 10068 4511H10068Z" fill="#FF0000"/>
<path d="M10953.9 7073.54L10805.7 6629.09H10583.5L10435.3 7073.54H9176.2L9027.98 6629.09H8805.75L8657.53 7073.54H7416.88V6851.31H7361.33V7073.54H7083.55V6851.31H7028V7073.54H6528V4573.54L6472.44 4295.76L6416.88 4573.54V4851.31H6361.33V4295.76L6083.55 2740.2V2629.09H5972.44V2740.2L5694.66 4295.76V4851.31H5639.11V4573.54L5583.55 4295.76L5528 4573.54V7073.54H5028V6851.31H4972.44V7073.54H4694.66V6851.31H4639.11V7073.54H3398.37L3250.26 6629.09H3028.03L2879.92 7073.54H1620.57L1472.46 6629.09H1250.24L1102.13 7073.54H1028.02V8740.2H2139.13V8629.09L2250.24 8573.54L2361.35 8629.09V8740.2H9694.68V8629.09L9805.79 8573.54L9916.9 8629.09V8740.2H11028V7073.54H10953.9ZM1472.46 7073.54H1528.01V7129.09H1472.46V7073.54ZM1416.9 7351.31H1472.46V7517.98H1416.9V7351.31ZM1416.9 7629.09H1472.46V7795.76H1416.9V7629.09ZM1416.9 7906.87H1472.46V8073.54H1416.9V7906.87ZM1194.68 7073.54H1250.24V7129.09H1194.68V7073.54ZM1139.13 7351.31H1194.68V7517.98H1139.13V7351.31ZM1139.13 7629.09H1194.68V7795.76H1139.13V7629.09ZM1139.13 7906.87H1194.68V8073.54H1139.13V7906.87ZM1194.68 8629.09V8684.65H1139.13V8573.54H1194.68V8629.09ZM1305.79 8684.65H1250.24V8573.54H1305.79V8684.65ZM1305.79 8462.43H1139.13V8351.31C1139.13 8289.65 1172.91 8236.66 1222.46 8207.76C1272.01 8236.66 1305.79 8289.65 1305.79 8351.31V8462.43ZM1305.79 8073.54H1250.24V7906.87H1305.79V8073.54ZM1305.79 7795.76H1250.24V7629.09H1305.79V7795.76ZM1305.79 7517.98H1250.24V7351.31H1305.79V7517.98ZM1472.46 8684.65H1416.9V8573.54H1472.46V8684.65ZM1583.57 8684.65H1528.01V8573.54H1583.57V8684.65ZM1583.57 8462.43H1416.9V8351.31C1416.9 8289.65 1450.69 8236.66 1500.24 8207.76C1549.79 8236.66 1583.57 8289.65 1583.57 8351.31V8462.43ZM1583.57 8073.54H1528.01V7906.87H1583.57V8073.54ZM1583.57 7795.76H1528.01V7629.09H1583.57V7795.76ZM1583.57 7517.98H1528.01V7351.31H1583.57V7517.98ZM2083.57 7406.87H2139.13V7462.43H2083.57V7406.87ZM2028.01 7629.09H2083.57V7795.76H2028.01V7629.09ZM2028.01 7906.87H2083.57V8073.54H2028.01V7906.87ZM1805.79 7406.87H1861.35V7462.43H1805.79V7406.87ZM1750.24 7629.09H1805.79V7795.76H1750.24V7629.09ZM1750.24 7906.87H1805.79V8073.54H1750.24V7906.87ZM1805.79 8629.09V8684.65H1750.24V8573.54H1805.79V8629.09ZM1916.9 8684.65H1861.35V8573.54H1916.9V8684.65ZM1916.9 8462.43H1750.24V8351.31C1750.24 8289.65 1784.02 8236.66 1833.57 8207.76C1883.12 8236.66 1916.9 8289.65 1916.9 8351.31V8462.43ZM1916.9 8073.54H1861.35V7906.87H1916.9V8073.54ZM1916.9 7795.76H1861.35V7629.09H1916.9V7795.76ZM2083.57 8684.65H2028.01V8573.54H2083.57V8684.65ZM2194.68 8462.43H2028.01V8351.31C2028.01 8289.65 2061.8 8236.66 2111.35 8207.76C2160.9 8236.66 2194.68 8289.65 2194.68 8351.31V8462.43ZM2194.68 8073.54H2139.13V7906.87H2194.68V8073.54ZM2194.68 7795.76H2139.13V7629.09H2194.68V7795.76ZM2639.13 7406.87H2694.68V7462.43H2639.13V7406.87ZM2583.57 7629.09H2639.13V7795.76H2583.57V7629.09ZM2583.57 7906.87H2639.13V8073.54H2583.57V7906.87ZM2361.35 7406.87H2416.9V7462.43H2361.35V7406.87ZM2305.79 7629.09H2361.35V7795.76H2305.79V7629.09ZM2305.79 7906.87H2361.35V8073.54H2305.79V7906.87ZM2472.46 8684.65H2416.9V8573.54H2472.46V8684.65ZM2472.46 8462.43H2305.79V8351.31C2305.79 8289.65 2339.57 8236.66 2389.13 8207.76C2438.68 8236.66 2472.46 8289.65 2472.46 8351.31V8462.43ZM2472.46 8073.54H2416.9V7906.87H2472.46V8073.54ZM2472.46 7795.76H2416.9V7629.09H2472.46V7795.76ZM2639.13 8629.09V8684.65H2583.57V8573.54H2639.13V8629.09ZM2750.24 8684.65H2694.68V8573.54H2750.24V8684.65ZM2750.24 8462.43H2583.57V8351.31C2583.57 8289.65 2617.35 8236.66 2666.9 8207.76C2716.46 8236.66 2750.24 8289.65 2750.24 8351.31V8462.43ZM2750.24 8073.54H2694.68V7906.87H2750.24V8073.54ZM2750.24 7795.76H2694.68V7629.09H2750.24V7795.76ZM3250.24 7073.54H3305.79V7129.09H3250.24V7073.54ZM3194.68 7351.31H3250.24V7517.98H3194.68V7351.31ZM3194.68 7629.09H3250.24V7795.76H3194.68V7629.09ZM3194.68 7906.87H3250.24V8073.54H3194.68V7906.87ZM2972.46 7073.54H3028.01V7129.09H2972.46V7073.54ZM2916.9 7351.31H2972.46V7517.98H2916.9V7351.31ZM2916.9 7629.09H2972.46V7795.76H2916.9V7629.09ZM2916.9 7906.87H2972.46V8073.54H2916.9V7906.87ZM2972.46 8629.09V8684.65H2916.9V8573.54H2972.46V8629.09ZM3083.57 8684.65H3028.01V8573.54H3083.57V8684.65ZM3083.57 8462.43H2916.9V8351.31C2916.9 8289.65 2950.69 8236.66 3000.24 8207.76C3049.79 8236.66 3083.57 8289.65 3083.57 8351.31V8462.43ZM3083.57 8073.54H3028.01V7906.87H3083.57V8073.54ZM3083.57 7795.76H3028.01V7629.09H3083.57V7795.76ZM3083.57 7517.98H3028.01V7351.31H3083.57V7517.98ZM3250.24 8684.65H3194.68V8573.54H3250.24V8684.65ZM3361.35 8684.65H3305.79V8573.54H3361.35V8684.65ZM3361.35 8462.43H3194.68V8351.31C3194.68 8289.65 3228.46 8236.66 3278.01 8207.76C3327.57 8236.66 3361.35 8289.65 3361.35 8351.31V8462.43ZM3361.35 8073.54H3305.79V7906.87H3361.35V8073.54ZM3361.35 7795.76H3305.79V7629.09H3361.35V7795.76ZM3361.35 7517.98H3305.79V7351.31H3361.35V7517.98ZM4472.46 7406.87H4528.01V7462.43H4472.46V7406.87ZM4416.9 7629.09H4472.46V7795.76H4416.9V7629.09ZM4416.9 7906.87H4472.46V8073.54H4416.9V7906.87ZM4194.68 7406.87H4250.24V7462.43H4194.68V7406.87ZM4139.13 7629.09H4194.68V7795.76H4139.13V7629.09ZM4139.13 7906.87H4194.68V8073.54H4139.13V7906.87ZM3916.9 7406.87H3972.46V7462.43H3916.9V7406.87ZM3861.35 7629.09H3916.9V7795.76H3861.35V7629.09ZM3861.35 7906.87H3916.9V8073.54H3861.35V7906.87ZM3639.13 7406.87H3694.68V7462.43H3639.13V7406.87ZM3583.57 7629.09H3639.13V7795.76H3583.57V7629.09ZM3583.57 7906.87H3639.13V8073.54H3583.57V7906.87ZM3639.13 8684.65H3583.57V8573.54H3639.13V8684.65ZM3750.24 8684.65H3694.68V8573.54H3750.24V8684.65ZM3750.24 8462.43H3583.57V8351.31C3583.57 8289.65 3617.35 8236.66 3666.9 8207.76C3716.46 8236.66 3750.24 8289.65 3750.24 8351.31V8462.43ZM3750.24 8073.54H3694.68V7906.87H3750.24V8073.54ZM3750.24 7795.76H3694.68V7629.09H3750.24V7795.76ZM3916.9 8684.65H3861.35V8573.54H3916.9V8684.65ZM4028.01 8684.65H3972.46V8573.54H4028.01V8684.65ZM4028.01 8462.43H3861.35V8351.31C3861.35 8289.65 3895.13 8236.66 3944.68 8207.76C3994.23 8236.66 4028.01 8289.65 4028.01 8351.31V8462.43ZM4028.01 8073.54H3972.46V7906.87H4028.01V8073.54ZM4028.01 7795.76H3972.46V7629.09H4028.01V7795.76ZM4194.68 8684.65H4139.13V8573.54H4194.68V8684.65ZM4305.79 8684.65H4250.24V8573.54H4305.79V8684.65ZM4305.79 8462.43H4139.13V8351.31C4139.13 8289.65 4172.91 8236.66 4222.46 8207.76C4272.01 8236.66 4305.79 8289.65 4305.79 8351.31V8462.43ZM4305.79 8073.54H4250.24V7906.87H4305.79V8073.54ZM4305.79 7795.76H4250.24V7629.09H4305.79V7795.76ZM4472.46 8684.65H4416.9V8573.54H4472.46V8684.65ZM4583.57 8684.65H4528.01V8573.54H4583.57V8684.65ZM4583.57 8462.43H4416.9V8351.31C4416.9 8289.65 4450.69 8236.66 4500.24 8207.76C4549.79 8236.66 4583.57 8289.65 4583.57 8351.31V8462.43ZM4583.57 8073.54H4528.01V7906.87H4583.57V8073.54ZM4583.57 7795.76H4528.01V7629.09H4583.57V7795.76ZM4805.79 8573.54H4750.24V8462.43H4805.79V8573.54ZM4805.79 8295.76H4750.24V7906.87H4805.79V8295.76ZM4805.79 7712.43V7795.76H4750.24V7629.09H4805.79V7712.43ZM4805.79 7406.87H4861.35V7462.43H4805.79V7406.87ZM4916.9 8573.54H4861.35V8462.43H4916.9V8573.54ZM4916.9 8295.76H4861.35V7906.87H4916.9V8295.76ZM4916.9 7795.76H4861.35V7629.09H4916.9V7795.76ZM5416.9 7406.87H5472.46V7462.43H5416.9V7406.87ZM5361.35 7629.09H5416.9V7795.76H5361.35V7629.09ZM5361.35 7906.87H5416.9V8073.54H5361.35V7906.87ZM5139.13 7406.87H5194.68V7462.43H5139.13V7406.87ZM5083.57 7629.09H5139.13V7795.76H5083.57V7629.09ZM5083.57 7906.87H5139.13V8073.54H5083.57V7906.87ZM5139.13 8684.65H5083.57V8573.54H5139.13V8684.65ZM5250.24 8684.65H5194.68V8573.54H5250.24V8684.65ZM5250.24 8462.43H5083.57V8351.31C5083.57 8289.65 5117.35 8236.66 5166.9 8207.76C5216.46 8236.66 5250.24 8289.65 5250.24 8351.31V8462.43ZM5250.24 8073.54H5194.68V7906.87H5250.24V8073.54ZM5250.24 7795.76H5194.68V7629.09H5250.24V7795.76ZM5416.9 8684.65H5361.35V8573.54H5416.9V8684.65ZM5528.01 8684.65H5472.46V8573.54H5528.01V8684.65ZM5528.01 8462.43H5361.35V8351.31C5361.35 8289.65 5395.13 8236.66 5444.68 8207.76C5494.23 8236.66 5528.01 8289.65 5528.01 8351.31V8462.43ZM5528.01 8073.54H5472.46V7906.87H5528.01V8073.54ZM5528.01 7795.76H5472.46V7629.09H5528.01V7795.76ZM6083.57 4073.54H6139.13V4184.65H6083.57V4073.54ZM5916.9 4073.54H5972.46V4184.65H5916.9V4073.54ZM5861.35 5295.76H5972.46V5629.09H5861.35V5295.76ZM6028.01 7295.76L6139.13 7406.87V7851.31H5916.9V7406.87L6028.01 7295.76ZM5861.35 6017.98L5916.9 5962.43L5972.46 6017.98V6129.09H5861.35V6017.98ZM5861.35 6240.2H5972.46V6962.43H5861.35V6240.2ZM6194.68 8629.09H5861.35V8462.43C5861.35 8348.75 5929.89 8251.09 6028.01 8208.08C6126.14 8251.09 6194.68 8348.74 6194.68 8462.43V8629.09ZM6194.68 6962.43H6083.57V6240.2H6194.68V6962.43ZM6194.68 6129.09H6083.57V6017.98L6139.13 5962.43L6194.68 6017.98V6129.09ZM6194.68 5629.09H6083.57V5295.76H6194.68V5629.09ZM6028.01 4740.2C5936 4740.2 5861.35 4665.55 5861.35 4573.54C5861.35 4481.52 5936 4406.87 6028.01 4406.87C6120.03 4406.87 6194.68 4481.52 6194.68 4573.54C6194.68 4665.55 6120.03 4740.2 6028.01 4740.2ZM6861.35 7406.87H6916.9V7462.43H6861.35V7406.87ZM6805.79 7629.09H6861.35V7795.76H6805.79V7629.09ZM6805.79 7906.87H6861.35V8073.54H6805.79V7906.87ZM6583.57 7406.87H6639.13V7462.43H6583.57V7406.87ZM6528.01 7629.09H6583.57V7795.76H6528.01V7629.09ZM6528.01 7906.87H6583.57V8073.54H6528.01V7906.87ZM6583.57 8684.65H6528.01V8573.54H6583.57V8684.65ZM6694.68 8684.65H6639.13V8573.54H6694.68V8684.65ZM6694.68 8462.43H6528.01V8351.31C6528.01 8289.65 6561.91 8236.66 6611.35 8207.76C6660.79 8236.66 6694.68 8289.65 6694.68 8351.31V8462.43ZM6694.68 8073.54H6639.13V7906.87H6694.68V8073.54ZM6694.68 7795.76H6639.13V7629.09H6694.68V7795.76ZM6861.35 8684.65H6805.79V8573.54H6861.35V8684.65ZM6972.46 8684.65H6916.9V8573.54H6972.46V8684.65ZM6972.46 8462.43H6805.79V8351.31C6805.79 8289.65 6839.68 8236.66 6889.13 8207.76C6938.57 8236.66 6972.46 8289.65 6972.46 8351.31V8462.43ZM6972.46 8073.54H6916.9V7906.87H6972.46V8073.54ZM6972.46 7795.76H6916.9V7629.09H6972.46V7795.76ZM7194.68 8573.54H7139.13V8462.43H7194.68V8573.54ZM7194.68 8295.76H7139.13V7906.87H7194.68V8295.76ZM7194.68 7795.76H7139.13V7629.09H7194.68V7795.76ZM7194.68 7406.87H7250.24V7462.43H7194.68V7406.87ZM7305.79 8573.54H7250.24V8462.43H7305.79V8573.54ZM7305.79 8295.76H7250.24V7906.87H7305.79V8295.76ZM7305.79 7795.76H7250.24V7629.09H7305.79V7795.76ZM8361.35 7406.87H8416.9V7462.43H8361.35V7406.87ZM8305.79 7629.09H8361.35V7795.76H8305.79V7629.09ZM8305.79 7906.87H8361.35V8073.54H8305.79V7906.87ZM8083.57 7406.87H8139.13V7462.43H8083.57V7406.87ZM8028.01 7629.09H8083.57V7795.76H8028.01V7629.09ZM8028.01 7906.87H8083.57V8073.54H8028.01V7906.87ZM7805.79 7406.87H7861.35V7462.43H7805.79V7406.87ZM7750.24 7629.09H7805.79V7795.76H7750.24V7629.09ZM7750.24 7906.87H7805.79V8073.54H7750.24V7906.87ZM7528.01 7406.87H7583.57V7462.43H7528.01V7406.87ZM7472.46 7629.09H7528.01V7795.76H7472.46V7629.09ZM7472.46 7906.87H7528.01V8073.54H7472.46V7906.87ZM7528.01 8684.65H7472.46V8573.54H7528.01V8684.65ZM7639.13 8684.65H7583.57V8573.54H7639.13V8684.65ZM7639.13 8462.43H7472.46V8351.31C7472.46 8289.65 7506.35 8236.66 7555.79 8207.76C7605.23 8236.66 7639.13 8289.65 7639.13 8351.31V8462.43ZM7639.13 8073.54H7583.57V7906.87H7639.13V8073.54ZM7639.13 7795.76H7583.57V7629.09H7639.13V7795.76ZM7805.79 8684.65H7750.24V8573.54H7805.79V8684.65ZM7916.9 8684.65H7861.35V8573.54H7916.9V8684.65ZM7916.9 8462.43H7750.24V8351.31C7750.24 8289.65 7784.13 8236.66 7833.57 8207.76C7883.01 8236.66 7916.9 8289.65 7916.9 8351.31V8462.43ZM7916.9 8073.54H7861.35V7906.87H7916.9V8073.54ZM7916.9 7795.76H7861.35V7629.09H7916.9V7795.76ZM8083.57 8684.65H8028.01V8573.54H8083.57V8684.65ZM8194.68 8684.65H8139.13V8573.54H8194.68V8684.65ZM8194.68 8462.43H8028.01V8351.31C8028.01 8289.65 8061.91 8236.66 8111.35 8207.76C8160.79 8236.66 8194.68 8289.65 8194.68 8351.31V8462.43ZM8194.68 8073.54H8139.13V7906.87H8194.68V8073.54ZM8194.68 7795.76H8139.13V7629.09H8194.68V7795.76ZM8361.35 8684.65H8305.79V8573.54H8361.35V8684.65ZM8472.46 8684.65H8416.9V8573.54H8472.46V8684.65ZM8472.46 8462.43H8305.79V8351.31C8305.79 8289.65 8339.68 8236.66 8389.13 8207.76C8438.57 8236.66 8472.46 8289.65 8472.46 8351.31V8462.43ZM8472.46 8073.54H8416.9V7906.87H8472.46V8073.54ZM8472.46 7795.76H8416.9V7629.09H8472.46V7795.76ZM9028.01 7073.54H9083.57V7129.09H9028.01V7073.54ZM8972.46 7351.31H9028.01V7517.98H8972.46V7351.31ZM8972.46 7629.09H9028.01V7795.76H8972.46V7629.09ZM8972.46 7906.87H9028.01V8073.54H8972.46V7906.87ZM8750.24 7073.54H8805.79V7129.09H8750.24V7073.54ZM8694.68 7351.31H8750.24V7517.98H8694.68V7351.31ZM8694.68 7629.09H8750.24V7795.76H8694.68V7629.09ZM8694.68 7906.87H8750.24V8073.54H8694.68V7906.87ZM8750.24 8684.65H8694.68V8573.54H8750.24V8684.65ZM8861.35 8684.65H8805.79V8573.54H8861.35V8684.65ZM8861.35 8462.43H8694.68V8351.31C8694.68 8289.65 8728.57 8236.66 8778.01 8207.76C8827.46 8236.66 8861.35 8289.65 8861.35 8351.31V8462.43ZM8861.35 8073.54H8805.79V7906.87H8861.35V8073.54ZM8861.35 7795.76H8805.79V7629.09H8861.35V7795.76ZM8861.35 7517.98H8805.79V7351.31H8861.35V7517.98ZM9028.01 8684.65H8972.46V8573.54H9028.01V8684.65ZM9139.13 8684.65H9083.57V8573.54H9139.13V8684.65ZM9139.13 8462.43H8972.46V8351.31C8972.46 8289.65 9006.35 8236.66 9055.79 8207.76C9105.23 8236.66 9139.13 8289.65 9139.13 8351.31V8462.43ZM9139.13 8073.54H9083.57V7906.87H9139.13V8073.54ZM9139.13 7795.76H9083.57V7629.09H9139.13V7795.76ZM9139.13 7517.98H9083.57V7351.31H9139.13V7517.98ZM9639.13 7406.87H9694.68V7462.43H9639.13V7406.87ZM9583.57 7629.09H9639.13V7795.76H9583.57V7629.09ZM9583.57 7906.87H9639.13V8073.54H9583.57V7906.87ZM9361.35 7406.87H9416.9V7462.43H9361.35V7406.87ZM9305.79 7629.09H9361.35V7795.76H9305.79V7629.09ZM9305.79 7906.87H9361.35V8073.54H9305.79V7906.87ZM9361.35 8684.65H9305.79V8573.54H9361.35V8684.65ZM9472.46 8684.65H9416.9V8573.54H9472.46V8684.65ZM9472.46 8462.43H9305.79V8351.31C9305.79 8289.65 9339.68 8236.66 9389.13 8207.76C9438.57 8236.66 9472.46 8289.65 9472.46 8351.31V8462.43ZM9472.46 8073.54H9416.9V7906.87H9472.46V8073.54ZM9472.46 7795.76H9416.9V7629.09H9472.46V7795.76ZM9639.13 8684.65H9583.57V8573.54H9639.13V8684.65ZM9750.24 8462.43H9583.57V8351.31C9583.57 8289.65 9617.46 8236.66 9666.9 8207.76C9716.35 8236.66 9750.24 8289.65 9750.24 8351.31V8462.43ZM9750.24 8073.54H9694.68V7906.87H9750.24V8073.54ZM9750.24 7795.76H9694.68V7629.09H9750.24V7795.76ZM10194.7 7406.87H10250.2V7462.43H10194.7V7406.87ZM10139.1 7629.09H10194.7V7795.76H10139.1V7629.09ZM10139.1 7906.87H10194.7V8073.54H10139.1V7906.87ZM9916.9 7406.87H9972.46V7462.43H9916.9V7406.87ZM9861.35 7629.09H9916.9V7795.76H9861.35V7629.09ZM9861.35 7906.87H9916.9V8073.54H9861.35V7906.87ZM10028 8684.65H9972.46V8573.54H10028V8684.65ZM10028 8462.43H9861.35V8351.31C9861.35 8289.65 9895.24 8236.66 9944.68 8207.76C9994.12 8236.66 10028 8289.65 10028 8351.31V8462.43ZM10028 8073.54H9972.46V7906.87H10028V8073.54ZM10028 7795.76H9972.46V7629.09H10028V7795.76ZM10194.7 8684.65H10139.1V8573.54H10194.7V8684.65ZM10305.8 8684.65H10250.2V8573.54H10305.8V8684.65ZM10305.8 8462.43H10139.1V8351.31C10139.1 8289.65 10173 8236.66 10222.5 8207.76C10271.9 8236.66 10305.8 8289.65 10305.8 8351.31V8462.43ZM10305.8 8073.54H10250.2V7906.87H10305.8V8073.54ZM10305.8 7795.76H10250.2V7629.09H10305.8V7795.76ZM10805.8 7073.54H10861.3V7129.09H10805.8V7073.54ZM10750.2 7351.31H10805.8V7517.98H10750.2V7351.31ZM10750.2 7629.09H10805.8V7795.76H10750.2V7629.09ZM10750.2 7906.87H10805.8V8073.54H10750.2V7906.87ZM10528 7073.54H10583.6V7129.09H10528V7073.54ZM10472.5 7351.31H10528V7517.98H10472.5V7351.31ZM10472.5 7629.09H10528V7795.76H10472.5V7629.09ZM10472.5 7906.87H10528V8073.54H10472.5V7906.87ZM10528 8684.65H10472.5V8573.54H10528V8684.65ZM10639.1 8684.65H10583.6V8573.54H10639.1V8684.65ZM10639.1 8462.43H10472.5V8351.31C10472.5 8289.65 10506.3 8236.66 10555.8 8207.76C10605.2 8236.66 10639.1 8289.65 10639.1 8351.31V8462.43ZM10639.1 8073.54H10583.6V7906.87H10639.1V8073.54ZM10639.1 7795.76H10583.6V7629.09H10639.1V7795.76ZM10639.1 7517.98H10583.6V7351.31H10639.1V7517.98ZM10805.8 8684.65H10750.2V8573.54H10805.8V8684.65ZM10916.9 8684.65H10861.3V8573.54H10916.9V8684.65ZM10916.9 8462.43H10750.2V8351.31C10750.2 8289.65 10784.1 8236.66 10833.6 8207.76C10883 8236.66 10916.9 8289.65 10916.9 8351.31V8462.43ZM10916.9 8073.54H10861.3V7906.87H10916.9V8073.54ZM10916.9 7795.76H10861.3V7629.09H10916.9V7795.76ZM10916.9 7517.98H10861.3V7351.31H10916.9V7517.98Z" fill="#222222"/>
<path d="M2148.75 5449.87L2139.91 5652.18L1664.87 5631.44L1646.81 6045.04L2121.86 6065.79L2113.09 6266.59L1043.11 6219.88L1051.87 6019.07L1483.46 6037.91L1501.52 5624.31L1069.93 5605.46L1078.77 5403.16L2148.75 5449.87Z" fill="#222222"/>
<path d="M1471.81 4643.46C1500.88 4549.87 1545.09 4485.07 1604.44 4449.06C1662.84 4412.74 1738.36 4408.98 1831 4437.75L2352.42 4599.71L2311.04 4732.93L2192.04 4736.8L2190.26 4742.53C2211.43 4772.15 2228.15 4800.9 2240.43 4828.8C2251.75 4856.4 2256.78 4885.71 2255.52 4916.73C2255.22 4948.05 2248.84 4983.77 2236.38 5023.88C2223.03 5066.85 2202.42 5102.86 2174.55 5131.9C2146.68 5160.94 2111.97 5180 2070.4 5189.08C2027.89 5197.86 1979.41 5193.8 1924.97 5176.89C1844.75 5151.98 1793.19 5105.59 1770.29 5037.74C1746.43 4969.6 1749.79 4879.54 1780.38 4767.58L1814.79 4641.62L1776.12 4629.6C1726.46 4614.18 1687.86 4613.71 1660.32 4628.19C1632.79 4642.68 1613.38 4668.06 1602.11 4704.35C1591.43 4738.73 1586.34 4775.37 1586.82 4814.26C1587.6 4852.2 1590.44 4890.26 1595.34 4928.43L1451.04 4948.01C1443.14 4902.62 1440.41 4854.13 1442.82 4802.52C1445.24 4750.92 1454.9 4697.9 1471.81 4643.46ZM1904.47 4757.43C1886.28 4826.13 1885.44 4877.7 1901.97 4912.15C1917.54 4946.31 1945.85 4969.76 1986.92 4982.52C2023.21 4993.79 2052.29 4992.88 2074.16 4979.77C2096.33 4965.72 2112.16 4943.41 2121.65 4912.85C2135.59 4867.96 2132.65 4825.17 2112.84 4784.46C2092.07 4743.45 2052.08 4713.75 1992.87 4695.36L1926.97 4674.89L1904.47 4757.43Z" fill="#222222"/>
<path d="M2597.18 4134.88C2561.38 4200.79 2517.61 4250.98 2465.88 4285.47C2413.74 4318.6 2353.71 4333.79 2285.79 4331.04C2217.46 4326.92 2141.12 4301.96 2056.76 4256.13C1968.89 4208.4 1905.35 4155.68 1866.15 4097.97C1826.54 4038.9 1807.6 3977.4 1809.32 3913.47C1810.64 3848.18 1828.73 3783.47 1863.57 3719.32C1885.53 3678.9 1910.45 3643.5 1938.33 3613.12C1966.68 3581.87 1993.46 3557.72 2018.65 3540.68L2117.86 3662.85C2095.31 3681.32 2074.07 3700.52 2054.16 3720.42C2034.24 3740.33 2017.84 3762.15 2004.95 3785.87C1985.38 3821.9 1977.94 3856.55 1982.62 3889.82C1987.31 3923.09 2003.65 3955.87 2031.64 3988.14C2059.23 4019.06 2099.38 4048.84 2152.1 4077.48C2203.07 4105.16 2249.03 4122.16 2289.98 4128.47C2331.41 4133.91 2367.36 4129.54 2397.82 4115.36C2427.41 4100.7 2451.51 4076.24 2470.12 4041.97C2488.74 4007.7 2501.09 3973.44 2507.17 3939.19C2513.74 3904.06 2515.83 3868.78 2513.45 3833.35L2657.12 3911.39C2659.02 3947.7 2655.13 3983.14 2645.46 4017.72C2636.66 4052.77 2620.57 4091.82 2597.18 4134.88Z" fill="#222222"/>
<path d="M2432.9 3265.88C2452.87 3282.53 2473.36 3300.89 2494.36 3320.99C2514.6 3340.45 2534.13 3359.97 2552.95 3379.56L2556.79 3374.95C2550.77 3363.43 2545.58 3349.34 2541.23 3332.7C2536.1 3315.41 2531.68 3298.07 2527.97 3280.65C2524.12 3261.83 2521.11 3244.36 2518.93 3228.22L2457.22 2901.55L2601.22 2728.67L2681.78 3180.37L3237.41 3235.19L3090.52 3411.53L2682.01 3358.21L2685.3 3476.14L2892.75 3648.94L2766.02 3801.08L1890.11 3071.44L2016.84 2919.31L2432.9 3265.88Z" fill="#222222"/>
<path d="M3044.85 2321.95C3099.77 2278.55 3156.15 2253.13 3213.98 2245.67C3271.98 2236.8 3329.01 2245.27 3385.08 2271.06C3440.52 2296.07 3492.43 2339.18 3540.78 2400.38L3600.3 2475.71L3209.56 2784.45C3257 2841.27 3306.77 2875.23 3358.87 2886.32C3411.13 2896.01 3461.98 2881.32 3511.41 2842.26C3550.64 2811.26 3582.46 2779.75 3606.86 2747.73C3630.64 2714.92 3652.8 2677.65 3673.36 2635.92L3767.28 2754.79C3749.25 2793.25 3726.94 2828.73 3700.35 2861.21C3673.75 2893.69 3636.92 2928.53 3589.84 2965.72C3530.21 3012.84 3467.95 3042.92 3403.06 3055.96C3338.33 3067.59 3273.8 3059.32 3209.47 3031.13C3145.14 3002.94 3084.46 2952.75 3027.42 2880.57C2969.76 2807.6 2933.17 2737.1 2917.66 2669.07C2901.52 2600.25 2904.71 2536.55 2927.24 2477.96C2949.94 2417.97 2989.14 2365.97 3044.85 2321.95ZM3133.69 2429.55C3098.38 2457.45 3079.97 2493.02 3078.46 2536.27C3077.11 2578.12 3094.32 2625.7 3130.07 2679.02L3370.17 2489.31C3346.61 2459.49 3321.53 2436.62 3294.92 2420.68C3268.31 2404.75 3241.41 2397.32 3214.23 2398.41C3187.21 2398.09 3160.37 2408.47 3133.69 2429.55Z" fill="#222222"/>
<path d="M3947.73 1749.47C3960.1 1742.9 3973.14 1736.55 3986.86 1730.4C4000.58 1724.25 4012.55 1720.16 4022.79 1718.12L4089.16 1881.59C4079.39 1884.51 4068.08 1888.81 4055.25 1894.49C4042.83 1898.81 4029.99 1904.49 4016.74 1911.52C3994.66 1923.24 3975.36 1939.14 3958.85 1959.22C3941.86 1978.42 3929.43 2000.87 3921.56 2026.56C3913.21 2051.36 3910.53 2079.39 3913.53 2110.63C3917.4 2141.4 3928.72 2174.46 3947.47 2209.79L4145.04 2582.12L3968.81 2675.63L3587.73 1957.47L3722.88 1885.76L3812.82 1997.65L3822.1 1992.73C3821.76 1960.08 3825.91 1928.45 3834.56 1897.82C3843.63 1865.84 3857.25 1837.1 3875.42 1811.61C3894.48 1785.65 3918.58 1764.93 3947.73 1749.47Z" fill="#222222"/>
<path d="M4942.45 2007.92C4959.36 2059.21 4962.37 2106.65 4951.47 2150.25C4940.27 2192.91 4915.32 2230.62 4876.63 2263.38C4837.95 2296.14 4784.89 2323.64 4717.46 2345.87C4666.18 2362.78 4620.29 2373.7 4579.8 2378.63C4539.3 2383.56 4498.82 2383.75 4458.36 2379.19L4408.1 2226.76C4452.04 2232.28 4497.89 2234.01 4545.64 2231.95C4594.35 2229.58 4636.75 2222.44 4672.84 2210.54C4715.57 2196.45 4743.93 2178.67 4757.92 2157.22C4771.9 2135.76 4774.67 2112.21 4766.21 2086.57C4761.2 2071.37 4752.39 2059.01 4739.77 2049.48C4728.1 2039.64 4707.73 2032.14 4678.65 2026.99C4650.21 2020.57 4609.75 2014.43 4557.28 2008.57C4506.07 2003.35 4462.45 1995.61 4426.43 1985.38C4390.42 1975.14 4360.27 1958.76 4335.99 1936.23C4311.4 1912.75 4292.06 1879.64 4277.97 1836.9C4255.11 1767.57 4264 1706.73 4304.65 1654.37C4345.94 1600.74 4409.31 1559.84 4494.79 1531.65C4541.32 1516.31 4586.1 1506.81 4629.12 1503.15C4672.77 1498.23 4718.31 1499.01 4765.72 1505.49L4753.85 1656.3C4727.61 1653.36 4701.37 1652.01 4675.12 1652.25C4649.51 1651.21 4625 1651.93 4601.59 1654.38C4579.13 1656.52 4557.46 1661.04 4536.56 1667.92C4503.32 1678.88 4480.19 1693.36 4467.17 1711.34C4453.83 1728.37 4450.76 1747.81 4457.97 1769.65C4462.98 1784.85 4471.79 1797.21 4484.41 1806.74C4496.71 1815.32 4516.77 1821.86 4544.59 1826.38C4572.4 1830.9 4611.28 1835.45 4661.23 1840.04C4710.55 1842.73 4753.7 1849.04 4790.67 1858.96C4827.32 1867.93 4857.94 1884.16 4882.53 1907.64C4908.07 1930.81 4928.04 1964.24 4942.45 2007.92Z" fill="#222222"/>
<path d="M6214.73 1700.89C6216.54 1768.87 6209.64 1829.07 6194.03 1881.51C6178.42 1933.94 6154.61 1979.09 6122.61 2016.95C6091.58 2053.79 6053.32 2082.32 6007.84 2102.54C5962.34 2121.75 5911.1 2132.12 5854.12 2133.64C5801.14 2135.05 5751.41 2127.37 5704.95 2110.6C5659.46 2092.8 5619.74 2066.35 5585.8 2031.24C5552.83 1995.1 5526.65 1951.28 5507.27 1899.78C5487.9 1848.28 5477.3 1788.54 5475.49 1720.56C5473.1 1630.6 5485.57 1554.24 5512.91 1491.49C5541.23 1427.71 5582.95 1379.08 5638.08 1345.61C5693.18 1311.13 5759.22 1292.86 5836.19 1290.82C5908.16 1288.9 5972.08 1303.71 6027.94 1335.23C6083.77 1365.76 6128.02 1412.1 6160.68 1474.25C6194.32 1535.38 6212.34 1610.92 6214.73 1700.89ZM5677.92 1715.18C5679.44 1772.16 5686.74 1820.98 5699.83 1861.65C5712.89 1901.31 5731.69 1931.32 5756.24 1951.68C5781.79 1972 5814.06 1981.65 5853.05 1980.61C5892.03 1979.57 5923.24 1968.24 5946.67 1946.61C5971.11 1924.95 5988.29 1893.98 5998.22 1853.71C6009.13 1812.4 6013.82 1763.26 6012.3 1706.28C6010.76 1648.3 6003.47 1599.98 5990.44 1561.31C5977.38 1521.64 5958.09 1492.14 5932.57 1472.82C5908.02 1452.46 5876.25 1442.8 5837.26 1443.84C5778.28 1445.41 5736.41 1469.53 5711.64 1516.21C5686.87 1562.88 5675.64 1629.21 5677.92 1715.18Z" fill="#222222"/>
<path d="M6959.51 1386.57C7042.82 1403.4 7103.84 1439.71 7142.56 1495.48C7181.28 1551.26 7190.24 1630.6 7169.45 1733.52L7064.58 2252.53L6869.03 2213.02L6966.47 1730.77C6978.56 1670.98 6977.27 1624.3 6962.63 1590.73C6948.19 1556.19 6918.91 1534.46 6874.8 1525.55C6809.13 1512.28 6759.78 1526.79 6726.75 1569.09C6693.91 1610.4 6668.58 1675.17 6650.76 1763.39L6572.03 2153.01L6376.48 2113.5L6537.5 1316.6L6687.47 1346.91L6694.32 1456.94L6701.67 1458.43C6724.86 1434.55 6750 1416.16 6777.09 1403.27C6804.17 1390.38 6833.21 1382.99 6864.2 1381.09C6895.39 1378.21 6927.16 1380.03 6959.51 1386.57Z" fill="#222222"/>
<path d="M7937.72 2475.38C7957.2 2485.6 7976.73 2493.58 7996.3 2499.32C8017.22 2504.64 8037.04 2508.83 8055.77 2511.87L7990.3 2636.75C7967.52 2634.97 7941.45 2629.77 7912.1 2621.15C7882.28 2613.42 7850.98 2600.96 7818.21 2583.78C7777.47 2562.42 7744.64 2536.74 7719.73 2506.74C7695.27 2475.85 7682.57 2438.7 7681.62 2395.3C7681.55 2352.36 7697.31 2300.77 7728.88 2240.55L7925.31 1865.92L7834.97 1818.56L7873.28 1745.49L8004.89 1739.98L8138.14 1615.06L8249.73 1673.57L8166.84 1831.66L8352.82 1929.18L8286.65 2055.38L8100.67 1957.87L7904.94 2331.17C7887.29 2364.82 7881.58 2394.01 7887.82 2418.73C7895.4 2443.03 7912.03 2461.91 7937.72 2475.38Z" fill="#222222"/>
<path d="M8792.56 2150.16C8772.71 2175.26 8752 2199.04 8730.42 2221.49C8710.24 2243.78 8694.71 2260.19 8683.84 2270.72L8693.25 2278.16C8723.17 2266.12 8752.03 2260.26 8779.83 2260.57C8809.04 2260.72 8837.41 2265.95 8864.96 2276.25C8893.29 2287.18 8919.61 2302.26 8943.93 2321.49C8988.64 2356.85 9020.56 2395.48 9039.69 2437.38C9058.82 2479.28 9063.77 2524.63 9054.51 2573.4C9045.88 2621.4 9019.86 2672.85 8976.44 2727.76L8648 3143.09L8491.51 3019.34L8796.69 2633.42C8835.15 2584.79 8855.45 2542.2 8857.58 2505.64C8859.72 2469.08 8843.14 2436.85 8807.84 2408.94C8774.11 2382.26 8740.23 2369.49 8706.19 2370.62C8672.77 2370.97 8639.11 2384.51 8605.22 2411.25C8571.94 2437.21 8536.7 2473.72 8499.48 2520.78L8253.85 2831.39L8097.36 2707.65L8804.49 1813.46L8960.97 1937.2L8792.56 2150.16Z" fill="#222222"/>
<path d="M9637.83 3003.52C9682.03 3057.8 9708.28 3113.8 9716.58 3171.51C9726.3 3229.37 9718.67 3286.52 9693.69 3342.96C9669.5 3398.77 9627.15 3451.3 9566.67 3500.54L9492.22 3561.16L9177.8 3174.97C9121.67 3223.24 9088.45 3273.51 9078.12 3325.76C9069.2 3378.16 9084.63 3428.78 9124.41 3477.64C9155.97 3516.41 9187.95 3547.76 9220.33 3571.69C9253.48 3594.99 9291.07 3616.61 9333.1 3636.55L9215.61 3732.21C9176.89 3714.74 9141.09 3692.94 9108.23 3666.83C9075.36 3640.72 9039.99 3604.4 9002.1 3557.87C8954.12 3498.93 8923.13 3437.12 8909.14 3372.43C8896.56 3307.88 8903.9 3243.23 8931.14 3178.5C8958.38 3113.76 9007.68 3052.35 9079.02 2994.26C9151.14 2935.54 9221.1 2897.93 9288.89 2881.41C9357.47 2864.27 9421.21 2866.53 9480.12 2888.21C9540.43 2910.02 9593 2948.46 9637.83 3003.52ZM9531.55 3093.92C9503.14 3059.02 9467.3 3041.14 9424.03 3040.26C9382.16 3039.53 9334.84 3057.42 9282.05 3093.96L9475.25 3331.25C9504.72 3307.26 9527.23 3281.84 9542.77 3255C9558.32 3228.16 9565.35 3201.16 9563.86 3174C9563.79 3146.98 9553.02 3120.29 9531.55 3093.92Z" fill="#222222"/>
<path d="M9772.09 4990.43L9702.15 4800.39L10148.4 4636.17L10005.4 4247.64L9559.16 4411.87L9489.74 4223.24L10494.8 3853.34L10564.3 4041.97L10158.8 4191.17L10301.8 4579.7L10707.2 4430.5L10777.2 4620.53L9772.09 4990.43Z" fill="#222222"/>
<path d="M10652.1 5305.59L9850.17 5439.49L9817.56 5244.2L10619.5 5110.3L10652.1 5305.59ZM10945.2 5157.79C10950 5186.39 10946.7 5212.29 10935.4 5235.47C10925 5258.49 10901.6 5273.05 10865.1 5279.14C10829.6 5285.07 10802.2 5279 10783 5260.92C10764.7 5242.67 10753.2 5219.25 10748.5 5190.65C10743.3 5160.07 10746.5 5133.19 10757.8 5110.01C10770.1 5086.66 10794 5072.02 10829.5 5066.09C10866 5060 10892.9 5066.15 10910.2 5084.56C10928.4 5102.8 10940.1 5127.21 10945.2 5157.79Z" fill="#222222"/>
<path d="M9898.65 5890.99L9877.79 5692.58L11011.6 5573.42L11032.4 5771.82L9898.65 5890.99Z" fill="#222222"/>
<path d="M9917.34 6261.55L9908.64 6062.24L11047.6 6012.52L11056.3 6211.83L9917.34 6261.55Z" fill="#222222"/>
</svg>
