<svg width="10400" height="7252" viewBox="0 0 10400 7252" fill="none" xmlns="http://www.w3.org/2000/svg">
<path d="M10100.7 6815.23H9925.39V6275.02L10036.1 6114.92H9902.48V6072.43H9860.07V5938.71H9527.76V6072.43H9283.47V5938.71H9195.46V6072.43H8954.16V5938.71H8866.08V6072.43H8599.1V5938.71H8511.02V6072.43H8226.63V5938.71H8136.45V6072.43H7851.84V5938.71H7763.76V6072.43H7542.26V5938.71H7454.26V6072.43H7144.57V5938.71H7056.56V6072.43H6857.86V5938.71H6766.86V6072.43H6678.85V6025.75H6747.25L6659.16 5978.36V5762.85H6511.26L6548.47 5620.26H6216.16V5280.89C6216.16 5254.57 6193.25 5231.7 6166.97 5231.7C6137.89 5231.7 6114.87 5254.61 6114.87 5280.89V5620.26L6064.89 5620.23V5192.84C6064.89 5153.05 6032.7 5120.93 5992.98 5120.93C5953.19 5120.93 5921.07 5152.93 5921.07 5192.84V5582.41L5868.06 5554V5104.9C5868.06 5058.11 5832.87 5023.11 5786.38 5023.11C5739.89 5023.11 5701.67 5058.22 5701.67 5104.9V5464.68L5651.66 5437.77V5063.99C5651.66 5009.67 5606.66 4967.71 5555.37 4967.71C5501.06 4967.71 5456.06 5009.71 5456.06 5063.99V5332.77L5406.16 5305.96V5024.87C5406.16 4968.87 5360.38 4922.97 5304.68 4922.19C5303.67 4922.3 5302.7 4922.3 5301.68 4922.3C5246.28 4923.2 5200.57 4969.2 5200.57 5024.91V5313.11L5149.18 5340.7V5063.79C5149.18 5009.48 5105.56 4967.51 5052.89 4967.51C5000.11 4967.51 4956.69 5009.51 4956.69 5063.79V5443.98L4905.29 5471.56V5104.67C4905.29 5057.88 4867.11 5022.88 4822 5022.88C4775.4 5022.88 4738.71 5057.99 4738.71 5104.67V5561.22L4687.31 5588.74V5192.95C4687.31 5153.15 4655.31 5121.03 4615.4 5121.03C4575.68 5121.03 4543.49 5153.04 4543.49 5192.95V5620.33H4492.09V5280.96C4492.09 5254.64 4469.18 5231.77 4441.48 5231.77C4413.78 5231.77 4390.87 5254.68 4390.87 5280.96V5620.33H4049.06L4084.96 5762.92H3960.97V5978.5L3873.08 6025.82H3939.67V6072.5H3850.17V5938.79H3762.27V6072.5H3563.46V5938.79H3475.45V6072.5L3165.95 6072.54V5938.82H3076.44V6072.54H2856.33V5938.82H2768.32V6072.54H2480.04V5938.82H2379.34V6072.54H2092.56V5938.82H2004.55V6072.54H1738.95V5938.82H1650.94V6072.54H1408.15V5938.82H1318.64V6072.54H1075.84V5938.82H745.034V6072.54H699.551V6115.03H567.563L678.258 6273.64V6815.29L591.073 6815.25L345.994 7251.95H10346L10100.7 6815.23ZM1087.27 6815.25H810.263V6519.16C810.263 6441.56 872.778 6382.08 948.769 6382.08C1024.87 6382.08 1087.27 6441.56 1087.27 6519.16V6815.25ZM1434.17 6815.25H1158.58V6519.16C1158.58 6441.56 1219.67 6382.08 1297.09 6382.08C1373.19 6382.08 1434.28 6441.56 1434.28 6519.16V6815.25H1434.17ZM1782.27 6815.25H1505.26V6519.16C1505.26 6441.56 1567.78 6382.08 1643.77 6382.08C1719.87 6382.08 1782.27 6441.56 1782.27 6519.16V6815.25ZM2129.07 6815.25H1853.59V6519.16C1853.59 6441.56 1914.57 6382.08 1992.09 6382.08C2068.2 6382.08 2129.1 6441.56 2129.1 6519.16L2129.07 6815.25ZM2477.24 6815.25H2200.15V6519.16C2200.15 6441.56 2262.67 6382.08 2338.74 6382.08C2414.73 6382.08 2477.24 6441.56 2477.24 6519.16V6815.25ZM2852.75 6815.25H2575.66V6519.16C2575.66 6441.56 2638.17 6382.08 2714.16 6382.08C2790.27 6382.08 2852.75 6441.56 2852.75 6519.16V6815.25ZM3199.35 6815.25H2923.87V6519.16C2923.87 6441.56 2984.85 6382.08 3062.38 6382.08C3138.48 6382.08 3199.39 6441.56 3199.39 6519.16L3199.35 6815.25ZM3547.52 6815.25H3270.44V6519.16C3270.44 6441.56 3332.95 6382.08 3409.02 6382.08C3485.12 6382.08 3547.52 6441.56 3547.52 6519.16V6815.25ZM3894.53 6815.25H3618.83V6519.16C3618.83 6441.56 3679.92 6382.08 3757.34 6382.08C3833.55 6382.08 3894.53 6441.56 3894.53 6519.16V6815.25ZM4337.53 6815.25H4027.84V6424.64C4027.84 6341.35 4096.53 6271.35 4182.63 6271.35C4267.34 6271.35 4337.41 6341.35 4337.41 6424.64V6815.25H4337.53ZM4712.21 6815.25H4402.7V6424.64C4402.7 6341.35 4472.7 6271.35 4557.49 6271.35C4643.59 6271.35 4712.21 6341.35 4712.21 6424.64V6815.25ZM5088.5 6815.25H4778.99V6424.64C4778.99 6341.35 4847.61 6271.35 4933.71 6271.35C5018.43 6271.35 5088.5 6341.35 5088.5 6424.64V6815.25ZM5463.4 6815.25H5155.32V6424.64C5155.32 6341.35 5223.94 6271.35 5310.04 6271.35C5396.25 6271.35 5463.45 6341.35 5463.45 6424.64L5463.4 6815.25ZM5841.19 6815.25H5531.68V6424.64C5531.68 6341.35 5598.69 6271.35 5684.86 6271.35C5770.96 6271.35 5841.07 6341.35 5841.07 6424.64V6815.25H5841.19ZM6216.09 6815.25H5906.58V6424.64C5906.58 6341.35 5976.59 6271.35 6059.76 6271.35C6145.86 6271.35 6215.98 6341.35 6215.98 6424.64V6815.25H6216.09ZM6590.88 6815.25H6281.29L6281.26 6424.64C6281.26 6341.35 6351.26 6271.35 6437.47 6271.35C6520.69 6271.35 6590.76 6341.35 6590.76 6424.64V6815.25H6590.88ZM7001.34 6815.25H6724.25V6519.16C6724.25 6441.56 6786.77 6382.08 6861.34 6382.08C6938.76 6382.08 7001.24 6441.56 7001.24 6519.16L7001.27 6815.25H7001.34ZM7346.63 6815.25H7072.73V6519.16C7072.73 6441.56 7132.21 6382.08 7209.74 6382.08C7287.15 6382.08 7346.63 6441.56 7346.63 6519.16V6815.25ZM7694.84 6815.25H7417.83V6519.16C7417.83 6441.56 7480.24 6382.08 7557.83 6382.08C7632.33 6382.08 7694.73 6441.56 7694.73 6519.16V6815.25H7694.84ZM8043.13 6815.25H7766.05V6519.16C7766.05 6441.56 7828.64 6382.08 7906.05 6382.08C7966.13 6382.08 8018.16 6420.67 8036.36 6476.07V6517.78H8043.06C8043.06 6518.26 8043.17 6518.79 8043.17 6519.16L8043.13 6815.25ZM8402.01 6815.25H8145.51V6519.16C8127.92 6518.75 8127.92 6518.26 8127.92 6517.78H8148.02V6446.39C8171.72 6407.39 8214.5 6382 8265 6382C8342.3 6382 8402.01 6441.49 8402.01 6519.09L8402.01 6815.25ZM8750.23 6815.25H8473.22V6519.16C8473.22 6441.56 8535.73 6382.08 8613.22 6382.08C8687.6 6382.08 8750.11 6441.56 8750.11 6519.16V6815.25H8750.23ZM9098.4 6815.25H8821.31V6519.16C8821.31 6441.56 8883.9 6382.08 8961.39 6382.08C9035.77 6382.08 9098.29 6441.56 9098.29 6519.16L9098.32 6815.25H9098.4ZM9446.73 6815.25H9169.64V6519.16C9169.64 6441.56 9232.16 6382.08 9306.73 6382.08C9384.14 6382.08 9446.73 6441.56 9446.73 6519.16V6815.25ZM9791.91 6815.25H9517.93V6519.16C9517.93 6441.56 9577.53 6382.08 9655.02 6382.08C9732.43 6382.08 9791.91 6441.56 9791.91 6519.16V6815.25Z" fill="white"/>
<path d="M4565.38 4844.16C4616.96 4651.75 4935.07 4502.05 5320.16 4502.05C5706.97 4502.05 6024.94 4651.87 6074.95 4844.16C6081.05 4826.98 6082.66 4809.57 6082.66 4788.76C6082.66 4571.08 5741.15 4391.18 5320.17 4391.18C4899.18 4391.18 4557.78 4571.08 4557.78 4788.76C4557.78 4809.54 4560.88 4826.94 4565.38 4844.16Z" fill="white"/>
<path d="M4735.28 4491.89L4756.47 4358.7L4779.27 4423.91V4466.02C4885.96 4409.01 5025.17 4369.93 5181.27 4355.22L5199.69 4247.82L5220.88 4313.04V4350.84C5209.46 4351.33 5197.97 4352.15 5185.58 4354.96C5229.26 4350.96 5274.26 4348.86 5320.19 4348.86C5528.78 4348.86 5717.59 4391.35 5854.67 4462.85C5846.96 4457.76 5838.69 4452.67 5828.28 4447.77L5841.46 4381.39L5861.26 4446.68V4466C5893.68 4483.4 5923.18 4502.31 5949.27 4522.71C5948.48 4256.33 5799.08 4026.03 5583.09 3920.92C5555.8 3841.71 5486.28 3778.11 5397.98 3752.31H5421.19V3683.99H5440.99V3573.19H5368.18L5330.67 3459.1C5356.76 3450.9 5375.55 3427.5 5375.55 3397.18C5375.55 3359.48 5346.54 3331.97 5310.27 3331.97C5272.46 3331.97 5243.56 3359.48 5243.56 3397.18C5243.56 3427.58 5262.35 3451.09 5289.46 3459.1L5251.16 3573.19H5176.78V3683.99H5199.58V3752.31H5223.68C5131.07 3779.41 5059.5 3847.99 5035.2 3932.52C4831.82 4042.43 4691.9 4265.79 4691.22 4522.59C4705.4 4511.48 4720.9 4500.88 4737 4490.7C4736.47 4491.19 4735.76 4491.6 4735.28 4491.9L4735.28 4491.89ZM5708.07 4313.06L5730.68 4381.38V4408.48C5717.28 4405.98 5706.87 4403.69 5693.17 4398.38L5708.07 4313.06ZM5574.5 4293.37L5597.3 4358.66V4374.57C5587.19 4373.07 5574.01 4371.76 5563.68 4367.46L5574.5 4293.37ZM5398.48 4247.89L5421.17 4313.1V4350.91C5407.06 4350.42 5393.06 4350.01 5381.98 4349.71L5398.48 4247.89ZM5022.01 4270.69L5044.81 4335.9V4374.61C5030.21 4376.4 5017.11 4381.2 5002.81 4383.22L5022.01 4270.69ZM4890.09 4313.06L4911.31 4381.38V4408.48C4898.32 4414.29 4885.41 4420.39 4871.3 4423.27L4890.09 4313.06Z" fill="white"/>
<path d="M5305.1 4922.46C5310.19 4922.46 5315.21 4922.34 5320.3 4922.34C5774.18 4922.34 6153.99 5056.06 6241.18 5231.93C6254.77 5207.33 6258.88 5182.21 6258.88 5153.73C6258.88 4939.83 5841.08 4769.01 5320.3 4769.01C4802.52 4769.01 4381.83 4939.82 4381.83 5153.73C4381.83 5182.21 4387.33 5207.33 4400.92 5231.93C4485.41 5058.53 4856.41 4925.94 5302.11 4922.54C5302.7 4922.54 5303.19 4922.35 5303.79 4922.35C5304.09 4922.35 5304.61 4922.46 5305.1 4922.46Z" fill="white"/>
<path d="M4712.48 4746.8V4816.8C4744.18 4803.88 4778.47 4794.49 4812.28 4785.62V4746.72C4812.28 4717.41 4790.86 4697.61 4763.16 4697.61C4735.46 4697.61 4712.48 4717.52 4712.48 4746.8Z" fill="white"/>
<path d="M4893.89 4701.28V4764.88C4926.08 4757.69 4958.8 4753.87 4993.68 4747.47V4701.28C4993.68 4675.07 4970.7 4652.16 4943 4652.16C4915.26 4652.16 4893.89 4675.07 4893.89 4701.28Z" fill="white"/>
<path d="M5073.76 4660.45V4738.06C5106.18 4732.74 5140.47 4730.94 5173.56 4729.56V4660.46C5173.56 4634.25 5152.07 4611.34 5124.45 4611.34C5096.75 4611.27 5073.76 4634.18 5073.76 4660.45Z" fill="white"/>
<path d="M5254.98 4637.55V4724.06C5276.09 4723.76 5298.89 4723.46 5320.19 4723.46C5331.9 4723.46 5343.17 4723.65 5354.78 4723.65V4637.55C5354.78 4611.46 5331.87 4588.44 5304.09 4588.44C5276.35 4588.44 5254.98 4611.42 5254.98 4637.55Z" fill="white"/>
<path d="M5436.39 4658.82V4725.42C5469.48 4729.54 5502.2 4731.03 5534.5 4733.02V4658.82C5534.5 4629.62 5511.59 4606.72 5485.5 4606.72C5456.15 4606.6 5436.39 4629.51 5436.39 4658.82Z" fill="white"/>
<path d="M5614.73 4701.28V4741.59C5651.04 4747.51 5683.72 4753.91 5716.02 4757.8V4701.28C5716.02 4675.07 5693.04 4652.16 5666.91 4652.16C5637.64 4652.16 5614.73 4675.07 5614.73 4701.28Z" fill="white"/>
<path d="M5796.04 4748.43V4777.63C5829.66 4785.94 5865.44 4794.73 5897.33 4804.13V4748.43C5897.33 4722.11 5874.35 4699.31 5845.23 4699.31C5818.83 4699.31 5796.04 4722.15 5796.04 4748.43Z" fill="white"/>
<path d="M4779.27 4467.07V4466.05C4764.56 4473.95 4750.56 4482.26 4737.08 4490.84C4749.89 4482.68 4764.3 4474.78 4779.27 4467.07Z" fill="white"/>
<path d="M5181.09 4355.81C5182.59 4355.51 5184.09 4355.21 5185.58 4354.79C5184.09 4354.91 5182.7 4354.98 5181.28 4355.09L5181.09 4355.81Z" fill="white"/>
<path d="M5861.3 4467.07V4466.05C5859.21 4464.97 5856.89 4463.85 5854.79 4462.87C5856.89 4464.18 5859.21 4465.68 5861.3 4467.07Z" fill="white"/>
<path d="M3137.49 5493.13L2885.31 5401.2L2741.79 5604.08L2748.11 5351.36L2477.65 5254.17L2752.67 5169.02L2758.95 4917.9L2892.14 5127.69L3148.64 5046.87L2980.7 5266.75L3137.49 5493.13Z" fill="white"/>
<path d="M3237.26 4654.76L3039.1 4473.7L2829.13 4606.62L2931.23 4375.36L2718.18 4182.48L3004.89 4208.5L3106.35 3978.69L3149.6 4223.41L3417.54 4246.38L3178.51 4385.71L3237.26 4654.76Z" fill="white"/>
<path d="M3647.23 3919.14L3531.01 3677.18L3286.6 3722.08L3467.67 3545.67L3342.06 3287.19L3598.32 3418.39L3778.25 3243.1L3726.99 3486.26L3966.97 3607.63L3693.2 3647.62L3647.23 3919.14Z" fill="white"/>
<path d="M4303.41 3391.06L4287.94 3123.09L4044.81 3071.66L4279.37 2977.37L4261.49 2690.54L4448.6 2909.33L4681.67 2815.63L4541.79 3021.03L4717.59 3224.55L4449.18 3157.42L4303.41 3391.06Z" fill="white"/>
<path d="M5119.99 3151.25L5207.06 2897.35L5001.47 2757.75L5254.26 2759.22L5346.25 2486.95L5436.66 2760.28L5687.86 2761.74L5480.66 2898.94L5566.38 3153.84L5343.33 2990.14L5119.99 3151.25Z" fill="white"/>
<path d="M5955.8 3235.61L6133.18 3034.15L5996.41 2826.67L6229.52 2924.49L6418.44 2707.93L6397.71 2995.07L6629.34 3092.28L6385.46 3140.03L6367.42 3408.35L6223.72 3171.92L5955.8 3235.61Z" fill="white"/>
<path d="M6697.04 3630.72L6936.83 3510.11L6887.49 3266.56L7067.17 3444.39L7323.32 3314.08L7196.81 3572.69L7375.35 3749.4L7131.29 3702.57L7014.32 3944.73L6969.35 3671.73L6697.04 3630.72Z" fill="white"/>
<path d="M7236.47 4274.54L7504.1 4253.99L7550.9 4009.93L7649.63 4242.65L7936.07 4219.34L7720.86 4410.57L7818.96 4641.82L7610.95 4505.86L7410.8 4685.49L7472.83 4415.85L7236.47 4274.54Z" fill="white"/>
<path d="M7493.45 5088.96L7748.66 5172.12L7885.07 4964.41L7887.49 5217.2L8161.15 5304.98L7889.24 5399.59L7891.64 5650.78L7751.27 5445.71L7497.72 5535.34L7657.97 5309.8L7493.45 5088.96Z" fill="white"/>
<path d="M1950 4743.5V4946H1474.5V5360H1950V5561H878.998V5360H1311V4946H878.998V4743.5H1950Z" fill="white"/>
<path d="M1285.77 4095.21C1314.84 4001.62 1359.05 3936.82 1418.41 3900.8C1476.81 3864.49 1552.32 3860.72 1644.96 3889.49L2166.38 4051.45L2125 4184.67L2006 4188.55L2004.22 4194.28C2025.39 4223.89 2042.11 4252.64 2054.39 4280.54C2065.71 4308.14 2070.74 4337.45 2069.48 4368.48C2069.18 4399.8 2062.8 4435.51 2050.34 4475.62C2036.99 4518.6 2016.38 4554.6 1988.51 4583.64C1960.65 4612.68 1925.93 4631.74 1884.37 4640.82C1841.85 4649.61 1793.37 4645.54 1738.94 4628.64C1658.72 4603.72 1607.15 4557.34 1584.25 4489.49C1560.39 4421.34 1563.75 4331.29 1594.34 4219.32L1628.75 4093.36L1590.08 4081.35C1540.42 4065.92 1501.82 4065.45 1474.28 4079.94C1446.75 4094.42 1427.34 4119.81 1416.07 4156.1C1405.39 4190.48 1400.3 4227.12 1400.78 4266.01C1401.56 4303.95 1404.4 4342 1409.3 4380.17L1265 4399.75C1257.11 4354.37 1254.37 4305.87 1256.78 4254.27C1259.2 4202.66 1268.86 4149.64 1285.77 4095.21ZM1718.44 4209.18C1700.24 4277.87 1699.41 4329.44 1715.93 4363.9C1731.5 4398.05 1759.82 4421.51 1800.88 4434.26C1837.17 4445.53 1866.25 4444.62 1888.12 4431.52C1910.29 4417.46 1926.12 4395.15 1935.61 4364.59C1949.55 4319.71 1946.61 4276.91 1926.8 4236.2C1906.03 4195.19 1866.04 4165.49 1806.83 4147.1L1740.93 4126.64L1718.44 4209.18Z" fill="white"/>
<path d="M2380.3 3683C2344.5 3748.91 2300.73 3799.11 2249 3833.59C2196.86 3866.72 2136.83 3881.91 2068.91 3879.16C2000.58 3875.05 1924.24 3850.08 1839.89 3804.26C1752.01 3756.53 1688.47 3703.8 1649.27 3646.09C1609.66 3587.02 1590.72 3525.52 1592.44 3461.59C1593.76 3396.3 1611.85 3331.59 1646.69 3267.44C1668.65 3227.02 1693.57 3191.62 1721.45 3161.24C1749.8 3129.99 1776.58 3105.84 1801.77 3088.8L1900.98 3210.97C1878.43 3229.45 1857.19 3248.64 1837.28 3268.55C1817.36 3288.45 1800.96 3310.27 1788.07 3333.99C1768.5 3370.02 1761.06 3404.67 1765.74 3437.94C1770.43 3471.22 1786.77 3503.99 1814.76 3536.26C1842.35 3567.18 1882.5 3596.96 1935.23 3625.6C1986.19 3653.28 2032.15 3670.28 2073.1 3676.6C2114.53 3682.03 2150.48 3677.66 2180.94 3663.48C2210.53 3648.82 2234.63 3624.36 2253.24 3590.09C2271.86 3555.82 2284.21 3521.56 2290.29 3487.31C2296.86 3452.18 2298.95 3416.9 2296.57 3381.47L2440.25 3459.51C2442.15 3495.82 2438.26 3531.27 2428.58 3565.84C2419.78 3600.89 2403.69 3639.95 2380.3 3683Z" fill="white"/>
<path d="M2174.99 2890.81C2194.97 2907.46 2215.46 2925.82 2236.46 2945.92C2256.7 2965.38 2276.23 2984.9 2295.05 3004.49L2298.89 2999.88C2292.87 2988.36 2287.68 2974.27 2283.33 2957.63C2278.2 2940.34 2273.78 2923 2270.06 2905.58C2266.22 2886.76 2263.21 2869.29 2261.03 2853.15L2199.31 2526.48L2343.32 2353.6L2423.88 2805.3L2979.51 2860.12L2832.62 3036.46L2424.11 2983.14L2427.4 3101.07L2634.85 3273.87L2508.12 3426.01L1632.21 2696.37L1758.93 2544.24L2174.99 2890.81Z" fill="white"/>
<path d="M2721.44 2025.15C2776.37 1981.75 2832.75 1956.32 2890.58 1948.86C2948.57 1940 3005.6 1948.46 3061.67 1974.26C3117.12 1999.27 3169.02 2042.37 3217.38 2103.58L3276.89 2178.9L2886.15 2487.64C2933.6 2544.47 2983.37 2578.42 3035.46 2589.51C3087.72 2599.2 3138.57 2584.51 3188 2545.46C3227.23 2514.46 3259.05 2482.95 3283.45 2450.92C3307.23 2418.11 3329.4 2380.84 3349.95 2339.11L3443.88 2457.98C3425.84 2496.45 3403.53 2531.92 3376.94 2564.4C3350.35 2596.88 3313.52 2631.72 3266.44 2668.92C3206.81 2716.04 3144.54 2746.12 3079.65 2759.15C3014.92 2770.79 2950.4 2762.51 2886.07 2734.32C2821.73 2706.14 2761.05 2655.95 2704.01 2583.76C2646.36 2510.79 2609.77 2440.29 2594.25 2372.26C2578.11 2303.45 2581.31 2239.75 2603.84 2181.16C2626.53 2121.17 2665.74 2069.16 2721.44 2025.15ZM2810.28 2132.74C2774.98 2160.64 2756.57 2196.22 2755.06 2239.47C2753.71 2281.31 2770.91 2328.9 2806.67 2382.21L3046.76 2192.5C3023.21 2162.69 2998.12 2139.81 2971.51 2123.88C2944.9 2107.94 2918.01 2100.52 2890.82 2101.6C2863.81 2101.28 2836.96 2111.66 2810.28 2132.74Z" fill="white"/>
<path d="M3545.3 1513.4C3557.67 1506.84 3570.71 1500.49 3584.43 1494.34C3598.15 1488.19 3610.13 1484.1 3620.37 1482.06L3686.73 1645.52C3676.96 1648.44 3665.65 1652.74 3652.82 1658.42C3640.4 1662.75 3627.56 1668.43 3614.31 1675.46C3592.23 1687.18 3572.93 1703.08 3556.42 1723.16C3539.43 1742.36 3527.01 1764.81 3519.13 1790.5C3510.78 1815.3 3508.1 1843.33 3511.1 1874.57C3514.97 1905.34 3526.29 1938.39 3545.04 1973.73L3742.61 2346.05L3566.38 2439.57L3185.3 1721.41L3320.45 1649.69L3410.39 1761.59L3419.67 1756.67C3419.33 1724.02 3423.48 1692.38 3432.13 1661.75C3441.2 1629.77 3454.82 1601.04 3472.99 1575.54C3492.05 1549.58 3516.15 1528.87 3545.3 1513.4Z" fill="white"/>
<path d="M4473.45 1807.35C4490.36 1858.63 4493.37 1906.08 4482.48 1949.68C4471.27 1992.34 4446.32 2030.04 4407.64 2062.81C4368.95 2095.57 4315.89 2123.07 4248.46 2145.3C4197.18 2162.21 4151.29 2173.13 4110.8 2178.06C4070.3 2182.99 4029.83 2183.17 3989.36 2178.61L3939.1 2026.19C3983.04 2031.7 4028.89 2033.43 4076.65 2031.38C4125.35 2029 4167.75 2021.87 4203.84 2009.97C4246.58 1995.88 4274.94 1978.1 4288.92 1956.64C4302.9 1935.18 4305.67 1911.63 4297.21 1885.99C4292.2 1870.8 4283.39 1858.44 4270.77 1848.91C4259.1 1839.07 4238.73 1831.57 4209.65 1826.42C4181.21 1820 4140.76 1813.86 4088.28 1808C4037.07 1802.77 3993.45 1795.04 3957.44 1784.8C3921.42 1774.57 3891.27 1758.18 3867 1735.65C3842.41 1712.17 3823.07 1679.06 3808.97 1636.33C3786.11 1567 3795.01 1506.15 3835.65 1453.79C3876.94 1400.17 3940.32 1359.26 4025.79 1331.08C4072.33 1315.73 4117.1 1306.23 4160.12 1302.58C4203.78 1297.66 4249.31 1298.44 4296.73 1304.92L4284.85 1455.72C4258.61 1452.79 4232.37 1451.44 4206.12 1451.67C4180.51 1450.64 4156 1451.35 4132.59 1453.81C4110.13 1455.95 4088.46 1460.46 4067.57 1467.35C4034.33 1478.31 4011.19 1492.78 3998.17 1510.77C3984.83 1527.8 3981.77 1547.24 3988.97 1569.08C3993.98 1584.28 4002.79 1596.64 4015.41 1606.16C4027.72 1614.74 4047.78 1621.29 4075.59 1625.81C4103.4 1630.33 4142.28 1634.88 4192.23 1639.47C4241.56 1642.16 4284.7 1648.46 4321.67 1658.39C4358.32 1667.36 4388.94 1683.59 4413.53 1707.07C4439.07 1730.24 4459.05 1763.66 4473.45 1807.35Z" fill="white"/>
<path d="M5619.42 1535.82C5621.23 1603.8 5614.33 1664 5598.72 1716.44C5583.11 1768.87 5559.3 1814.02 5527.3 1851.89C5496.27 1888.72 5458.01 1917.25 5412.53 1937.47C5367.03 1956.69 5315.79 1967.05 5258.81 1968.57C5205.83 1969.98 5156.1 1962.3 5109.64 1945.53C5064.15 1927.73 5024.43 1901.28 4990.49 1866.17C4957.52 1830.04 4931.34 1786.22 4911.96 1734.71C4892.59 1683.21 4881.99 1623.47 4880.18 1555.5C4877.79 1465.53 4890.26 1389.17 4917.6 1326.42C4945.92 1262.64 4987.64 1214.02 5042.77 1180.54C5097.87 1146.06 5163.91 1127.8 5240.88 1125.75C5312.85 1123.83 5376.77 1138.64 5432.63 1170.16C5488.46 1200.69 5532.71 1247.03 5565.37 1309.18C5599.01 1370.31 5617.03 1445.86 5619.42 1535.82ZM5082.61 1550.11C5084.13 1607.09 5091.43 1655.91 5104.52 1696.58C5117.58 1736.24 5136.38 1766.26 5160.93 1786.61C5186.48 1806.94 5218.75 1816.58 5257.74 1815.54C5296.72 1814.51 5327.93 1803.17 5351.36 1781.54C5375.8 1759.88 5392.98 1728.92 5402.91 1688.64C5413.82 1647.33 5418.51 1598.19 5416.99 1541.21C5415.45 1483.23 5408.16 1434.91 5395.13 1396.24C5382.07 1356.57 5362.78 1327.08 5337.26 1307.75C5312.71 1287.4 5280.94 1277.74 5241.95 1278.77C5182.97 1280.34 5141.1 1304.47 5116.33 1351.14C5091.56 1397.82 5080.33 1464.14 5082.61 1550.11Z" fill="white"/>
<path d="M6259.08 1224.36C6342.4 1241.19 6403.42 1277.5 6442.14 1333.27C6480.86 1389.05 6489.82 1468.39 6469.02 1571.31L6364.15 2090.32L6168.61 2050.81L6266.05 1568.56C6278.13 1508.77 6276.85 1462.09 6262.21 1428.52C6247.76 1393.98 6218.49 1372.25 6174.38 1363.34C6108.71 1350.07 6059.35 1364.58 6026.32 1406.88C5993.49 1448.19 5968.16 1512.96 5950.33 1601.17L5871.61 1990.8L5676.06 1951.29L5837.08 1154.39L5987.05 1184.7L5993.89 1294.73L6001.24 1296.22C6024.43 1272.34 6049.57 1253.95 6076.66 1241.06C6103.75 1228.17 6132.79 1220.78 6163.78 1218.88C6194.97 1216 6226.74 1217.82 6259.08 1224.36Z" fill="white"/>
<path d="M7101.51 2282.19C7120.99 2292.41 7140.52 2300.39 7160.09 2306.13C7181.01 2311.46 7200.83 2315.64 7219.56 2318.69L7154.08 2443.56C7131.31 2441.78 7105.24 2436.58 7075.88 2427.97C7046.06 2420.23 7014.77 2407.78 6982 2390.6C6941.26 2369.24 6908.43 2343.55 6883.52 2313.55C6859.06 2282.67 6846.36 2245.52 6845.41 2202.11C6845.34 2159.17 6861.09 2107.59 6892.67 2047.36L7089.1 1672.74L6998.76 1625.37L7037.07 1552.31L7168.68 1546.79L7301.92 1421.88L7413.52 1480.39L7330.63 1638.48L7516.61 1735.99L7450.44 1862.2L7264.45 1764.68L7068.73 2137.98C7051.08 2171.63 7045.37 2200.82 7051.61 2225.54C7059.19 2249.84 7075.82 2268.73 7101.51 2282.19Z" fill="white"/>
<path d="M7879.48 1917.06C7859.63 1942.16 7838.92 1965.94 7817.33 1988.39C7797.16 2010.68 7781.63 2027.09 7770.76 2037.61L7780.17 2045.06C7810.09 2033.02 7838.95 2027.16 7866.75 2027.47C7895.96 2027.62 7924.33 2032.84 7951.88 2043.15C7980.21 2054.08 8006.53 2069.16 8030.84 2088.39C8075.55 2123.74 8107.48 2162.37 8126.61 2204.28C8145.74 2246.18 8150.68 2291.52 8141.43 2340.3C8132.8 2388.3 8106.78 2439.75 8063.36 2494.65L7734.92 2909.98L7578.43 2786.24L7883.61 2400.32C7922.07 2351.69 7942.37 2309.1 7944.5 2272.54C7946.64 2235.98 7930.06 2203.75 7894.76 2175.83C7861.03 2149.16 7827.15 2136.39 7793.11 2137.52C7759.69 2137.86 7726.03 2151.41 7692.14 2178.15C7658.86 2204.1 7623.61 2240.61 7586.4 2287.68L7340.77 2598.29L7184.28 2474.54L7891.4 1580.35L8047.89 1704.1L7879.48 1917.06Z" fill="white"/>
<path d="M8638.8 2701.6C8682.99 2755.88 8709.24 2811.88 8717.55 2869.6C8727.26 2927.46 8719.63 2984.6 8694.66 3041.04C8670.46 3096.85 8628.12 3149.38 8567.63 3198.63L8493.19 3259.24L8178.76 2873.05C8122.64 2921.33 8089.41 2971.59 8079.08 3023.84C8070.16 3076.24 8085.59 3126.86 8125.37 3175.72C8156.94 3214.49 8188.91 3245.84 8221.29 3269.77C8254.44 3293.07 8292.03 3314.69 8334.06 3334.64L8216.58 3430.29C8177.85 3412.82 8142.06 3391.03 8109.19 3364.91C8076.32 3338.8 8040.95 3302.48 8003.07 3255.95C7955.08 3197.02 7924.1 3135.2 7910.11 3070.51C7897.53 3005.96 7904.86 2941.31 7932.1 2876.58C7959.35 2811.84 8008.64 2750.43 8079.98 2692.34C8152.1 2633.62 8222.06 2596.01 8289.86 2579.5C8358.43 2562.35 8422.17 2564.62 8481.08 2586.29C8541.4 2608.1 8593.97 2646.54 8638.8 2701.6ZM8532.51 2792C8504.1 2757.11 8468.26 2739.22 8424.99 2738.34C8383.13 2737.61 8335.8 2755.51 8283.02 2792.04L8476.22 3029.33C8505.69 3005.34 8528.19 2979.92 8543.73 2953.08C8559.28 2926.24 8566.31 2899.24 8564.83 2872.08C8564.75 2845.06 8553.98 2818.37 8532.51 2792Z" fill="white"/>
<path d="M8685.83 4573.31L8615.89 4383.28L9062.13 4219.05L8919.15 3830.52L8472.91 3994.75L8403.49 3806.12L9408.58 3436.22L9478 3624.85L9072.59 3774.06L9215.57 4162.58L9620.99 4013.38L9690.93 4203.42L8685.83 4573.31Z" fill="white"/>
<path d="M9525.05 4766.93L8723.15 4900.83L8690.54 4705.53L9492.44 4571.63L9525.05 4766.93ZM9818.21 4619.12C9822.98 4647.73 9819.7 4673.62 9808.37 4696.81C9798.02 4719.82 9774.6 4734.38 9738.1 4740.48C9702.59 4746.4 9675.22 4740.33 9655.98 4722.25C9637.72 4704.01 9626.21 4680.59 9621.43 4651.98C9616.33 4621.41 9619.44 4594.53 9630.78 4571.34C9643.1 4547.99 9667.02 4533.35 9702.53 4527.43C9739.02 4521.33 9765.9 4527.49 9783.17 4545.9C9801.42 4564.14 9813.1 4588.55 9818.21 4619.12Z" fill="white"/>
<path d="M8751.2 5260.69L8744.24 5061.31L9883.54 5021.53L9890.5 5220.91L8751.2 5260.69Z" fill="white"/>
<path d="M8761.59 5602.57L8761.59 5403.07L9901.59 5403.07L9901.59 5602.57L8761.59 5602.57Z" fill="white"/>
</svg>
