<svg width="10091" height="6592" viewBox="0 0 10091 6592" fill="none" xmlns="http://www.w3.org/2000/svg">
<path d="M4530.65 4060.07L4551.67 3937.89L4574.28 3997.71V4036.34C4680.12 3984.04 4818.21 3948.19 4973.06 3934.7L4991.33 3836.18L5012.35 3896V3930.68C5001.02 3931.13 4989.62 3931.88 4977.33 3934.46C5020.67 3930.79 5065.3 3928.86 5110.87 3928.86C5317.78 3928.86 5505.08 3967.84 5641.06 4033.43C5633.41 4028.76 5625.2 4024.09 5614.88 4019.59L5627.95 3958.71L5647.59 4018.6V4036.31C5679.75 4052.28 5709.01 4069.62 5734.9 4088.34C5734.12 3843.98 5585.91 3632.72 5371.65 3536.3C5344.58 3463.63 5275.62 3405.29 5188.03 3381.63H5211.05V3318.96H5230.7V3217.32H5158.47L5121.26 3112.65C5147.15 3105.13 5165.79 3083.67 5165.79 3055.86C5165.79 3021.28 5137.01 2996.04 5101.03 2996.04C5063.52 2996.04 5034.85 3021.28 5034.85 3055.86C5034.85 3083.74 5053.49 3105.31 5080.38 3112.65L5042.39 3217.32H4968.61V3318.96H4991.22V3381.63H5015.14C4923.27 3406.49 4852.26 3469.4 4828.17 3546.94C4626.41 3647.77 4487.61 3852.66 4486.94 4088.23C4501.01 4078.03 4516.39 4068.32 4532.35 4058.98C4531.83 4059.42 4531.13 4059.8 4530.64 4060.08L4530.65 4060.07ZM5495.63 3896.03L5518.06 3958.7V3983.56C5504.77 3981.26 5494.44 3979.16 5480.85 3974.29L5495.63 3896.03ZM5363.13 3877.96L5385.75 3937.85V3952.45C5375.72 3951.07 5362.65 3949.87 5352.4 3945.92L5363.13 3877.96ZM5188.53 3836.24L5211.04 3896.06V3930.74C5197.04 3930.3 5183.15 3929.92 5172.16 3929.65L5188.53 3836.24ZM4815.08 3857.15L4837.69 3916.97V3952.48C4823.21 3954.13 4810.22 3958.53 4796.03 3960.38L4815.08 3857.15ZM4684.22 3896.03L4705.27 3958.7V3983.56C4692.39 3988.88 4679.57 3994.48 4665.57 3997.12L4684.22 3896.03Z" fill="#222222"/>
<path d="M4362.11 4383.22C4413.28 4206.71 4728.84 4069.39 5110.84 4069.39C5494.54 4069.39 5809.96 4206.82 5859.57 4383.22C5865.63 4367.46 5867.22 4351.49 5867.22 4332.4C5867.22 4132.71 5528.45 3967.68 5110.85 3967.68C4693.24 3967.68 4354.58 4132.71 4354.58 4332.4C4354.58 4351.45 4357.65 4367.42 4362.11 4383.22Z" fill="#222222"/>
<path d="M5095.9 4455.04C5100.95 4455.04 5105.92 4454.94 5110.97 4454.94C5561.22 4454.94 5937.98 4577.6 6024.47 4738.93C6037.95 4716.37 6042.03 4693.32 6042.03 4667.19C6042.03 4470.98 5627.58 4314.28 5110.98 4314.28C4597.35 4314.28 4180.03 4470.97 4180.03 4667.19C4180.03 4693.32 4185.49 4716.37 4198.97 4738.93C4282.78 4579.86 4650.81 4458.23 5092.93 4455.11C5093.52 4455.11 5094.01 4454.94 5094.6 4454.94C5094.9 4454.94 5095.41 4455.04 5095.9 4455.04Z" fill="#222222"/>
<path d="M4508.03 4293.9V4358.12C4539.48 4346.27 4573.5 4337.65 4607.03 4329.51V4293.83C4607.03 4266.95 4585.79 4248.78 4558.31 4248.78C4530.83 4248.78 4508.03 4267.05 4508.03 4293.9Z" fill="#222222"/>
<path d="M4687.98 4252.15V4310.49C4719.92 4303.9 4752.37 4300.39 4786.98 4294.52V4252.15C4786.98 4228.11 4764.18 4207.09 4736.7 4207.09C4709.19 4207.09 4687.98 4228.11 4687.98 4252.15Z" fill="#222222"/>
<path d="M4866.41 4214.7V4285.89C4898.57 4281.01 4932.59 4279.36 4965.41 4278.09V4214.7C4965.41 4190.66 4944.1 4169.65 4916.69 4169.65C4889.21 4169.58 4866.41 4190.59 4866.41 4214.7Z" fill="#222222"/>
<path d="M5046.18 4193.69V4273.04C5067.12 4272.77 5089.74 4272.49 5110.87 4272.49C5122.49 4272.49 5133.67 4272.67 5145.18 4272.67V4193.69C5145.18 4169.75 5122.45 4148.63 5094.9 4148.63C5067.38 4148.63 5046.18 4169.72 5046.18 4193.69Z" fill="#222222"/>
<path d="M5226.13 4213.21V4274.3C5258.96 4278.07 5291.41 4279.45 5323.46 4281.27V4213.21C5323.46 4186.42 5300.73 4165.41 5274.85 4165.41C5245.74 4165.3 5226.13 4186.32 5226.13 4213.21Z" fill="#222222"/>
<path d="M5403.04 4252.15V4289.13C5439.06 4294.56 5471.48 4300.43 5503.53 4304V4252.15C5503.53 4228.11 5480.73 4207.09 5454.81 4207.09C5425.77 4207.09 5403.04 4228.11 5403.04 4252.15Z" fill="#222222"/>
<path d="M5582.9 4295.4V4322.19C5616.25 4329.81 5651.75 4337.88 5683.38 4346.5V4295.4C5683.38 4271.26 5660.58 4250.35 5631.69 4250.35C5605.51 4250.35 5582.9 4271.3 5582.9 4295.4Z" fill="#222222"/>
<path d="M4574.29 4037.29V4036.37C4559.69 4043.61 4545.81 4051.24 4532.44 4059.1C4545.14 4051.61 4559.43 4044.37 4574.29 4037.29Z" fill="#222222"/>
<path d="M4972.88 3935.23C4974.37 3934.96 4975.86 3934.68 4977.34 3934.3C4975.86 3934.41 4974.48 3934.48 4973.07 3934.58L4972.88 3935.23Z" fill="#222222"/>
<path d="M5647.64 4037.3V4036.37C5645.56 4035.37 5643.26 4034.34 5641.18 4033.45C5643.26 4034.65 5645.56 4036.03 5647.64 4037.3Z" fill="#222222"/>
<path d="M9650.34 6191.41H9485.5V5695.9L9589.59 5549.04H9463.97V5510.07H9424.09V5387.42H9111.62V5510.07H8881.91V5387.42H8799.16V5510.07H8572.26V5387.42H8489.43V5510.07H8238.4V5387.42H8155.57V5510.07H7888.16V5387.42H7803.37V5510.07H7535.75V5387.42H7452.92V5510.07H7244.65V5387.42H7161.9V5510.07H6870.7V5387.42H6787.95V5510.07H6601.11V5387.42H6515.54V5510.07H6432.79V5467.25H6497.1L6414.27 5423.78V5226.11H6275.2L6310.18 5095.32H5997.72V4784.02C5997.72 4759.88 5976.18 4738.9 5951.47 4738.9C5924.12 4738.9 5902.47 4759.91 5902.47 4784.02V5095.32L5855.48 5095.28V4703.25C5855.48 4666.76 5825.21 4637.29 5787.86 4637.29C5750.44 4637.29 5720.24 4666.65 5720.24 4703.25V5060.59L5670.4 5034.53V4622.6C5670.4 4579.68 5637.31 4547.57 5593.6 4547.57C5549.88 4547.57 5513.94 4579.78 5513.94 4622.6V4952.61L5466.91 4927.92V4585.07C5466.91 4535.24 5424.6 4496.75 5376.38 4496.75C5325.31 4496.75 5283 4535.28 5283 4585.07V4831.61L5236.08 4807.02V4549.19C5236.08 4497.82 5193.03 4455.72 5140.65 4455C5139.7 4455.1 5138.79 4455.1 5137.84 4455.1C5085.74 4455.93 5042.76 4498.13 5042.76 4549.22V4813.58L4994.43 4838.88V4584.89C4994.43 4535.07 4953.42 4496.57 4903.9 4496.57C4854.27 4496.57 4813.44 4535.1 4813.44 4584.89V4933.61L4765.11 4958.92V4622.39C4765.11 4579.47 4729.2 4547.36 4686.79 4547.36C4642.97 4547.36 4608.47 4579.57 4608.47 4622.39V5041.16L4560.14 5066.4V4703.35C4560.14 4666.85 4530.05 4637.39 4492.52 4637.39C4455.18 4637.39 4424.91 4666.75 4424.91 4703.35V5095.38H4376.58V4784.08C4376.58 4759.95 4355.04 4738.97 4328.99 4738.97C4302.94 4738.97 4281.4 4759.98 4281.4 4784.08V5095.38H3959.99L3993.75 5226.17H3877.17V5423.92L3794.52 5467.32H3857.14V5510.14H3772.98V5387.49H3690.33V5510.14H3503.39V5387.49H3420.63V5510.14L3129.6 5510.17V5387.52H3045.44V5510.17H2838.47V5387.52H2755.71V5510.17H2484.64V5387.52H2389.96V5510.17H2120.29V5387.52H2037.54V5510.17H1787.8V5387.52H1705.05V5510.17H1476.74V5387.52H1392.58V5510.17H1164.28V5387.52H853.217V5510.17H810.45V5549.14H686.341L790.427 5694.63V6191.46L708.448 6191.43L478 6592H9881L9650.34 6191.41ZM1175.03 6191.43H914.552V5919.84C914.552 5848.66 973.335 5794.1 1044.79 5794.1C1116.35 5794.1 1175.03 5848.66 1175.03 5919.84V6191.43ZM1501.21 6191.43H1242.08V5919.84C1242.08 5848.66 1299.52 5794.1 1372.31 5794.1C1443.87 5794.1 1501.31 5848.66 1501.31 5919.84V6191.43H1501.21ZM1828.53 6191.43H1568.06V5919.84C1568.06 5848.66 1626.84 5794.1 1698.29 5794.1C1769.86 5794.1 1828.53 5848.66 1828.53 5919.84V6191.43ZM2154.62 6191.43H1895.59V5919.84C1895.59 5848.66 1952.93 5794.1 2025.83 5794.1C2097.39 5794.1 2154.66 5848.66 2154.66 5919.84L2154.62 6191.43ZM2482.01 6191.43H2221.47V5919.84C2221.47 5848.66 2280.25 5794.1 2351.77 5794.1C2423.23 5794.1 2482.01 5848.66 2482.01 5919.84V6191.43ZM2835.1 6191.43H2574.55V5919.84C2574.55 5848.66 2633.34 5794.1 2704.79 5794.1C2776.35 5794.1 2835.1 5848.66 2835.1 5919.84V6191.43ZM3161.01 6191.43H2901.98V5919.84C2901.98 5848.66 2959.32 5794.1 3032.21 5794.1C3103.77 5794.1 3161.04 5848.66 3161.04 5919.84L3161.01 6191.43ZM3488.4 6191.43H3227.85V5919.84C3227.85 5848.66 3286.64 5794.1 3358.16 5794.1C3429.72 5794.1 3488.4 5848.66 3488.4 5919.84V6191.43ZM3814.69 6191.43H3555.45V5919.84C3555.45 5848.66 3612.89 5794.1 3685.68 5794.1C3757.35 5794.1 3814.69 5848.66 3814.69 5919.84V6191.43ZM4231.24 6191.43H3940.04V5833.14C3940.04 5756.74 4004.63 5692.53 4085.58 5692.53C4165.24 5692.53 4231.13 5756.74 4231.13 5833.14V6191.43H4231.24ZM4583.55 6191.43H4292.52V5833.14C4292.52 5756.74 4358.35 5692.53 4438.07 5692.53C4519.03 5692.53 4583.55 5756.74 4583.55 5833.14V6191.43ZM4937.38 6191.43H4646.35V5833.14C4646.35 5756.74 4710.87 5692.53 4791.83 5692.53C4871.49 5692.53 4937.38 5756.74 4937.38 5833.14V6191.43ZM5289.9 6191.43H5000.21V5833.14C5000.21 5756.74 5064.73 5692.53 5145.7 5692.53C5226.76 5692.53 5289.94 5756.74 5289.94 5833.14L5289.9 6191.43ZM5645.13 6191.43H5354.1V5833.14C5354.1 5756.74 5417.11 5692.53 5498.13 5692.53C5579.09 5692.53 5645.02 5756.74 5645.02 5833.14V6191.43H5645.13ZM5997.65 6191.43H5706.62V5833.14C5706.62 5756.74 5772.45 5692.53 5850.65 5692.53C5931.61 5692.53 5997.54 5756.74 5997.54 5833.14V6191.43H5997.65ZM6350.06 6191.43H6058.96L6058.93 5833.14C6058.93 5756.74 6124.75 5692.53 6205.82 5692.53C6284.06 5692.53 6349.96 5756.74 6349.96 5833.14V6191.43H6350.06ZM6736.02 6191.43H6475.48V5919.84C6475.48 5848.66 6534.26 5794.1 6604.38 5794.1C6677.17 5794.1 6735.92 5848.66 6735.92 5919.84L6735.96 6191.43H6736.02ZM7060.7 6191.43H6803.15V5919.84C6803.15 5848.66 6859.08 5794.1 6931.98 5794.1C7004.77 5794.1 7060.7 5848.66 7060.7 5919.84V6191.43ZM7388.12 6191.43H7127.65V5919.84C7127.65 5848.66 7186.33 5794.1 7259.29 5794.1C7329.34 5794.1 7388.02 5848.66 7388.02 5919.84V6191.43H7388.12ZM7715.62 6191.43H7455.08V5919.84C7455.08 5848.66 7513.93 5794.1 7586.72 5794.1C7643.21 5794.1 7692.14 5829.5 7709.25 5880.32V5918.57H7715.55C7715.55 5919.01 7715.66 5919.5 7715.66 5919.84L7715.62 6191.43ZM8053.07 6191.43H7811.89V5919.84C7795.34 5919.46 7795.34 5919.02 7795.34 5918.57H7814.24V5853.09C7836.53 5817.31 7876.76 5794.03 7924.24 5794.03C7996.93 5794.03 8053.07 5848.59 8053.07 5919.78L8053.07 6191.43ZM8380.5 6191.43H8120.03V5919.84C8120.03 5848.66 8178.81 5794.1 8251.67 5794.1C8321.61 5794.1 8380.39 5848.66 8380.39 5919.84V6191.43H8380.5ZM8707.89 6191.43H8447.34V5919.84C8447.34 5848.66 8506.2 5794.1 8579.06 5794.1C8649 5794.1 8707.78 5848.66 8707.78 5919.84L8707.81 6191.43H8707.89ZM9035.42 6191.43H8774.88V5919.84C8774.88 5848.66 8833.66 5794.1 8903.78 5794.1C8976.57 5794.1 9035.42 5848.66 9035.42 5919.84V6191.43ZM9360 6191.43H9102.37V5919.84C9102.37 5848.66 9158.41 5794.1 9231.27 5794.1C9304.07 5794.1 9360 5848.66 9360 5919.84V6191.43Z" fill="#222222"/>
<path d="M2780.77 5010.61L2528.58 4918.68L2385.07 5121.56L2391.39 4868.84L2120.93 4771.65L2395.94 4686.49L2402.22 4435.37L2535.42 4645.17L2791.92 4564.35L2623.97 4784.22L2780.77 5010.61Z" fill="#F5F5F5"/>
<path d="M2780.77 5010.61L2528.58 4918.68L2385.07 5121.56L2391.39 4868.84L2120.93 4771.65L2395.94 4686.49L2402.22 4435.37L2535.42 4645.17L2791.92 4564.35L2623.97 4784.22L2780.77 5010.61Z" fill="#0A3161" fill-opacity="0.8"/>
<path d="M2880.53 4172.23L2682.38 3991.18L2472.41 4124.1L2574.5 3892.84L2361.45 3699.96L2648.17 3725.97L2749.62 3496.17L2792.87 3740.89L3060.82 3763.86L2821.79 3903.19L2880.53 4172.23Z" fill="#F5F5F5"/>
<path d="M2880.53 4172.23L2682.38 3991.18L2472.41 4124.1L2574.5 3892.84L2361.45 3699.96L2648.17 3725.97L2749.62 3496.17L2792.87 3740.89L3060.82 3763.86L2821.79 3903.19L2880.53 4172.23Z" fill="#0A3161" fill-opacity="0.8"/>
<path d="M3290.5 3436.62L3174.29 3194.66L2929.87 3239.56L3110.95 3063.15L2985.34 2804.67L3241.6 2935.87L3421.53 2760.58L3370.27 3003.74L3610.25 3125.11L3336.48 3165.1L3290.5 3436.62Z" fill="#F5F5F5"/>
<path d="M3290.5 3436.62L3174.29 3194.66L2929.87 3239.56L3110.95 3063.15L2985.34 2804.67L3241.6 2935.87L3421.53 2760.58L3370.27 3003.74L3610.25 3125.11L3336.48 3165.1L3290.5 3436.62Z" fill="#B31942" fill-opacity="0.8"/>
<path d="M3946.69 2908.53L3931.22 2640.57L3688.09 2589.14L3922.64 2494.85L3904.76 2208.01L4091.88 2426.81L4324.95 2333.11L4185.07 2538.51L4360.87 2742.03L4092.46 2674.9L3946.69 2908.53Z" fill="#F5F5F5"/>
<path d="M3946.69 2908.53L3931.22 2640.57L3688.09 2589.14L3922.64 2494.85L3904.76 2208.01L4091.88 2426.81L4324.95 2333.11L4185.07 2538.51L4360.87 2742.03L4092.46 2674.9L3946.69 2908.53Z" fill="#B31942" fill-opacity="0.8"/>
<path d="M4763.26 2668.72L4850.34 2414.82L4644.74 2275.23L4897.54 2276.7L4989.52 2004.42L5079.94 2277.75L5331.13 2279.21L5123.93 2416.41L5209.66 2671.31L4986.6 2507.62L4763.26 2668.72Z" fill="#F5F5F5"/>
<path d="M4763.26 2668.72L4850.34 2414.82L4644.74 2275.23L4897.54 2276.7L4989.52 2004.42L5079.94 2277.75L5331.13 2279.21L5123.93 2416.41L5209.66 2671.31L4986.6 2507.62L4763.26 2668.72Z" fill="#732982" fill-opacity="0.8"/>
<path d="M5599.08 2753.09L5776.46 2551.63L5639.69 2344.14L5872.8 2441.97L6061.72 2225.4L6040.99 2512.55L6272.62 2609.76L6028.74 2657.51L6010.7 2925.83L5867 2689.4L5599.08 2753.09Z" fill="#F5F5F5"/>
<path d="M5599.08 2753.09L5776.46 2551.63L5639.69 2344.14L5872.8 2441.97L6061.72 2225.4L6040.99 2512.55L6272.62 2609.76L6028.74 2657.51L6010.7 2925.83L5867 2689.4L5599.08 2753.09Z" fill="#B31942" fill-opacity="0.8"/>
<path d="M6340.31 3148.19L6580.11 3027.59L6530.76 2784.03L6710.44 2961.86L6966.59 2831.56L6840.08 3090.17L7018.63 3266.87L6774.57 3220.05L6657.59 3462.21L6612.62 3189.21L6340.31 3148.19Z" fill="#F5F5F5"/>
<path d="M6340.31 3148.19L6580.11 3027.59L6530.76 2784.03L6710.44 2961.86L6966.59 2831.56L6840.08 3090.17L7018.63 3266.87L6774.57 3220.05L6657.59 3462.21L6612.62 3189.21L6340.31 3148.19Z" fill="#B31942" fill-opacity="0.8"/>
<path d="M6879.75 3792.01L7147.38 3771.46L7194.18 3527.4L7292.91 3760.13L7579.35 3736.81L7364.14 3928.05L7462.24 4159.3L7254.23 4023.34L7054.08 4202.96L7116.11 3933.33L6879.75 3792.01Z" fill="#F5F5F5"/>
<path d="M6879.75 3792.01L7147.38 3771.46L7194.18 3527.4L7292.91 3760.13L7579.35 3736.81L7364.14 3928.05L7462.24 4159.3L7254.23 4023.34L7054.08 4202.96L7116.11 3933.33L6879.75 3792.01Z" fill="#0A3161" fill-opacity="0.8"/>
<path d="M7136.73 4606.44L7391.93 4689.6L7528.35 4481.88L7530.77 4734.67L7804.42 4822.46L7532.52 4917.06L7534.92 5168.25L7394.55 4963.19L7141 5052.82L7301.25 4827.27L7136.73 4606.44Z" fill="#F5F5F5"/>
<path d="M7136.73 4606.44L7391.93 4689.6L7528.35 4481.88L7530.77 4734.67L7804.42 4822.46L7532.52 4917.06L7534.92 5168.25L7394.55 4963.19L7141 5052.82L7301.25 4827.27L7136.73 4606.44Z" fill="#0A3161" fill-opacity="0.8"/>
<path d="M1591.14 4314.01L1582.31 4516.32L1107.26 4495.57L1089.2 4909.18L1564.25 4929.92L1555.48 5130.73L485.5 5084.01L494.267 4883.2L925.856 4902.05L943.914 4488.44L512.326 4469.6L521.159 4267.29L1591.14 4314.01Z" fill="#222222"/>
<path d="M909.198 3626.85C938.268 3533.26 982.48 3468.46 1041.83 3432.45C1100.23 3396.13 1175.75 3392.36 1268.38 3421.14L1789.81 3583.1L1748.43 3716.32L1629.43 3720.19L1627.65 3725.92C1648.82 3755.53 1665.54 3784.29 1677.82 3812.19C1689.14 3839.79 1694.17 3869.1 1692.91 3900.12C1692.61 3931.44 1686.23 3967.16 1673.77 4007.27C1660.42 4050.24 1639.81 4086.25 1611.94 4115.29C1584.07 4144.33 1549.36 4163.39 1507.79 4172.47C1465.27 4181.25 1416.8 4177.19 1362.36 4160.28C1282.14 4135.36 1230.58 4088.98 1207.68 4021.13C1183.82 3952.99 1187.18 3862.93 1217.77 3750.97L1252.18 3625.01L1213.5 3612.99C1163.85 3597.57 1125.25 3597.1 1097.71 3611.58C1070.18 3626.07 1050.77 3651.45 1039.5 3687.74C1028.82 3722.12 1023.72 3758.76 1024.21 3797.65C1024.99 3835.59 1027.83 3873.65 1032.73 3911.82L888.426 3931.4C880.533 3886.01 877.795 3837.52 880.212 3785.91C882.628 3734.31 892.29 3681.29 909.198 3626.85ZM1341.86 3740.82C1323.67 3809.52 1322.83 3861.09 1339.36 3895.54C1354.93 3929.7 1383.24 3953.15 1424.31 3965.91C1460.6 3977.18 1489.68 3976.26 1511.55 3963.16C1533.72 3949.1 1549.55 3926.8 1559.04 3896.24C1572.98 3851.35 1570.04 3808.55 1550.23 3767.84C1529.46 3726.84 1489.47 3697.14 1430.26 3678.75L1364.36 3658.28L1341.86 3740.82Z" fill="#222222"/>
<path d="M2006.78 3205.15C1970.99 3271.05 1927.22 3321.25 1875.48 3355.74C1823.34 3388.87 1763.31 3404.06 1695.39 3401.3C1627.07 3397.19 1550.73 3372.22 1466.37 3326.4C1378.5 3278.67 1314.96 3225.95 1275.75 3168.23C1236.14 3109.16 1217.2 3047.66 1218.93 2983.73C1220.25 2918.45 1238.33 2853.73 1273.18 2789.58C1295.13 2749.16 1320.05 2713.76 1347.93 2683.39C1376.29 2652.13 1403.06 2627.98 1428.25 2610.94L1527.47 2733.11C1504.91 2751.59 1483.68 2770.78 1463.76 2790.69C1443.84 2810.6 1427.44 2832.41 1414.55 2856.14C1394.98 2892.17 1387.54 2926.82 1392.23 2960.09C1396.92 2993.36 1413.25 3026.13 1441.24 3058.41C1468.83 3089.32 1508.99 3119.1 1561.71 3147.74C1612.68 3175.43 1658.64 3192.43 1699.59 3198.74C1741.02 3204.17 1776.97 3199.8 1807.43 3185.62C1837.01 3170.97 1861.11 3146.5 1879.73 3112.23C1898.34 3077.96 1910.69 3043.7 1916.78 3009.45C1923.34 2974.33 1925.43 2939.05 1923.06 2903.62L2066.73 2981.66C2068.63 3017.97 2064.74 3053.41 2055.06 3087.98C2046.27 3123.03 2030.17 3162.09 2006.78 3205.15Z" fill="#222222"/>
<path d="M1805.55 2405.37C1825.53 2422.01 1846.02 2440.38 1867.02 2460.48C1887.25 2479.94 1906.78 2499.46 1925.61 2519.05L1929.45 2514.43C1923.43 2502.91 1918.24 2488.83 1913.88 2472.19C1908.76 2454.9 1904.34 2437.55 1900.62 2420.14C1896.78 2401.32 1893.76 2383.84 1891.58 2367.71L1829.87 2041.04L1973.88 1868.16L2054.44 2319.86L2610.06 2374.68L2463.18 2551.01L2054.66 2497.7L2057.95 2615.62L2265.41 2788.43L2138.68 2940.56L1262.76 2210.93L1389.49 2058.79L1805.55 2405.37Z" fill="#222222"/>
<path d="M2358.48 1531.99C2413.4 1488.59 2469.78 1463.16 2527.61 1455.7C2585.61 1446.84 2642.64 1455.3 2698.7 1481.1C2754.15 1506.11 2806.06 1549.22 2854.41 1610.42L2913.93 1685.74L2523.18 1994.48C2570.63 2051.31 2620.4 2085.26 2672.5 2096.35C2724.76 2106.04 2775.61 2091.35 2825.04 2052.3C2864.27 2021.3 2896.08 1989.79 2920.49 1957.76C2944.27 1924.95 2966.43 1887.68 2986.99 1845.95L3080.91 1964.82C3062.88 2003.29 3040.56 2038.76 3013.97 2071.24C2987.38 2103.72 2950.55 2138.56 2903.47 2175.76C2843.84 2222.88 2781.58 2252.96 2716.69 2265.99C2651.96 2277.63 2587.43 2269.35 2523.1 2241.16C2458.77 2212.98 2398.09 2162.79 2341.05 2090.6C2283.39 2017.63 2246.8 1947.13 2231.28 1879.1C2215.15 1810.29 2218.34 1746.59 2240.87 1688C2263.57 1628.01 2302.77 1576 2358.48 1531.99ZM2447.32 1639.58C2412.01 1667.48 2393.6 1703.06 2392.09 1746.31C2390.74 1788.16 2407.95 1835.74 2443.7 1889.05L2683.8 1699.34C2660.24 1669.53 2635.16 1646.65 2608.55 1630.72C2581.94 1614.78 2555.04 1607.36 2527.86 1608.44C2500.84 1608.12 2474 1618.5 2447.32 1639.58Z" fill="#222222"/>
<path d="M3190.13 1014.27C3202.49 1007.71 3215.54 1001.35 3229.26 995.205C3242.97 989.057 3254.95 984.965 3265.19 982.928L3331.56 1146.39C3321.78 1149.31 3310.48 1153.61 3297.65 1159.29C3285.22 1163.62 3272.39 1169.3 3259.14 1176.33C3237.06 1188.05 3217.76 1203.95 3201.24 1224.03C3184.26 1243.23 3171.83 1265.67 3163.96 1291.36C3155.61 1316.17 3152.93 1344.19 3155.93 1375.43C3159.8 1406.21 3171.12 1439.26 3189.86 1474.59L3387.43 1846.92L3211.21 1940.43L2830.13 1222.28L2965.28 1150.56L3055.22 1262.46L3064.5 1257.54C3064.15 1224.89 3068.31 1193.25 3076.96 1162.62C3086.03 1130.64 3099.65 1101.9 3117.82 1076.41C3136.87 1050.45 3160.98 1029.74 3190.13 1014.27Z" fill="#222222"/>
<path d="M4124.87 1304.72C4141.78 1356 4144.78 1403.44 4133.89 1447.05C4122.68 1489.7 4097.74 1527.41 4059.05 1560.17C4020.37 1592.94 3967.31 1620.43 3899.88 1642.67C3848.6 1659.58 3802.71 1670.5 3762.21 1675.43C3721.72 1680.35 3681.24 1680.54 3640.78 1675.98L3590.52 1523.55C3634.46 1529.07 3680.3 1530.8 3728.06 1528.74C3776.77 1526.37 3819.17 1519.24 3855.26 1507.34C3897.99 1493.24 3926.35 1475.47 3940.34 1454.01C3954.32 1432.55 3957.08 1409 3948.63 1383.36C3943.62 1368.17 3934.8 1355.8 3922.19 1346.28C3910.52 1336.43 3890.14 1328.94 3861.07 1323.78C3832.63 1317.37 3792.17 1311.23 3739.7 1305.36C3688.48 1300.14 3644.87 1292.41 3608.85 1282.17C3572.83 1271.94 3542.69 1255.55 3518.41 1233.02C3493.82 1209.54 3474.48 1176.43 3460.39 1133.7C3437.53 1064.37 3446.42 1003.52 3487.07 951.159C3528.35 897.534 3591.73 856.63 3677.21 828.446C3723.74 813.102 3768.52 803.602 3811.54 799.947C3855.19 795.029 3900.73 795.809 3948.14 802.287L3936.27 953.09C3910.03 950.159 3883.79 948.809 3857.54 949.04C3831.93 948.008 3807.42 948.719 3784.01 951.173C3761.55 953.314 3739.87 957.829 3718.98 964.719C3685.74 975.679 3662.61 990.15 3649.59 1008.13C3636.25 1025.17 3633.18 1044.6 3640.38 1066.45C3645.39 1081.64 3654.21 1094 3666.83 1103.53C3679.13 1112.11 3699.19 1118.66 3727 1123.18C3754.82 1127.69 3793.7 1132.25 3843.65 1136.84C3892.97 1139.53 3936.12 1145.83 3973.08 1155.75C4009.74 1164.73 4040.36 1180.95 4064.95 1204.44C4090.49 1227.6 4110.46 1261.03 4124.87 1304.72Z" fill="#222222"/>
<path d="M5283.33 1029.7C5285.14 1097.68 5278.24 1157.89 5262.63 1210.32C5247.02 1262.75 5223.21 1307.9 5191.21 1345.77C5160.18 1382.61 5121.92 1411.13 5076.44 1431.35C5030.94 1450.57 4979.7 1460.93 4922.72 1462.45C4869.74 1463.86 4820.01 1456.18 4773.55 1439.41C4728.06 1421.61 4688.34 1395.16 4654.4 1360.05C4621.43 1323.92 4595.25 1280.1 4575.87 1228.59C4556.5 1177.09 4545.9 1117.35 4544.09 1049.38C4541.7 959.409 4554.17 883.05 4581.51 820.3C4609.83 756.524 4651.55 707.897 4706.68 674.419C4761.78 639.941 4827.82 621.678 4904.79 619.629C4976.76 617.714 5040.68 632.519 5096.54 664.044C5152.37 694.57 5196.62 740.909 5229.28 803.062C5262.92 864.189 5280.94 939.736 5283.33 1029.7ZM4746.52 1043.99C4748.04 1100.97 4755.34 1149.79 4768.43 1190.46C4781.49 1230.13 4800.29 1260.14 4824.84 1280.49C4850.39 1300.82 4882.66 1310.46 4921.65 1309.43C4960.63 1308.39 4991.84 1297.05 5015.27 1275.42C5039.71 1253.76 5056.89 1222.8 5066.82 1182.52C5077.73 1141.21 5082.42 1092.07 5080.9 1035.09C5079.36 977.112 5072.07 928.789 5059.04 890.122C5045.98 850.455 5026.69 820.958 5001.17 801.63C4976.62 781.276 4944.85 771.618 4905.86 772.655C4846.88 774.225 4805.01 798.347 4780.24 845.022C4755.47 891.698 4744.24 958.02 4746.52 1043.99Z" fill="#222222"/>
<path d="M5933.38 717.976C6016.69 734.811 6077.71 771.115 6116.43 826.889C6155.15 882.663 6164.11 962.01 6143.32 1064.93L6038.45 1583.94L5842.9 1544.43L5940.34 1062.17C5952.43 1002.38 5951.14 955.705 5936.5 922.14C5922.06 887.595 5892.78 865.866 5848.67 856.954C5783 843.684 5733.65 858.197 5700.62 900.493C5667.78 941.808 5642.45 1006.57 5624.63 1094.79L5545.9 1484.42L5350.35 1444.91L5511.37 648.01L5661.34 678.313L5668.19 788.348L5675.54 789.833C5698.73 765.953 5723.87 747.568 5750.95 734.678C5778.04 721.788 5807.08 714.393 5838.07 712.493C5869.26 709.613 5901.03 711.441 5933.38 717.976Z" fill="#222222"/>
<path d="M6778.37 1771.96C6797.85 1782.17 6817.38 1790.15 6836.95 1795.9C6857.87 1801.22 6877.69 1805.4 6896.42 1808.45L6830.95 1933.32C6808.17 1931.54 6782.1 1926.34 6752.75 1917.73C6722.93 1910 6691.63 1897.54 6658.86 1880.36C6618.12 1859 6585.3 1833.32 6560.38 1803.31C6535.92 1772.43 6523.22 1735.28 6522.27 1691.87C6522.2 1648.93 6537.96 1597.35 6569.53 1537.13L6765.96 1162.5L6675.62 1115.13L6713.93 1042.07L6845.55 1036.55L6978.79 911.64L7090.38 970.15L7007.49 1128.24L7193.47 1225.75L7127.3 1351.96L6941.32 1254.44L6745.59 1627.74C6727.94 1661.4 6722.24 1690.58 6728.47 1715.3C6736.05 1739.61 6752.69 1758.49 6778.37 1771.96Z" fill="#222222"/>
<path d="M7574.76 1417.72C7554.91 1442.82 7534.2 1466.59 7512.62 1489.05C7492.44 1511.34 7476.91 1527.75 7466.04 1538.27L7475.45 1545.72C7505.37 1533.68 7534.23 1527.81 7562.03 1528.13C7591.24 1528.27 7619.61 1533.5 7647.16 1543.81C7675.49 1554.74 7701.81 1569.82 7726.13 1589.05C7770.84 1624.4 7802.76 1663.03 7821.89 1704.94C7841.03 1746.84 7845.97 1792.18 7836.71 1840.96C7828.08 1888.96 7802.06 1940.41 7758.64 1995.31L7430.2 2410.64L7273.71 2286.89L7578.89 1900.98C7617.35 1852.35 7637.65 1809.75 7639.78 1773.2C7641.92 1736.64 7625.34 1704.41 7590.04 1676.49C7556.32 1649.82 7522.43 1637.05 7488.39 1638.18C7454.97 1638.52 7421.31 1652.07 7387.42 1678.81C7354.14 1704.76 7318.9 1741.27 7281.68 1788.34L7036.05 2098.95L6879.56 1975.2L7586.69 1081.01L7743.17 1204.76L7574.76 1417.72Z" fill="#222222"/>
<path d="M8342.55 2209.06C8386.74 2263.35 8412.99 2319.35 8421.3 2377.06C8431.01 2434.92 8423.38 2492.07 8398.41 2548.51C8374.21 2604.32 8331.87 2656.84 8271.38 2706.09L8196.94 2766.7L7882.51 2380.52C7826.39 2428.79 7793.16 2479.05 7782.83 2531.31C7773.91 2583.7 7789.34 2634.33 7829.12 2683.18C7860.69 2721.96 7892.66 2753.31 7925.04 2777.24C7958.19 2800.54 7995.79 2822.16 8037.81 2842.1L7920.33 2937.75C7881.6 2920.28 7845.81 2898.49 7812.94 2872.38C7780.07 2846.27 7744.7 2809.95 7706.82 2763.42C7658.83 2704.48 7627.85 2642.67 7613.86 2577.97C7601.28 2513.42 7608.61 2448.78 7635.85 2384.04C7663.1 2319.31 7712.39 2257.89 7783.74 2199.81C7855.85 2141.09 7925.81 2103.47 7993.61 2086.96C8062.18 2069.82 8125.92 2072.08 8184.83 2093.75C8245.15 2115.57 8297.72 2154 8342.55 2209.06ZM8236.26 2299.47C8207.85 2264.57 8172.01 2246.68 8128.74 2245.81C8086.88 2245.07 8039.55 2262.97 7986.77 2299.5L8179.97 2536.8C8209.44 2512.8 8231.94 2487.39 8247.49 2460.55C8263.03 2433.71 8270.06 2406.71 8268.58 2379.54C8268.5 2352.53 8257.73 2325.83 8236.26 2299.47Z" fill="#222222"/>
<path d="M8398.18 4092.2L8328.24 3902.16L8774.48 3737.93L8631.5 3349.41L8185.26 3513.63L8115.84 3325L9120.93 2955.1L9190.35 3143.73L8784.94 3292.94L8927.92 3681.46L9333.34 3532.26L9403.28 3722.3L8398.18 4092.2Z" fill="#222222"/>
<path d="M9241.39 4297.75L8439.49 4431.65L8406.88 4236.36L9208.78 4102.45L9241.39 4297.75ZM9534.55 4149.95C9539.33 4178.55 9536.05 4204.45 9524.71 4227.63C9514.36 4250.65 9490.94 4265.21 9454.44 4271.3C9418.93 4277.23 9391.56 4271.15 9372.32 4253.08C9354.07 4234.83 9342.55 4211.41 9337.77 4182.81C9332.67 4152.23 9335.78 4125.35 9347.12 4102.17C9359.44 4078.82 9383.36 4064.18 9418.87 4058.25C9455.36 4052.16 9482.24 4058.31 9499.51 4076.72C9517.76 4094.96 9529.44 4119.37 9534.55 4149.95Z" fill="#222222"/>
<path d="M8481.05 4836.45L8460.2 4638.04L9593.95 4518.88L9614.81 4717.29L8481.05 4836.45Z" fill="#222222"/>
<path d="M8495.88 5167.99L8487.17 4968.68L9626.09 4918.95L9634.79 5118.26L8495.88 5167.99Z" fill="#222222"/>
</svg>
