<svg width="10091" height="6592" viewBox="0 0 10091 6592" fill="none" xmlns="http://www.w3.org/2000/svg">
<path d="M9426.13 6191.3H9265.32V5695.75L9366.86 5548.88H9244.31V5509.9H9205.4V5387.24H8900.57V5509.9H8676.47V5387.24H8595.74V5509.9H8374.38V5387.24H8293.58V5509.9H8048.67V5387.24H7967.87V5509.9H7706.99V5387.24H7624.27V5509.9H7363.19V5387.24H7282.39V5509.9H7079.2V5387.24H6998.47V5509.9H6714.38V5387.24H6633.65V5509.9H6451.38V5387.24H6367.9V5509.9H6287.17V5467.08H6349.91L6269.11 5423.61V5225.92H6133.43L6167.56 5095.12H5862.73V4783.8C5862.73 4759.65 5841.71 4738.67 5817.61 4738.67C5790.92 4738.67 5769.8 4759.69 5769.8 4783.8V5095.12L5723.96 5095.08V4703.03C5723.96 4666.52 5694.43 4637.06 5658 4637.06C5621.49 4637.06 5592.03 4666.42 5592.03 4703.03V5060.39L5543.4 5034.33V4622.36C5543.4 4579.44 5511.13 4547.33 5468.48 4547.33C5425.83 4547.33 5390.77 4579.54 5390.77 4622.36V4952.4L5344.89 4927.71V4584.83C5344.89 4535 5303.61 4496.51 5256.57 4496.51C5206.74 4496.51 5165.47 4535.03 5165.47 4584.83V4831.39L5119.69 4806.8V4548.94C5119.69 4497.57 5077.69 4455.47 5026.6 4454.75C5025.67 4454.85 5024.78 4454.85 5023.85 4454.85C4973.03 4455.68 4931.1 4497.88 4931.1 4548.98V4813.36L4883.95 4838.66V4584.65C4883.95 4534.82 4843.94 4496.33 4795.62 4496.33C4747.21 4496.33 4707.37 4534.86 4707.37 4584.65V4933.4L4660.22 4958.71V4622.15C4660.22 4579.23 4625.2 4547.12 4583.82 4547.12C4541.07 4547.12 4507.41 4579.33 4507.41 4622.15V5040.96L4460.27 5066.2V4703.12C4460.27 4666.62 4430.91 4637.16 4394.3 4637.16C4357.87 4637.16 4328.33 4666.52 4328.33 4703.12V5095.18H4281.19V4783.86C4281.19 4759.72 4260.17 4738.74 4234.76 4738.74C4209.35 4738.74 4188.33 4759.75 4188.33 4783.86V5095.18H3874.78L3907.71 5225.98H3793.97V5423.74L3713.34 5467.15H3774.43V5509.97H3692.33V5387.31H3611.7V5509.97H3429.32V5387.31H3348.59V5509.97L3064.67 5510V5387.34H2982.56V5510H2780.65V5387.34H2699.91V5510H2435.47V5387.34H2343.09V5510H2080.01V5387.34H1999.28V5510H1755.64V5387.34H1674.91V5510H1452.18V5387.34H1370.08V5510H1147.35V5387.34H843.888V5510H802.165V5548.98H681.088L782.632 5694.48V6191.35L702.655 6191.32L477.836 6591.92H9651.15L9426.13 6191.3ZM1157.84 6191.32H903.725V5919.71C903.725 5848.52 961.072 5793.95 1030.78 5793.95C1100.59 5793.95 1157.84 5848.52 1157.84 5919.71V6191.32ZM1476.06 6191.32H1223.25V5919.71C1223.25 5848.52 1279.29 5793.95 1350.3 5793.95C1420.12 5793.95 1476.15 5848.52 1476.15 5919.71V6191.32H1476.06ZM1795.38 6191.32H1541.27V5919.71C1541.27 5848.52 1598.61 5793.95 1668.32 5793.95C1738.14 5793.95 1795.38 5848.52 1795.38 5919.71V6191.32ZM2113.5 6191.32H1860.8V5919.71C1860.8 5848.52 1916.74 5793.95 1987.86 5793.95C2057.67 5793.95 2113.54 5848.52 2113.54 5919.71L2113.5 6191.32ZM2432.9 6191.32H2178.72V5919.71C2178.72 5848.52 2236.06 5793.95 2305.84 5793.95C2375.55 5793.95 2432.9 5848.52 2432.9 5919.71V6191.32ZM2777.36 6191.32H2523.18V5919.71C2523.18 5848.52 2580.52 5793.95 2650.23 5793.95C2720.05 5793.95 2777.36 5848.52 2777.36 5919.71V6191.32ZM3095.31 6191.32H2842.6V5919.71C2842.6 5848.52 2898.54 5793.95 2969.66 5793.95C3039.47 5793.95 3095.34 5848.52 3095.34 5919.71L3095.31 6191.32ZM3414.7 6191.32H3160.52V5919.71C3160.52 5848.52 3217.87 5793.95 3287.65 5793.95C3357.46 5793.95 3414.7 5848.52 3414.7 5919.71V6191.32ZM3733.02 6191.32H3480.11V5919.71C3480.11 5848.52 3536.16 5793.95 3607.17 5793.95C3677.08 5793.95 3733.02 5848.52 3733.02 5919.71V6191.32ZM4139.4 6191.32H3855.31V5833C3855.31 5756.59 3918.32 5692.38 3997.3 5692.38C4075.01 5692.38 4139.29 5756.59 4139.29 5833V6191.32H4139.4ZM4483.1 6191.32H4199.18V5833C4199.18 5756.59 4263.4 5692.38 4341.17 5692.38C4420.16 5692.38 4483.1 5756.59 4483.1 5833V6191.32ZM4828.29 6191.32H4544.37V5833C4544.37 5756.59 4607.31 5692.38 4686.3 5692.38C4764.01 5692.38 4828.29 5756.59 4828.29 5833V6191.32ZM5172.2 6191.32H4889.59V5833C4889.59 5756.59 4952.53 5692.38 5031.52 5692.38C5110.6 5692.38 5172.24 5756.59 5172.24 5833L5172.2 6191.32ZM5518.75 6191.32H5234.83V5833C5234.83 5756.59 5296.3 5692.38 5375.35 5692.38C5454.33 5692.38 5518.65 5756.59 5518.65 5833V6191.32H5518.75ZM5862.66 6191.32H5578.74V5833C5578.74 5756.59 5642.96 5692.38 5719.26 5692.38C5798.24 5692.38 5862.56 5756.59 5862.56 5833V6191.32H5862.66ZM6206.47 6191.32H5922.48L5922.44 5833C5922.44 5756.59 5986.66 5692.38 6065.74 5692.38C6142.08 5692.38 6206.36 5756.59 6206.36 5833V6191.32H6206.47ZM6583 6191.32H6328.82V5919.71C6328.82 5848.52 6386.16 5793.95 6454.57 5793.95C6525.59 5793.95 6582.9 5848.52 6582.9 5919.71L6582.94 6191.32H6583ZM6899.74 6191.32H6648.48V5919.71C6648.48 5848.52 6703.05 5793.95 6774.17 5793.95C6845.18 5793.95 6899.74 5848.52 6899.74 5919.71V6191.32ZM7219.17 6191.32H6965.06V5919.71C6965.06 5848.52 7022.3 5793.95 7093.49 5793.95C7161.82 5793.95 7219.06 5848.52 7219.06 5919.71V6191.32H7219.17ZM7538.67 6191.32H7284.49V5919.71C7284.49 5848.52 7341.9 5793.95 7412.91 5793.95C7468.03 5793.95 7515.76 5829.36 7532.45 5880.18V5918.43H7538.6C7538.6 5918.88 7538.7 5919.36 7538.7 5919.7L7538.67 6191.32ZM7867.88 6191.32H7632.58V5919.71C7616.44 5919.33 7616.44 5918.88 7616.44 5918.44H7634.88V5852.95C7656.62 5817.17 7695.87 5793.89 7742.19 5793.89C7813.1 5793.89 7867.88 5848.45 7867.88 5919.64L7867.88 6191.32ZM8187.3 6191.32H7933.19V5919.71C7933.19 5848.52 7990.54 5793.95 8061.62 5793.95C8129.85 5793.95 8187.2 5848.52 8187.2 5919.71V6191.32H8187.3ZM8506.7 6191.32H8252.52V5919.71C8252.52 5848.52 8309.93 5793.95 8381.01 5793.95C8449.25 5793.95 8506.59 5848.52 8506.59 5919.71L8506.62 6191.32H8506.7ZM8826.23 6191.32H8572.05V5919.71C8572.05 5848.52 8629.39 5793.95 8697.8 5793.95C8768.82 5793.95 8826.23 5848.52 8826.23 5919.71V6191.32ZM9142.88 6191.32H8891.54V5919.71C8891.54 5848.52 8946.21 5793.95 9017.3 5793.95C9088.31 5793.95 9142.88 5848.52 9142.88 5919.71V6191.32Z" fill="#F5F5F5"/>
<path d="M4348.41 4383.18C4395.73 4206.68 4687.54 4069.35 5040.8 4069.35C5395.63 4069.35 5687.31 4206.78 5733.19 4383.18C5738.79 4367.42 5740.26 4351.45 5740.26 4332.36C5740.26 4132.67 5426.98 3967.64 5040.8 3967.64C4654.62 3967.64 4341.44 4132.67 4341.44 4332.36C4341.44 4351.42 4344.29 4367.38 4348.41 4383.18Z" fill="#F5F5F5"/>
<path d="M4504.27 4060.03L4523.7 3937.85L4544.62 3997.67V4036.3C4642.49 3984 4770.19 3948.16 4913.39 3934.66L4930.28 3836.14L4949.72 3895.96V3930.64C4939.25 3931.09 4928.7 3931.85 4917.34 3934.42C4957.41 3930.75 4998.69 3928.82 5040.82 3928.82C5232.17 3928.82 5405.37 3967.8 5531.12 4033.39C5524.04 4028.72 5516.45 4024.05 5506.91 4019.55L5519 3958.67L5537.16 4018.56V4036.28C5566.9 4052.24 5593.96 4069.59 5617.89 4088.3C5617.17 3843.94 5480.12 3632.69 5281.98 3536.26C5256.95 3463.6 5193.18 3405.26 5112.18 3381.59H5133.47V3318.92H5151.64V3217.28H5084.84L5050.44 3112.62C5074.37 3105.1 5091.61 3083.63 5091.61 3055.82C5091.61 3021.24 5065 2996 5031.72 2996C4997.04 2996 4970.53 3021.24 4970.53 3055.82C4970.53 3083.7 4987.77 3105.27 5012.63 3112.62L4977.5 3217.28H4909.27V3318.92H4930.18V3381.59H4952.29C4867.34 3406.45 4801.68 3469.36 4779.39 3546.9C4592.83 3647.73 4464.47 3852.63 4463.84 4088.2C4476.86 4078 4491.08 4068.28 4505.84 4058.94C4505.36 4059.39 4504.71 4059.76 4504.26 4060.04L4504.27 4060.03ZM5396.64 3895.99L5417.38 3958.66V3983.52C5405.08 3981.22 5395.54 3979.12 5382.97 3974.25L5396.64 3895.99ZM5274.11 3877.93L5295.02 3937.81V3952.41C5285.75 3951.04 5273.66 3949.83 5264.18 3945.88L5274.11 3877.93ZM5112.64 3836.2L5133.45 3896.02V3930.71C5120.51 3930.26 5107.66 3929.88 5097.5 3929.61L5112.64 3836.2ZM4767.29 3857.12L4788.21 3916.94V3952.44C4774.81 3954.09 4762.79 3958.49 4749.68 3960.34L4767.29 3857.12ZM4646.28 3895.99L4665.75 3958.66V3983.52C4653.83 3988.84 4641.99 3994.44 4629.04 3997.08L4646.28 3895.99Z" fill="#F5F5F5"/>
<path d="M5026.98 4455C5031.65 4455 5036.25 4454.9 5040.92 4454.9C5457.28 4454.9 5805.69 4577.56 5885.67 4738.89C5898.14 4716.33 5901.92 4693.29 5901.92 4667.15C5901.92 4470.94 5518.65 4314.24 5040.93 4314.24C4565.94 4314.24 4180.03 4470.93 4180.03 4667.15C4180.03 4693.29 4185.08 4716.33 4197.54 4738.89C4275.05 4579.83 4615.39 4458.2 5024.23 4455.07C5024.78 4455.07 5025.23 4454.9 5025.78 4454.9C5026.05 4454.9 5026.53 4455 5026.98 4455Z" fill="#F5F5F5"/>
<path d="M4483.35 4293.86V4358.08C4512.43 4346.23 4543.89 4337.61 4574.9 4329.47V4293.8C4574.9 4266.91 4555.25 4248.74 4529.84 4248.74C4504.43 4248.74 4483.35 4267.01 4483.35 4293.86Z" fill="#F5F5F5"/>
<path d="M4649.76 4252.11V4310.45C4679.29 4303.86 4709.3 4300.36 4741.31 4294.48V4252.11C4741.31 4228.07 4720.22 4207.05 4694.81 4207.05C4669.37 4207.05 4649.76 4228.07 4649.76 4252.11Z" fill="#F5F5F5"/>
<path d="M4814.76 4214.66V4285.85C4844.5 4280.97 4875.96 4279.32 4906.31 4278.05V4214.66C4906.31 4190.63 4886.6 4169.61 4861.26 4169.61C4835.85 4169.54 4814.76 4190.56 4814.76 4214.66Z" fill="#F5F5F5"/>
<path d="M4981 4193.65V4273.01C5000.37 4272.73 5021.28 4272.46 5040.82 4272.46C5051.57 4272.46 5061.9 4272.63 5072.55 4272.63V4193.65C5072.55 4169.71 5051.53 4148.59 5026.05 4148.59C5000.61 4148.59 4981 4169.68 4981 4193.65Z" fill="#F5F5F5"/>
<path d="M5147.41 4213.17V4274.26C5177.77 4278.04 5207.78 4279.41 5237.41 4281.23V4213.17C5237.41 4186.38 5216.4 4165.37 5192.46 4165.37C5165.54 4165.26 5147.41 4186.28 5147.41 4213.17Z" fill="#F5F5F5"/>
<path d="M5311.01 4252.11V4289.09C5344.32 4294.52 5374.3 4300.39 5403.93 4303.96V4252.11C5403.93 4228.07 5382.85 4207.05 5358.88 4207.05C5332.02 4207.05 5311.01 4228.07 5311.01 4252.11Z" fill="#F5F5F5"/>
<path d="M5477.34 4295.37V4322.15C5508.17 4329.77 5541 4337.84 5570.26 4346.46V4295.37C5570.26 4271.23 5549.17 4250.31 5522.46 4250.31C5498.25 4250.31 5477.34 4271.26 5477.34 4295.37Z" fill="#F5F5F5"/>
<path d="M4544.62 4037.26V4036.33C4531.12 4043.57 4518.28 4051.2 4505.92 4059.06C4517.66 4051.57 4530.88 4044.33 4544.62 4037.26Z" fill="#F5F5F5"/>
<path d="M4913.22 3935.19C4914.6 3934.92 4915.97 3934.64 4917.34 3934.27C4915.97 3934.37 4914.7 3934.44 4913.39 3934.54L4913.22 3935.19Z" fill="#F5F5F5"/>
<path d="M5537.2 4037.26V4036.33C5535.28 4035.34 5533.15 4034.31 5531.23 4033.41C5533.15 4034.62 5535.28 4035.99 5537.2 4037.26Z" fill="#F5F5F5"/>
<path d="M2770.49 5012.15L2518.31 4920.22L2374.79 5123.1L2381.11 4870.38L2110.65 4773.19L2385.67 4688.04L2391.95 4436.92L2525.14 4646.71L2781.64 4565.89L2613.7 4785.77L2770.49 5012.15Z" fill="#F5F5F5"/>
<path d="M2770.49 5012.15L2518.31 4920.22L2374.79 5123.1L2381.11 4870.38L2110.65 4773.19L2385.67 4688.04L2391.95 4436.92L2525.14 4646.71L2781.64 4565.89L2613.7 4785.77L2770.49 5012.15Z" fill="#0A3161" fill-opacity="0.8"/>
<path d="M2870.26 4173.77L2672.1 3992.72L2462.13 4125.64L2564.23 3894.38L2351.18 3701.5L2637.89 3727.52L2739.35 3497.71L2782.6 3742.43L3050.55 3765.4L2811.51 3904.73L2870.26 4173.77Z" fill="#F5F5F5"/>
<path d="M2870.26 4173.77L2672.1 3992.72L2462.13 4125.64L2564.23 3894.38L2351.18 3701.5L2637.89 3727.52L2739.35 3497.71L2782.6 3742.43L3050.55 3765.4L2811.51 3904.73L2870.26 4173.77Z" fill="#0A3161" fill-opacity="0.8"/>
<path d="M3280.23 3438.16L3164.01 3196.2L2919.6 3241.1L3100.67 3064.69L2975.06 2806.21L3231.32 2937.41L3411.25 2762.12L3359.99 3005.28L3599.97 3126.66L3326.2 3166.64L3280.23 3438.16Z" fill="#F5F5F5"/>
<path d="M3280.23 3438.16L3164.01 3196.2L2919.6 3241.1L3100.67 3064.69L2975.06 2806.21L3231.32 2937.41L3411.25 2762.12L3359.99 3005.28L3599.97 3126.66L3326.2 3166.64L3280.23 3438.16Z" fill="#B31942" fill-opacity="0.8"/>
<path d="M3936.41 2910.07L3920.94 2642.1L3677.81 2590.68L3912.37 2496.38L3894.49 2209.55L4081.6 2428.35L4314.67 2334.65L4174.79 2540.05L4350.59 2743.56L4082.18 2676.44L3936.41 2910.07Z" fill="#F5F5F5"/>
<path d="M3936.41 2910.07L3920.94 2642.1L3677.81 2590.68L3912.37 2496.38L3894.49 2209.55L4081.6 2428.35L4314.67 2334.65L4174.79 2540.05L4350.59 2743.56L4082.18 2676.44L3936.41 2910.07Z" fill="#B31942" fill-opacity="0.8"/>
<path d="M4752.99 2670.27L4840.06 2416.37L4634.47 2276.77L4887.26 2278.24L4979.25 2005.97L5069.66 2279.3L5320.86 2280.75L5113.66 2417.95L5199.38 2672.86L4976.33 2509.16L4752.99 2670.27Z" fill="#F5F5F5"/>
<path d="M4752.99 2670.27L4840.06 2416.37L4634.47 2276.77L4887.26 2278.24L4979.25 2005.97L5069.66 2279.3L5320.86 2280.75L5113.66 2417.95L5199.38 2672.86L4976.33 2509.16L4752.99 2670.27Z" fill="#732982" fill-opacity="0.8"/>
<path d="M5588.8 2754.63L5766.18 2553.17L5629.41 2345.68L5862.52 2443.51L6051.44 2226.94L6030.71 2514.09L6262.34 2611.3L6018.46 2659.05L6000.43 2927.37L5856.72 2690.94L5588.8 2754.63Z" fill="#F5F5F5"/>
<path d="M5588.8 2754.63L5766.18 2553.17L5629.41 2345.68L5862.52 2443.51L6051.44 2226.94L6030.71 2514.09L6262.34 2611.3L6018.46 2659.05L6000.43 2927.37L5856.72 2690.94L5588.8 2754.63Z" fill="#B31942" fill-opacity="0.8"/>
<path d="M6330.04 3149.73L6569.83 3029.13L6520.49 2785.57L6700.17 2963.4L6956.32 2833.1L6829.81 3091.71L7008.35 3268.41L6764.29 3221.59L6647.32 3463.75L6602.35 3190.75L6330.04 3149.73Z" fill="#F5F5F5"/>
<path d="M6330.04 3149.73L6569.83 3029.13L6520.49 2785.57L6700.17 2963.4L6956.32 2833.1L6829.81 3091.71L7008.35 3268.41L6764.29 3221.59L6647.32 3463.75L6602.35 3190.75L6330.04 3149.73Z" fill="#B31942" fill-opacity="0.8"/>
<path d="M6869.47 3793.55L7137.1 3773L7183.9 3528.94L7282.63 3761.67L7569.07 3738.35L7353.86 3929.59L7451.96 4160.84L7243.95 4024.88L7043.81 4204.5L7105.83 3934.87L6869.47 3793.55Z" fill="#F5F5F5"/>
<path d="M6869.47 3793.55L7137.1 3773L7183.9 3528.94L7282.63 3761.67L7569.07 3738.35L7353.86 3929.59L7451.96 4160.84L7243.95 4024.88L7043.81 4204.5L7105.83 3934.87L6869.47 3793.55Z" fill="#0A3161" fill-opacity="0.8"/>
<path d="M7126.45 4607.98L7381.66 4691.14L7518.08 4483.43L7520.49 4736.22L7794.15 4824L7522.24 4918.61L7524.64 5169.8L7384.27 4964.73L7130.72 5054.36L7290.97 4828.82L7126.45 4607.98Z" fill="#F5F5F5"/>
<path d="M7126.45 4607.98L7381.66 4691.14L7518.08 4483.43L7520.49 4736.22L7794.15 4824L7522.24 4918.61L7524.64 5169.8L7384.27 4964.73L7130.72 5054.36L7290.97 4828.82L7126.45 4607.98Z" fill="#0A3161" fill-opacity="0.8"/>
<path d="M1590.92 4314.12L1582.08 4516.42L1107.04 4495.68L1088.98 4909.29L1564.02 4930.03L1555.26 5130.84L485.276 5084.12L494.044 4883.31L925.632 4902.16L943.691 4488.55L512.102 4469.71L520.935 4267.4L1590.92 4314.12Z" fill="#F5F5F5"/>
<path d="M908.975 3626.96C938.044 3533.37 982.256 3468.57 1041.61 3432.55C1100.01 3396.24 1175.53 3392.47 1268.16 3421.24L1789.59 3583.2L1748.21 3716.43L1629.2 3720.3L1627.42 3726.03C1648.59 3755.64 1665.31 3784.4 1677.59 3812.29C1688.91 3839.89 1693.95 3869.21 1692.69 3900.23C1692.38 3931.55 1686 3967.26 1673.54 4007.37C1660.2 4050.35 1639.59 4086.35 1611.72 4115.4C1583.85 4144.44 1549.13 4163.5 1507.57 4172.58C1465.05 4181.36 1416.57 4177.3 1362.14 4160.39C1281.92 4135.47 1230.36 4089.09 1207.45 4021.24C1183.59 3953.1 1186.96 3863.04 1217.55 3751.07L1251.96 3625.11L1213.28 3613.1C1163.62 3597.68 1125.02 3597.21 1097.49 3611.69C1069.95 3626.17 1050.55 3651.56 1039.28 3687.85C1028.6 3722.23 1023.5 3758.87 1023.99 3797.76C1024.77 3835.7 1027.61 3873.75 1032.5 3911.93L888.203 3931.5C880.31 3886.12 877.571 3837.62 879.988 3786.02C882.405 3734.41 892.067 3681.39 908.975 3626.96ZM1341.64 3740.93C1323.44 3809.62 1322.61 3861.2 1339.13 3895.65C1354.7 3929.8 1383.02 3953.26 1424.08 3966.01C1460.37 3977.29 1489.45 3976.37 1511.33 3963.27C1533.49 3949.21 1549.32 3926.9 1558.81 3896.34C1572.76 3851.46 1569.82 3808.66 1550 3767.95C1529.23 3726.94 1489.24 3697.25 1430.03 3678.85L1364.14 3658.39L1341.64 3740.93Z" fill="#F5F5F5"/>
<path d="M2006.56 3205.25C1970.76 3271.16 1926.99 3321.35 1875.26 3355.84C1823.12 3388.97 1763.09 3404.16 1695.17 3401.41C1626.85 3397.3 1550.5 3372.33 1466.15 3326.51C1378.27 3278.77 1314.73 3226.05 1275.53 3168.34C1235.92 3109.27 1216.98 3047.77 1218.7 2983.84C1220.02 2918.55 1238.11 2853.84 1272.95 2789.69C1294.91 2749.27 1319.83 2713.87 1347.71 2683.49C1376.07 2652.24 1402.84 2628.09 1428.03 2611.05L1527.24 2733.22C1504.69 2751.7 1483.46 2770.89 1463.54 2790.79C1443.62 2810.7 1427.22 2832.52 1414.33 2856.24C1394.76 2892.27 1387.32 2926.92 1392.01 2960.19C1396.69 2993.47 1413.03 3026.24 1441.02 3058.51C1468.61 3089.43 1508.76 3119.21 1561.49 3147.85C1612.45 3175.53 1658.41 3192.53 1699.37 3198.84C1740.8 3204.28 1776.74 3199.91 1807.2 3185.73C1836.79 3171.07 1860.89 3146.61 1879.5 3112.34C1898.12 3078.07 1910.47 3043.81 1916.55 3009.56C1923.12 2974.43 1925.21 2939.15 1922.83 2903.72L2066.51 2981.76C2068.41 3018.07 2064.52 3053.52 2054.84 3088.09C2046.04 3123.14 2029.95 3162.2 2006.56 3205.25Z" fill="#F5F5F5"/>
<path d="M1805.33 2405.48C1825.3 2422.12 1845.79 2440.49 1866.79 2460.59C1887.03 2480.05 1906.56 2499.57 1925.38 2519.15L1929.22 2514.54C1923.2 2503.02 1918.01 2488.94 1913.66 2472.29C1908.53 2455.01 1904.11 2437.66 1900.4 2420.25C1896.55 2401.43 1893.54 2383.95 1891.36 2367.82L1829.65 2041.15L1973.65 1868.27L2054.21 2319.97L2609.84 2374.79L2462.95 2551.12L2054.44 2497.81L2057.73 2615.73L2265.18 2788.54L2138.46 2940.67L1262.54 2211.03L1389.27 2058.9L1805.33 2405.48Z" fill="#F5F5F5"/>
<path d="M2358.26 1532.1C2413.18 1488.7 2469.56 1463.27 2527.39 1455.81C2585.38 1446.95 2642.41 1455.42 2698.48 1481.21C2753.93 1506.22 2805.83 1549.33 2854.19 1610.53L2913.71 1685.85L2522.96 1994.6C2570.41 2051.42 2620.18 2085.38 2672.27 2096.47C2724.54 2106.15 2775.38 2091.47 2824.81 2052.41C2864.04 2021.41 2895.86 1989.9 2920.26 1957.87C2944.04 1925.07 2966.21 1887.79 2986.77 1846.06L3080.69 1964.93C3062.65 2003.4 3040.34 2038.87 3013.75 2071.36C2987.16 2103.84 2950.33 2138.67 2903.25 2175.87C2843.62 2222.99 2781.36 2253.07 2716.46 2266.11C2651.74 2277.74 2587.21 2269.47 2522.88 2241.28C2458.55 2213.09 2397.86 2162.9 2340.82 2090.72C2283.17 2017.75 2246.58 1947.25 2231.06 1879.21C2214.92 1810.4 2218.12 1746.7 2240.65 1688.11C2263.34 1628.12 2302.55 1576.12 2358.26 1532.1ZM2447.09 1639.7C2411.79 1667.59 2393.38 1703.17 2391.87 1746.42C2390.52 1788.27 2407.72 1835.85 2443.48 1889.17L2683.58 1699.46C2660.02 1669.64 2634.93 1646.77 2608.32 1630.83C2581.71 1614.9 2554.82 1607.47 2527.64 1608.56C2500.62 1608.24 2473.77 1618.62 2447.09 1639.7Z" fill="#F5F5F5"/>
<path d="M3189.9 1014.38C3202.27 1007.82 3215.31 1001.46 3229.03 995.314C3242.75 989.167 3254.73 985.074 3264.97 983.037L3331.33 1146.5C3321.56 1149.42 3310.26 1153.72 3297.42 1159.4C3285 1163.73 3272.17 1169.41 3258.92 1176.44C3236.83 1188.15 3217.53 1204.06 3201.02 1224.14C3184.04 1243.34 3171.61 1265.78 3163.73 1291.47C3155.39 1316.28 3152.71 1344.3 3155.7 1375.54C3159.58 1406.32 3170.89 1439.37 3189.64 1474.7L3387.21 1847.03L3210.98 1940.54L2829.91 1222.39L2965.06 1150.67L3055 1262.57L3064.27 1257.64C3063.93 1225 3068.09 1193.36 3076.74 1162.73C3085.81 1130.75 3099.42 1102.01 3117.6 1076.52C3136.65 1050.56 3160.75 1029.85 3189.9 1014.38Z" fill="#F5F5F5"/>
<path d="M4124.64 1304.82C4141.55 1356.11 4144.56 1403.55 4133.67 1447.16C4122.46 1489.81 4097.51 1527.52 4058.83 1560.28C4020.14 1593.04 3967.08 1620.54 3899.66 1642.77C3848.37 1659.69 3802.48 1670.6 3761.99 1675.53C3721.5 1680.46 3681.02 1680.65 3640.56 1676.09L3590.29 1523.66C3634.23 1529.18 3680.08 1530.91 3727.84 1528.85C3776.54 1526.48 3818.94 1519.34 3855.03 1507.44C3897.77 1493.35 3926.13 1475.58 3940.11 1454.12C3954.1 1432.66 3956.86 1409.11 3948.41 1383.47C3943.39 1368.27 3934.58 1355.91 3921.96 1346.38C3910.29 1336.54 3889.92 1329.04 3860.84 1323.89C3832.4 1317.47 3791.95 1311.33 3739.47 1305.47C3688.26 1300.25 3644.65 1292.51 3608.63 1282.28C3572.61 1272.04 3542.46 1255.66 3518.19 1233.13C3493.6 1209.65 3474.26 1176.54 3460.17 1133.8C3437.31 1064.47 3446.2 1003.63 3486.85 951.266C3528.13 897.641 3591.51 856.736 3676.98 828.553C3723.52 813.208 3768.29 803.709 3811.31 800.053C3854.97 795.135 3900.5 795.915 3947.92 802.394L3936.04 953.197C3909.81 950.265 3883.56 948.915 3857.32 949.147C3831.7 948.115 3807.19 948.826 3783.79 951.28C3761.33 953.421 3739.65 957.936 3718.76 964.825C3685.52 975.785 3662.39 990.257 3649.36 1008.24C3636.02 1025.27 3632.96 1044.71 3640.16 1066.55C3645.17 1081.75 3653.98 1094.11 3666.6 1103.64C3678.91 1112.22 3698.97 1118.76 3726.78 1123.28C3754.59 1127.8 3793.48 1132.35 3843.43 1136.94C3892.75 1139.63 3935.89 1145.94 3972.86 1155.86C4009.51 1164.83 4040.14 1181.06 4064.73 1204.54C4090.26 1227.71 4110.24 1261.14 4124.64 1304.82Z" fill="#F5F5F5"/>
<path d="M5283.11 1029.82C5284.92 1097.79 5278.02 1158 5262.41 1210.43C5246.8 1262.86 5222.99 1308.01 5190.98 1345.88C5159.95 1382.72 5121.7 1411.24 5076.22 1431.46C5030.72 1450.68 4979.47 1461.05 4922.49 1462.56C4869.51 1463.97 4819.79 1456.29 4773.33 1439.52C4727.84 1421.73 4688.12 1395.27 4654.17 1360.16C4621.2 1324.03 4595.03 1280.21 4575.65 1228.71C4556.27 1177.2 4545.68 1117.46 4543.87 1049.49C4541.48 959.52 4553.95 883.161 4581.29 820.412C4609.6 756.636 4651.32 708.009 4706.45 674.53C4761.56 640.052 4827.59 621.789 4904.57 619.741C4976.54 617.825 5040.46 632.63 5096.32 664.155C5152.15 694.681 5196.4 741.02 5229.06 803.173C5262.7 864.3 5280.72 939.848 5283.11 1029.82ZM4746.3 1044.1C4747.82 1101.08 4755.12 1149.9 4768.2 1190.57C4781.26 1230.24 4800.07 1260.25 4824.62 1280.6C4850.17 1300.93 4882.44 1310.57 4921.42 1309.54C4960.41 1308.5 4991.62 1297.16 5015.05 1275.53C5039.48 1253.88 5056.67 1222.91 5066.6 1182.63C5077.5 1141.32 5082.2 1092.18 5080.68 1035.2C5079.14 977.223 5071.85 928.9 5058.82 890.233C5045.76 850.566 5026.47 821.069 5000.94 801.741C4976.39 781.387 4944.62 771.729 4905.64 772.766C4846.66 774.336 4804.79 798.458 4780.02 845.134C4755.25 891.809 4744.01 958.132 4746.3 1044.1Z" fill="#F5F5F5"/>
<path d="M5933.15 718.086C6016.47 734.921 6077.49 771.225 6116.21 826.999C6154.93 882.773 6163.89 962.12 6143.1 1065.04L6038.22 1584.05L5842.68 1544.54L5940.12 1062.28C5952.2 1002.49 5950.92 955.815 5936.28 922.25C5921.83 887.705 5892.56 865.976 5848.45 857.063C5782.78 843.794 5733.42 858.307 5700.39 900.602C5667.56 941.918 5642.23 1006.68 5624.41 1094.9L5545.68 1484.53L5350.13 1445.02L5511.15 648.12L5661.12 678.423L5667.96 788.458L5675.31 789.943C5698.5 766.063 5723.64 747.678 5750.73 734.787C5777.82 721.897 5806.86 714.502 5837.85 712.603C5869.04 709.723 5900.81 711.55 5933.15 718.086Z" fill="#F5F5F5"/>
<path d="M6778.14 1772.06C6797.63 1782.28 6817.16 1790.26 6836.73 1796.01C6857.65 1801.33 6877.47 1805.51 6896.2 1808.56L6830.72 1933.43C6807.94 1931.65 6781.88 1926.45 6752.52 1917.84C6722.7 1910.11 6691.41 1897.65 6658.64 1880.47C6617.9 1859.11 6585.07 1833.43 6560.15 1803.42C6535.7 1772.54 6523 1735.39 6522.04 1691.98C6521.98 1649.04 6537.73 1597.46 6569.31 1537.24L6765.74 1162.61L6675.4 1115.24L6713.71 1042.18L6845.32 1036.66L6978.56 911.75L7090.15 970.26L7007.26 1128.35L7193.25 1225.86L7127.08 1352.07L6941.09 1254.55L6745.36 1627.85C6727.72 1661.51 6722.01 1690.69 6728.24 1715.41C6735.83 1739.71 6752.46 1758.6 6778.14 1772.06Z" fill="#F5F5F5"/>
<path d="M7574.54 1417.82C7554.69 1442.92 7533.97 1466.7 7512.39 1489.15C7492.21 1511.45 7476.69 1527.85 7465.82 1538.38L7475.23 1545.82C7505.15 1533.78 7534.01 1527.92 7561.81 1528.23C7591.01 1528.38 7619.39 1533.61 7646.93 1543.92C7675.26 1554.85 7701.59 1569.92 7725.9 1589.15C7770.61 1624.51 7802.53 1663.14 7821.67 1705.04C7840.8 1746.95 7845.74 1792.29 7836.49 1841.07C7827.86 1889.06 7801.83 1940.51 7758.41 1995.42L7429.97 2410.75L7273.49 2287L7578.67 1901.09C7617.13 1852.46 7637.42 1809.86 7639.56 1773.3C7641.7 1736.75 7625.12 1704.51 7589.82 1676.6C7556.09 1649.93 7522.21 1637.15 7488.17 1638.28C7454.75 1638.63 7421.09 1652.17 7387.19 1678.91C7353.92 1704.87 7318.67 1741.38 7281.46 1788.44L7035.82 2099.06L6879.34 1975.31L7586.46 1081.12L7742.95 1204.86L7574.54 1417.82Z" fill="#F5F5F5"/>
<path d="M8342.32 2209.17C8386.52 2263.45 8412.77 2319.45 8421.08 2377.17C8430.79 2435.03 8423.16 2492.17 8398.18 2548.61C8373.99 2604.42 8331.65 2656.95 8271.16 2706.2L8196.71 2766.81L7882.29 2380.62C7826.16 2428.9 7792.94 2479.16 7782.61 2531.41C7773.69 2583.81 7789.12 2634.43 7828.9 2683.29C7860.46 2722.06 7892.44 2753.42 7924.82 2777.34C7957.97 2800.64 7995.56 2822.26 8037.59 2842.21L7920.11 2937.86C7881.38 2920.39 7845.58 2898.6 7812.72 2872.48C7779.85 2846.37 7744.48 2810.05 7706.59 2763.52C7658.61 2704.59 7627.62 2642.77 7613.64 2578.08C7601.06 2513.53 7608.39 2448.88 7635.63 2384.15C7662.87 2319.41 7712.17 2258 7783.51 2199.91C7855.63 2141.2 7925.59 2103.58 7993.38 2087.07C8061.96 2069.92 8125.7 2072.19 8184.61 2093.86C8244.92 2115.67 8297.5 2154.11 8342.32 2209.17ZM8236.04 2299.57C8207.63 2264.68 8171.79 2246.79 8128.52 2245.91C8086.65 2245.18 8039.33 2263.08 7986.54 2299.61L8179.74 2536.9C8209.21 2512.91 8231.72 2487.49 8247.26 2460.65C8262.81 2433.81 8269.84 2406.81 8268.35 2379.65C8268.28 2352.63 8257.51 2325.94 8236.04 2299.57Z" fill="#F5F5F5"/>
<path d="M8397.96 4092.3L8328.02 3902.26L8774.26 3738.04L8631.27 3349.51L8185.03 3513.74L8115.61 3325.11L9120.71 2955.21L9190.13 3143.84L8784.71 3293.04L8927.7 3681.57L9333.11 3532.37L9403.05 3722.4L8397.96 4092.3Z" fill="#F5F5F5"/>
<path d="M9241.17 4297.86L8439.27 4431.76L8406.66 4236.47L9208.56 4102.56L9241.17 4297.86ZM9534.33 4150.06C9539.1 4178.66 9535.82 4204.56 9524.49 4227.74C9514.14 4250.76 9490.71 4265.31 9454.22 4271.41C9418.71 4277.34 9391.34 4271.26 9372.1 4253.19C9353.84 4234.94 9342.33 4211.52 9337.55 4182.92C9332.44 4152.34 9335.56 4125.46 9346.9 4102.27C9359.22 4078.93 9383.14 4064.29 9418.64 4058.36C9455.14 4052.26 9482.02 4058.42 9499.29 4076.83C9517.54 4095.07 9529.22 4119.48 9534.33 4150.06Z" fill="#F5F5F5"/>
<path d="M8480.83 4836.56L8459.97 4638.15L9593.73 4518.99L9614.58 4717.4L8480.83 4836.56Z" fill="#F5F5F5"/>
<path d="M8495.65 5168.1L8486.95 4968.79L9625.87 4919.06L9634.57 5118.37L8495.65 5168.1Z" fill="#F5F5F5"/>
</svg>
