<svg width="10274" height="7193" viewBox="0 0 10274 7193" fill="none" xmlns="http://www.w3.org/2000/svg">
<path d="M10028.7 6756.26H9853.39V6216.05L9964.09 6055.94H9830.49V6013.46H9788.08V5879.74H9455.77V6013.46H9211.48V5879.74H9123.47V6013.46H8882.17V5879.74H8794.08V6013.46H8527.11V5879.74H8439.03V6013.46H8154.64V5879.74H8064.46V6013.46H7779.85V5879.74H7691.76V6013.46H7470.27V5879.74H7382.26V6013.46H7072.57V5879.74H6984.57V6013.46H6785.87V5879.74H6694.87V6013.46H6606.86V5966.77H6675.25L6587.17 5919.38V5703.88H6439.26L6476.47 5561.29H6144.17V5221.91C6144.17 5195.6 6121.26 5172.72 6094.98 5172.72C6065.89 5172.72 6042.87 5195.63 6042.87 5221.91V5561.29L5992.9 5561.25V5133.86C5992.9 5094.07 5960.7 5061.95 5920.99 5061.95C5881.19 5061.95 5849.07 5093.96 5849.07 5133.86V5523.44L5796.07 5495.03V5045.93C5796.07 4999.14 5760.88 4964.14 5714.39 4964.14C5667.9 4964.14 5629.67 4999.25 5629.67 5045.93V5405.71L5579.66 5378.8V5005.02C5579.66 4950.7 5534.67 4908.73 5483.38 4908.73C5429.06 4908.73 5384.07 4950.73 5384.07 5005.02V5273.79L5334.17 5246.99V4965.9C5334.17 4909.9 5288.39 4864 5232.69 4863.21C5231.67 4863.33 5230.7 4863.33 5229.69 4863.33C5174.29 4864.23 5128.58 4910.23 5128.58 4965.93V5254.14L5077.18 5281.73V5004.82C5077.18 4950.5 5033.57 4908.54 4980.9 4908.54C4928.12 4908.54 4884.69 4950.54 4884.69 5004.82V5385L4833.3 5412.59V5045.7C4833.3 4998.91 4795.11 4963.91 4750.01 4963.91C4703.4 4963.91 4666.72 4999.02 4666.72 5045.7V5502.25L4615.32 5529.77V5133.97C4615.32 5094.18 4583.31 5062.06 4543.41 5062.06C4503.69 5062.06 4471.5 5094.07 4471.5 5133.97V5561.36H4420.1V5221.98C4420.1 5195.67 4397.19 5172.8 4369.49 5172.8C4341.79 5172.8 4318.88 5195.71 4318.88 5221.98V5561.36H3977.07L4012.97 5703.95H3888.98V5919.53L3801.09 5966.85H3867.68V6013.53H3778.18V5879.81H3690.28V6013.53H3491.47V5879.81H3403.46V6013.53L3093.95 6013.57V5879.85H3004.45V6013.57H2784.33V5879.85H2696.33V6013.57H2408.05V5879.85H2307.35V6013.57H2020.56V5879.85H1932.56V6013.57H1666.96V5879.85H1578.95V6013.57H1336.15V5879.85H1246.65V6013.57H1003.85V5879.85H673.04V6013.57H627.557V6056.05H495.569L606.264 6214.66V6756.31L519.079 6756.28L274 7192.98H10274L10028.7 6756.26ZM1015.28 6756.28H738.269V6460.19C738.269 6382.59 800.784 6323.1 876.774 6323.1C952.878 6323.1 1015.28 6382.59 1015.28 6460.19V6756.28ZM1362.18 6756.28H1086.59V6460.19C1086.59 6382.59 1147.68 6323.1 1225.09 6323.1C1301.2 6323.1 1362.28 6382.59 1362.28 6460.19V6756.28H1362.18ZM1710.28 6756.28H1433.27V6460.19C1433.27 6382.59 1495.78 6323.1 1571.77 6323.1C1647.88 6323.1 1710.28 6382.59 1710.28 6460.19V6756.28ZM2057.07 6756.28H1781.59V6460.19C1781.59 6382.59 1842.58 6323.1 1920.1 6323.1C1996.2 6323.1 2057.11 6382.59 2057.11 6460.19L2057.07 6756.28ZM2405.25 6756.28H2128.16V6460.19C2128.16 6382.59 2190.67 6323.1 2266.74 6323.1C2342.73 6323.1 2405.25 6382.59 2405.25 6460.19V6756.28ZM2780.75 6756.28H2503.66V6460.19C2503.66 6382.59 2566.18 6323.1 2642.17 6323.1C2718.27 6323.1 2780.75 6382.59 2780.75 6460.19V6756.28ZM3127.35 6756.28H2851.88V6460.19C2851.88 6382.59 2912.86 6323.1 2990.38 6323.1C3066.49 6323.1 3127.39 6382.59 3127.39 6460.19L3127.35 6756.28ZM3475.53 6756.28H3198.44V6460.19C3198.44 6382.59 3260.96 6323.1 3337.02 6323.1C3413.13 6323.1 3475.53 6382.59 3475.53 6460.19V6756.28ZM3822.53 6756.28H3546.84V6460.19C3546.84 6382.59 3607.93 6323.1 3685.34 6323.1C3761.56 6323.1 3822.53 6382.59 3822.53 6460.19V6756.28ZM4265.53 6756.28H3955.85V6365.66C3955.85 6282.37 4024.54 6212.37 4110.63 6212.37C4195.34 6212.37 4265.42 6282.38 4265.42 6365.66V6756.28H4265.53ZM4640.21 6756.28H4330.71V6365.66C4330.71 6282.37 4400.71 6212.37 4485.49 6212.37C4571.59 6212.37 4640.21 6282.38 4640.21 6365.66V6756.28ZM5016.51 6756.28H4707V6365.66C4707 6282.37 4775.62 6212.37 4861.72 6212.37C4946.43 6212.37 5016.51 6282.38 5016.51 6365.66V6756.28ZM5391.41 6756.28H5083.33V6365.66C5083.33 6282.37 5151.95 6212.37 5238.05 6212.37C5324.26 6212.37 5391.46 6282.38 5391.46 6365.66L5391.41 6756.28ZM5769.19 6756.28H5459.69V6365.66C5459.69 6282.37 5526.69 6212.37 5612.86 6212.37C5698.96 6212.37 5769.08 6282.38 5769.08 6365.66V6756.28H5769.19ZM6144.1 6756.28H5834.59V6365.66C5834.59 6282.37 5904.59 6212.37 5987.77 6212.37C6073.87 6212.37 6143.98 6282.38 6143.98 6365.66V6756.28H6144.1ZM6518.88 6756.28H6209.3L6209.26 6365.66C6209.26 6282.37 6279.26 6212.37 6365.48 6212.37C6448.69 6212.37 6518.77 6282.38 6518.77 6365.66V6756.28H6518.88ZM6929.35 6756.28H6652.26V6460.19C6652.26 6382.59 6714.78 6323.1 6789.35 6323.1C6866.76 6323.1 6929.24 6382.59 6929.24 6460.19L6929.28 6756.28H6929.35ZM7274.64 6756.28H7000.73V6460.19C7000.73 6382.59 7060.21 6323.1 7137.74 6323.1C7215.16 6323.1 7274.64 6382.59 7274.64 6460.19V6756.28ZM7622.85 6756.28H7345.84V6460.19C7345.84 6382.59 7408.24 6323.1 7485.84 6323.1C7560.33 6323.1 7622.74 6382.59 7622.74 6460.19V6756.28H7622.85ZM7971.14 6756.28H7694.05V6460.19C7694.05 6382.59 7756.64 6323.1 7834.05 6323.1C7894.13 6323.1 7946.17 6361.7 7964.36 6417.1V6458.8H7971.07C7971.07 6459.29 7971.18 6459.81 7971.18 6460.19L7971.14 6756.28ZM8330.02 6756.28H8073.52V6460.19C8055.92 6459.78 8055.92 6459.29 8055.92 6458.81H8076.03V6387.42C8099.72 6348.41 8142.51 6323.03 8193.01 6323.03C8270.31 6323.03 8330.02 6382.51 8330.02 6460.12L8330.02 6756.28ZM8678.23 6756.28H8401.22V6460.19C8401.22 6382.59 8463.74 6323.1 8541.22 6323.1C8615.6 6323.1 8678.12 6382.59 8678.12 6460.19V6756.28H8678.23ZM9026.41 6756.28H8749.32V6460.19C8749.32 6382.59 8811.91 6323.1 8889.4 6323.1C8963.78 6323.1 9026.29 6382.59 9026.29 6460.19L9026.33 6756.28H9026.41ZM9374.73 6756.28H9097.65V6460.19C9097.65 6382.59 9160.16 6323.1 9234.73 6323.1C9312.15 6323.1 9374.73 6382.59 9374.73 6460.19V6756.28ZM9719.92 6756.28H9445.94V6460.19C9445.94 6382.59 9505.53 6323.1 9583.02 6323.1C9660.44 6323.1 9719.92 6382.59 9719.92 6460.19V6756.28Z" fill="white"/>
<path d="M4493.38 4785.19C4544.97 4592.78 4863.08 4443.08 5248.17 4443.08C5634.97 4443.08 5952.94 4592.9 6002.96 4785.19C6009.06 4768.01 6010.67 4750.6 6010.67 4729.79C6010.67 4512.11 5669.15 4332.21 5248.18 4332.21C4827.19 4332.21 4485.79 4512.11 4485.79 4729.79C4485.79 4750.57 4488.89 4767.97 4493.38 4785.19Z" fill="white"/>
<path d="M4663.29 4432.92L4684.48 4299.73L4707.27 4364.94V4407.05C4813.96 4350.04 4953.18 4310.96 5109.28 4296.25L5127.7 4188.85L5148.88 4254.07V4291.87C5137.47 4292.36 5125.97 4293.18 5113.58 4295.99C5157.27 4291.99 5202.26 4289.89 5248.2 4289.89C5456.78 4289.89 5645.6 4332.38 5782.68 4403.88C5774.97 4398.79 5766.69 4393.7 5756.29 4388.79L5769.46 4322.42L5789.27 4387.71V4407.02C5821.68 4424.43 5851.18 4443.34 5877.27 4463.74C5876.49 4197.36 5727.09 3967.06 5511.09 3861.95C5483.8 3782.74 5414.28 3719.14 5325.98 3693.34H5349.19V3625.02H5369V3514.22H5296.19L5258.68 3400.13C5284.77 3391.93 5303.56 3368.53 5303.56 3338.21C5303.56 3300.51 5274.55 3273 5238.28 3273C5200.47 3273 5171.57 3300.51 5171.57 3338.21C5171.57 3368.61 5190.36 3392.12 5217.46 3400.13L5179.17 3514.22H5104.79V3625.02H5127.58V3693.34H5151.69C5059.08 3720.44 4987.5 3789.02 4963.21 3873.55C4759.83 3983.46 4619.9 4206.82 4619.22 4463.62C4633.41 4452.5 4648.91 4441.91 4665 4431.73C4664.48 4432.22 4663.77 4432.63 4663.28 4432.93L4663.29 4432.92ZM5636.07 4254.09L5658.68 4322.41V4349.51C5645.28 4347.01 5634.88 4344.72 5621.17 4339.41L5636.07 4254.09ZM5502.5 4234.4L5525.3 4299.69V4315.6C5515.19 4314.1 5502.02 4312.79 5491.69 4308.49L5502.5 4234.4ZM5326.49 4188.92L5349.18 4254.13V4291.94C5335.06 4291.45 5321.06 4291.04 5309.98 4290.74L5326.49 4188.92ZM4950.02 4211.72L4972.81 4276.93V4315.64C4958.22 4317.43 4945.11 4322.22 4930.81 4324.25L4950.02 4211.72ZM4818.1 4254.09L4839.32 4322.41V4349.51C4826.33 4355.32 4813.42 4361.42 4799.3 4364.3L4818.1 4254.09Z" fill="white"/>
<path d="M5233.1 4863.49C5238.19 4863.49 5243.21 4863.37 5248.3 4863.37C5702.19 4863.37 6082 4997.09 6169.18 5172.96C6182.77 5148.36 6186.89 5123.24 6186.89 5094.76C6186.89 4880.86 5769.08 4710.04 5248.31 4710.04C4730.52 4710.04 4309.83 4880.85 4309.83 5094.76C4309.83 5123.24 4315.34 5148.36 4328.92 5172.96C4413.41 4999.56 4784.42 4866.97 5230.11 4863.56C5230.71 4863.56 5231.2 4863.38 5231.8 4863.38C5232.1 4863.38 5232.62 4863.49 5233.1 4863.49Z" fill="white"/>
<path d="M4640.48 4687.83V4757.83C4672.19 4744.91 4706.48 4735.52 4740.28 4726.65V4687.75C4740.28 4658.44 4718.87 4638.64 4691.17 4638.64C4663.47 4638.64 4640.48 4658.55 4640.48 4687.83Z" fill="white"/>
<path d="M4821.89 4642.31V4705.91C4854.09 4698.72 4886.8 4694.9 4921.69 4688.5V4642.31C4921.69 4616.1 4898.71 4593.19 4871 4593.19C4843.27 4593.19 4821.89 4616.1 4821.89 4642.31Z" fill="white"/>
<path d="M5001.77 4601.48V4679.09C5034.18 4673.77 5068.47 4671.97 5101.57 4670.59V4601.48C5101.57 4575.28 5080.08 4552.37 5052.45 4552.37C5024.75 4552.3 5001.77 4575.2 5001.77 4601.48Z" fill="white"/>
<path d="M5182.98 4578.58V4665.09C5204.1 4664.79 5226.89 4664.49 5248.19 4664.49C5259.91 4664.49 5271.18 4664.68 5282.78 4664.68V4578.58C5282.78 4552.49 5259.87 4529.46 5232.1 4529.46C5204.36 4529.46 5182.98 4552.45 5182.98 4578.58Z" fill="white"/>
<path d="M5364.39 4599.85V4666.45C5397.48 4670.57 5430.2 4672.06 5462.5 4674.05V4599.85C5462.5 4570.65 5439.59 4547.74 5413.5 4547.74C5384.15 4547.63 5364.39 4570.54 5364.39 4599.85Z" fill="white"/>
<path d="M5542.74 4642.31V4682.62C5579.05 4688.54 5611.73 4694.94 5644.03 4698.83V4642.31C5644.03 4616.1 5621.04 4593.19 5594.92 4593.19C5565.64 4593.19 5542.74 4616.1 5542.74 4642.31Z" fill="white"/>
<path d="M5724.05 4689.46V4718.65C5757.66 4726.96 5793.45 4735.76 5825.34 4745.16V4689.46C5825.34 4663.14 5802.36 4640.34 5773.23 4640.34C5746.84 4640.34 5724.05 4663.18 5724.05 4689.46Z" fill="white"/>
<path d="M4707.28 4408.09V4407.08C4692.57 4414.98 4678.57 4423.29 4665.09 4431.87C4677.89 4423.7 4692.3 4415.81 4707.28 4408.09Z" fill="white"/>
<path d="M5109.1 4296.83C5110.6 4296.54 5112.09 4296.24 5113.59 4295.82C5112.09 4295.94 5110.71 4296.01 5109.28 4296.12L5109.1 4296.83Z" fill="white"/>
<path d="M5789.31 4408.09V4407.08C5787.21 4406 5784.89 4404.88 5782.8 4403.9C5784.89 4405.21 5787.21 4406.71 5789.31 4408.09Z" fill="white"/>
<path d="M2109.23 4711.05L2107.47 4750.66L1554.44 4726.11L1524.13 5408.63L2077.16 5433.19L2075.41 5472.8L987.627 5424.5L989.386 5384.89L1486.05 5406.94L1516.35 4724.42L1019.69 4702.37L1021.45 4662.75L2109.23 4711.05Z" fill="white"/>
<path d="M1445.31 4068.68C1469.52 3988.91 1509.56 3935.72 1565.45 3909.12C1620.36 3882.22 1695.48 3883.24 1790.82 3912.17L2301.57 4067.16L2291.83 4099.26L2139.75 4059.49L2138.87 4062.41C2177.42 4096.42 2206.59 4140.33 2226.38 4194.15C2245.2 4247.67 2242.66 4313.83 2218.74 4392.63C2195.42 4469.49 2159.22 4522.25 2110.15 4550.92C2061.37 4578.61 2006.34 4583.16 1945.05 4564.56C1868.19 4541.24 1820.54 4491.72 1802.08 4416C1782.94 4339.01 1787.39 4242.08 1815.42 4125.21L1852.27 3972.25L1789.52 3953.21C1701.97 3926.64 1634.2 3924.14 1586.22 3945.7C1537.27 3966.97 1502.46 4011.65 1481.79 4079.75C1469.98 4118.67 1462.85 4157.94 1460.38 4197.56C1458.22 4236.22 1461.49 4279.71 1470.2 4328.03L1428.27 4329.65C1422.57 4285.43 1420.9 4241.89 1423.28 4199.05C1424.98 4154.94 1432.32 4111.49 1445.31 4068.68ZM1851.32 4132.92C1826.08 4233.63 1820.35 4319.02 1834.15 4389.08C1848.25 4458.16 1889.35 4503.04 1957.45 4523.7C2009.01 4539.35 2054.89 4535.21 2095.08 4511.29C2134.31 4487.07 2163.37 4443.82 2182.26 4381.56C2211.78 4284.27 2205.61 4204.84 2163.73 4143.26C2122.16 4080.71 2057.25 4035.52 1969.02 4007.68L1888.75 3983.32L1851.32 4132.92Z" fill="white"/>
<path d="M2529.74 3655.79C2489.22 3730.97 2440.27 3784.28 2382.9 3815.72C2324.64 3846.69 2261.94 3859.09 2194.8 3852.93C2127.26 3845.4 2059.03 3823.06 1990.12 3785.92C1917.63 3746.85 1861.11 3698.49 1820.58 3640.84C1779.64 3581.81 1757.49 3517.9 1754.14 3449.11C1749.9 3379.84 1767.32 3308.96 1806.39 3236.47C1823.76 3204.25 1842.12 3176.61 1861.48 3153.55C1881.32 3129.6 1903.36 3107.98 1927.61 3088.71L1957.55 3113.51C1930.55 3133.61 1907.58 3155.88 1888.63 3180.31C1870.17 3203.85 1853.94 3228.6 1839.95 3254.56C1805.22 3318.99 1789.63 3382.2 1793.19 3444.17C1796.74 3506.14 1817.03 3563.85 1854.06 3617.3C1891.56 3669.86 1943.43 3713.98 2009.65 3749.67C2070.51 3782.48 2131.3 3802.54 2192.03 3809.86C2253.24 3816.29 2309.95 3806.43 2362.16 3780.29C2414.84 3753.25 2459.52 3705.72 2496.18 3637.71C2513.54 3605.49 2527.53 3572.03 2538.15 3537.33C2549.25 3501.73 2556.43 3468.07 2559.68 3436.32L2593.24 3454.41C2590.13 3481.61 2583.71 3512.8 2573.99 3547.98C2564.26 3583.16 2549.51 3619.1 2529.74 3655.79Z" fill="white"/>
<path d="M2239.05 3001.41C2276.88 3032.24 2312.74 3061.46 2346.62 3089.08C2380.51 3116.7 2415.65 3146 2452.05 3176.97C2448 3151.37 2444.7 3129.67 2442.16 3111.86C2438.84 3093.41 2435.22 3072.1 2431.31 3047.93L2348.44 2522L2381.2 2481.81L2452.03 2942.85L3024.63 2966.86L2994.76 3003.51L2455.97 2981.47L2490.84 3206.62L2694.17 3372.33L2669.12 3403.07L1770.71 2670.85L1795.75 2640.12L2239.05 3001.41Z" fill="white"/>
<path d="M2752.8 2138.33C2806.27 2094.51 2860.15 2072.03 2914.44 2070.91C2968.73 2069.79 3021.78 2084.8 3073.6 2115.94C3124.78 2146.3 3172.92 2188.99 3218.03 2244.03L3242.2 2273.52L2778.69 2653.45C2855.89 2749.24 2936.67 2805.28 3021.02 2821.58C3105.37 2837.89 3188.04 2812.85 3269.02 2746.47C3306.77 2715.53 3336.75 2686.35 3358.97 2658.94C3381.98 2630.88 3404.8 2593.77 3427.43 2547.61L3453.53 2579.45C3434.61 2617.31 3412.4 2651.95 3386.89 2683.38C3362.17 2714.16 3330.93 2745.02 3293.19 2775.95C3227.93 2829.45 3163.19 2859.51 3098.96 2866.15C3035.51 2872.14 2974.3 2859.22 2915.33 2827.37C2857.15 2794.87 2803.24 2748.35 2753.62 2687.81C2705.28 2628.84 2670.64 2566.53 2649.69 2500.88C2628.1 2434.45 2624.71 2370.18 2639.54 2308.07C2654.5 2244.54 2692.26 2187.96 2752.8 2138.33ZM2776.97 2167.82C2710.92 2221.96 2675.04 2288.84 2669.31 2368.46C2663.73 2446.65 2692.53 2531.49 2755.7 2623L3186.19 2270.14C3123.17 2191.65 3055.89 2141.64 2984.33 2120.1C2912.14 2097.77 2843.02 2113.68 2776.97 2167.82Z" fill="white"/>
<path d="M3470.92 1677.91C3492.35 1666.25 3512.28 1657.15 3530.71 1650.6C3550.03 1643.56 3568.94 1637.9 3587.45 1633.62L3596.9 1670.15C3577.5 1674.91 3559.72 1680.53 3543.57 1687C3527.82 1692.1 3509.68 1700.23 3489.14 1711.4C3415.01 1751.73 3374.62 1807.26 3367.97 1878C3361.31 1948.75 3381.79 2027.88 3429.4 2115.41L3645.82 2513.28L3610.99 2532.23L3226.24 1824.9L3258.39 1807.41L3334.67 1941.25L3337.35 1939.8C3327.5 1891.91 3332.91 1844.41 3353.58 1797.29C3374.65 1748.8 3413.76 1709 3470.92 1677.91Z" fill="white"/>
<path d="M4426.43 1964.72C4448.41 2029.19 4441.74 2088.4 4406.42 2142.33C4371.73 2194.97 4306.75 2237.53 4211.49 2270.01C4158.56 2288.05 4108.81 2299.64 4062.22 2304.78C4015.31 2308.96 3975.77 2309.55 3943.6 2306.55L3928.84 2263.25C4018.61 2274.53 4108.73 2264.76 4199.19 2233.92C4286.75 2204.07 4344.53 2167.18 4372.53 2123.27C4400.52 2079.35 4405.5 2030.93 4387.46 1978.01C4374.66 1940.48 4353.91 1914.26 4325.19 1899.34C4297.11 1883.13 4262.97 1874.36 4222.77 1873.03C4183.21 1870.41 4140.13 1870.06 4093.52 1871.98C4044.66 1873.6 3999.17 1874.07 3957.05 1873.39C3915.56 1871.42 3879.49 1861.7 3848.83 1844.23C3818.8 1825.46 3795.75 1792.5 3779.67 1745.35C3759.34 1685.69 3767.16 1631.46 3803.16 1582.67C3838.83 1532.92 3897.08 1494.26 3977.92 1466.7C4023.14 1451.29 4066.96 1441.18 4109.37 1436.39C4151.45 1430.64 4189.53 1428.94 4223.63 1431.28L4220.05 1472.77C4188.52 1468.49 4151.71 1469.22 4109.63 1474.97C4068.51 1480.4 4028.71 1489.67 3990.22 1502.79C3920.93 1526.41 3870.51 1558.1 3838.95 1597.86C3808.03 1636.33 3801.26 1681.06 3818.65 1732.07C3832.1 1771.52 3852.05 1798.55 3878.52 1813.16C3905.61 1826.48 3937.49 1833.34 3974.14 1833.73C4011.76 1833.8 4051.95 1833.52 4094.7 1832.91C4141.64 1831.95 4187.45 1832.44 4232.16 1834.39C4276.86 1836.33 4316.31 1846.51 4350.52 1864.93C4384.39 1882.38 4409.7 1915.65 4426.43 1964.72Z" fill="white"/>
<path d="M5551.55 1672.81C5552.59 1751.09 5540.83 1822.42 5516.27 1886.8C5492.71 1950.15 5455.25 2000.47 5403.89 2037.76C5353.55 2075.03 5288.23 2094.21 5207.92 2095.27C5130.66 2096.3 5065.86 2078.86 5013.53 2042.96C4962.21 2007.04 4923.43 1957.73 4897.17 1895.04C4870.92 1832.35 4857.27 1761.36 4856.21 1682.07C4854.51 1553.98 4884.16 1451.91 4945.17 1375.86C5007.2 1299.79 5094.12 1261.01 5205.94 1259.53C5287.27 1258.44 5353.09 1276.38 5403.4 1313.33C5453.7 1349.26 5490.45 1398.59 5513.66 1461.32C5537.88 1524.04 5550.51 1594.54 5551.55 1672.81ZM4897.38 1681.52C4898.37 1755.73 4910.43 1821.66 4933.57 1879.31C4956.69 1935.94 4990.83 1980.22 5036 2012.15C5082.16 2043.06 5139.3 2058.06 5207.41 2057.15C5278.57 2056.21 5336.3 2039.17 5380.59 2006.04C5425.91 1972.9 5458.86 1927.73 5479.45 1870.52C5501.04 1812.27 5511.35 1746.55 5510.38 1673.36C5509.44 1603.22 5498.43 1539.82 5477.34 1483.16C5457.26 1425.47 5425.13 1380.14 5380.98 1347.18C5336.8 1313.2 5278.63 1296.69 5206.45 1297.65C5105.81 1298.99 5028.49 1333.57 4974.49 1401.39C4921.5 1469.21 4895.8 1562.58 4897.38 1681.52Z" fill="white"/>
<path d="M6154.89 1363.03C6240.23 1382.07 6301.01 1420.11 6337.25 1477.15C6373.48 1534.19 6380.75 1611.33 6359.05 1708.58L6244.16 2223.56L6205.46 2214.93L6320.02 1701.43C6339.5 1614.11 6333.33 1546.07 6301.5 1497.3C6270.66 1448.75 6219.03 1416.4 6146.59 1400.24C6061.26 1381.2 5986.04 1391.5 5920.95 1431.15C5857.07 1470.02 5813.17 1543.04 5789.26 1650.2L5688.98 2099.7L5650.28 2091.07L5825.61 1305.19L5856.87 1312.16L5825.96 1478.7L5828.94 1479.37C5847.71 1451.26 5871.49 1426.36 5900.29 1404.66C5930.31 1382.19 5966.05 1366.73 6007.52 1358.27C6050.2 1349.05 6099.33 1350.63 6154.89 1363.03Z" fill="white"/>
<path d="M6856.69 2492.33C6878.93 2504.64 6899.24 2514.13 6917.62 2520.81C6936.49 2526.6 6954.52 2530.77 6971.71 2533.31L6953.25 2566.67C6936.56 2563.24 6918.78 2558.63 6899.9 2552.84C6881.92 2547.54 6861.37 2538.49 6838.24 2525.69C6775.97 2491.24 6743.11 2449.82 6739.67 2401.44C6737.11 2353.56 6753.06 2298.48 6787.51 2236.2L7055.5 1751.82L6947.42 1692.02L6963.66 1662.66L7072.62 1717.72L7177.34 1547.35L7205.36 1562.85L7108.65 1737.65L7338.17 1864.63L7319.71 1897.99L7090.2 1771.01L6824.42 2251.4C6794.4 2305.66 6779.92 2352.84 6780.98 2392.93C6782.53 2432.13 6807.77 2465.26 6856.69 2492.33Z" fill="white"/>
<path d="M7524.95 2043.88C7510.82 2061.22 7497.58 2076.66 7485.23 2090.2C7474.31 2103.6 7461.39 2118.65 7446.47 2135.34L7448.83 2137.27C7478.06 2119.12 7510.8 2107.11 7547.05 2101.24C7583.95 2094.59 7623.23 2097.09 7664.88 2108.75C7706.53 2120.4 7749.43 2144.21 7793.56 2180.18C7861.34 2235.41 7898.65 2296.65 7905.5 2363.87C7912.35 2431.1 7884.31 2503.33 7821.36 2580.56L7488.01 2989.58L7457.28 2964.53L7789.66 2556.7C7846.19 2487.34 7871.14 2423.74 7864.52 2365.88C7858.68 2308.67 7827 2256.62 7769.47 2209.73C7701.7 2154.49 7629.83 2130.02 7553.88 2136.32C7479.35 2142.47 7407.41 2188.1 7338.04 2273.21L7047.08 2630.22L7016.35 2605.17L7748.56 1706.75L7779.29 1731.8L7524.95 2043.88Z" fill="white"/>
<path d="M8410.12 2822.45C8452.56 2877.02 8473.64 2931.46 8473.37 2985.76C8473.1 3040.06 8456.73 3092.72 8424.27 3143.72C8392.61 3194.1 8348.69 3241.13 8292.51 3284.82L8262.42 3308.22L7894.5 2835.11C7796.77 2909.83 7738.67 2989.14 7720.21 3073.05C7701.74 3156.95 7724.65 3240.23 7788.94 3322.9C7818.9 3361.42 7847.29 3392.14 7874.13 3415.06C7901.59 3438.78 7938.1 3462.55 7983.67 3486.36L7951.16 3511.63C7913.8 3491.75 7879.74 3468.65 7848.98 3442.34C7818.85 3416.84 7788.8 3384.82 7758.84 3346.3C7707.04 3279.69 7678.65 3214.19 7673.66 3149.82C7669.29 3086.24 7683.79 3025.38 7717.14 2967.25C7751.12 2909.92 7799 2857.22 7860.8 2809.16C7920.99 2762.36 7984.17 2729.32 8050.33 2710.07C8117.3 2690.19 8181.63 2688.46 8243.34 2704.87C8306.47 2721.46 8362.06 2760.65 8410.12 2822.45ZM8380.02 2845.85C8327.59 2778.44 8261.66 2740.85 8182.21 2733.08C8104.19 2725.5 8018.63 2752.11 7925.54 2812.91L8267.24 3252.31C8347.31 3191.33 8399.04 3125.35 8422.4 3054.37C8446.57 2982.77 8432.45 2913.27 8380.02 2845.85Z" fill="white"/>
<path d="M8376.57 4659.79L8364.78 4621.93L8893.33 4457.35L8690.2 3805.04L8161.66 3969.63L8149.87 3931.77L9189.48 3608.04L9201.27 3645.9L8726.6 3793.71L8929.73 4446.01L9404.4 4298.2L9416.18 4336.06L8376.57 4659.79Z" fill="white"/>
<path d="M9476.29 4736.96C9478.44 4755.14 9474.7 4766.84 9465.08 4772.07C9456.59 4778.19 9446.28 4781.96 9434.17 4783.39C9421.04 4784.94 9409.64 4783.73 9399.95 4779.75C9390.39 4776.79 9384.54 4766.22 9382.39 4748.04C9380.6 4732.9 9383.96 4722.26 9392.45 4716.14C9400.94 4710.02 9411.75 4706.19 9424.87 4704.64C9436.99 4703.21 9447.89 4704.48 9457.57 4708.46C9468.26 4712.32 9474.5 4721.82 9476.29 4736.96ZM9186.32 4791.14L8386.67 4885.51L8382.02 4846.13L9181.67 4751.77L9186.32 4791.14Z" fill="white"/>
<path d="M8405.59 5158.84L8404.3 5119.21L9562.68 5081.46L9563.97 5121.09L8405.59 5158.84Z" fill="white"/>
<path d="M8401.37 5426.5L8403.43 5386.9L9560.86 5447.19L9558.8 5486.79L8401.37 5426.5Z" fill="white"/>
<path d="M3065.49 5434.16L2813.31 5342.23L2669.79 5545.1L2676.11 5292.38L2405.65 5195.19L2680.67 5110.04L2686.95 4858.92L2820.14 5068.71L3076.64 4987.9L2908.7 5207.77L3065.49 5434.16Z" fill="white"/>
<path d="M3165.26 4595.78L2967.1 4414.72L2757.13 4547.65L2859.23 4316.38L2646.18 4123.5L2932.89 4149.52L3034.35 3919.72L3077.6 4164.43L3345.54 4187.4L3106.51 4326.73L3165.26 4595.78Z" fill="white"/>
<path d="M3575.23 3860.16L3459.01 3618.2L3214.6 3663.1L3395.67 3486.69L3270.06 3228.21L3526.32 3359.41L3706.25 3184.12L3654.99 3427.28L3894.97 3548.66L3621.2 3588.64L3575.23 3860.16Z" fill="white"/>
<path d="M4231.41 3332.08L4215.94 3064.11L3972.81 3012.69L4207.37 2918.39L4189.49 2631.56L4376.6 2850.35L4609.67 2756.66L4469.79 2962.06L4645.59 3165.57L4377.18 3098.44L4231.41 3332.08Z" fill="white"/>
<path d="M5047.99 3092.27L5135.06 2838.37L4929.47 2698.77L5182.26 2700.24L5274.25 2427.97L5364.66 2701.3L5615.86 2702.76L5408.66 2839.96L5494.38 3094.86L5271.33 2931.16L5047.99 3092.27Z" fill="white"/>
<path d="M5883.8 3176.63L6061.18 2975.18L5924.41 2767.69L6157.52 2865.51L6346.44 2648.95L6325.71 2936.1L6557.34 3033.3L6313.46 3081.05L6295.42 3349.37L6151.72 3112.95L5883.8 3176.63Z" fill="white"/>
<path d="M6625.04 3571.74L6864.83 3451.14L6815.49 3207.58L6995.17 3385.41L7251.32 3255.1L7124.81 3513.71L7303.35 3690.42L7059.29 3643.6L6942.32 3885.75L6897.35 3612.76L6625.04 3571.74Z" fill="white"/>
<path d="M7164.47 4215.56L7432.1 4195.01L7478.9 3950.95L7577.63 4183.68L7864.07 4160.36L7648.86 4351.59L7746.96 4582.84L7538.95 4446.88L7338.8 4626.51L7400.83 4356.88L7164.47 4215.56Z" fill="white"/>
<path d="M7421.45 5029.98L7676.66 5113.14L7813.07 4905.43L7815.49 5158.22L8089.15 5246L7817.24 5340.61L7819.64 5591.8L7679.27 5386.73L7425.72 5476.36L7585.97 5250.82L7421.45 5029.98Z" fill="white"/>
</svg>
