<svg width="11665" height="8741" viewBox="0 0 11665 8741" fill="none" xmlns="http://www.w3.org/2000/svg">
<g clip-path="url(#clip0_2_206)">
<path d="M10068 4511.01C10068 4511.01 9551.8 4422.75 9481.14 4102.92C9410.54 3783.09 9906.92 2733 9906.92 2733H9906.99C9529.1 2851.77 9142.61 2941.03 8751 2999.93C8413.48 3017.59 8360.55 2395.51 8360.55 2395.51C8360.48 2395.51 7502.3 3674.94 7281.69 3480.83C7061.08 3286.72 7742.73 974.835 7742.73 974.835C7742.73 974.835 7365.48 1510.89 6975.04 1453.51C6584.59 1396.14 6068.32 158.585 6033.06 77C5999.95 158.647 5470.46 1400.59 5091.08 1453.51C4711.61 1506.44 4327.77 974.835 4327.77 974.835C4327.7 974.835 5016.04 3275.67 4784.36 3480.83C4552.68 3685.99 3701.12 2393.28 3701.12 2393.28C3701.12 2393.28 3648.19 3015.37 3310.67 2997.7C2918.99 2938.82 2532.5 2849.56 2154.68 2730.78C2154.68 2730.78 2648.84 3783.07 2580.46 4102.92C2512.02 4422.75 1987 4511.01 1987 4511.01C1987 4511.01 3478.36 5755.18 3495.95 6163.27C3494.15 6444.97 3421.07 6625.59 3278.38 6868.44C3278.38 6868.44 5296.14 6571.43 5620.44 6626.58C5944.74 6681.73 5860.45 7160.94 5872.23 7389.85C5872.23 7621.51 5746.77 8739.93 5746.77 8739.93L6304.77 8740C6304.77 8739.93 6184.16 7621.42 6184.16 7389.85C6190.4 7158.86 6125.65 6679.5 6445.52 6626.58C6765.37 6573.66 8793.95 6868.44 8793.95 6868.44C8650.9 6625.72 8573.65 6445.04 8572.22 6163.27C8574.45 5755.18 10068 4511.01 10068 4511.01H10068Z" fill="#FF0000" fill-opacity="0.66"/>
<path d="M10953.9 7073.54L10805.7 6629.1H10583.5L10435.3 7073.54H9176.18L9027.96 6629.1H8805.74L8657.52 7073.54H7416.87V6851.32H7361.31V7073.54H7083.54V6851.32H7027.98V7073.54H6527.98V4573.54L6472.42 4295.76L6416.87 4573.54V4851.32H6361.31V4295.76L6083.54 2740.21V2629.1H5972.42V2740.21L5694.65 4295.76V4851.32H5639.09V4573.54L5583.54 4295.76L5527.98 4573.54V7073.54H5027.98V6851.32H4972.42V7073.54H4694.65V6851.32H4639.09V7073.54H3398.35L3250.24 6629.1H3028.02L2879.91 7073.54H1620.55L1472.44 6629.1H1250.22L1102.11 7073.54H1028V8740.21H2139.11V8629.1L2250.22 8573.54L2361.33 8629.1V8740.21H9694.67V8629.1L9805.78 8573.54L9916.89 8629.1V8740.21H11028V7073.54H10953.9ZM1472.44 7073.54H1528V7129.1H1472.44V7073.54ZM1416.89 7351.32H1472.44V7517.99H1416.89V7351.32ZM1416.89 7629.1H1472.44V7795.76H1416.89V7629.1ZM1416.89 7906.88H1472.44V8073.54H1416.89V7906.88ZM1194.67 7073.54H1250.22V7129.1H1194.67V7073.54ZM1139.11 7351.32H1194.67V7517.99H1139.11V7351.32ZM1139.11 7629.1H1194.67V7795.76H1139.11V7629.1ZM1139.11 7906.88H1194.67V8073.54H1139.11V7906.88ZM1194.67 8629.1V8684.65H1139.11V8573.54H1194.67V8629.1ZM1305.78 8684.65H1250.22V8573.54H1305.78V8684.65ZM1305.78 8462.43H1139.11V8351.32C1139.11 8289.65 1172.89 8236.66 1222.44 8207.76C1272 8236.66 1305.78 8289.65 1305.78 8351.32V8462.43ZM1305.78 8073.54H1250.22V7906.88H1305.78V8073.54ZM1305.78 7795.76H1250.22V7629.1H1305.78V7795.76ZM1305.78 7517.99H1250.22V7351.32H1305.78V7517.99ZM1472.44 8684.65H1416.89V8573.54H1472.44V8684.65ZM1583.55 8684.65H1528V8573.54H1583.55V8684.65ZM1583.55 8462.43H1416.89V8351.32C1416.89 8289.65 1450.67 8236.66 1500.22 8207.76C1549.77 8236.66 1583.55 8289.65 1583.55 8351.32V8462.43ZM1583.55 8073.54H1528V7906.88H1583.55V8073.54ZM1583.55 7795.76H1528V7629.1H1583.55V7795.76ZM1583.55 7517.99H1528V7351.32H1583.55V7517.99ZM2083.55 7406.88H2139.11V7462.43H2083.55V7406.88ZM2028 7629.1H2083.55V7795.76H2028V7629.1ZM2028 7906.88H2083.55V8073.54H2028V7906.88ZM1805.78 7406.88H1861.33V7462.43H1805.78V7406.88ZM1750.22 7629.1H1805.78V7795.76H1750.22V7629.1ZM1750.22 7906.88H1805.78V8073.54H1750.22V7906.88ZM1805.78 8629.1V8684.65H1750.22V8573.54H1805.78V8629.1ZM1916.89 8684.65H1861.33V8573.54H1916.89V8684.65ZM1916.89 8462.43H1750.22V8351.32C1750.22 8289.65 1784 8236.66 1833.55 8207.76C1883.11 8236.66 1916.89 8289.65 1916.89 8351.32V8462.43ZM1916.89 8073.54H1861.33V7906.88H1916.89V8073.54ZM1916.89 7795.76H1861.33V7629.1H1916.89V7795.76ZM2083.55 8684.65H2028V8573.54H2083.55V8684.65ZM2194.67 8462.43H2028V8351.32C2028 8289.65 2061.78 8236.66 2111.33 8207.76C2160.88 8236.66 2194.67 8289.65 2194.67 8351.32V8462.43ZM2194.67 8073.54H2139.11V7906.88H2194.67V8073.54ZM2194.67 7795.76H2139.11V7629.1H2194.67V7795.76ZM2639.11 7406.88H2694.67V7462.43H2639.11V7406.88ZM2583.55 7629.1H2639.11V7795.76H2583.55V7629.1ZM2583.55 7906.88H2639.11V8073.54H2583.55V7906.88ZM2361.33 7406.88H2416.89V7462.43H2361.33V7406.88ZM2305.78 7629.1H2361.33V7795.76H2305.78V7629.1ZM2305.78 7906.88H2361.33V8073.54H2305.78V7906.88ZM2472.44 8684.65H2416.89V8573.54H2472.44V8684.65ZM2472.44 8462.43H2305.78V8351.32C2305.78 8289.65 2339.56 8236.66 2389.11 8207.76C2438.66 8236.66 2472.44 8289.65 2472.44 8351.32V8462.43ZM2472.44 8073.54H2416.89V7906.88H2472.44V8073.54ZM2472.44 7795.76H2416.89V7629.1H2472.44V7795.76ZM2639.11 8629.1V8684.65H2583.55V8573.54H2639.11V8629.1ZM2750.22 8684.65H2694.67V8573.54H2750.22V8684.65ZM2750.22 8462.43H2583.55V8351.32C2583.55 8289.65 2617.34 8236.66 2666.89 8207.76C2716.44 8236.66 2750.22 8289.65 2750.22 8351.32V8462.43ZM2750.22 8073.54H2694.67V7906.88H2750.22V8073.54ZM2750.22 7795.76H2694.67V7629.1H2750.22V7795.76ZM3250.22 7073.54H3305.78V7129.1H3250.22V7073.54ZM3194.67 7351.32H3250.22V7517.99H3194.67V7351.32ZM3194.67 7629.1H3250.22V7795.76H3194.67V7629.1ZM3194.67 7906.88H3250.22V8073.54H3194.67V7906.88ZM2972.44 7073.54H3028V7129.1H2972.44V7073.54ZM2916.89 7351.32H2972.44V7517.99H2916.89V7351.32ZM2916.89 7629.1H2972.44V7795.76H2916.89V7629.1ZM2916.89 7906.88H2972.44V8073.54H2916.89V7906.88ZM2972.44 8629.1V8684.65H2916.89V8573.54H2972.44V8629.1ZM3083.55 8684.65H3028V8573.54H3083.55V8684.65ZM3083.55 8462.43H2916.89V8351.32C2916.89 8289.65 2950.67 8236.66 3000.22 8207.76C3049.77 8236.66 3083.55 8289.65 3083.55 8351.32V8462.43ZM3083.55 8073.54H3028V7906.88H3083.55V8073.54ZM3083.55 7795.76H3028V7629.1H3083.55V7795.76ZM3083.55 7517.99H3028V7351.32H3083.55V7517.99ZM3250.22 8684.65H3194.67V8573.54H3250.22V8684.65ZM3361.33 8684.65H3305.78V8573.54H3361.33V8684.65ZM3361.33 8462.43H3194.67V8351.32C3194.67 8289.65 3228.45 8236.66 3278 8207.76C3327.55 8236.66 3361.33 8289.65 3361.33 8351.32V8462.43ZM3361.33 8073.54H3305.78V7906.88H3361.33V8073.54ZM3361.33 7795.76H3305.78V7629.1H3361.33V7795.76ZM3361.33 7517.99H3305.78V7351.32H3361.33V7517.99ZM4472.44 7406.88H4528V7462.43H4472.44V7406.88ZM4416.89 7629.1H4472.44V7795.76H4416.89V7629.1ZM4416.89 7906.88H4472.44V8073.54H4416.89V7906.88ZM4194.67 7406.88H4250.22V7462.43H4194.67V7406.88ZM4139.11 7629.1H4194.67V7795.76H4139.11V7629.1ZM4139.11 7906.88H4194.67V8073.54H4139.11V7906.88ZM3916.89 7406.88H3972.44V7462.43H3916.89V7406.88ZM3861.33 7629.1H3916.89V7795.76H3861.33V7629.1ZM3861.33 7906.88H3916.89V8073.54H3861.33V7906.88ZM3639.11 7406.88H3694.67V7462.43H3639.11V7406.88ZM3583.55 7629.1H3639.11V7795.76H3583.55V7629.1ZM3583.55 7906.88H3639.11V8073.54H3583.55V7906.88ZM3639.11 8684.65H3583.55V8573.54H3639.11V8684.65ZM3750.22 8684.65H3694.67V8573.54H3750.22V8684.65ZM3750.22 8462.43H3583.55V8351.32C3583.55 8289.65 3617.34 8236.66 3666.89 8207.76C3716.44 8236.66 3750.22 8289.65 3750.22 8351.32V8462.43ZM3750.22 8073.54H3694.67V7906.88H3750.22V8073.54ZM3750.22 7795.76H3694.67V7629.1H3750.22V7795.76ZM3916.89 8684.65H3861.33V8573.54H3916.89V8684.65ZM4028 8684.65H3972.44V8573.54H4028V8684.65ZM4028 8462.43H3861.33V8351.32C3861.33 8289.65 3895.11 8236.66 3944.67 8207.76C3994.22 8236.66 4028 8289.65 4028 8351.32V8462.43ZM4028 8073.54H3972.44V7906.88H4028V8073.54ZM4028 7795.76H3972.44V7629.1H4028V7795.76ZM4194.67 8684.65H4139.11V8573.54H4194.67V8684.65ZM4305.78 8684.65H4250.22V8573.54H4305.78V8684.65ZM4305.78 8462.43H4139.11V8351.32C4139.11 8289.65 4172.89 8236.66 4222.44 8207.76C4272 8236.66 4305.78 8289.65 4305.78 8351.32V8462.43ZM4305.78 8073.54H4250.22V7906.88H4305.78V8073.54ZM4305.78 7795.76H4250.22V7629.1H4305.78V7795.76ZM4472.44 8684.65H4416.89V8573.54H4472.44V8684.65ZM4583.55 8684.65H4528V8573.54H4583.55V8684.65ZM4583.55 8462.43H4416.89V8351.32C4416.89 8289.65 4450.67 8236.66 4500.22 8207.76C4549.77 8236.66 4583.55 8289.65 4583.55 8351.32V8462.43ZM4583.55 8073.54H4528V7906.88H4583.55V8073.54ZM4583.55 7795.76H4528V7629.1H4583.55V7795.76ZM4805.78 8573.54H4750.22V8462.43H4805.78V8573.54ZM4805.78 8295.76H4750.22V7906.88H4805.78V8295.76ZM4805.78 7712.43V7795.76H4750.22V7629.1H4805.78V7712.43ZM4805.78 7406.88H4861.33V7462.43H4805.78V7406.88ZM4916.89 8573.54H4861.33V8462.43H4916.89V8573.54ZM4916.89 8295.76H4861.33V7906.88H4916.89V8295.76ZM4916.89 7795.76H4861.33V7629.1H4916.89V7795.76ZM5416.89 7406.88H5472.44V7462.43H5416.89V7406.88ZM5361.33 7629.1H5416.89V7795.76H5361.33V7629.1ZM5361.33 7906.88H5416.89V8073.54H5361.33V7906.88ZM5139.11 7406.88H5194.67V7462.43H5139.11V7406.88ZM5083.55 7629.1H5139.11V7795.76H5083.55V7629.1ZM5083.55 7906.88H5139.11V8073.54H5083.55V7906.88ZM5139.11 8684.65H5083.55V8573.54H5139.11V8684.65ZM5250.22 8684.65H5194.67V8573.54H5250.22V8684.65ZM5250.22 8462.43H5083.55V8351.32C5083.55 8289.65 5117.34 8236.66 5166.89 8207.76C5216.44 8236.66 5250.22 8289.65 5250.22 8351.32V8462.43ZM5250.22 8073.54H5194.67V7906.88H5250.22V8073.54ZM5250.22 7795.76H5194.67V7629.1H5250.22V7795.76ZM5416.89 8684.65H5361.33V8573.54H5416.89V8684.65ZM5528 8684.65H5472.44V8573.54H5528V8684.65ZM5528 8462.43H5361.33V8351.32C5361.33 8289.65 5395.11 8236.66 5444.67 8207.76C5494.22 8236.66 5528 8289.65 5528 8351.32V8462.43ZM5528 8073.54H5472.44V7906.88H5528V8073.54ZM5528 7795.76H5472.44V7629.1H5528V7795.76ZM6083.55 4073.54H6139.11V4184.65H6083.55V4073.54ZM5916.89 4073.54H5972.44V4184.65H5916.89V4073.54ZM5861.33 5295.76H5972.44V5629.1H5861.33V5295.76ZM6028 7295.76L6139.11 7406.88V7851.32H5916.89V7406.88L6028 7295.76ZM5861.33 6017.99L5916.89 5962.43L5972.44 6017.99V6129.1H5861.33V6017.99ZM5861.33 6240.21H5972.44V6962.43H5861.33V6240.21ZM6194.67 8629.1H5861.33V8462.43C5861.33 8348.76 5929.87 8251.1 6028 8208.09C6126.13 8251.09 6194.67 8348.75 6194.67 8462.43V8629.1ZM6194.67 6962.43H6083.55V6240.21H6194.67V6962.43ZM6194.67 6129.1H6083.55V6017.99L6139.11 5962.43L6194.67 6017.99V6129.1ZM6194.67 5629.1H6083.55V5295.76H6194.67V5629.1ZM6028 4740.21C5935.98 4740.21 5861.33 4665.56 5861.33 4573.54C5861.33 4481.53 5935.98 4406.88 6028 4406.88C6120.01 4406.88 6194.67 4481.53 6194.67 4573.54C6194.67 4665.56 6120.01 4740.21 6028 4740.21ZM6861.33 7406.88H6916.89V7462.43H6861.33V7406.88ZM6805.78 7629.1H6861.33V7795.76H6805.78V7629.1ZM6805.78 7906.88H6861.33V8073.54H6805.78V7906.88ZM6583.55 7406.88H6639.11V7462.43H6583.55V7406.88ZM6528 7629.1H6583.55V7795.76H6528V7629.1ZM6528 7906.88H6583.55V8073.54H6528V7906.88ZM6583.55 8684.65H6528V8573.54H6583.55V8684.65ZM6694.67 8684.65H6639.11V8573.54H6694.67V8684.65ZM6694.67 8462.43H6528V8351.32C6528 8289.65 6561.89 8236.66 6611.33 8207.76C6660.77 8236.66 6694.67 8289.65 6694.67 8351.32V8462.43ZM6694.67 8073.54H6639.11V7906.88H6694.67V8073.54ZM6694.67 7795.76H6639.11V7629.1H6694.67V7795.76ZM6861.33 8684.65H6805.78V8573.54H6861.33V8684.65ZM6972.44 8684.65H6916.89V8573.54H6972.44V8684.65ZM6972.44 8462.43H6805.78V8351.32C6805.78 8289.65 6839.67 8236.66 6889.11 8207.76C6938.55 8236.66 6972.44 8289.65 6972.44 8351.32V8462.43ZM6972.44 8073.54H6916.89V7906.88H6972.44V8073.54ZM6972.44 7795.76H6916.89V7629.1H6972.44V7795.76ZM7194.67 8573.54H7139.11V8462.43H7194.67V8573.54ZM7194.67 8295.76H7139.11V7906.88H7194.67V8295.76ZM7194.67 7795.76H7139.11V7629.1H7194.67V7795.76ZM7194.67 7406.88H7250.22V7462.43H7194.67V7406.88ZM7305.78 8573.54H7250.22V8462.43H7305.78V8573.54ZM7305.78 8295.76H7250.22V7906.88H7305.78V8295.76ZM7305.78 7795.76H7250.22V7629.1H7305.78V7795.76ZM8361.33 7406.88H8416.89V7462.43H8361.33V7406.88ZM8305.78 7629.1H8361.33V7795.76H8305.78V7629.1ZM8305.78 7906.88H8361.33V8073.54H8305.78V7906.88ZM8083.55 7406.88H8139.11V7462.43H8083.55V7406.88ZM8028 7629.1H8083.55V7795.76H8028V7629.1ZM8028 7906.88H8083.55V8073.54H8028V7906.88ZM7805.78 7406.88H7861.33V7462.43H7805.78V7406.88ZM7750.22 7629.1H7805.78V7795.76H7750.22V7629.1ZM7750.22 7906.88H7805.78V8073.54H7750.22V7906.88ZM7528 7406.88H7583.55V7462.43H7528V7406.88ZM7472.44 7629.1H7528V7795.76H7472.44V7629.1ZM7472.44 7906.88H7528V8073.54H7472.44V7906.88ZM7528 8684.65H7472.44V8573.54H7528V8684.65ZM7639.11 8684.65H7583.55V8573.54H7639.11V8684.65ZM7639.11 8462.43H7472.44V8351.32C7472.44 8289.65 7506.33 8236.66 7555.78 8207.76C7605.22 8236.66 7639.11 8289.65 7639.11 8351.32V8462.43ZM7639.11 8073.54H7583.55V7906.88H7639.11V8073.54ZM7639.11 7795.76H7583.55V7629.1H7639.11V7795.76ZM7805.78 8684.65H7750.22V8573.54H7805.78V8684.65ZM7916.89 8684.65H7861.33V8573.54H7916.89V8684.65ZM7916.89 8462.43H7750.22V8351.32C7750.22 8289.65 7784.11 8236.66 7833.55 8207.76C7883 8236.66 7916.89 8289.65 7916.89 8351.32V8462.43ZM7916.89 8073.54H7861.33V7906.88H7916.89V8073.54ZM7916.89 7795.76H7861.33V7629.1H7916.89V7795.76ZM8083.55 8684.65H8028V8573.54H8083.55V8684.65ZM8194.67 8684.65H8139.11V8573.54H8194.67V8684.65ZM8194.67 8462.43H8028V8351.32C8028 8289.65 8061.89 8236.66 8111.33 8207.76C8160.77 8236.66 8194.67 8289.65 8194.67 8351.32V8462.43ZM8194.67 8073.54H8139.11V7906.88H8194.67V8073.54ZM8194.67 7795.76H8139.11V7629.1H8194.67V7795.76ZM8361.33 8684.65H8305.78V8573.54H8361.33V8684.65ZM8472.44 8684.65H8416.89V8573.54H8472.44V8684.65ZM8472.44 8462.43H8305.78V8351.32C8305.78 8289.65 8339.67 8236.66 8389.11 8207.76C8438.55 8236.66 8472.44 8289.65 8472.44 8351.32V8462.43ZM8472.44 8073.54H8416.89V7906.88H8472.44V8073.54ZM8472.44 7795.76H8416.89V7629.1H8472.44V7795.76ZM9028 7073.54H9083.55V7129.1H9028V7073.54ZM8972.44 7351.32H9028V7517.99H8972.44V7351.32ZM8972.44 7629.1H9028V7795.76H8972.44V7629.1ZM8972.44 7906.88H9028V8073.54H8972.44V7906.88ZM8750.22 7073.54H8805.78V7129.1H8750.22V7073.54ZM8694.67 7351.32H8750.22V7517.99H8694.67V7351.32ZM8694.67 7629.1H8750.22V7795.76H8694.67V7629.1ZM8694.67 7906.88H8750.22V8073.54H8694.67V7906.88ZM8750.22 8684.65H8694.67V8573.54H8750.22V8684.65ZM8861.33 8684.65H8805.78V8573.54H8861.33V8684.65ZM8861.33 8462.43H8694.67V8351.32C8694.67 8289.65 8728.56 8236.66 8778 8207.76C8827.44 8236.66 8861.33 8289.65 8861.33 8351.32V8462.43ZM8861.33 8073.54H8805.78V7906.88H8861.33V8073.54ZM8861.33 7795.76H8805.78V7629.1H8861.33V7795.76ZM8861.33 7517.99H8805.78V7351.32H8861.33V7517.99ZM9028 8684.65H8972.44V8573.54H9028V8684.65ZM9139.11 8684.65H9083.55V8573.54H9139.11V8684.65ZM9139.11 8462.43H8972.44V8351.32C8972.44 8289.65 9006.33 8236.66 9055.78 8207.76C9105.22 8236.66 9139.11 8289.65 9139.11 8351.32V8462.43ZM9139.11 8073.54H9083.55V7906.88H9139.11V8073.54ZM9139.11 7795.76H9083.55V7629.1H9139.11V7795.76ZM9139.11 7517.99H9083.55V7351.32H9139.11V7517.99ZM9639.11 7406.88H9694.67V7462.43H9639.11V7406.88ZM9583.55 7629.1H9639.11V7795.76H9583.55V7629.1ZM9583.55 7906.88H9639.11V8073.54H9583.55V7906.88ZM9361.33 7406.88H9416.89V7462.43H9361.33V7406.88ZM9305.78 7629.1H9361.33V7795.76H9305.78V7629.1ZM9305.78 7906.88H9361.33V8073.54H9305.78V7906.88ZM9361.33 8684.65H9305.78V8573.54H9361.33V8684.65ZM9472.44 8684.65H9416.89V8573.54H9472.44V8684.65ZM9472.44 8462.43H9305.78V8351.32C9305.78 8289.65 9339.67 8236.66 9389.11 8207.76C9438.55 8236.66 9472.44 8289.65 9472.44 8351.32V8462.43ZM9472.44 8073.54H9416.89V7906.88H9472.44V8073.54ZM9472.44 7795.76H9416.89V7629.1H9472.44V7795.76ZM9639.11 8684.65H9583.55V8573.54H9639.11V8684.65ZM9750.22 8462.43H9583.55V8351.32C9583.55 8289.65 9617.45 8236.66 9666.89 8207.76C9716.33 8236.66 9750.22 8289.65 9750.22 8351.32V8462.43ZM9750.22 8073.54H9694.67V7906.88H9750.22V8073.54ZM9750.22 7795.76H9694.67V7629.1H9750.22V7795.76ZM10194.7 7406.88H10250.2V7462.43H10194.7V7406.88ZM10139.1 7629.1H10194.7V7795.76H10139.1V7629.1ZM10139.1 7906.88H10194.7V8073.54H10139.1V7906.88ZM9916.89 7406.88H9972.44V7462.43H9916.89V7406.88ZM9861.33 7629.1H9916.89V7795.76H9861.33V7629.1ZM9861.33 7906.88H9916.89V8073.54H9861.33V7906.88ZM10028 8684.65H9972.44V8573.54H10028V8684.65ZM10028 8462.43H9861.33V8351.32C9861.33 8289.65 9895.22 8236.66 9944.67 8207.76C9994.11 8236.66 10028 8289.65 10028 8351.32V8462.43ZM10028 8073.54H9972.44V7906.88H10028V8073.54ZM10028 7795.76H9972.44V7629.1H10028V7795.76ZM10194.7 8684.65H10139.1V8573.54H10194.7V8684.65ZM10305.8 8684.65H10250.2V8573.54H10305.8V8684.65ZM10305.8 8462.43H10139.1V8351.32C10139.1 8289.65 10173 8236.66 10222.4 8207.76C10271.9 8236.66 10305.8 8289.65 10305.8 8351.32V8462.43ZM10305.8 8073.54H10250.2V7906.88H10305.8V8073.54ZM10305.8 7795.76H10250.2V7629.1H10305.8V7795.76ZM10805.8 7073.54H10861.3V7129.1H10805.8V7073.54ZM10750.2 7351.32H10805.8V7517.99H10750.2V7351.32ZM10750.2 7629.1H10805.8V7795.76H10750.2V7629.1ZM10750.2 7906.88H10805.8V8073.54H10750.2V7906.88ZM10528 7073.54H10583.6V7129.1H10528V7073.54ZM10472.4 7351.32H10528V7517.99H10472.4V7351.32ZM10472.4 7629.1H10528V7795.76H10472.4V7629.1ZM10472.4 7906.88H10528V8073.54H10472.4V7906.88ZM10528 8684.65H10472.4V8573.54H10528V8684.65ZM10639.1 8684.65H10583.6V8573.54H10639.1V8684.65ZM10639.1 8462.43H10472.4V8351.32C10472.4 8289.65 10506.3 8236.66 10555.8 8207.76C10605.2 8236.66 10639.1 8289.65 10639.1 8351.32V8462.43ZM10639.1 8073.54H10583.6V7906.88H10639.1V8073.54ZM10639.1 7795.76H10583.6V7629.1H10639.1V7795.76ZM10639.1 7517.99H10583.6V7351.32H10639.1V7517.99ZM10805.8 8684.65H10750.2V8573.54H10805.8V8684.65ZM10916.9 8684.65H10861.3V8573.54H10916.9V8684.65ZM10916.9 8462.43H10750.2V8351.32C10750.2 8289.65 10784.1 8236.66 10833.6 8207.76C10883 8236.66 10916.9 8289.65 10916.9 8351.32V8462.43ZM10916.9 8073.54H10861.3V7906.88H10916.9V8073.54ZM10916.9 7795.76H10861.3V7629.1H10916.9V7795.76ZM10916.9 7517.99H10861.3V7351.32H10916.9V7517.99Z" fill="white"/>
<path d="M2148.74 5449.87L2139.91 5652.18L1664.86 5631.44L1646.8 6045.05L2121.85 6065.79L2113.08 6266.6L1043.1 6219.88L1051.87 6019.07L1483.46 6037.91L1501.52 5624.31L1069.93 5605.47L1078.76 5403.16L2148.74 5449.87Z" fill="white"/>
<path d="M1471.8 4643.47C1500.86 4549.88 1545.08 4485.08 1604.43 4449.06C1662.83 4412.75 1738.35 4408.98 1830.98 4437.76L2352.41 4599.72L2311.03 4732.94L2192.02 4736.81L2190.24 4742.54C2211.41 4772.15 2228.14 4800.91 2240.41 4828.81C2251.73 4856.41 2256.77 4885.72 2255.51 4916.74C2255.2 4948.06 2248.82 4983.77 2236.36 5023.88C2223.02 5066.86 2202.41 5102.87 2174.54 5131.91C2146.67 5160.95 2111.95 5180.01 2070.39 5189.09C2027.87 5197.87 1979.39 5193.81 1924.96 5176.9C1844.74 5151.98 1793.18 5105.6 1770.27 5037.75C1746.41 4969.61 1749.78 4879.55 1780.37 4767.59L1814.78 4641.63L1776.1 4629.61C1726.44 4614.19 1687.84 4613.72 1660.31 4628.2C1632.77 4642.68 1613.37 4668.07 1602.1 4704.36C1591.42 4738.74 1586.32 4775.38 1586.81 4814.27C1587.59 4852.21 1590.43 4890.27 1595.33 4928.44L1451.02 4948.01C1443.13 4902.63 1440.39 4854.14 1442.81 4802.53C1445.23 4750.92 1454.89 4697.9 1471.8 4643.47ZM1904.46 4757.44C1886.27 4826.13 1885.43 4877.71 1901.95 4912.16C1917.52 4946.32 1945.84 4969.77 1986.9 4982.53C2023.19 4993.8 2052.27 4992.88 2074.15 4979.78C2096.31 4965.72 2112.14 4943.41 2121.64 4912.86C2135.58 4867.97 2132.64 4825.17 2112.82 4784.46C2092.05 4743.46 2052.06 4713.76 1992.85 4695.37L1926.96 4674.9L1904.46 4757.44Z" fill="white"/>
<path d="M2597.17 4134.89C2561.37 4200.79 2517.6 4250.99 2465.86 4285.48C2413.73 4318.61 2353.7 4333.8 2285.78 4331.04C2217.45 4326.93 2141.11 4301.96 2056.75 4256.14C1968.88 4208.41 1905.34 4155.69 1866.13 4097.97C1826.53 4038.9 1807.58 3977.4 1809.31 3913.47C1810.63 3848.19 1828.71 3783.47 1863.56 3719.32C1885.52 3678.9 1910.43 3643.5 1938.31 3613.13C1966.67 3581.87 1993.45 3557.72 2018.64 3540.68L2117.85 3662.86C2095.3 3681.33 2074.06 3700.52 2054.14 3720.43C2034.23 3740.34 2017.82 3762.15 2004.94 3785.88C1985.37 3821.91 1977.92 3856.56 1982.61 3889.83C1987.3 3923.1 2003.64 3955.87 2031.63 3988.15C2059.21 4019.06 2099.37 4048.84 2152.09 4077.48C2203.06 4105.17 2249.02 4122.17 2289.97 4128.48C2331.4 4133.91 2367.35 4129.54 2397.81 4115.36C2427.39 4100.71 2451.49 4076.24 2470.11 4041.97C2488.72 4007.7 2501.08 3973.44 2507.16 3939.19C2513.72 3904.07 2515.82 3868.79 2513.44 3833.36L2657.11 3911.4C2659.01 3947.71 2655.12 3983.15 2645.45 4017.72C2636.65 4052.78 2620.56 4091.83 2597.17 4134.89Z" fill="white"/>
<path d="M2432.88 3265.89C2452.86 3282.53 2473.35 3300.9 2494.35 3321C2514.58 3340.45 2534.11 3359.98 2552.94 3379.56L2556.78 3374.95C2550.76 3363.43 2545.57 3349.35 2541.21 3332.7C2536.09 3315.42 2531.67 3298.07 2527.95 3280.66C2524.11 3261.84 2521.09 3244.36 2518.91 3228.23L2457.2 2901.56L2601.21 2728.68L2681.77 3180.38L3237.39 3235.19L3090.51 3411.53L2681.99 3358.22L2685.28 3476.14L2892.74 3648.95L2766.01 3801.08L1890.09 3071.44L2016.82 2919.31L2432.88 3265.89Z" fill="white"/>
<path d="M3044.83 2321.96C3099.76 2278.56 3156.14 2253.13 3213.97 2245.67C3271.96 2236.81 3328.99 2245.27 3385.06 2271.07C3440.51 2296.08 3492.41 2339.19 3540.77 2400.39L3600.28 2475.71L3209.54 2784.45C3256.99 2841.28 3306.76 2875.23 3358.85 2886.32C3411.11 2896.01 3461.96 2881.32 3511.39 2842.27C3550.62 2811.27 3582.44 2779.76 3606.84 2747.73C3630.62 2714.92 3652.79 2677.65 3673.34 2635.92L3767.27 2754.79C3749.23 2793.26 3726.92 2828.73 3700.33 2861.21C3673.74 2893.69 3636.91 2928.53 3589.83 2965.73C3530.2 3012.85 3467.93 3042.93 3403.04 3055.96C3338.31 3067.6 3273.79 3059.32 3209.45 3031.13C3145.12 3002.95 3084.44 2952.76 3027.4 2880.57C2969.75 2807.6 2933.16 2737.1 2917.64 2669.07C2901.5 2600.26 2904.7 2536.56 2927.23 2477.97C2949.92 2417.98 2989.13 2365.97 3044.83 2321.96ZM3133.67 2429.55C3098.37 2457.45 3079.96 2493.03 3078.44 2536.28C3077.1 2578.13 3094.3 2625.71 3130.06 2679.02L3370.15 2489.31C3346.6 2459.5 3321.51 2436.62 3294.9 2420.69C3268.29 2404.75 3241.4 2397.33 3214.21 2398.41C3187.2 2398.09 3160.35 2408.47 3133.67 2429.55Z" fill="white"/>
<path d="M3947.71 1749.47C3960.08 1742.91 3973.12 1736.55 3986.84 1730.41C4000.56 1724.26 4012.54 1720.17 4022.78 1718.13L4089.14 1881.59C4079.37 1884.51 4068.07 1888.81 4055.23 1894.49C4042.81 1898.82 4029.97 1904.5 4016.72 1911.53C3994.64 1923.25 3975.34 1939.15 3958.83 1959.23C3941.85 1978.43 3929.42 2000.87 3921.54 2026.56C3913.2 2051.37 3910.52 2079.39 3913.51 2110.64C3917.39 2141.41 3928.7 2174.46 3947.45 2209.79L4145.02 2582.12L3968.79 2675.64L3587.72 1957.48L3722.87 1885.76L3812.81 1997.66L3822.08 1992.74C3821.74 1960.09 3825.89 1928.45 3834.55 1897.82C3843.61 1865.84 3857.23 1837.1 3875.41 1811.61C3894.46 1785.65 3918.56 1764.94 3947.71 1749.47Z" fill="white"/>
<path d="M4942.43 2007.92C4959.34 2059.21 4962.35 2106.65 4951.46 2150.25C4940.25 2192.91 4915.31 2230.62 4876.62 2263.38C4837.93 2296.14 4784.88 2323.64 4717.45 2345.87C4666.16 2362.78 4620.27 2373.7 4579.78 2378.63C4539.29 2383.56 4498.81 2383.74 4458.35 2379.19L4408.09 2226.76C4452.02 2232.28 4497.87 2234.01 4545.63 2231.95C4594.34 2229.58 4636.73 2222.44 4672.82 2210.54C4715.56 2196.45 4743.92 2178.67 4757.9 2157.22C4771.89 2135.76 4774.65 2112.21 4766.2 2086.57C4761.19 2071.37 4752.37 2059.01 4739.75 2049.48C4728.09 2039.64 4707.71 2032.14 4678.64 2026.99C4650.2 2020.57 4609.74 2014.43 4557.26 2008.57C4506.05 2003.34 4462.44 1995.61 4426.42 1985.38C4390.4 1975.14 4360.26 1958.76 4335.98 1936.23C4311.39 1912.75 4292.05 1879.64 4277.96 1836.9C4255.1 1767.57 4263.99 1706.73 4304.64 1654.36C4345.92 1600.74 4409.3 1559.83 4494.77 1531.65C4541.31 1516.31 4586.09 1506.81 4629.11 1503.15C4672.76 1498.23 4718.3 1499.01 4765.71 1505.49L4753.84 1656.3C4727.6 1653.36 4701.36 1652.01 4675.11 1652.25C4649.5 1651.21 4624.99 1651.92 4601.58 1654.38C4579.12 1656.52 4557.44 1661.03 4536.55 1667.92C4503.31 1678.88 4480.18 1693.36 4467.15 1711.34C4453.82 1728.37 4450.75 1747.81 4457.95 1769.65C4462.96 1784.85 4471.78 1797.21 4484.4 1806.74C4496.7 1815.32 4516.76 1821.86 4544.57 1826.38C4572.39 1830.9 4611.27 1835.45 4661.22 1840.04C4710.54 1842.73 4753.69 1849.04 4790.65 1858.96C4827.31 1867.93 4857.93 1884.16 4882.52 1907.64C4908.06 1930.81 4928.03 1964.24 4942.43 2007.92Z" fill="white"/>
<path d="M6214.72 1700.89C6216.53 1768.87 6209.63 1829.07 6194.02 1881.51C6178.41 1933.94 6154.6 1979.09 6122.6 2016.95C6091.57 2053.79 6053.31 2082.32 6007.83 2102.54C5962.33 2121.75 5911.09 2132.12 5854.11 2133.64C5801.12 2135.05 5751.4 2127.37 5704.94 2110.6C5659.45 2092.8 5619.73 2066.35 5585.79 2031.24C5552.81 1995.1 5526.64 1951.28 5507.26 1899.78C5487.88 1848.28 5477.29 1788.54 5475.48 1720.56C5473.09 1630.6 5485.56 1554.24 5512.9 1491.49C5541.22 1427.71 5582.94 1379.08 5638.07 1345.61C5693.17 1311.13 5759.21 1292.87 5836.18 1290.82C5908.15 1288.9 5972.07 1303.71 6027.93 1335.23C6083.76 1365.76 6128.01 1412.1 6160.67 1474.25C6194.31 1535.38 6212.33 1610.92 6214.72 1700.89ZM5677.91 1715.18C5679.43 1772.16 5686.73 1820.98 5699.82 1861.65C5712.88 1901.31 5731.68 1931.32 5756.23 1951.68C5781.78 1972 5814.05 1981.65 5853.03 1980.61C5892.02 1979.57 5923.23 1968.24 5946.66 1946.61C5971.1 1924.95 5988.28 1893.98 5998.21 1853.71C6009.11 1812.4 6013.81 1763.26 6012.29 1706.28C6010.75 1648.3 6003.46 1599.98 5990.43 1561.31C5977.37 1521.64 5958.08 1492.15 5932.55 1472.82C5908 1452.46 5876.24 1442.8 5837.25 1443.84C5778.27 1445.41 5736.4 1469.53 5711.63 1516.21C5686.86 1562.89 5675.62 1629.21 5677.91 1715.18Z" fill="white"/>
<path d="M6959.49 1386.57C7042.81 1403.4 7103.83 1439.71 7142.55 1495.48C7181.27 1551.26 7190.23 1630.6 7169.44 1733.52L7064.57 2252.53L6869.02 2213.02L6966.46 1730.77C6978.54 1670.98 6977.26 1624.3 6962.62 1590.73C6948.18 1556.19 6918.9 1534.46 6874.79 1525.55C6809.12 1512.28 6759.77 1526.79 6726.74 1569.09C6693.9 1610.4 6668.57 1675.17 6650.75 1763.38L6572.02 2153.01L6376.47 2113.5L6537.49 1316.6L6687.46 1346.91L6694.3 1456.94L6701.66 1458.43C6724.84 1434.55 6749.98 1416.16 6777.07 1403.27C6804.16 1390.38 6833.2 1382.99 6864.19 1381.09C6895.38 1378.21 6927.15 1380.03 6959.49 1386.57Z" fill="white"/>
<path d="M7937.71 2475.38C7957.19 2485.59 7976.72 2493.58 7996.29 2499.32C8017.21 2504.64 8037.03 2508.83 8055.76 2511.87L7990.28 2636.75C7967.51 2634.97 7941.44 2629.77 7912.08 2621.15C7882.26 2613.42 7850.97 2600.96 7818.2 2583.78C7777.46 2562.42 7744.63 2536.74 7719.71 2506.74C7695.26 2475.85 7682.56 2438.7 7681.61 2395.3C7681.54 2352.36 7697.29 2300.77 7728.87 2240.55L7925.3 1865.92L7834.96 1818.56L7873.27 1745.49L8004.88 1739.98L8138.12 1615.06L8249.71 1673.57L8166.83 1831.66L8352.81 1929.18L8286.64 2055.38L8100.65 1957.87L7904.92 2331.17C7887.28 2364.82 7881.57 2394.01 7887.81 2418.73C7895.39 2443.03 7912.02 2461.91 7937.71 2475.38Z" fill="white"/>
<path d="M8792.55 2150.16C8772.7 2175.26 8751.98 2199.04 8730.4 2221.49C8710.22 2243.78 8694.7 2260.19 8683.82 2270.72L8693.24 2278.16C8723.16 2266.12 8752.01 2260.26 8779.82 2260.57C8809.02 2260.72 8837.4 2265.95 8864.94 2276.25C8893.27 2287.18 8919.59 2302.26 8943.91 2321.49C8988.62 2356.85 9020.54 2395.48 9039.68 2437.38C9058.81 2479.28 9063.75 2524.63 9054.5 2573.4C9045.87 2621.4 9019.84 2672.85 8976.42 2727.76L8647.98 3143.08L8491.5 3019.34L8796.68 2633.42C8835.13 2584.79 8855.43 2542.2 8857.57 2505.64C8859.7 2469.08 8843.12 2436.85 8807.83 2408.94C8774.1 2382.26 8740.21 2369.49 8706.17 2370.62C8672.75 2370.97 8639.1 2384.51 8605.2 2411.25C8571.93 2437.21 8536.68 2473.72 8499.46 2520.78L8253.83 2831.39L8097.35 2707.65L8804.47 1813.45L8960.95 1937.2L8792.55 2150.16Z" fill="white"/>
<path d="M9637.82 3003.52C9682.01 3057.8 9708.26 3113.8 9716.57 3171.51C9726.28 3229.37 9718.65 3286.52 9693.68 3342.96C9669.48 3398.77 9627.14 3451.3 9566.65 3500.54L9492.21 3561.16L9177.78 3174.97C9121.66 3223.24 9088.43 3273.51 9078.1 3325.76C9069.18 3378.16 9084.61 3428.78 9124.39 3477.64C9155.96 3516.41 9187.93 3547.76 9220.31 3571.69C9253.46 3594.99 9291.06 3616.61 9333.08 3636.55L9215.6 3732.21C9176.87 3714.73 9141.08 3692.94 9108.21 3666.83C9075.34 3640.72 9039.97 3604.4 9002.09 3557.87C8954.1 3498.93 8923.12 3437.12 8909.13 3372.42C8896.55 3307.87 8903.88 3243.23 8931.12 3178.5C8958.37 3113.76 9007.66 3052.35 9079.01 2994.26C9151.12 2935.54 9221.08 2897.93 9288.88 2881.41C9357.45 2864.27 9421.19 2866.53 9480.1 2888.2C9540.42 2910.02 9592.99 2948.46 9637.82 3003.52ZM9531.53 3093.92C9503.12 3059.02 9467.28 3041.14 9424.01 3040.26C9382.15 3039.53 9334.82 3057.42 9282.04 3093.95L9475.24 3331.25C9504.71 3307.26 9527.21 3281.84 9542.76 3255C9558.3 3228.16 9565.33 3201.16 9563.85 3174C9563.77 3146.98 9553 3120.29 9531.53 3093.92Z" fill="white"/>
<path d="M9772.07 4990.43L9702.13 4800.39L10148.4 4636.17L10005.4 4247.64L9559.15 4411.87L9489.72 4223.24L10494.8 3853.34L10564.2 4041.97L10158.8 4191.17L10301.8 4579.7L10707.2 4430.49L10777.2 4620.53L9772.07 4990.43Z" fill="white"/>
<path d="M10652.1 5305.6L9850.16 5439.5L9817.55 5244.2L10619.4 5110.3L10652.1 5305.6ZM10945.2 5157.79C10950 5186.4 10946.7 5212.29 10935.4 5235.48C10925 5258.49 10901.6 5273.05 10865.1 5279.15C10829.6 5285.07 10802.2 5279 10783 5260.92C10764.7 5242.68 10753.2 5219.26 10748.4 5190.65C10743.3 5160.08 10746.4 5133.2 10757.8 5110.01C10770.1 5086.66 10794 5072.02 10829.5 5066.09C10866 5060 10892.9 5066.16 10910.2 5084.57C10928.4 5102.81 10940.1 5127.22 10945.2 5157.79Z" fill="white"/>
<path d="M9898.64 5890.99L9877.78 5692.58L11011.5 5573.42L11032.4 5771.83L9898.64 5890.99Z" fill="white"/>
<path d="M9917.33 6261.56L9908.63 6062.25L11047.5 6012.52L11056.2 6211.83L9917.33 6261.56Z" fill="white"/>
</g>
<defs>
<clipPath id="clip0_2_206">
<rect width="11664.7" height="8741" fill="white"/>
</clipPath>
</defs>
</svg>
