<svg width="12500" height="12500" viewBox="0 0 12500 12500" fill="none" xmlns="http://www.w3.org/2000/svg">
<mask id="mask0_12_35" style="mask-type:alpha" maskUnits="userSpaceOnUse" x="0" y="0" width="12500" height="12500">
<circle cx="6250" cy="6250" r="6250" fill="#002868"/>
</mask>
<g mask="url(#mask0_12_35)">
<path d="M6249.82 3125C7975.71 3125 9374.82 4524.11 9374.82 6250C9374.82 6774.97 9245.37 7269.7 9016.65 7704.03L6927.87 4005L5577.17 6396.32C5574.98 6405.28 5570.54 6411.27 5563.88 6417.25L5073.42 7289.15L5946.94 8837C5985.68 8904.28 5974.62 8999.99 5923.7 9052.37C5873.89 9104.7 5803.04 9089.75 5764.26 9020.97L4267.43 6372.42L3498.7 7733.47C3260.2 7292.12 3124.82 6786.87 3124.82 6250C3124.82 4524.11 4523.93 3125 6249.82 3125Z" fill="#FFD100"/>
<path d="M6250 0C9701.78 0 12500 2798.22 12500 6250C12500 9701.78 9701.78 12500 6250 12500C2798.22 12500 -0.00390625 9701.78 -0.00390625 6250C-0.00390625 2798.22 2798.22 0 6250 0ZM6249.96 3125C4524.08 3125 3124.96 4524.11 3124.96 6250C3124.96 7975.89 4524.08 9375 6249.96 9375C7975.85 9375 9374.96 7975.89 9374.96 6250C9374.96 4524.11 7975.85 3125 6249.96 3125Z" fill="#001970"/>
<path d="M10669.4 10669.4C9795.3 11543.5 8681.66 12138.7 7469.28 12379.9C6256.9 12621.1 5000.23 12497.3 3858.19 12024.2C2716.16 11551.2 1740.04 10750.1 1053.28 9722.31C366.521 8694.5 -0.0350801 7486.13 -0.0351562 6250C-0.0352324 5013.87 366.521 3805.49 1053.28 2777.68C1740.04 1749.88 2716.15 948.799 3858.19 475.751C5000.23 2.70341 6256.9 -121.068 7469.28 120.09C8681.66 361.247 9795.3 956.502 10669.4 1830.58L8459.67 4040.29C8022.63 3603.25 7465.81 3305.62 6859.62 3185.04C6253.43 3064.47 5625.1 3126.35 5054.08 3362.87C4483.06 3599.4 3995 3999.94 3651.62 4513.84C3308.24 5027.75 3124.96 5631.93 3124.96 6250C3124.96 6868.06 3308.24 7472.25 3651.62 7986.16C3995 8500.06 4483.06 8900.6 5054.08 9137.12C5625.1 9373.65 6253.43 9435.53 6859.62 9314.95C7465.81 9194.37 8022.63 8896.75 8459.67 8459.71L10669.4 10669.4Z" fill="#C3002F"/>
<path d="M2197.69 5943.26L2188.85 6145.56L1713.81 6124.82L1695.75 6538.43L2170.79 6559.17L2162.03 6759.98L1092.05 6713.26L1100.81 6512.45L1532.4 6531.3L1550.46 6117.69L1118.87 6098.85L1127.71 5896.54L2197.69 5943.26Z" fill="white"/>
<path d="M1524.86 5040.81C1553.93 4947.22 1598.15 4882.42 1657.5 4846.4C1715.9 4810.09 1791.42 4806.32 1884.05 4835.1L2405.48 4997.06L2364.1 5130.28L2245.09 5134.15L2243.31 5139.88C2264.48 5169.49 2281.2 5198.25 2293.48 5226.14C2304.8 5253.75 2309.84 5283.06 2308.58 5314.08C2308.27 5345.4 2301.89 5381.11 2289.43 5421.22C2276.08 5464.2 2255.48 5500.21 2227.61 5529.25C2199.74 5558.29 2165.02 5577.35 2123.46 5586.43C2080.94 5595.21 2032.46 5591.15 1978.03 5574.24C1897.81 5549.32 1846.25 5502.94 1823.34 5435.09C1799.48 5366.95 1802.85 5276.89 1833.43 5164.93L1867.85 5038.96L1829.17 5026.95C1779.51 5011.53 1740.91 5011.06 1713.38 5025.54C1685.84 5040.02 1666.44 5065.41 1655.17 5101.7C1644.49 5136.08 1639.39 5172.72 1639.88 5211.61C1640.66 5249.55 1643.5 5287.61 1648.39 5325.78L1504.09 5345.35C1496.2 5299.97 1493.46 5251.48 1495.88 5199.87C1498.29 5148.26 1507.96 5095.24 1524.86 5040.81ZM1957.53 5154.78C1939.33 5223.47 1938.5 5275.05 1955.02 5309.5C1970.59 5343.66 1998.91 5367.11 2039.97 5379.87C2076.26 5391.14 2105.34 5390.22 2127.21 5377.12C2149.38 5363.06 2165.21 5340.75 2174.7 5310.19C2188.65 5265.31 2185.71 5222.51 2165.89 5181.8C2145.12 5140.8 2105.13 5111.1 2045.92 5092.71L1980.03 5072.24L1957.53 5154.78Z" fill="white"/>
<path d="M2672.62 4462.3C2636.82 4528.2 2593.05 4578.4 2541.32 4612.89C2489.18 4646.02 2429.15 4661.21 2361.23 4658.45C2292.9 4654.34 2216.56 4629.37 2132.21 4583.55C2044.33 4535.82 1980.79 4483.1 1941.59 4425.38C1901.98 4366.31 1883.04 4304.81 1884.76 4240.88C1886.08 4175.6 1904.17 4110.88 1939.01 4046.73C1960.97 4006.31 1985.89 3970.91 2013.77 3940.54C2042.12 3909.28 2068.9 3885.14 2094.09 3868.09L2193.3 3990.27C2170.75 4008.74 2149.51 4027.93 2129.6 4047.84C2109.68 4067.75 2093.28 4089.56 2080.39 4113.29C2060.82 4149.32 2053.38 4183.97 2058.06 4217.24C2062.75 4250.51 2079.09 4283.28 2107.08 4315.56C2134.67 4346.48 2174.82 4376.25 2227.55 4404.89C2278.51 4432.58 2324.47 4449.58 2365.42 4455.89C2406.85 4461.32 2442.8 4456.95 2473.26 4442.77C2502.85 4428.12 2526.95 4403.65 2545.56 4369.38C2564.18 4335.11 2576.53 4300.85 2582.61 4266.6C2589.18 4231.48 2591.27 4196.2 2588.89 4160.77L2732.57 4238.81C2734.47 4275.12 2730.58 4310.56 2720.9 4345.14C2712.1 4380.19 2696.01 4419.24 2672.62 4462.3Z" fill="white"/>
<path d="M2538.13 3537.58C2558.1 3554.22 2578.59 3572.59 2599.6 3592.69C2619.83 3612.15 2639.36 3631.67 2658.18 3651.26L2662.02 3646.65C2656 3635.12 2650.82 3621.04 2646.46 3604.4C2641.33 3587.11 2636.91 3569.76 2633.2 3552.35C2629.35 3533.53 2626.34 3516.06 2624.16 3499.92L2562.45 3173.25L2706.45 3000.37L2787.01 3452.07L3342.64 3506.89L3195.75 3683.22L2787.24 3629.91L2790.53 3747.83L2997.98 3920.64L2871.26 4072.78L1995.34 3343.14L2122.07 3191L2538.13 3537.58Z" fill="white"/>
<path d="M3197.62 2536.87C3252.55 2493.47 3308.92 2468.04 3366.75 2460.58C3424.75 2451.72 3481.78 2460.18 3537.85 2485.98C3593.3 2510.99 3645.2 2554.1 3693.56 2615.3L3753.07 2690.62L3362.33 2999.36C3409.77 3056.19 3459.55 3090.14 3511.64 3101.23C3563.9 3110.92 3614.75 3096.24 3664.18 3057.18C3703.41 3026.18 3735.23 2994.67 3759.63 2962.64C3783.41 2929.83 3805.58 2892.56 3826.13 2850.83L3920.06 2969.7C3902.02 3008.17 3879.71 3043.64 3853.12 3076.12C3826.53 3108.6 3789.69 3143.44 3742.62 3180.64C3682.98 3227.76 3620.72 3257.84 3555.83 3270.88C3491.1 3282.51 3426.57 3274.23 3362.24 3246.05C3297.91 3217.86 3237.23 3167.67 3180.19 3095.48C3122.53 3022.51 3085.95 2952.01 3070.43 2883.98C3054.29 2815.17 3057.48 2751.47 3080.02 2692.88C3102.71 2632.89 3141.91 2580.89 3197.62 2536.87ZM3286.46 2644.46C3251.15 2672.36 3232.74 2707.94 3231.23 2751.19C3229.89 2793.04 3247.09 2840.62 3282.85 2893.93L3522.94 2704.22C3499.38 2674.41 3474.3 2651.53 3447.69 2635.6C3421.08 2619.66 3394.18 2612.24 3367 2613.32C3339.99 2613 3313.14 2623.38 3286.46 2644.46Z" fill="white"/>
<path d="M4157.84 1920.31C4170.21 1913.75 4183.25 1907.39 4196.97 1901.25C4210.69 1895.1 4222.67 1891.01 4232.91 1888.97L4299.27 2052.43C4289.5 2055.35 4278.19 2059.65 4265.36 2065.33C4252.94 2069.66 4240.1 2075.34 4226.85 2082.37C4204.77 2094.09 4185.47 2109.99 4168.96 2130.07C4151.98 2149.27 4139.55 2171.71 4131.67 2197.4C4123.32 2222.21 4120.65 2250.23 4123.64 2281.47C4127.52 2312.25 4138.83 2345.3 4157.58 2380.63L4355.15 2752.96L4178.92 2846.47L3797.84 2128.32L3932.99 2056.6L4022.94 2168.5L4032.21 2163.58C4031.87 2130.93 4036.02 2099.29 4044.67 2068.66C4053.74 2036.68 4067.36 2007.94 4085.53 1982.45C4104.59 1956.49 4128.69 1935.78 4157.84 1920.31Z" fill="white"/>
<path d="M5200.75 2153.02C5217.66 2204.3 5220.67 2251.75 5209.77 2295.35C5198.57 2338.01 5173.62 2375.71 5134.93 2408.48C5096.25 2441.24 5043.19 2468.74 4975.76 2490.97C4924.48 2507.88 4878.59 2518.8 4838.09 2523.73C4797.6 2528.66 4757.12 2528.84 4716.66 2524.28L4666.4 2371.86C4710.34 2377.37 4756.19 2379.1 4803.94 2377.05C4852.65 2374.67 4895.05 2367.54 4931.14 2355.64C4973.87 2341.55 5002.23 2323.77 5016.22 2302.31C5030.2 2280.86 5032.97 2257.3 5024.51 2231.66C5019.5 2216.47 5010.69 2204.11 4998.07 2194.58C4986.4 2184.74 4966.03 2177.24 4936.95 2172.09C4908.51 2165.67 4868.05 2159.53 4815.58 2153.67C4764.36 2148.44 4720.75 2140.71 4684.73 2130.47C4648.72 2120.24 4618.57 2103.85 4594.29 2081.32C4569.7 2057.84 4550.36 2024.73 4536.27 1982C4513.41 1912.67 4522.3 1851.82 4562.95 1799.46C4604.24 1745.84 4667.61 1704.93 4753.09 1676.75C4799.62 1661.4 4844.4 1651.9 4887.42 1648.25C4931.07 1643.33 4976.61 1644.11 5024.02 1650.59L5012.15 1801.39C4985.91 1798.46 4959.67 1797.11 4933.42 1797.34C4907.81 1796.31 4883.3 1797.02 4859.89 1799.48C4837.43 1801.62 4815.76 1806.13 4794.86 1813.02C4761.62 1823.98 4738.49 1838.45 4725.47 1856.44C4712.13 1873.47 4709.06 1892.91 4716.27 1914.75C4721.28 1929.95 4730.09 1942.31 4742.71 1951.83C4755.01 1960.41 4775.07 1966.96 4802.89 1971.48C4830.7 1976 4869.58 1980.55 4919.53 1985.14C4968.85 1987.83 5012 1994.13 5048.97 2004.06C5085.62 2013.03 5116.24 2029.26 5140.83 2052.74C5166.37 2075.91 5186.34 2109.33 5200.75 2153.02Z" fill="white"/>
<path d="M6564.71 1820.23C6566.52 1888.21 6559.61 1948.41 6544 2000.85C6528.39 2053.28 6504.59 2098.43 6472.58 2136.3C6441.55 2173.13 6403.3 2201.66 6357.82 2221.88C6312.31 2241.1 6261.07 2251.46 6204.09 2252.98C6151.11 2254.39 6101.39 2246.71 6054.93 2229.94C6009.44 2212.14 5969.72 2185.69 5935.77 2150.58C5902.8 2114.45 5876.62 2070.63 5857.25 2019.12C5837.87 1967.62 5827.28 1907.88 5825.47 1839.91C5823.07 1749.94 5835.55 1673.58 5862.89 1610.83C5891.2 1547.05 5932.92 1498.43 5988.05 1464.95C6043.15 1430.47 6109.19 1412.21 6186.16 1410.16C6258.14 1408.24 6322.05 1423.05 6377.91 1454.57C6433.75 1485.1 6477.99 1531.44 6510.66 1593.59C6544.3 1654.72 6562.31 1730.27 6564.71 1820.23ZM6027.9 1834.52C6029.41 1891.5 6036.71 1940.32 6049.8 1980.99C6062.86 2020.65 6081.67 2050.67 6106.22 2071.02C6131.77 2091.35 6164.03 2100.99 6203.02 2099.95C6242.01 2098.92 6273.22 2087.58 6296.65 2065.95C6321.08 2044.29 6338.26 2013.33 6348.2 1973.05C6359.1 1931.74 6363.79 1882.6 6362.28 1825.62C6360.74 1767.64 6353.45 1719.32 6340.41 1680.65C6327.35 1640.98 6308.06 1611.49 6282.54 1592.16C6257.99 1571.81 6226.22 1562.15 6187.24 1563.18C6128.26 1564.75 6086.38 1588.88 6061.62 1635.55C6036.85 1682.23 6025.61 1748.55 6027.9 1834.52Z" fill="white"/>
<path d="M7385.77 1503.85C7469.09 1520.68 7530.1 1556.99 7568.82 1612.76C7607.54 1668.54 7616.51 1747.88 7595.71 1850.8L7490.84 2369.81L7295.29 2330.3L7392.74 1848.05C7404.82 1788.26 7403.54 1741.58 7388.89 1708.01C7374.45 1673.47 7345.17 1651.74 7301.07 1642.83C7235.39 1629.56 7186.04 1644.07 7153.01 1686.37C7120.18 1727.68 7094.85 1792.45 7077.02 1880.66L6998.29 2270.29L6802.75 2230.78L6963.77 1433.88L7113.74 1464.19L7120.58 1574.22L7127.93 1575.71C7151.12 1551.83 7176.26 1533.44 7203.35 1520.55C7230.44 1507.66 7259.48 1500.27 7290.47 1498.37C7321.66 1495.49 7353.42 1497.31 7385.77 1503.85Z" fill="white"/>
<path d="M8471.2 2620.72C8490.69 2630.94 8510.22 2638.92 8529.79 2644.66C8550.71 2649.99 8570.53 2654.17 8589.26 2657.22L8523.78 2782.09C8501.01 2780.31 8474.94 2775.11 8445.58 2766.5C8415.76 2758.76 8384.47 2746.31 8351.7 2729.13C8310.96 2707.77 8278.13 2682.08 8253.21 2652.08C8228.76 2621.2 8216.06 2584.05 8215.1 2540.64C8215.04 2497.7 8230.79 2446.12 8262.37 2385.89L8458.8 2011.27L8368.46 1963.9L8406.77 1890.84L8538.38 1885.32L8671.62 1760.41L8783.21 1818.92L8700.32 1977.01L8886.31 2074.52L8820.14 2200.73L8634.15 2103.21L8438.42 2476.51C8420.78 2510.16 8415.07 2539.35 8421.3 2564.07C8428.89 2588.37 8445.52 2607.26 8471.2 2620.72Z" fill="white"/>
<path d="M9373.13 2318.91C9353.28 2344.01 9332.57 2367.79 9310.99 2390.24C9290.81 2412.53 9275.28 2428.94 9264.41 2439.46L9273.82 2446.91C9303.74 2434.87 9332.6 2429.01 9360.4 2429.32C9389.61 2429.47 9417.98 2434.69 9445.53 2445C9473.86 2455.93 9500.18 2471.01 9524.5 2490.24C9569.21 2525.59 9601.13 2564.22 9620.26 2606.13C9639.4 2648.03 9644.34 2693.37 9635.08 2742.15C9626.45 2790.15 9600.43 2841.6 9557.01 2896.5L9228.57 3311.83L9072.08 3188.09L9377.26 2802.17C9415.72 2753.54 9436.02 2710.95 9438.15 2674.39C9440.29 2637.83 9423.71 2605.6 9388.41 2577.68C9354.69 2551.01 9320.8 2538.24 9286.76 2539.37C9253.34 2539.71 9219.68 2553.26 9185.79 2580C9152.51 2605.95 9117.27 2642.46 9080.05 2689.53L8834.42 3000.14L8677.93 2876.39L9385.06 1982.2L9541.54 2105.95L9373.13 2318.91Z" fill="white"/>
<path d="M10280.8 3222.2C10325 3276.49 10351.2 3332.49 10359.5 3390.2C10369.2 3448.06 10361.6 3505.21 10336.6 3561.65C10312.4 3617.46 10270.1 3669.98 10209.6 3719.23L10135.2 3779.84L9820.75 3393.66C9764.62 3441.93 9731.4 3492.19 9721.07 3544.45C9712.15 3596.84 9727.58 3647.47 9767.35 3696.32C9798.92 3735.1 9830.9 3766.45 9863.28 3790.38C9896.43 3813.68 9934.02 3835.3 9976.05 3855.24L9858.56 3950.89C9819.84 3933.42 9784.04 3911.63 9751.18 3885.52C9718.31 3859.41 9682.94 3823.09 9645.05 3776.56C9597.07 3717.62 9566.08 3655.81 9552.09 3591.11C9539.51 3526.56 9546.85 3461.92 9574.09 3397.18C9601.33 3332.45 9650.63 3271.04 9721.97 3212.95C9794.09 3154.23 9864.05 3116.61 9931.84 3100.1C10000.4 3082.96 10064.2 3085.22 10123.1 3106.89C10183.4 3128.71 10236 3167.15 10280.8 3222.2ZM10174.5 3312.61C10146.1 3277.71 10110.2 3259.82 10067 3258.95C10025.1 3258.21 9977.79 3276.11 9925 3312.64L10118.2 3549.94C10147.7 3525.95 10170.2 3500.53 10185.7 3473.69C10201.3 3446.85 10208.3 3419.85 10206.8 3392.68C10206.7 3365.67 10196 3338.97 10174.5 3312.61Z" fill="white"/>
<path d="M10478.3 5292.72L10408.4 5102.68L10854.6 4938.45L10711.6 4549.93L10265.4 4714.16L10196 4525.53L11201.1 4155.63L11270.5 4344.26L10865.1 4493.46L11008.1 4881.99L11413.5 4732.78L11483.4 4922.82L10478.3 5292.72Z" fill="white"/>
<path d="M11387.9 5696.06L10586 5829.96L10553.4 5634.66L11355.3 5500.76L11387.9 5696.06ZM11681 5548.25C11685.8 5576.86 11682.5 5602.75 11671.2 5625.94C11660.8 5648.96 11637.4 5663.51 11600.9 5669.61C11565.4 5675.53 11538 5669.46 11518.8 5651.38C11500.5 5633.14 11489 5609.72 11484.3 5581.11C11479.1 5550.54 11482.3 5523.66 11493.6 5500.47C11505.9 5477.12 11529.8 5462.48 11565.3 5456.56C11601.8 5450.46 11628.7 5456.62 11646 5475.03C11664.2 5493.27 11675.9 5517.68 11681 5548.25Z" fill="white"/>
<path d="M10640 6319.03L10619.2 6120.62L11752.9 6001.46L11773.8 6199.87L10640 6319.03Z" fill="white"/>
<path d="M10661.8 6720.99L10653.1 6521.68L11792 6471.95L11800.7 6671.26L10661.8 6720.99Z" fill="white"/>
<path d="M3369.55 10965V10835.1H3516.16V9917.09H3369.55V9788.8H3871.02C3969.31 9788.8 4042.61 9793.8 4120.92 9817.13C4345.83 9887.1 4492.43 10090.3 4492.43 10376.9C4492.43 10661.8 4350.82 10860 4120.92 10933.3C4044.28 10958.3 3965.98 10965 3872.68 10965H3369.55ZM3682.76 10828.4H3862.69C3939.32 10828.4 4002.63 10821.7 4062.61 10798.4C4220.88 10743.4 4319.17 10591.8 4319.17 10376.9C4319.17 10160.3 4220.88 10008.7 4064.27 9952.07C3999.3 9928.75 3939.32 9925.42 3862.69 9925.42H3682.76V10828.4ZM4647.87 10543.5C4647.87 10275.3 4829.46 10102 5069.36 10102C5309.27 10102 5434.22 10278.6 5434.22 10496.9C5434.22 10518.5 5429.22 10558.5 5429.22 10558.5H4812.8C4822.8 10745.1 4954.41 10845 5104.35 10845C5250.96 10845 5355.92 10750.1 5355.92 10750.1L5422.56 10868.4C5422.56 10868.4 5295.94 10985 5094.35 10985C4829.46 10985 4647.87 10793.4 4647.87 10543.5ZM4819.46 10455.2H5267.62C5262.62 10306.9 5172.66 10230.3 5066.03 10230.3C4942.75 10230.3 4842.79 10313.6 4819.46 10455.2ZM5583.64 10965V10840H5715.25V10283.6C5715.25 10258.6 5701.92 10247 5678.6 10247H5575.31V10122H5765.23C5838.54 10122 5871.86 10153.7 5871.86 10215.3V10258.6C5871.86 10285.3 5866.86 10306.9 5866.86 10306.9H5870.19C5886.85 10261.9 5985.14 10102 6198.39 10102C6391.65 10102 6478.28 10210.3 6478.28 10425.2V10840H6611.56V10965H6316.68V10461.9C6316.68 10343.6 6293.35 10250.3 6158.41 10250.3C5988.48 10250.3 5876.85 10405.2 5876.85 10573.5V10840H6010.13V10965H5583.64ZM6644.52 10247V10122H7022.7V10247H6914.41L7092.67 10738.4C7106 10775.1 7111 10816.7 7111 10816.7H7115.99C7115.99 10816.7 7120.99 10775.1 7134.32 10738.4L7314.25 10247H7205.96V10122H7582.47V10247H7477.52L7204.29 10965H7022.7L6751.14 10247H6644.52ZM7659.36 10543.5C7659.36 10275.3 7840.95 10102 8080.85 10102C8320.76 10102 8445.71 10278.6 8445.71 10496.9C8445.71 10518.5 8440.71 10558.5 8440.71 10558.5H7824.29C7834.29 10745.1 7965.9 10845 8115.84 10845C8262.45 10845 8367.41 10750.1 8367.41 10750.1L8434.05 10868.4C8434.05 10868.4 8307.43 10985 8105.84 10985C7840.95 10985 7659.36 10793.4 7659.36 10543.5ZM7830.95 10455.2H8279.11C8274.11 10306.9 8184.15 10230.3 8077.52 10230.3C7954.24 10230.3 7854.28 10313.6 7830.95 10455.2ZM8598.46 10965V10840H8725.08V10283.6C8725.08 10258.6 8711.75 10247 8688.42 10247H8583.47V10122H8773.39C8846.69 10122 8881.68 10152 8881.68 10220.3V10273.6C8881.68 10306.9 8878.35 10331.9 8878.35 10331.9H8881.68C8920 10208.6 9018.29 10112 9148.24 10112C9169.9 10112 9189.89 10115.3 9189.89 10115.3V10275.3C9189.89 10275.3 9169.9 10270.3 9143.24 10270.3C8963.31 10270.3 8886.68 10451.9 8886.68 10616.8V10840H9011.63V10965H8598.46Z" fill="white"/>
</g>
</svg>
