<svg width="12569" height="12500" viewBox="0 0 12569 12500" fill="none" xmlns="http://www.w3.org/2000/svg">
<circle cx="6319" cy="6250" r="6250" fill="#002868"/>
<circle cx="6319" cy="6250" r="3125" fill="#FFD700"/>
<path d="M6594.03 10125H9444.1L6590.68 4954L5567.41 6807.9C5565.74 6814.85 5562.38 6819.49 5557.33 6824.13L5185.77 7500.08L5847.54 8700.07C5876.89 8752.23 5868.51 8826.43 5829.93 8867.03C5792.2 8907.61 5738.52 8896.02 5709.14 8842.69L4575.15 6789.37L2734.1 10125H6590.67H6594L6594.03 10125Z" fill="#BA00FE"/>
<path d="M10738.4 10669.4C9864.34 11543.5 8750.7 12138.8 7538.32 12379.9C6325.94 12621.1 5069.27 12497.3 3927.23 12024.2C2785.19 11551.2 1809.08 10750.1 1122.32 9722.32C435.56 8694.51 69.004 7486.14 69.0039 6250C69.0038 5013.87 435.56 3805.5 1122.32 2777.69C1809.08 1749.88 2785.19 948.803 3927.23 475.755C5069.27 2.70731 6325.94 -121.064 7538.32 120.094C8750.7 361.251 9864.34 956.506 10738.4 1830.58L8528.71 4040.29C8091.67 3603.25 7534.85 3305.63 6928.66 3185.05C6322.47 3064.47 5694.14 3126.35 5123.12 3362.88C4552.1 3599.4 4064.04 3999.94 3720.66 4513.85C3377.28 5027.75 3194 5631.94 3194 6250C3194 6868.07 3377.28 7472.26 3720.66 7986.16C4064.04 8500.06 4552.1 8900.6 5123.12 9137.13C5694.14 9373.65 6322.47 9435.53 6928.66 9314.96C7534.85 9194.38 8091.67 8896.75 8528.71 8459.71L10738.4 10669.4Z" fill="#BF0A30"/>
<path d="M2266.36 5943.26L2257.53 6145.57L1782.48 6124.82L1764.42 6538.43L2239.47 6559.17L2230.7 6759.98L1160.72 6713.26L1169.49 6512.45L1601.07 6531.3L1619.13 6117.69L1187.54 6098.85L1196.38 5896.54L2266.36 5943.26Z" fill="white"/>
<path d="M1593.54 5040.81C1622.61 4947.22 1666.82 4882.42 1726.18 4846.41C1784.58 4810.09 1860.09 4806.32 1952.73 4835.1L2474.15 4997.06L2432.77 5130.28L2313.77 5134.15L2311.99 5139.88C2333.16 5169.49 2349.88 5198.25 2362.16 5226.15C2373.48 5253.75 2378.51 5283.06 2377.25 5314.08C2376.95 5345.4 2370.57 5381.12 2358.11 5421.23C2344.76 5464.2 2324.15 5500.21 2296.28 5529.25C2268.41 5558.29 2233.7 5577.35 2192.13 5586.43C2149.62 5595.21 2101.14 5591.15 2046.7 5574.24C1966.49 5549.32 1914.92 5502.94 1892.02 5435.09C1868.16 5366.95 1871.52 5276.89 1902.11 5164.93L1936.52 5038.97L1897.85 5026.95C1848.19 5011.53 1809.59 5011.06 1782.05 5025.54C1754.52 5040.03 1735.11 5065.41 1723.84 5101.7C1713.16 5136.08 1708.07 5172.72 1708.55 5211.61C1709.33 5249.55 1712.17 5287.61 1717.07 5325.78L1572.77 5345.36C1564.87 5299.97 1562.14 5251.48 1564.55 5199.87C1566.97 5148.27 1576.63 5095.25 1593.54 5040.81ZM2026.21 5154.78C2008.01 5223.48 2007.17 5275.05 2023.7 5309.5C2039.27 5343.66 2067.58 5367.11 2108.65 5379.87C2144.94 5391.14 2174.02 5390.22 2195.89 5377.12C2218.06 5363.06 2233.89 5340.76 2243.38 5310.2C2257.32 5265.31 2254.38 5222.51 2234.57 5181.8C2213.8 5140.8 2173.81 5111.1 2114.6 5092.71L2048.7 5072.24L2026.21 5154.78Z" fill="white"/>
<path d="M2741.3 4462.3C2705.5 4528.21 2661.73 4578.4 2609.99 4612.89C2557.86 4646.02 2497.83 4661.21 2429.9 4658.45C2361.58 4654.34 2285.24 4629.38 2200.88 4583.55C2113.01 4535.82 2049.47 4483.1 2010.26 4425.39C1970.65 4366.32 1951.71 4304.82 1953.44 4240.89C1954.76 4175.6 1972.84 4110.88 2007.69 4046.74C2029.64 4006.32 2054.56 3970.92 2082.44 3940.54C2110.8 3909.29 2137.57 3885.14 2162.76 3868.09L2261.98 3990.27C2239.43 4008.74 2218.19 4027.93 2198.27 4047.84C2178.36 4067.75 2161.95 4089.56 2149.07 4113.29C2129.49 4149.32 2122.05 4183.97 2126.74 4217.24C2131.43 4250.51 2147.77 4283.29 2175.75 4315.56C2203.34 4346.48 2243.5 4376.26 2296.22 4404.9C2347.19 4432.58 2393.15 4449.58 2434.1 4455.89C2475.53 4461.33 2511.48 4456.95 2541.94 4442.78C2571.52 4428.12 2595.62 4403.66 2614.24 4369.38C2632.85 4335.11 2645.2 4300.86 2651.29 4266.61C2657.85 4231.48 2659.95 4196.2 2657.57 4160.77L2801.24 4238.81C2803.14 4275.12 2799.25 4310.56 2789.58 4345.14C2780.78 4380.19 2764.68 4419.24 2741.3 4462.3Z" fill="white"/>
<path d="M2606.8 3537.59C2626.78 3554.23 2647.27 3572.6 2668.27 3592.69C2688.51 3612.15 2708.03 3631.67 2726.86 3651.26L2730.7 3646.65C2724.68 3635.13 2719.49 3621.04 2715.14 3604.4C2710.01 3587.12 2705.59 3569.77 2701.87 3552.36C2698.03 3533.54 2695.02 3516.06 2692.84 3499.93L2631.12 3173.25L2775.13 3000.38L2855.69 3452.07L3411.32 3506.89L3264.43 3683.23L2855.92 3629.92L2859.21 3747.84L3066.66 3920.65L2939.93 4072.78L2064.02 3343.14L2190.74 3191.01L2606.8 3537.59Z" fill="white"/>
<path d="M3266.3 2536.87C3321.22 2493.47 3377.6 2468.04 3435.43 2460.58C3493.42 2451.72 3550.46 2460.19 3606.52 2485.98C3661.97 2510.99 3713.87 2554.1 3762.23 2615.3L3821.75 2690.62L3431 2999.37C3478.45 3056.19 3528.22 3090.15 3580.32 3101.24C3632.58 3110.92 3683.42 3096.24 3732.86 3057.18C3772.09 3026.18 3803.9 2994.67 3828.3 2962.64C3852.08 2929.84 3874.25 2892.56 3894.81 2850.83L3988.73 2969.7C3970.7 3008.17 3948.38 3043.64 3921.79 3076.13C3895.2 3108.61 3858.37 3143.44 3811.29 3180.64C3751.66 3227.76 3689.4 3257.84 3624.51 3270.88C3559.78 3282.51 3495.25 3274.24 3430.92 3246.05C3366.59 3217.86 3305.9 3167.67 3248.87 3095.49C3191.21 3022.52 3154.62 2952.02 3139.1 2883.98C3122.96 2815.17 3126.16 2751.47 3148.69 2692.88C3171.39 2632.89 3210.59 2580.89 3266.3 2536.87ZM3355.14 2644.47C3319.83 2672.36 3301.42 2707.94 3299.91 2751.19C3298.56 2793.04 3315.77 2840.62 3351.52 2893.94L3591.62 2704.23C3568.06 2674.41 3542.97 2651.53 3516.36 2635.6C3489.75 2619.67 3462.86 2612.24 3435.68 2613.33C3408.66 2613.01 3381.81 2623.39 3355.14 2644.47Z" fill="white"/>
<path d="M4226.52 1920.31C4238.88 1913.75 4251.93 1907.4 4265.64 1901.25C4279.36 1895.1 4291.34 1891.01 4301.58 1888.97L4367.94 2052.44C4358.17 2055.36 4346.87 2059.66 4334.03 2065.33C4321.61 2069.66 4308.78 2075.34 4295.53 2082.37C4273.44 2094.09 4254.15 2109.99 4237.63 2130.07C4220.65 2149.27 4208.22 2171.72 4200.34 2197.41C4192 2222.21 4189.32 2250.24 4192.31 2281.48C4196.19 2312.25 4207.5 2345.3 4226.25 2380.64L4423.82 2752.97L4247.6 2846.48L3866.52 2128.32L4001.67 2056.61L4091.61 2168.5L4100.89 2163.58C4100.54 2130.93 4104.7 2099.29 4113.35 2068.66C4122.42 2036.68 4136.04 2007.95 4154.21 1982.46C4173.26 1956.5 4197.37 1935.78 4226.52 1920.31Z" fill="white"/>
<path d="M5269.42 2153.02C5286.33 2204.31 5289.34 2251.75 5278.45 2295.36C5267.24 2338.01 5242.3 2375.72 5203.61 2408.48C5164.92 2441.24 5111.87 2468.74 5044.44 2490.97C4993.15 2507.89 4947.26 2518.8 4906.77 2523.73C4866.28 2528.66 4825.8 2528.85 4785.34 2524.29L4735.08 2371.86C4779.01 2377.38 4824.86 2379.11 4872.62 2377.05C4921.33 2374.68 4963.72 2367.54 4999.81 2355.64C5042.55 2341.55 5070.91 2323.78 5084.89 2302.32C5098.88 2280.86 5101.64 2257.31 5093.19 2231.67C5088.18 2216.47 5079.36 2204.11 5066.74 2194.58C5055.07 2184.74 5034.7 2177.24 5005.63 2172.09C4977.19 2165.67 4936.73 2159.53 4884.25 2153.67C4833.04 2148.45 4789.43 2140.71 4753.41 2130.48C4717.39 2120.24 4687.25 2103.86 4662.97 2081.33C4638.38 2057.85 4619.04 2024.74 4604.95 1982C4582.09 1912.67 4590.98 1851.83 4631.63 1799.47C4672.91 1745.84 4736.29 1704.94 4821.76 1676.75C4868.3 1661.41 4913.08 1651.91 4956.09 1648.25C4999.75 1643.34 5045.28 1644.12 5092.7 1650.59L5080.82 1801.4C5054.59 1798.47 5028.34 1797.12 5002.1 1797.35C4976.49 1796.31 4951.98 1797.03 4928.57 1799.48C4906.11 1801.62 4884.43 1806.14 4863.54 1813.02C4830.3 1823.99 4807.17 1838.46 4794.14 1856.44C4780.81 1873.47 4777.74 1892.91 4784.94 1914.75C4789.95 1929.95 4798.77 1942.31 4811.38 1951.84C4823.69 1960.42 4843.75 1966.96 4871.56 1971.48C4899.38 1976 4938.26 1980.55 4988.21 1985.14C5037.53 1987.83 5080.67 1994.14 5117.64 2004.06C5154.29 2013.03 5184.92 2029.26 5209.51 2052.74C5235.05 2075.91 5255.02 2109.34 5269.42 2153.02Z" fill="white"/>
<path d="M6633.38 1820.24C6635.19 1888.21 6628.29 1948.42 6612.68 2000.85C6597.07 2053.28 6573.26 2098.43 6541.26 2136.3C6510.23 2173.14 6471.97 2201.66 6426.49 2221.88C6380.99 2241.1 6329.75 2251.47 6272.77 2252.98C6219.79 2254.39 6170.06 2246.71 6123.6 2229.94C6078.11 2212.15 6038.39 2185.69 6004.45 2150.58C5971.47 2114.45 5945.3 2070.63 5925.92 2019.13C5906.55 1967.62 5895.95 1907.88 5894.14 1839.91C5891.75 1749.94 5904.22 1673.58 5931.56 1610.83C5959.88 1547.06 6001.6 1498.43 6056.73 1464.95C6111.83 1430.47 6177.87 1412.21 6254.84 1410.16C6326.81 1408.25 6390.73 1423.05 6446.59 1454.58C6502.42 1485.1 6546.67 1531.44 6579.33 1593.59C6612.97 1654.72 6630.99 1730.27 6633.38 1820.24ZM6096.57 1834.52C6098.09 1891.5 6105.39 1940.32 6118.48 1980.99C6131.54 2020.66 6150.34 2050.67 6174.89 2071.02C6200.44 2091.35 6232.71 2100.99 6271.7 2099.96C6310.68 2098.92 6341.89 2087.58 6365.32 2065.95C6389.76 2044.3 6406.94 2013.33 6416.87 1973.05C6427.78 1931.74 6432.47 1882.6 6430.95 1825.62C6429.41 1767.64 6422.12 1719.32 6409.09 1680.65C6396.03 1640.99 6376.74 1611.49 6351.22 1592.16C6326.67 1571.81 6294.9 1562.15 6255.91 1563.19C6196.93 1564.76 6155.06 1588.88 6130.29 1635.55C6105.52 1682.23 6094.28 1748.55 6096.57 1834.52Z" fill="white"/>
<path d="M7454.44 1503.85C7537.76 1520.69 7598.78 1556.99 7637.5 1612.76C7676.22 1668.54 7685.18 1747.88 7664.38 1850.8L7559.51 2369.82L7363.96 2330.3L7461.41 1848.05C7473.49 1788.26 7472.21 1741.58 7457.57 1708.01C7443.12 1673.47 7413.85 1651.74 7369.74 1642.83C7304.06 1629.56 7254.71 1644.07 7221.68 1686.37C7188.85 1727.68 7163.52 1792.45 7145.69 1880.67L7066.97 2270.29L6871.42 2230.78L7032.44 1433.89L7182.41 1464.19L7189.25 1574.22L7196.6 1575.71C7219.79 1551.83 7244.93 1533.44 7272.02 1520.55C7299.11 1507.66 7328.15 1500.27 7359.14 1498.37C7390.33 1495.49 7422.09 1497.32 7454.44 1503.85Z" fill="white"/>
<path d="M8539.88 2620.73C8559.36 2630.94 8578.89 2638.92 8598.46 2644.67C8619.38 2649.99 8639.2 2654.18 8657.93 2657.22L8592.45 2782.1C8569.68 2780.32 8543.61 2775.12 8514.25 2766.5C8484.44 2758.77 8453.14 2746.31 8420.37 2729.13C8379.63 2707.77 8346.8 2682.09 8321.89 2652.09C8297.43 2621.2 8284.73 2584.05 8283.78 2540.65C8283.71 2497.7 8299.46 2446.12 8331.04 2385.9L8527.47 2011.27L8437.13 1963.91L8475.44 1890.84L8607.05 1885.32L8740.29 1760.41L8851.89 1818.92L8769 1977.01L8954.98 2074.53L8888.81 2200.73L8702.82 2103.21L8507.1 2476.51C8489.45 2510.17 8483.74 2539.36 8489.98 2564.08C8497.56 2588.38 8514.19 2607.26 8539.88 2620.73Z" fill="white"/>
<path d="M9441.81 2318.91C9421.96 2344.01 9401.25 2367.79 9379.67 2390.24C9359.49 2412.53 9343.96 2428.94 9333.09 2439.47L9342.5 2446.91C9372.42 2434.87 9401.28 2429.01 9429.08 2429.32C9458.29 2429.47 9486.66 2434.7 9514.21 2445C9542.54 2455.93 9568.86 2471.01 9593.18 2490.24C9637.89 2525.6 9669.81 2564.23 9688.94 2606.13C9708.08 2648.03 9713.02 2693.37 9703.76 2742.15C9695.13 2790.15 9669.11 2841.6 9625.69 2896.51L9297.25 3311.83L9140.76 3188.09L9445.94 2802.17C9484.4 2753.54 9504.7 2710.95 9506.83 2674.39C9508.97 2637.83 9492.39 2605.6 9457.09 2577.69C9423.37 2551.01 9389.48 2538.24 9355.44 2539.37C9322.02 2539.72 9288.36 2553.26 9254.47 2580C9221.19 2605.96 9185.95 2642.47 9148.73 2689.53L8903.1 3000.14L8746.61 2876.4L9453.74 1982.2L9610.22 2105.95L9441.81 2318.91Z" fill="white"/>
<path d="M10349.5 3222.21C10393.7 3276.49 10419.9 3332.49 10428.2 3390.2C10437.9 3448.06 10430.3 3505.21 10405.3 3561.65C10381.1 3617.46 10338.8 3669.99 10278.3 3719.23L10203.8 3779.85L9889.42 3393.66C9833.29 3441.93 9800.07 3492.2 9789.74 3544.45C9780.82 3596.85 9796.25 3647.47 9836.03 3696.33C9867.6 3735.1 9899.57 3766.45 9931.95 3790.38C9965.1 3813.68 10002.7 3835.3 10044.7 3855.24L9927.24 3950.9C9888.51 3933.43 9852.71 3911.63 9819.85 3885.52C9786.98 3859.41 9751.61 3823.09 9713.72 3776.56C9665.74 3717.62 9634.75 3655.81 9620.77 3591.12C9608.19 3526.56 9615.52 3461.92 9642.76 3397.19C9670.01 3332.45 9719.3 3271.04 9790.64 3212.95C9862.76 3154.23 9932.72 3116.62 10000.5 3100.1C10069.1 3082.96 10132.8 3085.22 10191.7 3106.89C10252.1 3128.71 10304.6 3167.15 10349.5 3222.21ZM10243.2 3312.61C10214.8 3277.71 10178.9 3259.83 10135.6 3258.95C10093.8 3258.22 10046.5 3276.11 9993.67 3312.65L10186.9 3549.94C10216.3 3525.95 10238.8 3500.53 10254.4 3473.69C10269.9 3446.85 10277 3419.85 10275.5 3392.69C10275.4 3365.67 10264.6 3338.98 10243.2 3312.61Z" fill="white"/>
<path d="M10547 5292.72L10477.1 5102.69L10923.3 4938.46L10780.3 4549.93L10334.1 4714.16L10264.6 4525.53L11269.7 4155.63L11339.2 4344.26L10933.7 4493.47L11076.7 4881.99L11482.1 4732.79L11552.1 4922.83L10547 5292.72Z" fill="white"/>
<path d="M11456.5 5696.06L10654.6 5829.96L10622 5634.66L11423.9 5500.76L11456.5 5696.06ZM11749.7 5548.26C11754.5 5576.86 11751.2 5602.75 11739.9 5625.94C11729.5 5648.96 11706.1 5663.51 11669.6 5669.61C11634.1 5675.54 11606.7 5669.46 11587.5 5651.38C11569.2 5633.14 11557.7 5609.72 11552.9 5581.11C11547.8 5550.54 11550.9 5523.66 11562.3 5500.47C11574.6 5477.13 11598.5 5462.49 11634 5456.56C11670.5 5450.46 11697.4 5456.62 11714.7 5475.03C11732.9 5493.27 11744.6 5517.68 11749.7 5548.26Z" fill="white"/>
<path d="M10708.7 6319.03L10687.8 6120.62L11821.6 6001.46L11842.5 6199.87L10708.7 6319.03Z" fill="white"/>
<path d="M10730.5 6720.99L10721.8 6521.68L11860.7 6471.96L11869.4 6671.27L10730.5 6720.99Z" fill="white"/>
<path d="M4663.34 10427.9C4663.34 10527.9 4645.43 10611.6 4609.59 10679.1C4574.59 10746.6 4523.76 10797.4 4457.09 10831.6C4390.43 10865.8 4310.43 10882.9 4217.09 10882.9H3972.09V9990.36H4242.09C4328.76 9990.36 4403.76 10007 4467.09 10040.4C4530.43 10073.7 4578.76 10122.9 4612.09 10187.9C4646.26 10252 4663.34 10332 4663.34 10427.9ZM4488.34 10432.9C4488.34 10362 4478.76 10303.7 4459.59 10257.9C4441.26 10212 4413.34 10178.3 4375.84 10156.6C4339.18 10134.1 4293.76 10122.9 4239.59 10122.9H4139.59V10749.1H4220.84C4310.84 10749.1 4377.93 10722.9 4422.09 10670.4C4466.26 10617 4488.34 10537.9 4488.34 10432.9ZM5212.6 10192.9C5270.93 10192.9 5320.93 10205.4 5362.6 10230.4C5405.1 10254.5 5438.02 10289.5 5461.35 10335.4C5484.68 10380.4 5496.35 10435.4 5496.35 10500.4V10580.4H5081.35C5083.02 10642 5098.02 10689.9 5126.35 10724.1C5155.52 10757.4 5196.35 10774.1 5248.85 10774.1C5290.52 10774.1 5327.6 10769.9 5360.1 10761.6C5392.6 10752.4 5426.35 10739.5 5461.35 10722.9V10849.1C5429.68 10864.9 5396.77 10876.6 5362.6 10884.1C5328.43 10891.6 5286.35 10895.4 5236.35 10895.4C5173.02 10895.4 5116.77 10882.9 5067.6 10857.9C5019.27 10832 4981.35 10793.3 4953.85 10741.6C4926.35 10689.9 4912.6 10625.8 4912.6 10549.1C4912.6 10471.6 4925.1 10406.6 4950.1 10354.1C4975.1 10300.8 5010.1 10260.8 5055.1 10234.1C5100.93 10206.6 5153.43 10192.9 5212.6 10192.9ZM5215.1 10309.1C5177.6 10309.1 5147.18 10322.9 5123.85 10350.4C5101.35 10377 5088.02 10417 5083.85 10470.4H5338.85C5338.85 10438.7 5334.27 10410.8 5325.1 10386.6C5315.93 10362.4 5302.18 10343.7 5283.85 10330.4C5266.35 10316.2 5243.43 10309.1 5215.1 10309.1ZM6119.74 10192.9C6190.57 10192.9 6246.41 10212.4 6287.24 10251.6C6328.07 10290.8 6348.49 10354.1 6348.49 10441.6V10882.9H6182.24V10472.9C6182.24 10422 6173.49 10384.1 6155.99 10359.1C6138.49 10333.3 6110.99 10320.4 6073.49 10320.4C6017.66 10320.4 5979.74 10340.4 5959.74 10380.4C5939.74 10419.5 5929.74 10476.6 5929.74 10551.6V10882.9H5763.49V10205.4H5890.99L5914.74 10294.1H5920.99C5935.99 10270.8 5953.49 10251.6 5973.49 10236.6C5993.49 10221.6 6015.99 10210.8 6040.99 10204.1C6065.99 10196.6 6092.24 10192.9 6119.74 10192.9ZM6803.96 10882.9L6560.21 10205.4H6733.96L6855.21 10596.6C6861.04 10612.4 6865.63 10629.9 6868.96 10649.1C6873.13 10667.4 6876.88 10685.8 6880.21 10704.1C6883.54 10721.6 6885.21 10737 6885.21 10750.4H6890.21C6891.88 10736.2 6893.96 10720.4 6896.46 10702.9C6899.79 10684.5 6903.96 10666.2 6908.96 10647.9C6913.96 10629.5 6918.54 10612.4 6922.71 10596.6L7045.21 10205.4H7218.96L6975.21 10882.9H6803.96ZM7700.64 10192.9C7758.97 10192.9 7808.97 10205.4 7850.64 10230.4C7893.14 10254.5 7926.06 10289.5 7949.39 10335.4C7972.72 10380.4 7984.39 10435.4 7984.39 10500.4V10580.4H7569.39C7571.06 10642 7586.06 10689.9 7614.39 10724.1C7643.56 10757.4 7684.39 10774.1 7736.89 10774.1C7778.56 10774.1 7815.64 10769.9 7848.14 10761.6C7880.64 10752.4 7914.39 10739.5 7949.39 10722.9V10849.1C7917.72 10864.9 7884.81 10876.6 7850.64 10884.1C7816.47 10891.6 7774.39 10895.4 7724.39 10895.4C7661.06 10895.4 7604.81 10882.9 7555.64 10857.9C7507.31 10832 7469.39 10793.3 7441.89 10741.6C7414.39 10689.9 7400.64 10625.8 7400.64 10549.1C7400.64 10471.6 7413.14 10406.6 7438.14 10354.1C7463.14 10300.8 7498.14 10260.8 7543.14 10234.1C7588.97 10206.6 7641.47 10192.9 7700.64 10192.9ZM7703.14 10309.1C7665.64 10309.1 7635.22 10322.9 7611.89 10350.4C7589.39 10377 7576.06 10417 7571.89 10470.4H7826.89C7826.89 10438.7 7822.31 10410.8 7813.14 10386.6C7803.97 10362.4 7790.22 10343.7 7771.89 10330.4C7754.39 10316.2 7731.47 10309.1 7703.14 10309.1ZM8597.78 10192.9C8609.44 10192.9 8621.53 10193.3 8634.03 10194.1C8646.53 10194.9 8656.94 10196.6 8665.28 10199.1L8650.28 10345.4C8641.94 10343.7 8631.94 10342.4 8620.28 10341.6C8609.44 10339.9 8597.78 10339.1 8585.28 10339.1C8564.44 10339.1 8544.03 10343.3 8524.03 10351.6C8504.03 10359.1 8486.11 10370.8 8470.28 10386.6C8454.44 10401.6 8441.53 10421.2 8431.53 10445.4C8422.36 10469.5 8417.78 10498.3 8417.78 10531.6V10882.9H8251.53V10205.4H8379.03L8401.53 10322.9H8410.28C8422.78 10298.7 8438.19 10277 8456.53 10257.9C8475.69 10237.9 8496.94 10222 8520.28 10210.4C8544.44 10198.7 8570.28 10192.9 8597.78 10192.9Z" fill="white"/>
</svg>
